<svg width="1440" height="673" viewBox="0 0 1440 673" fill="none" xmlns="http://www.w3.org/2000/svg">
<g clip-path="url(#clip0_678_1768)">
<rect width="1440" height="673" fill="#E6FFF3" fill-opacity="0.7"/>
<path d="M240.578 409.644L239.873 409.939L239.972 410.697L242.272 428.214C232.484 431.689 224.289 436.757 217.71 443.43C207.063 454.231 202.88 468.099 205.086 484.903C207.043 499.812 212.991 510.836 223.027 517.803C232.946 524.689 247.385 529.758 266.256 533.072L266.258 533.072C273.561 534.344 279.389 535.618 283.755 536.893C288.168 538.182 290.943 539.433 292.276 540.583L292.287 540.592C295.078 542.935 296.786 546.234 297.358 550.585C297.978 555.311 296.979 559.136 294.453 562.17C291.911 565.131 288.001 567.023 282.571 567.736C276.692 568.507 271.997 567.438 268.369 564.652C264.775 561.892 262.483 557.18 261.657 550.284L261.656 550.273L261.215 546.917L261.162 546.517L260.847 546.265L251.078 538.474L250.634 538.12L250.102 538.32L213.003 552.264L212.26 552.544L212.363 553.331L213.449 561.602C215.608 578.051 223.715 589.754 237.759 596.565L237.762 596.567C245.799 600.436 254.746 602.764 264.593 603.562L258.32 613.736L257.832 614.528L258.586 615.072L268.151 621.976L268.472 622.208L268.866 622.156L310.461 616.695L311.452 616.565L311.322 615.574L308.991 597.816C318.798 594.211 327.056 589.011 333.745 582.208L333.748 582.205C344.809 570.862 349.147 556.324 346.836 538.724C344.797 523.2 338.958 511.646 329.207 504.23C319.621 496.869 306.245 492.016 289.166 489.598C280.893 488.411 274.32 487.271 269.436 486.177C266.994 485.63 264.987 485.098 263.409 484.582C261.822 484.063 260.724 483.579 260.056 483.144C257.193 481.207 255.514 478.42 255.024 474.689C254.471 470.475 255.207 467.211 257.084 464.767C259.005 462.266 262.488 460.573 267.8 459.875C272.957 459.198 276.926 460.197 279.86 462.712C280.02 462.85 280.126 462.959 280.194 463.043C280.131 463.093 280.038 463.16 279.904 463.245C279.708 463.367 279.491 463.488 279.233 463.631C279.131 463.687 279.023 463.747 278.907 463.812C278.145 464.241 277.157 464.832 276.425 465.747C275.656 466.708 275.214 467.969 275.43 469.618L275.488 470.053L275.846 470.306L286.145 477.563L286.464 477.788L286.851 477.738L333.001 471.678L333.992 471.548L333.862 470.557L332.949 463.604C330.957 448.431 323.371 437.289 310.227 430.283C303.043 426.454 294.94 424.067 285.931 423.11L283.55 404.975L283.499 404.584L283.194 404.333L273.557 396.407L273.092 396.024L272.536 396.257L240.578 409.644Z" fill="#CBFCC9" stroke="#131B20" stroke-width="2"/>
<path d="M230.421 401.579L229.429 401.709L229.56 402.7L231.859 420.217C222.072 423.692 213.876 428.761 207.297 435.434C196.65 446.235 192.467 460.103 194.673 476.907C196.631 491.816 202.578 502.839 212.614 509.807C222.533 516.692 236.972 521.762 255.843 525.076L255.845 525.076C263.148 526.348 268.976 527.622 273.342 528.897C277.756 530.186 280.53 531.436 281.864 532.587L281.874 532.596C284.666 534.939 286.373 538.238 286.945 542.589C287.565 547.315 286.566 551.14 284.04 554.175C281.498 557.135 277.588 559.026 272.159 559.739C266.279 560.511 261.584 559.442 257.957 556.656C254.363 553.896 252.07 549.184 251.244 542.288L251.243 542.277L250.802 538.92L250.672 537.929L249.68 538.059L202.811 544.213L201.82 544.343L201.95 545.334L203.036 553.605C205.196 570.055 213.302 581.757 227.346 588.569L227.349 588.57C235.612 592.549 244.837 594.897 255.012 595.629L257.331 613.299L257.462 614.29L258.453 614.16L300.048 608.699L301.039 608.569L300.909 607.577L298.578 589.819C308.385 586.214 316.643 581.015 323.332 574.212L323.335 574.209C334.397 562.865 338.734 548.328 336.423 530.728C334.385 515.203 328.546 503.65 318.794 496.234C309.208 488.873 295.832 484.02 278.753 481.602C270.48 480.415 263.907 479.274 259.023 478.181C256.581 477.634 254.574 477.102 252.996 476.586C251.409 476.067 250.311 475.583 249.643 475.148C246.78 473.211 245.101 470.424 244.611 466.693C244.058 462.479 244.794 459.215 246.671 456.771C248.592 454.269 252.075 452.576 257.388 451.879C262.544 451.202 266.513 452.2 269.447 454.716C272.413 457.26 274.299 461.134 275.002 466.483L275.316 468.88L275.447 469.872L276.438 469.741L322.588 463.682L323.579 463.552L323.449 462.561L322.536 455.608C320.544 440.435 312.958 429.293 299.815 422.287C292.63 418.457 284.527 416.071 275.518 415.114L273.137 396.979L273.007 395.988L272.016 396.118L230.421 401.579Z" fill="white" stroke="#131B20" stroke-width="2"/>
<path d="M323.387 463.666L333.689 471.291" stroke="#131B20" stroke-width="2"/>
<path d="M300.812 608.447L311.114 616.072" stroke="#131B20" stroke-width="2"/>
<path d="M1212.48 146.778L1263.74 196.064C1265.96 198.192 1267.6 199.77 1268.79 201.164C1269.97 202.552 1270.69 203.737 1271.08 205.069C1271.46 206.401 1271.49 207.787 1271.23 209.594C1270.96 211.408 1270.42 213.618 1269.68 216.599L1252.63 285.638C1251.89 288.618 1251.35 290.828 1250.74 292.556C1250.13 294.277 1249.46 295.493 1248.5 296.493C1247.54 297.492 1246.35 298.205 1244.65 298.882C1242.95 299.562 1240.76 300.194 1237.82 301.047L1169.5 320.8C1166.55 321.652 1164.36 322.284 1162.56 322.618C1160.77 322.951 1159.38 322.982 1158.03 322.65C1156.69 322.317 1155.48 321.644 1154.04 320.514C1152.6 319.379 1150.96 317.802 1148.75 315.674L1097.48 266.388C1095.27 264.26 1093.63 262.682 1092.44 261.288C1091.25 259.9 1090.53 258.715 1090.15 257.383C1089.76 256.051 1089.74 254.665 1090 252.858C1090.27 251.044 1090.81 248.834 1091.55 245.853L1108.6 176.814C1109.33 173.834 1109.88 171.624 1110.49 169.896C1111.1 168.175 1111.77 166.959 1112.73 165.959C1113.69 164.96 1114.88 164.247 1116.57 163.57C1118.28 162.89 1120.46 162.258 1123.41 161.405L1191.73 141.652C1194.68 140.8 1196.86 140.168 1198.67 139.834C1200.46 139.501 1201.85 139.47 1203.19 139.802C1204.54 140.135 1205.75 140.808 1207.19 141.938C1208.63 143.073 1210.27 144.65 1212.48 146.778Z" fill="#131B20" stroke="#131B20" stroke-width="0.729402"/>
<rect x="-0.35035" y="0.1013" width="94.4974" height="94.4974" rx="5.50339" transform="matrix(-0.239778 0.970828 -0.720873 -0.693067 1271.91 205.238)" fill="#CBFCC9" stroke="#131B20" stroke-width="0.729403"/>
<mask id="mask0_678_1768" style="mask-type:alpha" maskUnits="userSpaceOnUse" x="1182" y="141" width="89" height="154">
<rect x="-0.35035" y="0.1013" width="94.4974" height="94.4974" rx="5.50339" transform="matrix(-0.239778 0.970828 -0.720873 -0.693067 1271.91 205.238)" fill="#CBFCC9" stroke="#131B20" stroke-width="0.729403"/>
</mask>
<g mask="url(#mask0_678_1768)">
<path d="M1272.15 157.12C1277.6 157.081 1280.33 157.061 1282.88 158.511C1285.44 159.96 1286.82 162.313 1289.58 167.018L1327.14 231.01C1329.13 234.398 1330.12 236.092 1329.83 237.39C1329.53 238.688 1328.02 239.276 1325 240.453L1248.23 270.364C1241.27 273.076 1237.79 274.432 1234.12 272.557C1230.45 270.683 1229.07 266.846 1226.31 259.17L1192.73 165.787C1191.34 161.921 1190.64 159.989 1191.58 158.839C1192.51 157.69 1194.79 157.674 1199.35 157.641L1272.15 157.12Z" fill="#131B20"/>
</g>
<path d="M1190.38 226.696C1186.79 223.248 1184.85 216.538 1186.05 211.708C1187.24 206.878 1191.11 205.758 1194.7 209.206C1198.29 212.654 1200.23 219.364 1199.03 224.194C1197.84 229.024 1193.97 230.144 1190.38 226.696Z" fill="#131B20" stroke="#131B20" stroke-width="0.729403"/>
<path d="M1178.08 181.677C1174.49 178.229 1172.55 171.518 1173.75 166.688C1174.94 161.859 1178.81 160.738 1182.4 164.186C1185.99 167.634 1187.93 174.345 1186.73 179.175C1185.54 184.004 1181.67 185.124 1178.08 181.677Z" fill="#131B20" stroke="#131B20" stroke-width="0.729403"/>
<path d="M1202.66 271.715C1199.08 268.267 1197.14 261.557 1198.33 256.727C1199.52 251.897 1203.4 250.777 1206.98 254.225C1210.57 257.673 1212.51 264.383 1211.32 269.213C1210.12 274.043 1206.25 275.163 1202.66 271.715Z" fill="#131B20" stroke="#131B20" stroke-width="0.729403"/>
<rect x="-0.0874472" y="0.354062" width="95.6554" height="95.6554" rx="5.57474" transform="matrix(0.720873 0.693067 -0.96065 0.277761 1181.65 230.963)" fill="white" stroke="#131B20" stroke-width="0.729402"/>
<path d="M1130.43 272.307C1125.65 273.689 1118.87 272.014 1115.29 268.566C1111.7 265.118 1112.67 261.203 1117.45 259.821C1122.23 258.439 1129.01 260.114 1132.59 263.562C1136.18 267.01 1135.21 270.925 1130.43 272.307Z" fill="#131B20" stroke="#131B20" stroke-width="0.729402"/>
<path d="M1186.7 296.039C1181.92 297.421 1175.13 295.746 1171.55 292.298C1167.96 288.851 1168.93 284.935 1173.71 283.553C1178.49 282.172 1185.27 283.846 1188.86 287.294C1192.44 290.742 1191.47 294.658 1186.7 296.039Z" fill="#131B20" stroke="#131B20" stroke-width="0.729402"/>
<rect x="-0.437798" y="0.455362" width="94.8149" height="94.8151" rx="5.52296" transform="matrix(-0.239778 0.970828 -0.96065 0.27776 1203.45 139.059)" fill="white" stroke="#131B20" stroke-width="0.729402"/>
<path d="M1143.77 206.629C1138.99 208.011 1136.09 205.216 1137.28 200.386C1138.47 195.556 1143.31 190.521 1148.09 189.139C1152.87 187.757 1155.78 190.552 1154.59 195.382C1153.39 200.212 1148.55 205.247 1143.77 206.629Z" fill="#131B20" stroke="#131B20" stroke-width="0.729402"/>
<path d="M1248.94 72.1092L1320.05 71.6002C1323.12 71.5782 1325.4 71.5624 1327.22 71.7292C1329.04 71.8952 1330.39 72.2406 1331.59 72.9251C1332.8 73.6097 1333.78 74.5859 1334.85 76.0621C1335.93 77.5447 1337.09 79.5076 1338.64 82.1552L1374.64 143.486C1376.19 146.133 1377.34 148.096 1378.11 149.761C1378.88 151.419 1379.25 152.754 1379.26 154.14C1379.27 155.527 1378.92 156.867 1378.17 158.536C1377.43 160.211 1376.31 162.191 1374.79 164.86L1339.67 226.7C1338.16 229.369 1337.03 231.348 1335.98 232.846C1334.92 234.338 1333.95 235.328 1332.76 236.03C1331.56 236.731 1330.22 237.096 1328.41 237.288C1326.59 237.481 1324.31 237.498 1321.24 237.52L1250.13 238.028C1247.06 238.05 1244.78 238.066 1242.96 237.9C1241.14 237.733 1239.8 237.388 1238.59 236.704C1237.38 236.019 1236.4 235.043 1235.33 233.567C1234.25 232.084 1233.09 230.121 1231.54 227.474L1195.54 166.143C1193.99 163.496 1192.84 161.532 1192.07 159.868C1191.3 158.21 1190.93 156.875 1190.92 155.488C1190.91 154.102 1191.27 152.761 1192.01 151.093C1192.75 149.417 1193.87 147.438 1195.39 144.768L1230.51 82.9291C1232.02 80.2596 1233.15 78.2804 1234.2 76.7825C1235.26 75.2911 1236.23 74.3008 1237.42 73.5991C1238.62 72.8974 1239.96 72.5329 1241.77 72.3408C1243.59 72.1478 1245.87 72.1311 1248.94 72.1092Z" fill="#131B20" stroke="#131B20" stroke-width="0.729402"/>
<rect x="-0.180086" y="0.317138" width="93.1705" height="93.1704" rx="5.42162" transform="matrix(0.506184 0.862425 -0.999974 0.0071565 1332.11 72.896)" fill="white" stroke="#131B20" stroke-width="0.729402"/>
<path d="M1273.02 97.3739C1268.04 97.4095 1261.97 93.9602 1259.45 89.6698C1256.93 85.3793 1258.92 81.8723 1263.9 81.8367C1268.87 81.8011 1274.95 85.2503 1277.47 89.5408C1279.99 93.8313 1277.99 97.3383 1273.02 97.3739Z" fill="#131B20" stroke="#131B20" stroke-width="0.729402"/>
<path d="M1290.5 96.9969C1285.53 97.0326 1279.45 93.5833 1276.94 89.2928C1274.42 85.0023 1276.41 81.4953 1281.38 81.4597C1286.36 81.4241 1292.43 84.8734 1294.95 89.1639C1297.47 93.4544 1295.48 96.9613 1290.5 96.9969Z" fill="#131B20" stroke="#131B20" stroke-width="0.729402"/>
<path d="M1301 145.044C1296.03 145.079 1289.95 141.63 1287.43 137.34C1284.92 133.049 1286.91 129.542 1291.88 129.507C1296.86 129.471 1302.93 132.92 1305.45 137.211C1307.97 141.501 1305.98 145.008 1301 145.044Z" fill="#131B20" stroke="#131B20" stroke-width="0.729402"/>
<path d="M1318.48 144.671C1313.51 144.706 1307.43 141.257 1304.92 136.967C1302.4 132.676 1304.39 129.169 1309.36 129.134C1314.34 129.098 1320.41 132.547 1322.93 136.838C1325.45 141.128 1323.46 144.635 1318.48 144.671Z" fill="#131B20" stroke="#131B20" stroke-width="0.729402"/>
<rect x="0.184607" y="0.314527" width="94.5013" height="94.5014" rx="5.50363" transform="matrix(0.999974 -0.00715637 -0.493789 0.869581 1285 154.708)" fill="white" stroke="#131B20" stroke-width="0.729402"/>
<circle cx="9.37257" cy="9.37257" r="9.00787" transform="matrix(0.999974 -0.00715639 -0.493789 0.869581 1269.69 188.221)" fill="#131B20" stroke="#131B20" stroke-width="0.729402"/>
<circle cx="9.37257" cy="9.37257" r="9.00787" transform="matrix(0.999974 -0.00715639 -0.493789 0.869581 1264.1 211.236)" fill="#131B20" stroke="#131B20" stroke-width="0.729402"/>
<circle cx="9.37257" cy="9.37257" r="9.00787" transform="matrix(0.999974 -0.00715639 -0.493789 0.869581 1290.02 165.6)" fill="#131B20" stroke="#131B20" stroke-width="0.729402"/>
<circle cx="9.37257" cy="9.37257" r="9.00787" transform="matrix(0.999974 -0.00715639 -0.493789 0.869581 1284.38 210.84)" fill="#131B20" stroke="#131B20" stroke-width="0.729402"/>
<circle cx="9.37257" cy="9.37257" r="9.00787" transform="matrix(0.999974 -0.00715639 -0.493789 0.869581 1310.29 165.205)" fill="#131B20" stroke="#131B20" stroke-width="0.729402"/>
<rect x="0.00452056" y="0.631665" width="95.0183" height="95.0183" rx="5.53548" transform="matrix(0.506185 0.862425 -0.49379 0.869581 1237.28 71.598)" fill="white" stroke="#131B20" stroke-width="0.729402"/>
<path d="M1241.54 162.928C1239.08 167.254 1235.05 167.283 1232.53 162.992C1230.01 158.702 1229.96 151.717 1232.42 147.391C1234.88 143.064 1238.91 143.036 1241.43 147.326C1243.95 151.617 1244 158.602 1241.54 162.928Z" fill="#131B20" stroke="#131B20" stroke-width="0.729402"/>
<path d="M-169.464 298.052L19.5252 424.926L1.73587 451.425C1.73587 451.425 -12.0995 458.421 -100.295 399.213C-188.49 340.005 -187.254 324.551 -187.254 324.551L-169.464 298.052Z" fill="#CBFCC9" stroke="#131B20" stroke-width="1.89994" stroke-linecap="round"/>
<path d="M5.08447 420.06L-13.7852 448.168" stroke="#131B20" stroke-width="1.89994" stroke-linecap="round"/>
<path d="M12.8521 425.275L-4.03132 450.424" stroke="#131B20" stroke-width="1.89994" stroke-linecap="round"/>
<ellipse cx="-74.5979" cy="360.934" rx="113.813" ry="15.3681" transform="rotate(33.8745 -74.5979 360.934)" fill="white" stroke="#131B20" stroke-width="1.89994" stroke-linecap="round"/>
<ellipse cx="-74.6003" cy="360.933" rx="101.786" ry="10.0227" transform="rotate(33.8745 -74.6003 360.933)" fill="white" stroke="#131B20" stroke-width="1.89994" stroke-linecap="round"/>
<path d="M-145.376 275.601L43.6131 402.475L25.8238 428.973C25.8238 428.973 11.9884 435.969 -76.2068 376.762C-164.402 317.554 -163.166 302.1 -163.166 302.1L-145.376 275.601Z" fill="#CBFCC9" stroke="#131B20" stroke-width="1.89994" stroke-linecap="round"/>
<path d="M6.12354 381.599L-15.229 413.406" stroke="#131B20" stroke-width="1.89994" stroke-linecap="round"/>
<path d="M13.6392 387.181L-6.96848 417.878" stroke="#131B20" stroke-width="1.89994" stroke-linecap="round"/>
<path d="M20.6626 393.505L1.29638 422.353" stroke="#131B20" stroke-width="1.89994" stroke-linecap="round"/>
<path d="M29.1724 397.609L10.3027 425.717" stroke="#131B20" stroke-width="1.89994" stroke-linecap="round"/>
<path d="M36.9399 402.824L20.0566 427.973" stroke="#131B20" stroke-width="1.89994" stroke-linecap="round"/>
<ellipse cx="-50.51" cy="338.483" rx="113.813" ry="15.3681" transform="rotate(33.8745 -50.51 338.483)" fill="white" stroke="#131B20" stroke-width="1.89994" stroke-linecap="round"/>
<ellipse cx="-50.5124" cy="338.482" rx="101.786" ry="10.0227" transform="rotate(33.8745 -50.5124 338.482)" fill="white" stroke="#131B20" stroke-width="1.89994" stroke-linecap="round"/>
<path d="M-135.15 245.984L53.8396 372.857L36.0503 399.356C36.0503 399.356 22.2149 406.352 -65.9802 347.145C-154.175 287.937 -152.939 272.483 -152.939 272.483L-135.15 245.984Z" fill="#CBFCC9" stroke="#131B20" stroke-width="1.89994" stroke-linecap="round"/>
<path d="M0.318848 342.292L-21.5302 374.839" stroke="#131B20" stroke-width="1.89994" stroke-linecap="round"/>
<path d="M8.08252 347.505L-13.5183 379.682" stroke="#131B20" stroke-width="1.89994" stroke-linecap="round"/>
<path d="M16.3501 351.981L-5.00239 383.788" stroke="#131B20" stroke-width="1.89994" stroke-linecap="round"/>
<path d="M23.8662 357.564L3.25857 388.261" stroke="#131B20" stroke-width="1.89994" stroke-linecap="round"/>
<path d="M30.8892 363.889L11.5229 392.736" stroke="#131B20" stroke-width="1.89994" stroke-linecap="round"/>
<path d="M39.4009 367.992L20.5312 396.1" stroke="#131B20" stroke-width="1.89994" stroke-linecap="round"/>
<path d="M47.1665 373.207L30.2831 398.356" stroke="#131B20" stroke-width="1.89994" stroke-linecap="round"/>
<ellipse cx="-40.2835" cy="308.866" rx="113.813" ry="15.3681" transform="rotate(33.8745 -40.2835 308.866)" fill="white" stroke="#131B20" stroke-width="1.89994" stroke-linecap="round"/>
<ellipse cx="-40.2859" cy="308.865" rx="101.786" ry="10.0227" transform="rotate(33.8745 -40.2859 308.865)" fill="white" stroke="#131B20" stroke-width="1.89994" stroke-linecap="round"/>
<path d="M-125.837 215.324L63.1521 342.197L45.3628 368.696C45.3628 368.696 31.5274 375.692 -56.6677 316.484C-144.863 257.277 -143.627 241.822 -143.627 241.822L-125.837 215.324Z" fill="#CBFCC9" stroke="#131B20" stroke-width="1.89994" stroke-linecap="round"/>
<path d="M1.37158 307.158L-20.4775 339.704" stroke="#131B20" stroke-width="1.89994" stroke-linecap="round"/>
<path d="M9.6333 311.63L-12.2158 344.177" stroke="#131B20" stroke-width="1.89994" stroke-linecap="round"/>
<path d="M17.397 316.845L-4.20381 349.022" stroke="#131B20" stroke-width="1.89994" stroke-linecap="round"/>
<path d="M25.6646 321.318L4.31206 353.124" stroke="#131B20" stroke-width="1.89994" stroke-linecap="round"/>
<path d="M33.1802 326.902L12.5725 357.599" stroke="#131B20" stroke-width="1.89994" stroke-linecap="round"/>
<path d="M40.2056 333.228L20.8394 362.076" stroke="#131B20" stroke-width="1.89994" stroke-linecap="round"/>
<path d="M48.7134 337.33L29.8437 365.438" stroke="#131B20" stroke-width="1.89994" stroke-linecap="round"/>
<path d="M56.481 342.544L39.5976 367.694" stroke="#131B20" stroke-width="1.89994" stroke-linecap="round"/>
<ellipse cx="-30.969" cy="278.204" rx="113.813" ry="15.3681" transform="rotate(33.8745 -30.969 278.204)" fill="white" stroke="#131B20" stroke-width="1.89994" stroke-linecap="round"/>
<ellipse cx="-30.9714" cy="278.202" rx="101.786" ry="10.0227" transform="rotate(33.8745 -30.9714 278.202)" fill="white" stroke="#131B20" stroke-width="1.89994" stroke-linecap="round"/>
<path d="M-97.3062 196.81L91.6834 323.684L73.8941 350.182C73.8941 350.182 60.0587 357.178 -28.1364 297.971C-116.332 238.763 -115.095 223.309 -115.095 223.309L-97.3062 196.81Z" fill="#CBFCC9" stroke="#131B20" stroke-width="1.89994" stroke-linecap="round"/>
<path d="M-1.16553 267.791L-23.2629 300.707" stroke="#131B20" stroke-width="1.89994" stroke-linecap="round"/>
<path d="M6.59814 273.003L-15.4992 305.919" stroke="#131B20" stroke-width="1.89994" stroke-linecap="round"/>
<path d="M14.3677 278.218L-7.72967 311.134" stroke="#131B20" stroke-width="1.89994" stroke-linecap="round"/>
<path d="M22.3813 283.06L0.284 315.976" stroke="#131B20" stroke-width="1.89994" stroke-linecap="round"/>
<path d="M29.9009 288.646L8.05181 321.192" stroke="#131B20" stroke-width="1.89994" stroke-linecap="round"/>
<path d="M38.1606 293.121L16.3116 325.667" stroke="#131B20" stroke-width="1.89994" stroke-linecap="round"/>
<path d="M45.9302 298.335L24.3294 330.512" stroke="#131B20" stroke-width="1.89994" stroke-linecap="round"/>
<path d="M54.1938 302.808L32.8414 334.615" stroke="#131B20" stroke-width="1.89994" stroke-linecap="round"/>
<path d="M61.7095 308.392L41.1018 339.089" stroke="#131B20" stroke-width="1.89994" stroke-linecap="round"/>
<path d="M68.7329 314.714L49.3667 343.562" stroke="#131B20" stroke-width="1.89994" stroke-linecap="round"/>
<path d="M77.2427 318.82L58.373 346.928" stroke="#131B20" stroke-width="1.89994" stroke-linecap="round"/>
<path d="M85.0103 324.035L68.1269 349.184" stroke="#131B20" stroke-width="1.89994" stroke-linecap="round"/>
<ellipse cx="-2.43972" cy="259.692" rx="113.813" ry="15.3681" transform="rotate(33.8745 -2.43972 259.692)" fill="white" stroke="#131B20" stroke-width="1.89994" stroke-linecap="round"/>
<ellipse cx="-2.44213" cy="259.691" rx="101.786" ry="10.0227" transform="rotate(33.8745 -2.44213 259.691)" fill="white" stroke="#131B20" stroke-width="1.89994" stroke-linecap="round"/>
<path d="M-5.15967 258.136L121.714 69.1467L151.171 88.9223C151.171 88.9223 180.358 117.655 121.15 205.85C61.9427 294.045 24.2978 277.912 24.2978 277.912L-5.15967 258.136Z" fill="#CBFCC9" stroke="#131B20" stroke-width="1.89994" stroke-linecap="round"/>
<path d="M-1.36865 252.096L37.4648 278.166" stroke="#131B20" stroke-width="1.89994" stroke-linecap="round"/>
<path d="M7.54541 246.814L49.7075 275.119" stroke="#131B20" stroke-width="1.89994" stroke-linecap="round"/>
<path d="M17.5669 242.273L60.4686 271.074" stroke="#131B20" stroke-width="1.89994" stroke-linecap="round"/>
<path d="M26.1099 236.742L67.9021 264.798" stroke="#131B20" stroke-width="1.89994" stroke-linecap="round"/>
<path d="M34.6489 231.207L75.3316 258.518" stroke="#131B20" stroke-width="1.89994" stroke-linecap="round"/>
<path d="M51.6997 231.387L82.9514 252.367" stroke="#131B20" stroke-width="1.89994" stroke-linecap="round"/>
<path d="M57.6528 224.117L89.0894 245.221" stroke="#131B20" stroke-width="1.89994" stroke-linecap="round"/>
<path d="M63.606 216.846L95.7823 238.446" stroke="#131B20" stroke-width="1.89994" stroke-linecap="round"/>
<path d="M69.9302 209.824L102.476 231.673" stroke="#131B20" stroke-width="1.89994" stroke-linecap="round"/>
<path d="M75.145 202.059L107.691 223.908" stroke="#131B20" stroke-width="1.89994" stroke-linecap="round"/>
<path d="M80.3579 194.291L113.644 216.637" stroke="#131B20" stroke-width="1.89994" stroke-linecap="round"/>
<path d="M85.5728 186.525L118.859 208.871" stroke="#131B20" stroke-width="1.89994" stroke-linecap="round"/>
<path d="M90.7856 178.758L123.702 200.855" stroke="#131B20" stroke-width="1.89994" stroke-linecap="round"/>
<path d="M95.9985 170.99L128.915 193.087" stroke="#131B20" stroke-width="1.89994" stroke-linecap="round"/>
<path d="M93.8188 158.26L133.022 184.578" stroke="#131B20" stroke-width="1.89994" stroke-linecap="round"/>
<path d="M99.0337 150.494L138.237 176.812" stroke="#131B20" stroke-width="1.89994" stroke-linecap="round"/>
<path d="M110.165 146.699L142.711 168.548" stroke="#131B20" stroke-width="1.89994" stroke-linecap="round"/>
<path d="M113.53 137.691L146.076 159.54" stroke="#131B20" stroke-width="1.89994" stroke-linecap="round"/>
<path d="M118.372 129.676L150.548 151.277" stroke="#131B20" stroke-width="1.89994" stroke-linecap="round"/>
<path d="M121.737 120.668L153.543 142.02" stroke="#131B20" stroke-width="1.89994" stroke-linecap="round"/>
<path d="M104.391 97.7554L155.799 132.267" stroke="#131B20" stroke-width="1.89994" stroke-linecap="round"/>
<path d="M108.497 89.2441L159.165 123.259" stroke="#131B20" stroke-width="1.89994" stroke-linecap="round"/>
<path d="M107.79 77.5039L157.718 111.022" stroke="#131B20" stroke-width="1.89994" stroke-linecap="round"/>
<path d="M106.719 65.5176L155.908 98.5395" stroke="#131B20" stroke-width="1.89994" stroke-linecap="round"/>
<ellipse cx="57.9104" cy="163.395" rx="113.813" ry="55.459" transform="rotate(-56.1255 57.9104 163.395)" fill="white" stroke="#131B20" stroke-width="1.89994" stroke-linecap="round"/>
<ellipse cx="57.3581" cy="163.024" rx="101.786" ry="46.7726" transform="rotate(-56.1255 57.3581 163.024)" fill="white" stroke="#131B20" stroke-width="1.89994" stroke-linecap="round"/>
<path fill-rule="evenodd" clip-rule="evenodd" d="M90.9469 157.168L28.9481 192.336L24.559 189.389L34.4859 149.181L44.68 138.793L48.399 141.289L44.8971 168.578L88.9332 138.584L92.9828 141.302L90.9469 157.168Z" fill="white" stroke="#131B20" stroke-width="1.89994" stroke-linecap="round"/>
<path d="M86.4321 154.293L89.9835 156.677" stroke="#131B20" stroke-width="2.28048" stroke-linecap="round"/>
<path fill-rule="evenodd" clip-rule="evenodd" d="M86.5075 154.187L24.5087 189.355L30.0464 146.201L43.9595 138.309L40.4577 165.598L88.5434 138.322L86.5075 154.187Z" fill="#CBFCC9" stroke="#131B20" stroke-width="1.89994" stroke-miterlimit="16" stroke-linecap="round" stroke-linejoin="round"/>
</g>
<defs>
<clipPath id="clip0_678_1768">
<rect width="1440" height="673" fill="white"/>
</clipPath>
</defs>
</svg>
