<svg width="226" height="40" viewBox="0 0 226 40" fill="none" xmlns="http://www.w3.org/2000/svg">
<g clip-path="url(#clip0_331_7026)">
<path d="M40 40H0V35.9049H0.877514L1.75503 35.8318L1.97441 35.4662L2.99817 34.0768L5.63071 30.6399L6.4351 29.6161H12.3583L12.6508 30.6399L12.9433 31.8099L13.0165 31.9561L12.5046 32.5411C11.7069 33.7198 10.8011 34.8214 9.7989 35.8318L11.1883 35.9049H12.5777L12.7971 35.4662C13.0862 34.9037 13.4557 34.3864 13.894 33.9305C14.131 34.5445 14.3025 35.1818 14.4059 35.8318L15.8684 35.9049H17.2578L17.3309 35.8318C17.5122 35.5208 17.6829 35.2037 17.8428 34.8812L18.6472 34.0037C18.8667 34.6182 19.0139 35.2563 19.0859 35.9049C20.305 35.9034 21.524 35.879 22.7422 35.8318L22.5229 35.4662C22.0841 34.6618 22.1572 34.7349 21.2797 32.1024L20.9141 30.8592L21.3528 30.2011L21.8647 29.6161H27.7879L28.2267 31.0055C28.6621 32.6088 29.0766 34.2177 29.4698 35.8318L31.3711 35.9049C31.9815 35.8405 32.591 35.7673 33.1993 35.6856L32.3949 33.7843C30.98 29.5458 29.7359 25.2523 28.6654 20.9141H25.6673L25.521 21.1335L24.8629 22.3035L20.1828 28.5192L19.7441 26.9835C21.3542 24.9419 22.9875 22.9186 24.6435 20.9141H21.6453L21.5722 20.9872V21.1335C21.4991 21.4991 21.426 21.7185 21.1335 22.0841L18.7934 25.0091L18.6472 24.6435C18.3608 23.4476 18.0683 22.2532 17.7697 21.0603V20.9141H14.1133L14.1865 21.1335C14.9932 23.252 15.725 25.3984 16.3803 27.5686L15.4296 28.8117C14.6861 26.3849 13.9792 23.9471 13.309 21.4991L13.2358 20.9872V20.9141H10.0914L9.7989 21.5722L9.28702 22.5229C7.68107 24.8214 5.99821 27.0652 4.24132 29.2505C2.88108 31.0524 1.4915 32.8321 0.0731261 34.5887H0V0H37.66L25.3748 15.9415C24.4098 17.2228 23.4591 18.5147 22.5229 19.8172H24.7898L28.0804 15.5759L30.4205 12.5046L40 0V40ZM16.4534 32.0293L16.1609 31.0055L17.1115 29.7623L17.2578 29.9817L17.7697 31.4442L17.8428 31.5905L17.6965 31.8099L16.819 32.9799L16.4534 32.0293ZM7.89762 27.7148C8.62385 26.7846 9.35512 25.8583 10.0914 24.936C10.3305 24.6078 10.5502 24.266 10.7495 23.9122V24.2048L10.8227 24.7166C11.0595 25.7315 11.3524 26.7324 11.7002 27.7148C10.433 27.7535 9.16485 27.7535 7.89762 27.7148ZM23.3272 27.7148C24.5704 26.1792 25.5942 24.8629 25.9598 24.2048L26.106 23.9122L26.1792 24.2779V24.7898C26.4325 25.7761 26.7253 26.7519 27.0567 27.7148H27.1298H23.2541H23.3272Z" fill="#103083"/>
<path d="M24.8629 20.0366L21.8647 19.9634L37.5869 0H40L24.8629 20.0366Z" fill="#FC1721"/>
<path d="M52.2852 34.4424L58.2084 16.819H62.5228L68.2998 34.4424H64.936L63.4735 30.1279H56.7459L55.3565 34.4424H52.2852ZM60.1097 19.5247L57.5502 27.7148H62.7422L60.1097 19.5247ZM69.031 34.4424L74.7349 25.3747L69.3967 16.819H73.1261L76.9287 23.1078L80.6581 16.819H84.0219L78.8299 25.3016L84.4607 34.4424H80.7312L76.563 27.5685L72.3948 34.4424H69.031ZM85.1919 34.4424L91.042 16.819H95.3565L101.207 34.4424H97.8427L96.3802 30.1279H89.6526L88.2632 34.4424H85.1919ZM93.0164 19.5247L90.3839 27.7148H95.649L93.0164 19.5247ZM108.373 34.4424V16.819H112.76L117.367 28.8848L121.974 16.819H126.289V34.4424H122.998V21.1334L117.733 34.4424H116.709L111.298 21.1334V34.4424H108.373ZM128.263 34.4424L134.186 16.819H138.501L144.351 34.4424H140.914L139.525 30.1279H132.724L131.335 34.4424H128.263ZM136.161 19.5247L133.528 27.7148H138.72L136.161 19.5247ZM146.252 34.4424V16.819H150.201L157.66 29.5429V16.819H160.658V34.4424H157.221L149.25 20.9141V34.4424H146.252ZM170.018 34.7349C167.678 34.7349 165.923 34.223 164.826 33.1992C164.243 32.6544 163.774 31.9986 163.448 31.2703C163.122 30.542 162.944 29.7558 162.925 28.9579H166.069C166.216 30.0548 166.508 30.8592 167.093 31.3711C167.678 31.9561 168.629 32.2486 170.018 32.2486C170.969 32.2486 171.773 32.0292 172.431 31.5173C173.016 31.0055 173.309 30.3473 173.309 29.5429C173.309 28.7385 173.09 28.0804 172.578 27.7148C172.066 27.3492 171.115 27.0566 169.653 26.8373C167.459 26.5448 165.85 25.9598 164.899 25.2285C163.876 24.4972 163.437 23.2541 163.437 21.6453C163.437 20.1828 164.022 19.0128 165.119 18.0621C166.289 17.1115 167.751 16.5996 169.579 16.5996C171.481 16.5996 173.016 17.0384 174.113 17.9159C175.21 18.7934 175.868 20.0365 176.015 21.7184H173.016C172.797 20.7678 172.505 20.1097 171.92 19.744C171.408 19.3053 170.603 19.0859 169.579 19.0859C168.629 19.0859 167.824 19.3053 167.313 19.744C166.801 20.1097 166.508 20.6947 166.508 21.3528C166.508 22.1572 166.801 22.7422 167.239 23.1078C167.751 23.4735 168.702 23.766 170.165 23.9854C172.358 24.2779 173.967 24.7897 174.991 25.5941C176.015 26.3254 176.526 27.5685 176.526 29.2504C176.526 30.7861 175.941 32.1024 174.698 33.1261C173.389 34.2187 171.723 34.7913 170.018 34.7349ZM176.965 34.4424L182.888 16.819H187.203L193.053 34.4424H189.616L188.227 30.1279H181.426L180.037 34.4424H176.965ZM184.863 19.5247L182.23 27.7148H187.422L184.863 19.5247ZM195.027 34.4424V16.819H200.951C202.998 16.819 204.607 17.2577 205.777 18.1353C206.947 18.9396 207.532 20.2559 207.532 22.0109V22.0841C207.532 24.5704 206.216 26.1791 203.583 26.8373L208.556 34.4424H205.046L200.366 27.3492H198.318V34.4424H195.027ZM198.318 25.0091H200.951C203.144 25.0091 204.314 24.0585 204.314 22.1572V22.0841C204.314 21.1334 204.022 20.4022 203.437 20.0365C202.852 19.5978 202.048 19.3784 200.951 19.3784H198.318V25.0091ZM213.748 31.883H215.722C217.623 31.883 219.086 31.3711 220.11 30.2742C221.06 29.2504 221.572 27.7148 221.572 25.6673V25.521C221.572 21.4259 219.598 19.3784 215.649 19.3784H213.748V31.883ZM210.457 34.4424V16.819H215.868C218.867 16.819 221.133 17.6234 222.669 19.159C224.205 20.6947 225.009 22.8153 225.009 25.4479V25.6673C225.009 28.3729 224.205 30.4936 222.669 32.1024C221.06 33.638 218.793 34.4424 215.795 34.4424H210.457Z" fill="#103083"/>
</g>
<defs>
<clipPath id="clip0_331_7026">
<rect width="225.009" height="40" fill="white"/>
</clipPath>
</defs>
</svg>
