<svg width="56" height="56" viewBox="0 0 56 56" fill="none" xmlns="http://www.w3.org/2000/svg">
<g filter="url(#filter0_d_476_14849)">
<rect x="2" y="1" width="52" height="52" rx="26" fill="#E62E2E"/>
<path fill-rule="evenodd" clip-rule="evenodd" d="M33.8334 25.3069H35.1934C35.3045 25.3069 35.3601 25.3069 35.4073 25.288C35.4491 25.2714 35.486 25.2444 35.5148 25.2095C35.5474 25.1701 35.565 25.1167 35.6001 25.0098L36.1038 23.4786C36.2706 22.9717 36.354 22.7182 36.3291 22.4832C36.3071 22.276 36.2269 22.0797 36.0978 21.9175C35.9514 21.7335 35.7156 21.614 35.2439 21.375L28.767 18.0936C28.4858 17.9511 28.3452 17.8799 28.1977 17.8519C28.0671 17.827 27.9331 17.827 27.8025 17.8519C27.655 17.8799 27.5144 17.9511 27.2332 18.0936L20.7563 21.375C20.2846 21.614 20.0487 21.7335 19.9023 21.9175C19.7733 22.0797 19.693 22.276 19.6711 22.4832C19.6462 22.7182 19.7296 22.9717 19.8963 23.4786L20.4001 25.0098C20.4352 25.1167 20.4528 25.1701 20.4854 25.2095C20.5141 25.2444 20.5511 25.2714 20.5928 25.288C20.6401 25.3069 20.6957 25.3069 20.8068 25.3069H22.1668V31.8227H21.8367C21.3579 31.8227 21.1186 31.8227 20.9194 31.9075C20.7437 31.9823 20.5909 32.1032 20.4767 32.2578C20.3472 32.433 20.2892 32.6682 20.173 33.1388L19.9587 34.0076C19.7771 34.7435 19.6863 35.1115 19.7747 35.4013C19.8522 35.6553 20.0189 35.8717 20.2433 36.0094C20.4993 36.1666 20.8737 36.1666 21.6223 36.1666H34.3779C35.1265 36.1666 35.5008 36.1666 35.7568 36.0094C35.9812 35.8717 36.148 35.6553 36.2254 35.4013C36.3138 35.1115 36.223 34.7435 36.0415 34.0076L35.8271 33.1388C35.711 32.6683 35.653 32.433 35.5235 32.2578C35.4093 32.1032 35.2564 31.9823 35.0807 31.9075C34.8816 31.8227 34.6422 31.8227 34.1635 31.8227H33.8334V25.3069ZM32.1668 25.3069H28.8334V31.8227H32.1668V25.3069ZM27.1668 31.8227V25.3069H23.8334V31.8227H27.1668Z" fill="white"/>
</g>
<defs>
<filter id="filter0_d_476_14849" x="0" y="0" width="56" height="56" filterUnits="userSpaceOnUse" color-interpolation-filters="sRGB">
<feFlood flood-opacity="0" result="BackgroundImageFix"/>
<feColorMatrix in="SourceAlpha" type="matrix" values="0 0 0 0 0 0 0 0 0 0 0 0 0 0 0 0 0 0 127 0" result="hardAlpha"/>
<feOffset dy="1"/>
<feGaussianBlur stdDeviation="1"/>
<feComposite in2="hardAlpha" operator="out"/>
<feColorMatrix type="matrix" values="0 0 0 0 0.0627451 0 0 0 0 0.0941176 0 0 0 0 0.156863 0 0 0 0.04 0"/>
<feBlend mode="normal" in2="BackgroundImageFix" result="effect1_dropShadow_476_14849"/>
<feBlend mode="normal" in="SourceGraphic" in2="effect1_dropShadow_476_14849" result="shape"/>
</filter>
</defs>
</svg>
