<svg width="33" height="32" viewBox="0 0 33 32" fill="none" xmlns="http://www.w3.org/2000/svg">
<path d="M16.3556 2.12479e-05C16.1786 0.0103324 16.0519 0.0488284 15.9556 0.111132L1.02222 10.0667C0.762027 10.2321 0.632213 10.5829 0.722204 10.8778C0.81216 11.1727 1.11399 11.3858 1.42222 11.3778H4.62222V24.8889H1.42222C1.23363 24.8889 1.05277 24.9638 0.919412 25.0972C0.786056 25.2305 0.71113 25.4114 0.711111 25.6V27.7333C0.522519 27.7334 0.341656 27.8083 0.2083 27.9416C0.0749453 28.075 1.88564e-05 28.2559 0 28.4444V31.2889C1.88564e-05 31.4775 0.0749453 31.6584 0.2083 31.7917C0.341656 31.9251 0.522519 32 0.711111 32H32C32.1886 32 32.3695 31.9251 32.5028 31.7917C32.6362 31.6584 32.7111 31.4775 32.7111 31.2889V28.4444C32.7111 28.2559 32.6362 28.075 32.5028 27.9416C32.3695 27.8083 32.1886 27.7334 32 27.7333V25.6C32 25.4114 31.9251 25.2305 31.7917 25.0972C31.6583 24.9638 31.4775 24.8889 31.2889 24.8889H28.0889V11.3778H31.2889C31.5971 11.3858 31.8989 11.1727 31.9889 10.8778C32.0788 10.5829 31.9491 10.2321 31.6889 10.0667L16.7556 0.111132C16.616 0.0195626 16.508 -0.000757419 16.3556 2.12479e-05ZM16.3556 1.56669L28.9333 9.95558H3.77778L16.3556 1.56669ZM16.3556 3.91113C14.9894 3.91113 13.8667 5.03387 13.8667 6.40002C13.8667 7.76618 14.9894 8.88891 16.3556 8.88891C17.7217 8.88891 18.8444 7.76618 18.8444 6.40002C18.8444 5.03387 17.7217 3.91113 16.3556 3.91113ZM16.3556 5.33335C16.9531 5.33335 17.4222 5.8025 17.4222 6.40002C17.4222 6.99755 16.9531 7.46669 16.3556 7.46669C15.758 7.46669 15.2889 6.99755 15.2889 6.40002C15.2889 5.8025 15.758 5.33335 16.3556 5.33335ZM6.04444 11.3778H7.46667V24.8889H6.04444V11.3778ZM8.88889 11.3778H11.0222V24.8889H8.88889V11.3778ZM12.4444 11.3778H13.8667V24.8889H12.4444V11.3778ZM15.2889 11.3778H17.4222V24.8889H15.2889V11.3778ZM18.8444 11.3778H20.2667V24.8889H18.8444V11.3778ZM21.6889 11.3778H23.8222V24.8889H21.6889V11.3778ZM25.2444 11.3778H26.6667V24.8889H25.2444V11.3778ZM2.13333 26.3111H30.5778V27.7333H2.13333V26.3111ZM1.42222 29.1556H31.2889V30.5778H1.42222V29.1556Z" fill="#5CC758"/>
</svg>
