<svg width="40" height="40" viewBox="0 0 40 40" fill="none" xmlns="http://www.w3.org/2000/svg">
<rect x="10.8218" y="34.1643" width="18.9333" height="2.80218" transform="rotate(-90 10.8218 34.1643)" fill="#CBFCC9" stroke="#131B20"/>
<rect x="16.6367" y="34.1643" width="18.9333" height="2.80218" transform="rotate(-90 16.6367 34.1643)" fill="#CBFCC9" stroke="#131B20"/>
<rect x="22.4517" y="34.1643" width="18.9333" height="2.80218" transform="rotate(-90 22.4517 34.1643)" fill="#CBFCC9" stroke="#131B20"/>
<rect x="28.2668" y="34.1643" width="18.9333" height="2.80218" transform="rotate(-90 28.2668 34.1643)" fill="#CBFCC9" stroke="#131B20"/>
<path d="M21.8988 5.92827L35.5112 15.2309H8.28638L19.3272 5.8357L21.8988 5.92827Z" fill="#CBFCC9" stroke="#131B20" stroke-linejoin="round"/>
<rect x="7.21582" y="28.5599" width="27.3864" height="2.80218" fill="#CBFCC9" stroke="#131B20"/>
<rect x="5.97461" y="31.3621" width="29.8686" height="2.80218" fill="#CBFCC9" stroke="#131B20"/>
<path d="M19.1715 5.92822L32.7839 15.2309H5.55908L19.1715 5.92822Z" fill="white" stroke="#131B20" stroke-linejoin="round"/>
<circle cx="19.0909" cy="11.1877" r="1.20755" fill="#BFEEBE" stroke="#131B20" stroke-linejoin="round"/>
<rect x="9.00391" y="34.1643" width="18.9333" height="2.80218" transform="rotate(-90 9.00391 34.1643)" fill="white" stroke="#131B20"/>
<rect x="14.8188" y="34.1643" width="18.9333" height="2.80218" transform="rotate(-90 14.8188 34.1643)" fill="white" stroke="#131B20"/>
<rect x="20.6338" y="34.1643" width="18.9333" height="2.80218" transform="rotate(-90 20.6338 34.1643)" fill="white" stroke="#131B20"/>
<rect x="26.449" y="34.1643" width="18.9333" height="2.80218" transform="rotate(-90 26.449 34.1643)" fill="white" stroke="#131B20"/>
<rect x="5.39771" y="28.5599" width="27.3864" height="2.80218" fill="white" stroke="#131B20"/>
<rect x="4.15649" y="31.3621" width="29.8686" height="2.80218" fill="white" stroke="#131B20"/>
</svg>
