<svg width="159" height="131" viewBox="0 0 159 131" fill="none" xmlns="http://www.w3.org/2000/svg">
<path d="M53.8219 47.4338C55.0748 47.0715 56.0038 46.8031 56.7697 46.6612C57.5323 46.5199 58.1212 46.5066 58.6929 46.6478C59.2647 46.789 59.7797 47.075 60.3888 47.555C61.0006 48.0372 61.6978 48.7073 62.6379 49.6112L84.4165 70.5496C85.3566 71.4535 86.0536 72.1238 86.5594 72.7162C87.0631 73.306 87.3691 73.8093 87.5326 74.3751C87.6962 74.9408 87.7061 75.5298 87.5949 76.2973C87.4832 77.0682 87.2515 78.0071 86.9388 79.2732L79.6948 108.603C79.3821 109.869 79.15 110.808 78.89 111.542C78.631 112.273 78.3481 112.79 77.9399 113.215C77.5318 113.639 77.0266 113.942 76.3063 114.23C75.5829 114.518 74.654 114.787 73.4011 115.149L44.3786 123.541C43.1257 123.903 42.1967 124.172 41.4307 124.314C40.6682 124.455 40.0793 124.468 39.5075 124.327C38.9357 124.186 38.4208 123.9 37.8117 123.42C37.1999 122.938 36.5027 122.268 35.5625 121.364L13.784 100.425C12.8438 99.5212 12.1468 98.8509 11.641 98.2585C11.1373 97.6688 10.8314 97.1654 10.6678 96.5997C10.5042 96.0339 10.4944 95.4449 10.6056 94.6774C10.7172 93.9065 10.9489 92.9677 11.2617 91.7015L18.5057 62.3715C18.8184 61.1054 19.0504 60.1666 19.3105 59.4323C19.5694 58.7013 19.8523 58.1846 20.2605 57.7601C20.6687 57.3355 21.1738 57.0325 21.8941 56.745C22.6176 56.4563 23.5465 56.1876 24.7993 55.8253L53.8219 47.4338Z" fill="#131B20" stroke="#131B20" stroke-width="0.309873"/>
<rect x="-0.14884" y="0.0430352" width="40.1454" height="40.1454" rx="2.33801" transform="matrix(-0.239778 0.970828 -0.720873 -0.693067 87.8856 74.4464)" fill="#CBFCC9" stroke="#131B20" stroke-width="0.309873"/>
<mask id="mask0_279_18595" style="mask-type:alpha" maskUnits="userSpaceOnUse" x="49" y="47" width="39" height="66">
<rect x="-0.14884" y="0.0430352" width="40.1454" height="40.1454" rx="2.33801" transform="matrix(-0.239778 0.970828 -0.720873 -0.693067 87.8856 74.4464)" fill="#CBFCC9" stroke="#131B20" stroke-width="0.309873"/>
</mask>
<g mask="url(#mask0_279_18595)">
<path d="M102.431 54.0044C104.748 53.9878 105.907 53.9795 106.991 54.5953C108.076 55.2111 108.662 56.2105 109.836 58.2093L125.792 85.3953C126.637 86.8345 127.059 87.554 126.934 88.1056C126.81 88.6571 126.168 88.907 124.885 89.4068L92.2691 102.114C89.3124 103.266 87.8341 103.842 86.2748 103.046C84.7156 102.25 84.1294 100.619 82.9568 97.3586L68.6905 57.6866C68.0999 56.0443 67.8046 55.2231 68.2016 54.7348C68.5986 54.2465 69.5672 54.2396 71.5044 54.2258L102.431 54.0044Z" fill="#131B20"/>
</g>
<path d="M67.6922 83.5621C66.1686 82.0973 65.3443 79.2465 65.8511 77.1947C66.3579 75.1429 68.0038 74.667 69.5273 76.1318C71.0509 77.5966 71.8752 80.4473 71.3684 82.4992C70.8616 84.551 69.2157 85.0269 67.6922 83.5621Z" fill="#131B20" stroke="#131B20" stroke-width="0.309873"/>
<path d="M62.4679 64.4366C60.9443 62.9718 60.1201 60.121 60.6268 58.0692C61.1336 56.0174 62.7795 55.5415 64.3031 57.0063C65.8266 58.4711 66.6509 61.3219 66.1441 63.3737C65.6374 65.4255 63.9915 65.9014 62.4679 64.4366Z" fill="#131B20" stroke="#131B20" stroke-width="0.309873"/>
<path d="M72.9116 102.688C71.3881 101.223 70.5638 98.372 71.0706 96.3202C71.5773 94.2683 73.2232 93.7925 74.7468 95.2572C76.2704 96.722 77.0946 99.5728 76.5879 101.625C76.0811 103.677 74.4352 104.152 72.9116 102.688Z" fill="#131B20" stroke="#131B20" stroke-width="0.309873"/>
<rect x="-0.0371503" y="0.150417" width="40.6374" height="40.6374" rx="2.36832" transform="matrix(0.720873 0.693067 -0.96065 0.277761 49.5411 85.3751)" fill="white" stroke="#131B20" stroke-width="0.309873"/>
<path d="M27.7828 102.939C25.7525 103.526 22.8715 102.814 21.3479 101.35C19.8243 99.8849 20.2352 98.2215 22.2655 97.6345C24.2958 97.0475 27.1768 97.759 28.7004 99.2238C30.2239 100.689 29.8131 102.352 27.7828 102.939Z" fill="#131B20" stroke="#131B20" stroke-width="0.309873"/>
<path d="M66.1289 113.022C64.0985 113.609 61.2175 112.898 59.694 111.433C58.1704 109.968 58.5812 108.305 60.6116 107.718C62.6419 107.131 65.5229 107.842 67.0465 109.307C68.57 110.772 68.1592 112.435 66.1289 113.022Z" fill="#131B20" stroke="#131B20" stroke-width="0.309873"/>
<rect x="-0.18599" y="0.193452" width="40.2803" height="40.2804" rx="2.34632" transform="matrix(-0.239778 0.970828 -0.96065 0.27776 58.8029 46.3318)" fill="white" stroke="#131B20" stroke-width="0.309873"/>
<path d="M33.4487 75.0381C31.4184 75.6251 30.1833 74.4377 30.6901 72.3858C31.1968 70.334 33.2536 68.1948 35.2839 67.6077C37.3142 67.0207 38.5493 68.2081 38.0425 70.26C37.5358 72.3118 35.479 74.451 33.4487 75.0381Z" fill="#131B20" stroke="#131B20" stroke-width="0.309873"/>
<path d="M84.7372 22.4859C85.3812 21.3518 85.8589 20.511 86.3081 19.8746C86.7554 19.2411 87.1677 18.8204 87.6756 18.5222C88.1835 18.2241 88.7518 18.0693 89.5231 17.9877C90.2977 17.9057 91.2647 17.8986 92.5689 17.8893L122.779 17.6731C124.084 17.6637 125.051 17.657 125.826 17.7278C126.599 17.7984 127.169 17.9451 127.681 18.2359C128.193 18.5267 128.612 18.9415 129.068 19.5686C129.526 20.1985 130.016 21.0324 130.676 22.1571L145.969 48.2122C146.629 49.3369 147.118 50.171 147.445 50.8782C147.77 51.5824 147.928 52.1498 147.932 52.7387C147.936 53.3276 147.786 53.8972 147.471 54.6059C147.155 55.3178 146.678 56.1588 146.034 57.2929L131.116 83.5641C130.472 84.6982 129.994 85.539 129.545 86.1754C129.097 86.809 128.685 87.2297 128.177 87.5278C127.669 87.8259 127.101 87.9808 126.33 88.0624C125.555 88.1443 124.588 88.1514 123.284 88.1608L93.0733 88.3769C91.7692 88.3863 90.8022 88.393 90.0264 88.3222C89.2541 88.2516 88.6836 88.1049 88.1715 87.8141C87.6593 87.5233 87.2411 87.1085 86.7848 86.4814C86.3265 85.8515 85.8369 85.0176 85.1767 83.8929L69.8842 57.8379C69.224 56.7131 68.7347 55.879 68.4082 55.1718C68.0831 54.4677 67.9249 53.9003 67.9207 53.3113C67.9165 52.7224 68.0666 52.1528 68.3815 51.4441C68.6978 50.7322 69.1752 49.8913 69.8192 48.7572L84.7372 22.4859Z" fill="#131B20" stroke="#131B20" stroke-width="0.309873"/>
<rect x="-0.0765061" y="0.13473" width="39.5817" height="39.5817" rx="2.30327" transform="matrix(0.506184 0.862425 -0.999974 0.0071565 127.9 18.2234)" fill="white" stroke="#131B20" stroke-width="0.309873"/>
<path d="M102.799 28.6212C100.685 28.6363 98.1049 27.171 97.0351 25.3482C95.9653 23.5255 96.8113 22.0356 98.9248 22.0205C101.038 22.0054 103.619 23.4707 104.689 25.2935C105.758 27.1162 104.912 28.6061 102.799 28.6212Z" fill="#131B20" stroke="#131B20" stroke-width="0.309873"/>
<path d="M125.095 28.4618C122.982 28.4769 120.401 27.0116 119.331 25.1888C118.261 23.3661 119.107 21.8762 121.221 21.8611C123.334 21.846 125.915 23.3113 126.985 25.1341C128.055 26.9568 127.209 28.4467 125.095 28.4618Z" fill="#131B20" stroke="#131B20" stroke-width="0.309873"/>
<path d="M114.686 48.8736C112.573 48.8888 109.992 47.4234 108.923 45.6007C107.853 43.778 108.699 42.2881 110.812 42.273C112.926 42.2578 115.506 43.7232 116.576 45.5459C117.646 47.3686 116.8 48.8585 114.686 48.8736Z" fill="#131B20" stroke="#131B20" stroke-width="0.309873"/>
<path d="M136.983 48.7145C134.869 48.7296 132.289 47.2642 131.219 45.4415C130.149 43.6188 130.995 42.1289 133.108 42.1138C135.222 42.0987 137.802 43.564 138.872 45.3867C139.942 47.2095 139.096 48.6993 136.983 48.7145Z" fill="#131B20" stroke="#131B20" stroke-width="0.309873"/>
<rect x="0.0784266" y="0.133621" width="40.1471" height="40.1471" rx="2.33811" transform="matrix(0.999974 -0.00715637 -0.493789 0.869581 107.888 52.9806)" fill="white" stroke="#131B20" stroke-width="0.309873"/>
<circle cx="3.98176" cy="3.98176" r="3.82682" transform="matrix(0.999974 -0.00715639 -0.493789 0.869581 116.256 67.2173)" fill="#131B20" stroke="#131B20" stroke-width="0.309873"/>
<circle cx="3.98176" cy="3.98176" r="3.82682" transform="matrix(0.999974 -0.00715639 -0.493789 0.869581 99.0104 76.9951)" fill="#131B20" stroke="#131B20" stroke-width="0.309873"/>
<circle cx="3.98176" cy="3.98176" r="3.82682" transform="matrix(0.999974 -0.00715639 -0.493789 0.869581 110.019 57.6074)" fill="#131B20" stroke="#131B20" stroke-width="0.309873"/>
<circle cx="3.98176" cy="3.98176" r="3.82682" transform="matrix(0.999974 -0.00715639 -0.493789 0.869581 122.492 76.8274)" fill="#131B20" stroke="#131B20" stroke-width="0.309873"/>
<circle cx="3.98176" cy="3.98176" r="3.82682" transform="matrix(0.999974 -0.00715639 -0.493789 0.869581 133.503 57.4395)" fill="#131B20" stroke="#131B20" stroke-width="0.309873"/>
<rect x="0.00192047" y="0.268351" width="40.3667" height="40.3667" rx="2.35164" transform="matrix(0.506185 0.862425 -0.49379 0.869581 87.6177 17.6723)" fill="white" stroke="#131B20" stroke-width="0.309873"/>
<path d="M89.4263 56.4717C88.3826 58.3095 86.6693 58.3218 85.5995 56.4991C84.5297 54.6763 84.5085 51.7088 85.5521 49.871C86.5957 48.0331 88.309 48.0209 89.3788 49.8436C90.4486 51.6663 90.4699 54.6338 89.4263 56.4717Z" fill="#131B20" stroke="#131B20" stroke-width="0.309873"/>
</svg>
