<svg width="56" height="56" viewBox="0 0 56 56" fill="none" xmlns="http://www.w3.org/2000/svg">
<g filter="url(#filter0_d_476_14860)">
<rect x="2" y="1" width="52" height="52" rx="26" fill="#2EA2E6"/>
<path d="M19.6668 22.8333H36.3334C36.3327 22.0096 36.3223 21.5779 36.1518 21.2433C35.992 20.9297 35.737 20.6747 35.4234 20.5149C35.0669 20.3333 34.6002 20.3333 33.6667 20.3333H22.3334C21.4 20.3333 20.9333 20.3333 20.5768 20.5149C20.2632 20.6747 20.0082 20.9297 19.8484 21.2433C19.6779 21.5779 19.6674 22.0096 19.6668 22.8333Z" fill="white"/>
<path fill-rule="evenodd" clip-rule="evenodd" d="M36.3334 24.4999H19.6667V30.9999C19.6667 31.9333 19.6667 32.4001 19.8484 32.7566C20.0082 33.0702 20.2632 33.3251 20.5768 33.4849C20.9333 33.6666 21.4 33.6666 22.3334 33.6666H33.6667C34.6002 33.6666 35.0669 33.6666 35.4234 33.4849C35.737 33.3251 35.992 33.0702 36.1518 32.7566C36.3334 32.4001 36.3334 31.9333 36.3334 30.9999V24.4999ZM22.1667 30.3333C22.1667 29.873 22.5398 29.4999 23.0001 29.4999H26.3334C26.7937 29.4999 27.1667 29.873 27.1667 30.3333C27.1667 30.7935 26.7937 31.1666 26.3334 31.1666H23.0001C22.5398 31.1666 22.1667 30.7935 22.1667 30.3333ZM29.6667 29.4999C29.2065 29.4999 28.8334 29.873 28.8334 30.3333C28.8334 30.7935 29.2065 31.1666 29.6667 31.1666H33.0001C33.4603 31.1666 33.8334 30.7935 33.8334 30.3333C33.8334 29.873 33.4603 29.4999 33.0001 29.4999H29.6667Z" fill="white"/>
</g>
<defs>
<filter id="filter0_d_476_14860" x="0" y="0" width="56" height="56" filterUnits="userSpaceOnUse" color-interpolation-filters="sRGB">
<feFlood flood-opacity="0" result="BackgroundImageFix"/>
<feColorMatrix in="SourceAlpha" type="matrix" values="0 0 0 0 0 0 0 0 0 0 0 0 0 0 0 0 0 0 127 0" result="hardAlpha"/>
<feOffset dy="1"/>
<feGaussianBlur stdDeviation="1"/>
<feComposite in2="hardAlpha" operator="out"/>
<feColorMatrix type="matrix" values="0 0 0 0 0.0627451 0 0 0 0 0.0941176 0 0 0 0 0.156863 0 0 0 0.04 0"/>
<feBlend mode="normal" in2="BackgroundImageFix" result="effect1_dropShadow_476_14860"/>
<feBlend mode="normal" in="SourceGraphic" in2="effect1_dropShadow_476_14860" result="shape"/>
</filter>
</defs>
</svg>
