<svg width="56" height="57" viewBox="0 0 56 57" fill="none" xmlns="http://www.w3.org/2000/svg">
<rect y="0.504883" width="56" height="56" rx="8" fill="#5CC758"/>
<path fill-rule="evenodd" clip-rule="evenodd" d="M14.5 14.5049C13.3065 14.5049 12.1619 14.979 11.318 15.8229C10.4741 16.6668 10 17.8114 10 19.0049V38.0049C10 39.1984 10.4741 40.3429 11.318 41.1869C12.1619 42.0308 13.3065 42.5049 14.5 42.5049H41.5C42.091 42.5049 42.6761 42.3885 43.2221 42.1623C43.768 41.9362 44.2641 41.6047 44.682 41.1869C45.0998 40.769 45.4313 40.2729 45.6575 39.727C45.8836 39.181 46 38.5958 46 38.0049V19.0049C46 18.4139 45.8836 17.8288 45.6575 17.2828C45.4313 16.7368 45.0998 16.2408 44.682 15.8229C44.2641 15.405 43.768 15.0736 43.2221 14.8474C42.6761 14.6213 42.091 14.5049 41.5 14.5049H14.5ZM16.386 32.0089C16.2539 31.8625 16.1519 31.6916 16.0859 31.5058C16.02 31.32 15.9913 31.123 16.0015 30.9261C16.0117 30.7292 16.0606 30.5362 16.1455 30.3583C16.2303 30.1803 16.3495 30.0208 16.496 29.8889L20.256 26.5049L16.496 23.1189C16.3449 22.9884 16.2215 22.829 16.1328 22.6502C16.0441 22.4713 15.992 22.2766 15.9796 22.0773C15.9671 21.8781 15.9946 21.6784 16.0603 21.4899C16.1261 21.3014 16.2288 21.1279 16.3624 20.9796C16.4961 20.8313 16.658 20.7112 16.8386 20.6263C17.0193 20.5414 17.2151 20.4934 17.4146 20.4851C17.614 20.4769 17.8131 20.5085 18.0002 20.5782C18.1873 20.6478 18.3585 20.7542 18.504 20.8909L23.504 25.3909C23.66 25.5315 23.7847 25.7034 23.87 25.8953C23.9554 26.0872 23.9995 26.2949 23.9995 26.5049C23.9995 26.7149 23.9554 26.9226 23.87 27.1145C23.7847 27.3064 23.66 27.4782 23.504 27.6189L18.504 32.1189C18.3576 32.251 18.1867 32.353 18.0009 32.4189C17.8151 32.4849 17.6181 32.5136 17.4212 32.5034C17.2243 32.4932 17.0313 32.4442 16.8534 32.3594C16.6754 32.2745 16.5179 32.1554 16.386 32.0089ZM27.5 29.0049C27.1022 29.0049 26.7206 29.1629 26.4393 29.4442C26.158 29.7255 26 30.1071 26 30.5049C26 30.9027 26.158 31.2842 26.4393 31.5655C26.7206 31.8468 27.1022 32.0049 27.5 32.0049H32.5C32.8978 32.0049 33.2794 31.8468 33.5607 31.5655C33.842 31.2842 34 30.9027 34 30.5049C34 30.1071 33.842 29.7255 33.5607 29.4442C33.2794 29.1629 32.8978 29.0049 32.5 29.0049H27.5Z" fill="white"/>
</svg>
