<svg width="30" height="24" viewBox="0 0 30 24" fill="none" xmlns="http://www.w3.org/2000/svg">
<path fill-rule="evenodd" clip-rule="evenodd" d="M4.2 0.799805C3.24522 0.799805 2.32954 1.17909 1.65441 1.85422C0.979283 2.52935 0.599998 3.44503 0.599998 4.3998V19.5998C0.599998 20.5546 0.979283 21.4703 1.65441 22.1454C2.32954 22.8205 3.24522 23.1998 4.2 23.1998H25.8C26.2728 23.1998 26.7409 23.1067 27.1777 22.9258C27.6144 22.7449 28.0113 22.4797 28.3456 22.1454C28.6799 21.8111 28.945 21.4142 29.126 20.9775C29.3069 20.5407 29.4 20.0726 29.4 19.5998V4.3998C29.4 3.92705 29.3069 3.45892 29.126 3.02214C28.945 2.58537 28.6799 2.18851 28.3456 1.85422C28.0113 1.51993 27.6144 1.25476 27.1777 1.07384C26.7409 0.892921 26.2728 0.799805 25.8 0.799805H4.2ZM5.7088 14.803C5.60311 14.6859 5.52154 14.5491 5.46876 14.4005C5.41597 14.2519 5.39301 14.0943 5.40119 13.9368C5.40936 13.7792 5.44851 13.6249 5.51639 13.4825C5.58427 13.3401 5.67956 13.2125 5.7968 13.107L8.8048 10.3998L5.7968 7.69101C5.67595 7.5866 5.57716 7.45912 5.50622 7.31604C5.43528 7.17296 5.39361 7.01715 5.38365 6.85776C5.3737 6.69837 5.39566 6.53859 5.44825 6.3878C5.50084 6.23701 5.58301 6.09823 5.68992 5.97959C5.79684 5.86096 5.92636 5.76486 6.0709 5.69694C6.21543 5.62901 6.37207 5.59061 6.53164 5.584C6.69121 5.57739 6.85049 5.60269 7.00015 5.65843C7.14981 5.71417 7.28683 5.79922 7.4032 5.9086L11.4032 9.50861C11.528 9.62112 11.6277 9.75859 11.696 9.91211C11.7643 10.0656 11.7996 10.2318 11.7996 10.3998C11.7996 10.5678 11.7643 10.734 11.696 10.8875C11.6277 11.041 11.528 11.1785 11.4032 11.291L7.4032 14.891C7.28611 14.9967 7.14934 15.0783 7.0007 15.131C6.85206 15.1838 6.69447 15.2068 6.53695 15.1986C6.37943 15.1904 6.22507 15.1513 6.08269 15.0834C5.94032 15.0155 5.81432 14.9202 5.7088 14.803ZM14.6 12.3998C14.2817 12.3998 13.9765 12.5262 13.7515 12.7513C13.5264 12.9763 13.4 13.2815 13.4 13.5998C13.4 13.9181 13.5264 14.2233 13.7515 14.4483C13.9765 14.6734 14.2817 14.7998 14.6 14.7998H18.6C18.9183 14.7998 19.2235 14.6734 19.4485 14.4483C19.6736 14.2233 19.8 13.9181 19.8 13.5998C19.8 13.2815 19.6736 12.9763 19.4485 12.7513C19.2235 12.5262 18.9183 12.3998 18.6 12.3998H14.6Z" fill="#5CC758"/>
</svg>
