<svg width="35" height="34" viewBox="0 0 35 34" fill="none" xmlns="http://www.w3.org/2000/svg">
<path d="M7.33536 17.8275L7.33545 17.8276C8.54456 19.4598 9.90701 21.0375 11.3833 22.5138C12.9197 24.0502 14.5621 25.4589 16.266 26.705L7.33536 17.8275ZM7.33536 17.8275C5.28201 15.0573 3.69301 12.1749 2.60617 9.26437L7.33536 17.8275ZM12.5468 13.0145L12.5462 13.0137C12.1005 12.4265 12.1563 11.594 12.6775 11.0728L13.9601 9.79014C14.7152 9.0351 14.7152 7.80687 13.9601 7.05183L9.95766 3.04934C9.58062 2.6723 9.08711 2.48424 8.58851 2.48424C8.08991 2.48424 7.5964 2.6723 7.21935 3.04934L3.05068 7.21802C2.51547 7.75323 2.34205 8.55535 2.60612 9.26425L12.5468 13.0145ZM12.5468 13.0145C13.7238 14.5586 15.033 16.0548 16.4415 17.4586M12.5468 13.0145L16.4415 17.4586M24.9412 31.4014C25.6444 31.6543 26.4422 31.4767 26.9694 30.9495L31.0468 26.8721C31.4105 26.5084 31.6096 26.0252 31.6096 25.5029C31.6096 24.9819 31.409 24.4981 31.0462 24.1332C31.0461 24.1331 31.046 24.133 31.0459 24.1329L27.0443 20.1313C26.6806 19.7676 26.1974 19.5685 25.6751 19.5685C25.1542 19.5685 24.6703 19.7691 24.3054 20.1319C24.3053 20.132 24.3052 20.1321 24.3051 20.1322L23.0514 21.3859C22.5342 21.9031 21.7031 21.9637 21.1172 21.5233C21.1172 21.5233 21.1171 21.5233 21.1171 21.5233L24.9412 31.4014ZM24.9412 31.4014C21.997 30.3402 19.078 28.7608 16.266 26.705L24.9412 31.4014ZM16.4415 17.4586L16.7945 17.105L16.4418 17.4589C16.4417 17.4588 16.4416 17.4587 16.4416 17.4586L16.4415 17.4586ZM15.093 28.3057L15.093 28.3057L24.4346 32.7964L24.2642 33.2664C24.2644 33.2665 24.2646 33.2666 24.2649 33.2667C24.6944 33.4223 25.1451 33.5 25.5956 33.5C25.8835 33.5 26.1663 33.4677 26.441 33.4096L26.441 33.4096L26.4473 33.4082C27.173 33.2449 27.8359 32.8828 28.3647 32.3541L32.442 28.2767C33.1804 27.5384 33.5856 26.5518 33.5856 25.5053C33.5856 24.4588 33.1804 23.4722 32.442 22.7339L28.4396 18.7314C27.7012 17.993 26.7146 17.5878 25.6681 17.5878C24.6216 17.5878 23.635 17.993 22.8967 18.7314L21.9533 19.6748C20.5243 18.5753 19.141 17.3605 17.8368 16.0563C16.6018 14.8192 15.4441 13.512 14.3927 12.1621L15.3624 11.1924C16.1008 10.4541 16.506 9.4675 16.506 8.42099C16.506 7.37447 16.1008 6.3879 15.3624 5.64956L11.3599 1.64707C9.83051 0.117644 7.3465 0.117644 5.81708 1.64707L1.64841 5.81574C0.564755 6.89939 0.210239 8.52425 0.747121 9.95821C1.90257 13.0513 3.58333 16.0951 5.74062 19.0078C7.008 20.7206 8.43332 22.3707 9.97873 23.9161L9.97899 23.9164C11.5857 25.5207 13.3043 26.998 15.093 28.3057Z" fill="#5CC758" stroke="#5CC758"/>
</svg>
