<svg width="40" height="40" viewBox="0 0 40 40" fill="none" xmlns="http://www.w3.org/2000/svg">
<rect width="40" height="40" rx="8" fill="#CBFCC9"/>
<path fill-rule="evenodd" clip-rule="evenodd" d="M14.7003 7.29458C15.2297 6.8289 15.8578 6.48926 16.5374 6.3012L17.3897 5.30575L19.2778 5.39993L21.1236 12.0695L19.0591 12.7837C18.5335 14.3438 20.2493 18.2415 21.0761 19.5742C22.0696 21.1757 24.4593 25.2519 26.6733 25.2516L26.44 23.5508L28.3207 23.6772L33.3397 28.4417L31.2244 30.509C30.5802 31.1876 29.7569 31.6698 28.8498 31.8997C25.6434 32.7122 22.1867 31.6799 20.0061 29.0689C18.4089 27.1565 16.9167 24.9814 15.5987 22.8568C13.9273 20.1627 12.4761 15.9256 12.1883 13.8918C11.8187 11.2796 12.9205 8.85991 14.7003 7.29458Z" fill="#CBFCC9"/>
<path d="M21.1236 12.0695L19.2778 5.39993L17.3897 5.30575L16.5374 6.30119C15.8578 6.48926 15.2297 6.8289 14.7003 7.29458C12.9205 8.85991 11.8187 11.2796 12.1883 13.8918C12.4761 15.9256 13.9273 20.1627 15.5987 22.8568C16.9167 24.9814 18.4089 27.1565 20.0061 29.0689C22.1867 31.6799 25.6434 32.7122 28.8498 31.8997C29.7569 31.6698 30.5802 31.1876 31.2244 30.509L33.3397 28.4417M21.1236 12.0695L19.0591 12.7837C18.5335 14.3438 20.2493 18.2415 21.0761 19.5742C22.0696 21.1757 24.4593 25.2519 26.6733 25.2516L26.44 23.5508L28.3207 23.6772L33.3397 28.4417M21.1236 12.0695L18.7648 12.1706M33.3397 28.4417L30.8521 28.4417" stroke="#131B20"/>
<path fill-rule="evenodd" clip-rule="evenodd" d="M12.3806 7.29431C12.91 6.82862 13.5382 6.48899 14.2177 6.30092L16.9581 5.39966L18.8039 12.0693C17.5018 12.5197 16.5218 13.6008 16.8448 14.9402C17.2586 16.6562 18.2051 18.6853 18.7564 19.574C19.4481 20.6889 20.8165 23.0034 22.3313 24.3066C23.44 25.2605 24.9437 24.6874 26.001 23.6769L31.02 28.4414L28.9047 30.5088C28.2605 31.1874 27.4372 31.6696 26.5302 31.8994C23.3237 32.712 19.867 31.6796 17.6864 29.0686C16.0893 27.1562 14.597 24.9812 13.279 22.8565C11.6076 20.1624 10.1564 15.9254 9.86866 13.8916C9.49903 11.2794 10.6009 8.85963 12.3806 7.29431Z" fill="white" stroke="#131B20"/>
</svg>
