<svg width="27" height="22" viewBox="0 0 27 22" fill="none" xmlns="http://www.w3.org/2000/svg">
<g clip-path="url(#clip0_814_23736)">
<path d="M4.09519 15.9191C3.36134 15.7461 2.71061 15.5833 2.05379 15.4408C0.92869 15.1966 0.23133 14.4843 0.123888 13.3711C0.00428265 12.1398 -0.0686969 10.8719 0.0955071 9.6569C0.178623 9.04025 0.70367 8.30353 1.24494 7.96976C2.28692 7.32258 3.47689 6.91555 4.61619 6.42712C4.88378 6.31315 5.18583 6.27448 5.48383 6.19918C5.48383 5.85931 5.48789 5.59067 5.48383 5.32203C5.4514 3.06301 6.16295 1.88262 8.28746 1.3372C13.1264 0.0957564 18.0363 -0.498508 22.9969 0.514998C25.3079 0.987153 26.2546 2.3853 26.1391 4.74404C26.0012 7.53831 25.5208 8.11222 22.7699 8.65764C21.886 8.83267 20.9879 8.93646 20.1588 9.06264C20.3088 10.2776 20.4507 11.4295 20.5947 12.6119C21.5677 12.9762 22.6523 13.3242 23.6861 13.7822C25.539 14.6003 25.685 16.3037 25.6079 17.9929C25.5147 20.0464 24.9025 20.8156 23.001 21.3509C21.9732 21.6399 20.8906 21.7905 19.8223 21.8739C15.4861 22.2097 11.1965 21.8597 6.97586 20.8034C4.82701 20.2662 4.11546 19.275 4.09519 17.0221C4.09317 16.6884 4.09519 16.3505 4.09519 15.9191ZM6.57852 3.55145C6.60691 3.70612 6.63326 3.86079 6.66164 4.01342C7.53537 4.34312 8.38882 4.74812 9.28485 4.98623C12.7027 5.88984 16.1753 5.79622 19.6196 5.24876C21.0163 5.02693 22.3745 4.44691 23.6861 3.88521C24.0875 3.71222 24.5457 3.02231 24.497 2.63156C24.4524 2.27337 23.7794 1.95792 23.3395 1.69742C23.0597 1.53257 22.703 1.47152 22.3745 1.41861C17.6998 0.657458 13.1041 1.20084 8.56519 2.35478C7.84756 2.53794 7.23737 3.14238 6.57852 3.55145ZM10.1647 12.1194C13.096 11.8284 15.6422 11.5984 18.1843 11.3094C18.7479 11.2464 19.427 11.0001 19.2486 10.2451C19.1047 9.62841 18.7073 9.1298 17.8985 9.11759C15.9098 9.0891 13.9109 9.08706 11.9364 8.88965C9.83017 8.67799 7.58808 8.92018 5.76764 7.42231C5.64601 7.32258 5.36828 7.32869 5.19597 7.38567C4.30197 7.6767 3.34512 7.87411 2.55654 8.35034C1.95446 8.71463 1.57132 9.44525 1.09087 10.0131C1.66659 10.3753 2.20381 10.9533 2.82413 11.0612C5.36828 11.5069 7.93676 11.8101 10.1647 12.1194ZM6.72854 16.2569C6.92112 16.436 6.97991 16.5215 7.061 16.5601C7.27386 16.6578 7.49482 16.7474 7.71984 16.8125C12.2446 18.1231 16.818 18.1048 21.4116 17.2826C22.1657 17.1483 22.928 16.9346 23.6213 16.6171C24.4849 16.2243 24.568 15.5731 23.7733 15.1111C22.857 14.5779 21.8211 14.2441 20.8176 13.8798C20.6676 13.8249 20.2825 14.0304 20.2135 14.1994C19.8486 15.105 19.0742 15.451 18.2431 15.6097C16.8261 15.8824 15.3928 16.1653 13.9576 16.2264C11.606 16.3302 9.24836 16.2569 6.72854 16.2569ZM12.1088 15.2739C12.1088 14.4517 12.1088 13.7577 12.1088 13.0414C11.5959 13.0414 11.1722 13.0414 10.708 13.0414C10.708 13.8147 10.708 14.5291 10.708 15.2739C11.2249 15.2739 11.6465 15.2739 12.1088 15.2739ZM20.7143 20.5877C22.1739 20.8258 22.484 20.779 21.9813 18.3531C20.5014 18.4243 20.3636 18.6706 20.7143 20.5877ZM14.5718 12.8073C14.0954 12.8419 13.6758 12.8724 13.1791 12.9091C13.2237 13.6946 13.2643 14.3866 13.3068 15.1172C13.838 15.1172 14.288 15.1172 14.8333 15.1172C14.7441 14.3255 14.663 13.6071 14.5718 12.8073ZM8.08069 15.1559C8.59763 15.1559 9.0355 15.1559 9.50784 15.1559C9.50784 14.4171 9.50784 13.7618 9.50784 13.0475C9.00712 13.0475 8.56519 13.0475 8.08069 13.0475C8.08069 13.7435 8.08069 14.3703 8.08069 15.1559ZM15.6726 12.8236C15.7598 13.5888 15.8388 14.2625 15.9138 14.9239C17.4383 14.8893 17.6633 14.3113 16.9234 12.6242C16.5747 12.6791 16.2139 12.7361 15.6726 12.8236ZM5.23448 16.8919C5.0865 18.5261 5.4818 19.2343 6.6961 19.5152C6.83801 17.5167 6.8076 17.4617 5.23448 16.8919ZM6.89072 15.1009C6.89072 14.3235 6.89072 13.6031 6.89072 12.8541C6.42851 12.8541 6.0474 12.8541 5.67439 12.8541C5.4291 14.9279 5.48789 15.0399 6.89072 15.1009ZM23.6841 7.27984C24.8011 6.97864 25.3708 5.53368 24.9288 4.37161C23.5767 4.8804 23.3192 5.91629 23.6841 7.27984ZM11.7803 18.7418C11.2492 18.6767 10.8032 18.6217 10.3147 18.5627C10.3147 19.2058 10.3147 19.7614 10.3147 20.3883C10.8559 20.4819 11.3546 20.5674 11.9304 20.665C11.8756 19.965 11.831 19.4053 11.7803 18.7418ZM14.4198 18.8965C13.8745 18.868 13.4204 18.8456 12.9723 18.8212C12.8142 20.8258 12.9663 21.0192 14.4198 20.718C14.4198 20.1624 14.4198 19.5966 14.4198 18.8965ZM15.5327 19.0023C15.5327 19.3605 15.5246 19.6597 15.5347 19.9568C15.5449 20.2478 15.5753 20.5368 15.5956 20.8177C16.1287 20.8177 16.5747 20.8177 17.0126 20.8177C17.1464 18.8843 17.0714 18.7866 15.5327 19.0023ZM19.4716 20.8156C19.4716 20.1074 19.4716 19.4501 19.4716 18.6625C18.9567 18.75 18.4924 18.8273 18.0039 18.9107C18.085 19.6454 18.1519 20.2356 18.2167 20.8136C18.681 20.8156 19.0398 20.8156 19.4716 20.8156ZM2.1065 14.3194C2.52613 12.1011 2.49978 12.0421 1.05235 11.6351C0.859765 12.9722 1.18412 13.833 2.1065 14.3194ZM20.5014 7.95959C20.4142 7.3063 20.3494 6.81787 20.2723 6.24395C19.7088 6.34774 19.2303 6.43322 18.7033 6.53091C18.7702 7.07836 18.8269 7.53424 18.8898 8.04506C19.4412 8.01453 19.8993 7.99215 20.5014 7.95959ZM3.46878 12.3555C3.05726 14.6227 3.14038 14.8058 4.48239 14.6837C4.48239 14.0243 4.48239 13.3588 4.48239 12.6323C4.15195 12.5407 3.83976 12.4573 3.46878 12.3555ZM23.3456 20.024C24.3632 19.5681 24.6268 18.9657 24.5072 17.5045C23.0354 17.9237 23.0354 17.9237 23.3456 20.024ZM9.12267 20.085C9.2808 18.2636 9.27471 18.2534 7.93473 18.1374C7.61037 19.7716 7.75228 20.0138 9.12267 20.085ZM7.94081 5.7372C7.70768 5.6273 7.50091 5.51944 7.28602 5.43193C7.061 5.34034 6.8299 5.26708 6.57244 5.1755C6.5765 7.07022 6.69205 7.231 7.93878 7.12924C7.94081 6.6693 7.94081 6.20732 7.94081 5.7372ZM13.6859 6.74256C13.7103 7.16181 13.7285 7.48947 13.7488 7.87818C14.2657 7.92702 14.7239 7.96976 15.2732 8.02064C15.328 7.56477 15.3726 7.18623 15.4253 6.74256C14.8131 6.74256 14.3204 6.74256 13.6859 6.74256ZM18.1336 12.5082C18.233 13.1798 18.3181 13.7577 18.4073 14.3642C19.3317 13.947 19.5202 13.4036 19.2628 12.0869C18.9182 12.2151 18.5816 12.3413 18.1336 12.5082ZM22.4252 5.94071C21.294 5.93054 21.0954 6.42915 21.7096 7.71944C22.6482 7.53831 22.6867 7.44266 22.4252 5.94071ZM17.8255 8.02675C17.6876 7.54034 17.6086 7.08854 17.414 6.69372C17.3694 6.60214 16.7653 6.62046 16.7004 6.74053C16.5058 7.10279 16.449 7.54034 16.3193 8.02675C16.895 8.02675 17.2538 8.02675 17.8255 8.02675ZM9.13889 6.13609C8.96658 7.58919 9.08416 7.72554 10.3228 7.53831C10.3593 6.74256 10.2478 6.0791 9.13889 6.13609ZM12.5466 7.77235C12.6541 6.5533 12.4878 6.40676 11.3344 6.65912C11.306 7.4569 11.4479 8.07152 12.5466 7.77235Z" fill="#5CC758"/>
</g>
<defs>
<clipPath id="clip0_814_23736">
<rect width="26.1449" height="22" fill="white"/>
</clipPath>
</defs>
</svg>
