<svg width="32" height="32" viewBox="0 0 32 32" fill="none" xmlns="http://www.w3.org/2000/svg">
<path d="M5.54443 18.8794H28.6375V24.2469C28.6375 24.2469 27.8677 26.5206 17.091 26.5206C6.3142 26.5206 5.54443 24.2469 5.54443 24.2469V18.8794Z" fill="#CBFCC9" stroke="#131B20" stroke-width="0.6" stroke-linecap="round"/>
<path d="M7.74902 19.2847V25.2029" stroke="#131B20" stroke-width="0.6" stroke-linecap="round"/>
<path d="M15.0217 19.7892V26.3067" stroke="#131B20" stroke-width="0.6" stroke-linecap="round"/>
<path d="M11.3854 19.7892V26.3067" stroke="#131B20" stroke-width="0.6" stroke-linecap="round"/>
<path d="M18.6581 19.7892V26.3067" stroke="#131B20" stroke-width="0.6" stroke-linecap="round"/>
<path d="M25.9308 18.9659V25.4834" stroke="#131B20" stroke-width="0.6" stroke-linecap="round"/>
<path d="M22.2944 19.2847V25.9521" stroke="#131B20" stroke-width="0.6" stroke-linecap="round"/>
<ellipse cx="17.091" cy="18.7671" rx="11.5465" ry="2.58454" fill="white" stroke="#131B20" stroke-width="0.6" stroke-linecap="round"/>
<ellipse cx="16.9521" cy="18.8381" rx="8.36364" ry="1.1908" stroke="#131B20" stroke-width="0.6" stroke-linecap="round"/>
<path d="M3.36255 13.9395L26.4556 13.9395V19.307C26.4556 19.307 25.6858 21.5807 14.9091 21.5807C4.13232 21.5807 3.36255 19.307 3.36255 19.307L3.36255 13.9395Z" fill="#CBFCC9" stroke="#131B20" stroke-width="0.6" stroke-linecap="round"/>
<path d="M5.56714 14.3448V20.263" stroke="#131B20" stroke-width="0.6" stroke-linecap="round"/>
<path d="M12.8398 14.8492V21.3668" stroke="#131B20" stroke-width="0.6" stroke-linecap="round"/>
<path d="M9.20349 14.8492V21.3668" stroke="#131B20" stroke-width="0.6" stroke-linecap="round"/>
<path d="M16.4762 14.8492V21.3668" stroke="#131B20" stroke-width="0.6" stroke-linecap="round"/>
<path d="M23.7489 14.0259V20.5435" stroke="#131B20" stroke-width="0.6" stroke-linecap="round"/>
<path d="M20.1125 14.3448V21.0121" stroke="#131B20" stroke-width="0.6" stroke-linecap="round"/>
<ellipse cx="14.9091" cy="13.8272" rx="11.5465" ry="2.58454" fill="white" stroke="#131B20" stroke-width="0.6" stroke-linecap="round"/>
<ellipse cx="14.7701" cy="13.8982" rx="8.36364" ry="1.1908" stroke="#131B20" stroke-width="0.6" stroke-linecap="round"/>
<path d="M5.54443 8.17619L28.6375 8.17619V13.5437C28.6375 13.5437 27.8677 15.8174 17.091 15.8174C6.3142 15.8174 5.54443 13.5437 5.54443 13.5437V8.17619Z" fill="#CBFCC9" stroke="#131B20" stroke-width="0.6" stroke-linecap="round"/>
<path d="M7.74902 8.58149V14.4997" stroke="#131B20" stroke-width="0.6" stroke-linecap="round"/>
<path d="M15.0217 9.08598V15.6035" stroke="#131B20" stroke-width="0.6" stroke-linecap="round"/>
<path d="M11.3854 9.08598V15.6035" stroke="#131B20" stroke-width="0.6" stroke-linecap="round"/>
<path d="M18.6581 9.08598V15.6035" stroke="#131B20" stroke-width="0.6" stroke-linecap="round"/>
<path d="M25.9308 8.26266V14.7802" stroke="#131B20" stroke-width="0.6" stroke-linecap="round"/>
<path d="M22.2944 8.58149V15.2489" stroke="#131B20" stroke-width="0.6" stroke-linecap="round"/>
<ellipse cx="17.091" cy="8.06389" rx="11.5465" ry="2.58454" fill="white" stroke="#131B20" stroke-width="0.6" stroke-linecap="round"/>
<ellipse cx="16.9521" cy="8.13491" rx="8.36364" ry="1.1908" stroke="#131B20" stroke-width="0.6" stroke-linecap="round"/>
</svg>
