<svg width="108" height="100" viewBox="0 0 108 100" fill="none" xmlns="http://www.w3.org/2000/svg">
<circle cx="53.9056" cy="50.0001" r="36.6198" fill="#CBFCC9"/>
<path d="M35.0365 16.6106H35.2973L35.4025 16.3721L36.1853 14.5978C36.1984 14.6037 36.2121 14.6101 36.2264 14.617C36.3634 14.6838 36.5242 14.7857 36.7024 14.9203C37.0585 15.1893 37.4534 15.5656 37.8233 15.9799C38.1927 16.3938 38.5271 16.8342 38.7664 17.2262C38.8861 17.4224 38.978 17.5998 39.0389 17.751C39.102 17.9077 39.1211 18.0103 39.1211 18.0645V18.9985C39.1211 20.0548 39.852 20.9382 40.8275 21.2407C41.979 21.5976 43.0849 22.0583 44.1344 22.6117C45.0379 23.0883 46.1795 22.9803 46.9265 22.2333L47.5881 21.5717C48.1559 21.0039 49.0765 21.0039 49.6442 21.5717L53.3646 25.2921C53.9324 25.8598 53.9324 26.7804 53.3646 27.3482L52.7029 28.0099C51.956 28.7568 51.848 29.8984 52.3245 30.802C52.8778 31.8514 53.3384 32.9572 53.6954 34.1086C53.7345 34.2349 53.7906 34.3661 53.8821 34.4721C53.9854 34.5919 54.1298 34.6731 54.3027 34.679C54.453 34.6842 54.5791 34.6302 54.6612 34.5866C54.7469 34.5411 54.8289 34.4824 54.8972 34.4313C54.9335 34.4042 54.968 34.3779 55.0013 34.3524C55.1077 34.271 55.2032 34.198 55.3138 34.1338C55.3967 34.0858 55.4743 34.0516 55.5494 34.0321L55.7949 34.2747L55.7948 34.2748L55.8049 34.2842C55.9361 34.4052 56.0766 34.5315 56.2218 34.6622C56.6328 35.0318 57.0826 35.4364 57.4723 35.854C57.7337 36.1341 57.9533 36.4052 58.1058 36.6574C58.2611 36.9142 58.3256 37.1172 58.3256 37.2689V42.5303C58.3256 43.3332 57.6747 43.9842 56.8717 43.9842H55.9375C54.8812 43.9842 53.9977 44.715 53.6953 45.6906C53.3384 46.8419 52.8778 47.9478 52.3243 48.9972C51.8478 49.9007 51.9558 51.0423 52.7027 51.7892L53.3647 52.4511C53.9324 53.0189 53.9324 53.9395 53.3647 54.5073L49.6443 58.2276C49.0765 58.7954 48.1559 58.7954 47.5882 58.2276L46.9262 57.5657C46.1793 56.8188 45.0377 56.7108 44.1342 57.1873C43.0848 57.7407 41.9789 58.2013 40.8275 58.5583C39.852 58.8607 39.1211 59.7441 39.1211 60.8004V61.7346C39.1211 62.5376 38.4702 63.1885 37.6672 63.1885H32.4058C32.2776 63.1885 32.0313 63.0989 31.6743 62.8631C31.337 62.6402 30.9618 62.3285 30.5938 61.9842C30.0459 61.4715 29.5424 60.9139 29.227 60.5156L30.5287 59.8376L30.7439 59.7255V59.4829C30.7439 59.2672 30.7259 59.0249 30.5983 58.8413C30.4302 58.5996 30.1753 58.5807 30.0363 58.5837C29.9502 58.5855 29.8753 58.5928 29.8044 58.5996C29.6304 58.6164 29.4799 58.6309 29.2456 58.5583C28.0942 58.2013 26.9884 57.7408 25.9391 57.1874C25.0355 56.7109 23.8939 56.8189 23.147 57.5658L22.4852 58.2276C21.9174 58.7954 20.9968 58.7954 20.429 58.2276L16.7087 54.5073C16.1409 53.9395 16.1409 53.0189 16.7087 52.4511L17.3704 51.7894C18.1173 51.0425 18.2253 49.9009 17.7488 48.9973C17.1954 47.9478 16.7347 46.842 16.3778 45.6905C16.0753 44.715 15.1919 43.9842 14.1356 43.9842H13.2016C13.0395 43.9842 12.8342 43.9247 12.5782 43.7816C12.3243 43.6398 12.0455 43.4298 11.7433 43.1636C11.192 42.6779 10.6048 42.0432 9.9887 41.3774C9.9857 41.3741 9.98269 41.3709 9.97968 41.3676L11.7138 37.4301L11.7477 37.3531V37.2689C11.7477 36.4659 12.3986 35.815 13.2016 35.815H14.1356C15.1919 35.815 16.0753 35.0841 16.3777 34.1086C16.7347 32.9572 17.1953 31.8513 17.7487 30.8018C18.2252 29.8983 18.1172 28.7567 17.3703 28.0098L16.7087 27.3482C16.1409 26.7804 16.1409 25.8599 16.7087 25.2921L20.4291 21.5717C20.9969 21.0039 21.9174 21.0039 22.4852 21.5717L23.1468 22.2333C23.8937 22.9802 25.0353 23.0882 25.9389 22.6117C26.9883 22.0582 28.0942 21.5976 29.2456 21.2407C30.2211 20.9382 30.9519 20.0548 30.9519 18.9985V18.0645C30.9519 17.2616 31.6029 16.6106 32.4058 16.6106H35.0365ZM35.0365 52.9518C42.2451 52.9518 48.0888 47.1081 48.0888 39.8996C48.0888 32.691 42.2451 26.8474 35.0365 26.8474C27.828 26.8474 21.9843 32.691 21.9843 39.8996C21.9843 47.1081 27.828 52.9518 35.0365 52.9518Z" fill="#CBFCC9" stroke="#131B20" stroke-width="0.8"/>
<path d="M28.6345 15.747C28.6345 14.944 29.2855 14.2931 30.0884 14.2931H35.3498C36.1528 14.2931 36.8037 14.944 36.8037 15.747V16.681C36.8037 17.7373 37.5346 18.6207 38.5101 18.9231C39.6616 19.2801 40.7675 19.7407 41.8169 20.2942C42.7205 20.7707 43.8621 20.6627 44.609 19.9158L45.2707 19.2541C45.8385 18.6864 46.759 18.6864 47.3268 19.2541L51.0472 22.9745C51.615 23.5423 51.615 24.4628 51.0472 25.0306L50.3854 25.6924C49.6385 26.4393 49.5305 27.5809 50.007 28.4844C50.5604 29.5338 51.021 30.6397 51.378 31.791C51.6804 32.7666 52.5638 33.4974 53.6201 33.4974H54.5543C55.3573 33.4974 56.0082 34.1484 56.0082 34.9513V40.2127C56.0082 41.0157 55.3573 41.6666 54.5543 41.6666H53.62C52.5637 41.6666 51.6803 42.3975 51.3779 43.373C51.021 44.5244 50.5603 45.6302 50.0069 46.6796C49.5304 47.5832 49.6384 48.7248 50.3853 49.4717L51.0472 50.1336C51.615 50.7014 51.615 51.6219 51.0472 52.1897L47.3269 55.9101C46.7591 56.4779 45.8385 56.4779 45.2707 55.9101L44.6088 55.2481C43.8619 54.5012 42.7203 54.3932 41.8167 54.8697C40.7673 55.4232 39.6615 55.8838 38.5101 56.2407C37.5346 56.5431 36.8037 57.4265 36.8037 58.4828V59.4171C36.8037 60.2201 36.1528 60.871 35.3498 60.871H30.0884C29.2855 60.871 28.6345 60.2201 28.6345 59.4171V58.4829C28.6345 57.4265 27.9037 56.5431 26.9281 56.2407C25.7768 55.8838 24.671 55.4232 23.6216 54.8698C22.7181 54.3933 21.5765 54.5013 20.8296 55.2482L20.1677 55.9101C19.6 56.4778 18.6794 56.4778 18.1116 55.9101L14.3912 52.1897C13.8235 51.6219 13.8235 50.7013 14.3912 50.1336L15.053 49.4718C15.7999 48.7249 15.9079 47.5833 15.4314 46.6797C14.8779 45.6303 14.4173 44.5244 14.0603 43.373C13.7579 42.3975 12.8745 41.6666 11.8182 41.6666H10.8842C10.0812 41.6666 9.43027 41.0157 9.43027 40.2127V34.9513C9.43027 34.1484 10.0812 33.4974 10.8842 33.4974H11.8181C12.8744 33.4974 13.7579 32.7666 14.0603 31.791C14.4172 30.6396 14.8779 29.5337 15.4313 28.4843C15.9078 27.5807 15.7998 26.4392 15.0529 25.6922L14.3913 25.0307C13.8235 24.4629 13.8235 23.5423 14.3913 22.9745L18.1117 19.2542C18.6795 18.6864 19.6 18.6864 20.1678 19.2542L20.8294 19.9157C21.5763 20.6626 22.7179 20.7706 23.6214 20.2941C24.6709 19.7407 25.7767 19.2801 26.9281 18.9231C27.9037 18.6207 28.6345 17.7373 28.6345 16.681V15.747ZM32.7191 50.6343C39.9277 50.6343 45.7714 44.7906 45.7714 37.582C45.7714 30.3735 39.9277 24.5298 32.7191 24.5298C25.5106 24.5298 19.6669 30.3735 19.6669 37.582C19.6669 44.7906 25.5106 50.6343 32.7191 50.6343Z" fill="white" stroke="#131B20" stroke-width="0.8"/>
<path d="M36.6863 60.4727L38.6645 62.6982" stroke="black" stroke-width="0.8"/>
<path d="M55.7273 41.4321L58.0352 43.4103" stroke="black" stroke-width="0.8"/>
<path d="M82.2104 46.5208L82.4362 46.6511L82.6466 46.4972L83.7455 45.6931C83.7945 45.7743 83.8457 45.8763 83.8971 45.9976C84.0252 46.3006 84.1398 46.6894 84.2243 47.0957C84.3088 47.5015 84.3602 47.9098 84.3685 48.2495C84.3726 48.4194 84.3658 48.5645 84.3495 48.6794C84.3324 48.8004 84.3085 48.8605 84.2971 48.8803L83.9444 49.4912C83.522 50.2229 83.6767 51.123 84.2267 51.7175C84.8409 52.3813 85.3866 53.0954 85.8608 53.8486C86.2924 54.5341 87.1219 54.9165 87.938 54.6979L88.6206 54.5149C89.1541 54.372 89.7025 54.6886 89.8455 55.2221L90.8739 59.0603C91.0169 59.5938 90.7003 60.1422 90.1667 60.2852L89.4841 60.4681C88.668 60.6868 88.1408 61.4327 88.1097 62.2421C88.0757 63.1315 87.9601 64.0227 87.7601 64.9046C87.7367 65.0078 87.7208 65.1299 87.7443 65.2528C87.7711 65.3936 87.8488 65.5263 87.9856 65.6117C88.1032 65.6851 88.2262 65.6987 88.3033 65.7015C88.3846 65.7043 88.4666 65.6961 88.5314 65.6884C88.568 65.684 88.602 65.6796 88.6343 65.6754C88.7328 65.6627 88.8149 65.652 88.9048 65.6518C88.9473 65.6517 88.9849 65.6543 89.0184 65.6595L89.0717 65.8536L89.0714 65.8537L89.0756 65.8669C89.1164 65.9979 89.1611 66.135 89.207 66.2763C89.3359 66.6722 89.4753 67.1004 89.5714 67.5161C89.6359 67.7948 89.6756 68.0477 89.6799 68.2607C89.6843 68.4791 89.6503 68.6156 89.6058 68.6927L87.6191 72.1339C87.3429 72.6122 86.7312 72.7761 86.2529 72.4999L85.6418 72.1472C84.9102 71.7247 84.01 71.8795 83.4156 72.4295C82.7518 73.0436 82.0378 73.5892 81.2846 74.0634C80.5991 74.4951 80.2167 75.3246 80.4354 76.1407L80.6183 76.8235C80.7613 77.3571 80.4447 77.9055 79.9112 78.0484L76.073 79.0769C75.5395 79.2198 74.9911 78.9032 74.8481 78.3697L74.6652 77.6868C74.4465 76.8707 73.7006 76.3435 72.8911 76.3125C72.0017 76.2784 71.1105 76.1628 70.2286 75.9629C69.4388 75.7838 68.5819 76.0998 68.1595 76.8315L67.8067 77.4425C67.5305 77.9209 66.9189 78.0848 66.4405 77.8086L62.9993 75.8218C62.9425 75.789 62.826 75.6612 62.6824 75.3738C62.5493 75.1074 62.4235 74.7675 62.3137 74.4062C62.166 73.9202 62.0563 73.4262 61.9958 73.061L62.9837 73.104L63.2262 73.1145L63.3475 72.9043C63.4289 72.7634 63.5242 72.5742 63.5073 72.3726C63.4844 72.1004 63.2868 71.9693 63.1866 71.9143C63.119 71.8772 63.0626 71.8515 63.0119 71.8286C62.8995 71.7776 62.8159 71.7396 62.7037 71.6184C62.0896 70.9546 61.544 70.2406 61.0698 69.4875C60.6382 68.802 59.8086 68.4196 58.9926 68.6383L58.3098 68.8212C57.7762 68.9642 57.2278 68.6476 57.0849 68.114L56.0565 64.2759C55.9135 63.7424 56.2301 63.194 56.7636 63.051L57.4463 62.8681C58.2624 62.6494 58.7896 61.9035 58.8207 61.094C58.8547 60.2046 58.9703 59.3133 59.1702 58.4314C59.3493 57.6416 59.0333 56.7847 58.3016 56.3623L57.6907 56.0096C57.6046 55.9599 57.5034 55.8588 57.3946 55.6763C57.2871 55.496 57.1866 55.2606 57.0906 54.9758C56.9199 54.4689 56.7796 53.8569 56.6322 53.2074L59.2014 51.3248L59.2693 51.2751L59.3114 51.2022C59.5876 50.7238 60.1992 50.5599 60.6776 50.8361L61.2884 51.1888C62.0201 51.6112 62.9203 51.4565 63.5147 50.9065C64.1785 50.2923 64.8925 49.7466 65.6457 49.2724C66.3313 48.8408 66.7136 48.0113 66.495 47.1952L66.3121 46.5127C66.1691 45.9792 66.4858 45.4308 67.0193 45.2878L70.8574 44.2594C71.3909 44.1164 71.9393 44.433 72.0823 44.9666L72.2652 45.6491C72.4838 46.4651 73.2298 46.9924 74.0393 47.0234C74.9287 47.0575 75.8199 47.173 76.7018 47.373C77.4916 47.5521 78.3485 47.236 78.771 46.5043L79.1236 45.8935C79.3998 45.4151 80.0115 45.2512 80.4898 45.5274L82.2104 46.5208ZM68.4875 70.2895C73.2491 73.0386 79.3376 71.4072 82.0867 66.6456C84.8358 61.8841 83.2043 55.7955 78.4428 53.0465C73.6813 50.2974 67.5927 51.9288 64.8436 56.6904C62.0946 61.4519 63.726 67.5404 68.4875 70.2895Z" fill="#CBFCC9" stroke="#131B20" stroke-width="0.8"/>
<path d="M78.4831 43.5027C78.7593 43.0243 79.371 42.8604 79.8493 43.1366L83.2905 45.1234C83.7689 45.3996 83.9328 46.0112 83.6566 46.4896L83.3039 47.1004C82.8815 47.8321 83.0362 48.7323 83.5862 49.3267C84.2004 49.9905 84.7461 50.7046 85.2203 51.4578C85.6519 52.1433 86.4815 52.5257 87.2975 52.3071L87.9801 52.1242C88.5137 51.9812 89.0621 52.2978 89.205 52.8313L90.2334 56.6695C90.3764 57.203 90.0598 57.7514 89.5263 57.8944L88.8436 58.0773C88.0275 58.296 87.5003 59.0419 87.4693 59.8514C87.4352 60.7407 87.3196 61.6319 87.1196 62.5138C86.9405 63.3036 87.2566 64.1605 87.9883 64.583L88.5993 64.9357C89.0776 65.2119 89.2415 65.8236 88.9653 66.3019L86.9786 69.7431C86.7024 70.2214 86.0907 70.3853 85.6124 70.1092L85.0013 69.7564C84.2697 69.3339 83.3695 69.4887 82.7751 70.0387C82.1113 70.6528 81.3973 71.1985 80.6441 71.6727C79.9586 72.1043 79.5762 72.9338 79.7949 73.7499L79.9779 74.4328C80.1208 74.9663 79.8042 75.5147 79.2707 75.6576L75.4325 76.6861C74.899 76.829 74.3506 76.5124 74.2077 75.9789L74.0247 75.296C73.806 74.4799 73.0601 73.9527 72.2506 73.9217C71.3612 73.8876 70.47 73.772 69.5881 73.5721C68.7983 73.393 67.9414 73.709 67.519 74.4407L67.1662 75.0517C66.89 75.5301 66.2784 75.694 65.8 75.4178L62.3588 73.431C61.8805 73.1549 61.7166 72.5432 61.9928 72.0649L62.3455 71.4538C62.768 70.7222 62.6132 69.822 62.0632 69.2276C61.4491 68.5638 60.9035 67.8498 60.4293 67.0967C59.9977 66.4112 59.1681 66.0288 58.3521 66.2475L57.6693 66.4304C57.1358 66.5734 56.5874 66.2568 56.4444 65.7232L55.416 61.8851C55.273 61.3516 55.5896 60.8032 56.1232 60.6602L56.8059 60.4773C57.6219 60.2586 58.1492 59.5127 58.1802 58.7032C58.2142 57.8138 58.3298 56.9225 58.5298 56.0406C58.7088 55.2508 58.3928 54.3939 57.6611 53.9715L57.0502 53.6188C56.5719 53.3426 56.408 52.7309 56.6841 52.2526L58.6709 48.8114C58.9471 48.3331 59.5587 48.1692 60.0371 48.4453L60.6479 48.798C61.3796 49.2205 62.2798 49.0657 62.8742 48.5157C63.538 47.9016 64.252 47.3559 65.0052 46.8816C65.6908 46.45 66.0731 45.6205 65.8545 44.8044L65.6716 44.1219C65.5286 43.5884 65.8453 43.04 66.3788 42.897L70.2169 41.8686C70.7505 41.7256 71.2989 42.0423 71.4418 42.5758L71.6247 43.2583C71.8434 44.0743 72.5893 44.6016 73.3988 44.6326C74.2882 44.6667 75.1794 44.7822 76.0613 44.9822C76.8511 45.1613 77.708 44.8452 78.1305 44.1136L78.4831 43.5027ZM67.847 67.8987C72.6086 70.6478 78.6971 69.0164 81.4462 64.2549C84.1953 59.4933 82.5638 53.4048 77.8023 50.6557C73.0408 47.9066 66.9522 49.538 64.2031 54.2996C61.4541 59.0611 63.0855 65.1497 67.847 67.8987Z" fill="white" stroke="#131B20" stroke-width="0.8"/>
<path d="M66.7749 75.7466L67.2284 77.9492" stroke="black" stroke-width="0.8"/>
<path d="M86.4197 70.4834L87.1822 72.6487" stroke="black" stroke-width="0.8"/>
</svg>
