<svg width="67" height="67" viewBox="0 0 67 67" fill="none" xmlns="http://www.w3.org/2000/svg">
<ellipse cx="33.2934" cy="33.4628" rx="32.7934" ry="33.4628" fill="#033401"/>
<path fill-rule="evenodd" clip-rule="evenodd" d="M46.4116 20.163C46.4116 18.977 45.4392 18.0156 44.2396 18.0156H20.6721C19.4725 18.0156 18.5 18.977 18.5 20.163V36.1871C18.5 43.8072 24.7483 49.9844 32.4559 49.9844C40.1635 49.9844 46.4116 43.8072 46.4116 36.1871V20.163ZM34.2621 33.5378L34.8655 33.1407C36.0401 32.3676 36.8109 31.0495 36.8109 29.5538C36.8109 27.1761 34.8612 25.2486 32.4562 25.2486C30.0512 25.2486 28.1015 27.1761 28.1015 29.5538C28.1015 31.0495 28.8722 32.3676 30.0468 33.1407L30.6503 33.5378L28.4358 39.6973H36.4766L34.2621 33.5378Z" fill="#5CC758"/>
<path fill-rule="evenodd" clip-rule="evenodd" d="M46.4116 20.163C46.4116 18.977 45.4392 18.0156 44.2396 18.0156H20.6721C19.4725 18.0156 18.5 18.977 18.5 20.163V36.1871C18.5 43.8072 24.7483 49.9844 32.4559 49.9844C40.1635 49.9844 46.4116 43.8072 46.4116 36.1871V20.163ZM34.2621 33.5378L34.8655 33.1407C36.0401 32.3676 36.8109 31.0495 36.8109 29.5538C36.8109 27.1761 34.8612 25.2486 32.4562 25.2486C30.0512 25.2486 28.1015 27.1761 28.1015 29.5538C28.1015 31.0495 28.8722 32.3676 30.0468 33.1407L30.6503 33.5378L28.4358 39.6973H36.4766L34.2621 33.5378Z" fill="url(#paint0_linear_476_14869)"/>
<path fill-rule="evenodd" clip-rule="evenodd" d="M46.4116 20.163C46.4116 18.977 45.4392 18.0156 44.2396 18.0156H20.6721C19.4725 18.0156 18.5 18.977 18.5 20.163V36.1871C18.5 43.8072 24.7483 49.9844 32.4559 49.9844C40.1635 49.9844 46.4116 43.8072 46.4116 36.1871V20.163ZM34.2621 33.5378L34.8655 33.1407C36.0401 32.3676 36.8109 31.0495 36.8109 29.5538C36.8109 27.1761 34.8612 25.2486 32.4562 25.2486C30.0512 25.2486 28.1015 27.1761 28.1015 29.5538C28.1015 31.0495 28.8722 32.3676 30.0468 33.1407L30.6503 33.5378L28.4358 39.6973H36.4766L34.2621 33.5378Z" fill="#5CC758"/>
<path fill-rule="evenodd" clip-rule="evenodd" d="M46.4116 20.163C46.4116 18.977 45.4392 18.0156 44.2396 18.0156H20.6721C19.4725 18.0156 18.5 18.977 18.5 20.163V36.1871C18.5 43.8072 24.7483 49.9844 32.4559 49.9844C40.1635 49.9844 46.4116 43.8072 46.4116 36.1871V20.163ZM34.2621 33.5378L34.8655 33.1407C36.0401 32.3676 36.8109 31.0495 36.8109 29.5538C36.8109 27.1761 34.8612 25.2486 32.4562 25.2486C30.0512 25.2486 28.1015 27.1761 28.1015 29.5538C28.1015 31.0495 28.8722 32.3676 30.0468 33.1407L30.6503 33.5378L28.4358 39.6973H36.4766L34.2621 33.5378Z" fill="url(#paint1_linear_476_14869)"/>
<defs>
<linearGradient id="paint0_linear_476_14869" x1="38.4089" y1="55.7508" x2="14.6197" y2="13.6985" gradientUnits="userSpaceOnUse">
<stop stop-color="#C8FFC6"/>
<stop offset="0.686198" stop-color="#FCE61A" stop-opacity="0"/>
</linearGradient>
<linearGradient id="paint1_linear_476_14869" x1="38.4089" y1="55.7508" x2="14.6197" y2="13.6985" gradientUnits="userSpaceOnUse">
<stop stop-color="#C8FFC6"/>
<stop offset="0.686198" stop-color="#FCE61A" stop-opacity="0"/>
</linearGradient>
</defs>
</svg>
