<svg width="56" height="57" viewBox="0 0 56 57" fill="none" xmlns="http://www.w3.org/2000/svg">
<rect y="0.504883" width="56" height="56" rx="8" fill="#5CC758"/>
<path fill-rule="evenodd" clip-rule="evenodd" d="M28 10.5049C35.732 10.5049 42 14.0849 42 18.5049C42 22.9249 35.732 26.5049 28 26.5049C20.268 26.5049 14 22.9249 14 18.5049C14 14.0849 20.268 10.5049 28 10.5049ZM39.388 26.7649C40.316 26.2369 41.208 25.5989 42 24.8609V28.5049C42 32.9249 35.732 36.5049 28 36.5049C20.268 36.5049 14 32.9249 14 28.5049V24.8609C14.792 25.6009 15.684 26.2369 16.612 26.7669C19.676 28.5169 23.708 29.5049 28 29.5049C32.292 29.5049 36.324 28.5169 39.388 26.7649ZM14 34.8629V38.5049C14 42.9249 20.268 46.5049 28 46.5049C35.732 46.5049 42 42.9249 42 38.5049V34.8609C41.208 35.6009 40.316 36.2369 39.388 36.7669C36.324 38.5169 32.292 39.5049 28 39.5049C23.708 39.5049 19.676 38.5169 16.612 36.7649C15.6709 36.2337 14.7944 35.5954 14 34.8629Z" fill="white"/>
</svg>
