<svg width="108" height="100" viewBox="0 0 108 100" fill="none" xmlns="http://www.w3.org/2000/svg">
<path d="M33.1196 37.4249C36.0687 36.5722 38.2554 35.9404 40.0583 35.6063C41.8533 35.2737 43.2395 35.2424 44.5853 35.5748C45.9312 35.9072 47.1434 36.5803 48.5771 37.7103C50.0172 38.8453 51.6584 40.4226 53.8714 42.5502L57.3832 45.9266C59.5962 48.0542 61.2368 49.6321 62.4275 51.0264C63.613 52.4146 64.3332 53.5994 64.7183 54.9312C65.1034 56.263 65.1266 57.6493 64.8648 59.456C64.6019 61.2706 64.0565 63.4805 63.3204 66.4609L62.1523 71.1904C61.4162 74.1707 60.87 76.3804 60.2579 78.1088C59.6484 79.8296 58.9825 81.0457 58.0216 82.0451C57.0608 83.0444 55.8718 83.7577 54.1763 84.4343C52.4734 85.114 50.2868 85.7466 47.3377 86.5993L42.6578 87.9525C39.7087 88.8052 37.5219 89.437 35.7191 89.7711C33.9241 90.1036 32.5379 90.135 31.192 89.8026C29.8461 89.4702 28.634 88.7971 27.2002 87.6671C25.7601 86.5321 24.119 84.9548 21.906 82.8271L18.3942 79.4508C16.1812 77.3231 14.5406 75.7452 13.3498 74.3509C12.1643 72.9627 11.4441 71.7779 11.0591 70.4462C10.674 69.1144 10.6508 67.7281 10.9125 65.9214C11.1754 64.1068 11.7208 61.8969 12.4569 58.9165L13.625 54.187C14.3611 51.2066 14.9073 48.9969 15.5195 47.2686C16.1289 45.5478 16.7949 44.3317 17.7557 43.3323C18.7165 42.3329 19.9055 41.6197 21.601 40.943C23.304 40.2634 25.4905 39.6308 28.4396 38.7781L33.1196 37.4249Z" fill="#131B20" stroke="#131B20" stroke-width="0.729402"/>
<rect x="-0.35035" y="0.1013" width="28.937" height="28.937" rx="5.50339" transform="matrix(-0.239778 0.970828 -0.720873 -0.693067 66.0817 54.9448)" fill="#CBFCC9" stroke="#131B20" stroke-width="0.729403"/>
<mask id="mask0_292_15788" style="mask-type:alpha" maskUnits="userSpaceOnUse" x="39" y="36" width="27" height="45">
<rect x="-0.35035" y="0.1013" width="28.937" height="28.937" rx="5.50339" transform="matrix(-0.239778 0.970828 -0.720873 -0.693067 66.0817 54.9448)" fill="#CBFCC9" stroke="#131B20" stroke-width="0.729403"/>
</mask>
<g mask="url(#mask0_292_15788)">
<path d="M58.4375 39.6591C63.8927 39.6201 66.6204 39.6006 69.173 41.05C71.7256 42.4995 73.1063 44.852 75.8677 49.5568L80.7037 57.7963C82.692 61.1839 83.6861 62.8777 83.3928 64.1759C83.0994 65.4741 81.5896 66.0623 78.5699 67.2388L69.759 70.6716C62.7993 73.3831 59.3194 74.7389 55.6492 72.8646C51.979 70.9904 50.599 67.1528 47.839 59.4777L43.6625 47.8638C42.2724 43.998 41.5773 42.0651 42.5118 40.9157C43.4463 39.7664 45.7262 39.7501 50.2861 39.7175L58.4375 39.6591Z" fill="#131B20"/>
</g>
<path d="M40.9908 61.0336C39.9735 60.0556 39.4231 58.1521 39.7615 56.7821C40.0999 55.412 41.1989 55.0943 42.2161 56.0723C43.2334 57.0504 43.7838 58.9539 43.4454 60.3239C43.1071 61.6939 42.0081 62.0116 40.9908 61.0336Z" fill="#131B20" stroke="#131B20" stroke-width="0.729403"/>
<path d="M37.1593 47.0085C36.142 46.0305 35.5917 44.127 35.93 42.757C36.2684 41.387 37.3674 41.0692 38.3847 42.0473C39.4019 43.0253 39.9523 44.9288 39.6139 46.2988C39.2756 47.6688 38.1766 47.9866 37.1593 47.0085Z" fill="#131B20" stroke="#131B20" stroke-width="0.729403"/>
<path d="M44.8173 75.0587C43.8 74.0806 43.2496 72.1772 43.588 70.8071C43.9264 69.4371 45.0253 69.1194 46.0426 70.0974C47.0599 71.0755 47.6103 72.9789 47.2719 74.349C46.9335 75.719 45.8346 76.0367 44.8173 75.0587Z" fill="#131B20" stroke="#131B20" stroke-width="0.729403"/>
<rect x="-0.0874472" y="0.354062" width="29.2977" height="29.2977" rx="5.57474" transform="matrix(0.720873 0.693067 -0.96065 0.277761 38.4293 62.8244)" fill="white" stroke="#131B20" stroke-width="0.729402"/>
<path d="M22.0749 75.3127C20.7192 75.7047 18.7956 75.2296 17.7783 74.2515C16.761 73.2735 17.0353 72.1629 18.391 71.7709C19.7466 71.3789 21.6703 71.854 22.6876 72.8321C23.7048 73.8101 23.4305 74.9207 22.0749 75.3127Z" fill="#131B20" stroke="#131B20" stroke-width="0.729402"/>
<path d="M39.6023 82.7062C38.2466 83.0982 36.323 82.6231 35.3057 81.645C34.2884 80.667 34.5627 79.5563 35.9184 79.1644C37.274 78.7724 39.1977 79.2475 40.215 80.2256C41.2322 81.2036 40.9579 82.3142 39.6023 82.7062Z" fill="#131B20" stroke="#131B20" stroke-width="0.729402"/>
<rect x="-0.437798" y="0.455362" width="29.0359" height="29.036" rx="5.52296" transform="matrix(-0.239778 0.970828 -0.96065 0.27776 44.9314 34.4944)" fill="white" stroke="#131B20" stroke-width="0.729402"/>
<path d="M26.4713 54.7821C25.1157 55.1741 24.291 54.3812 24.6294 53.0112C24.9678 51.6412 26.341 50.2128 27.6967 49.8208C29.0523 49.4289 29.877 50.2217 29.5386 51.5918C29.2003 52.9618 27.827 54.3901 26.4713 54.7821Z" fill="#131B20" stroke="#131B20" stroke-width="0.729402"/>
<path d="M49.3821 24.1276C50.898 21.458 52.0224 19.4789 53.0798 17.981C54.1326 16.4896 55.1031 15.4993 56.2987 14.7976C57.4943 14.0959 58.832 13.7314 60.6474 13.5393C62.4708 13.3463 64.747 13.3296 67.8168 13.3077L72.6882 13.2728C75.7581 13.2508 78.0342 13.235 79.8602 13.4018C81.6782 13.5678 83.021 13.9132 84.2265 14.5977C85.432 15.2823 86.4166 16.2585 87.4906 17.7347C88.5694 19.2173 89.722 21.1802 91.2759 23.8278L93.7418 28.0292C95.2958 30.6767 96.4476 32.64 97.2161 34.3047C97.9813 35.9622 98.3536 37.2978 98.3636 38.684C98.3735 40.0703 98.0203 41.4111 97.2789 43.0793C96.5343 44.7549 95.4107 46.7345 93.8948 49.404L91.4893 53.6403C89.9734 56.3098 88.8491 58.289 87.7916 59.7869C86.7388 61.2783 85.7683 62.2685 84.5727 62.9703C83.3771 63.672 82.0394 64.0365 80.224 64.2286C78.4006 64.4215 76.1244 64.4382 73.0546 64.4602L68.1831 64.495C65.1133 64.517 62.8371 64.5329 61.0112 64.3661C59.1932 64.2 57.8504 63.8547 56.6448 63.1701C55.4393 62.4856 54.4548 61.5093 53.3807 60.0332C52.302 58.5505 51.1494 56.5877 49.5955 53.9401L47.1295 49.7387C45.5756 47.0911 44.4238 45.1279 43.6552 43.4631C42.8901 41.8057 42.5177 40.4701 42.5078 39.0838C42.4979 37.6975 42.8511 36.3568 43.5924 34.6885C44.3371 33.013 45.4607 31.0334 46.9766 28.3639L49.3821 24.1276Z" fill="#131B20" stroke="#131B20" stroke-width="0.729402"/>
<rect x="-0.180086" y="0.317138" width="28.5236" height="28.5236" rx="5.42162" transform="matrix(0.506184 0.862425 -0.999974 0.0071565 85.2402 13.6873)" fill="white" stroke="#131B20" stroke-width="0.729402"/>
<path d="M66.548 20.7728C65.1368 20.7829 63.4138 19.8045 62.6995 18.5874C61.9852 17.3704 62.5501 16.3756 63.9612 16.3655C65.3724 16.3554 67.0954 17.3338 67.8097 18.5509C68.524 19.7679 67.9591 20.7627 66.548 20.7728Z" fill="#131B20" stroke="#131B20" stroke-width="0.729402"/>
<path d="M71.995 20.6554C70.5838 20.6655 68.8608 19.6871 68.1465 18.47C67.4321 17.253 67.997 16.2582 69.4082 16.2481C70.8193 16.238 72.5424 17.2164 73.2567 18.4334C73.971 19.6505 73.4061 20.6453 71.995 20.6554Z" fill="#131B20" stroke="#131B20" stroke-width="0.729402"/>
<path d="M75.2655 35.6236C73.8543 35.6337 72.1313 34.6553 71.417 33.4382C70.7026 32.2212 71.2675 31.2264 72.6787 31.2163C74.0898 31.2062 75.8129 32.1846 76.5272 33.4016C77.2415 34.6187 76.6766 35.6135 75.2655 35.6236Z" fill="#131B20" stroke="#131B20" stroke-width="0.729402"/>
<path d="M80.7119 35.5074C79.3007 35.5175 77.5777 34.539 76.8634 33.322C76.1491 32.105 76.714 31.1102 78.1251 31.1001C79.5362 31.09 81.2593 32.0684 81.9736 33.2854C82.6879 34.5025 82.123 35.4973 80.7119 35.5074Z" fill="#131B20" stroke="#131B20" stroke-width="0.729402"/>
<rect x="0.184607" y="0.314527" width="28.9382" height="28.9382" rx="5.50363" transform="matrix(0.999974 -0.00715637 -0.493789 0.869581 70.5148 38.88)" fill="white" stroke="#131B20" stroke-width="0.729402"/>
<circle cx="2.91987" cy="2.91987" r="2.55517" transform="matrix(0.999974 -0.00715639 -0.493789 0.869581 65.6398 49.2912)" fill="#131B20" stroke="#131B20" stroke-width="0.729402"/>
<circle cx="2.91987" cy="2.91987" r="2.55517" transform="matrix(0.999974 -0.00715639 -0.493789 0.869581 63.8972 56.4613)" fill="#131B20" stroke="#131B20" stroke-width="0.729402"/>
<circle cx="2.91987" cy="2.91987" r="2.55517" transform="matrix(0.999974 -0.00715639 -0.493789 0.869581 71.9703 42.244)" fill="#131B20" stroke="#131B20" stroke-width="0.729402"/>
<circle cx="2.91987" cy="2.91987" r="2.55517" transform="matrix(0.999974 -0.00715639 -0.493789 0.869581 70.2137 56.3378)" fill="#131B20" stroke="#131B20" stroke-width="0.729402"/>
<circle cx="2.91987" cy="2.91987" r="2.55517" transform="matrix(0.999974 -0.00715639 -0.493789 0.869581 78.288 42.121)" fill="#131B20" stroke="#131B20" stroke-width="0.729402"/>
<rect x="0.00452057" y="0.631665" width="29.0993" height="29.0993" rx="5.53548" transform="matrix(0.506185 0.862425 -0.49379 0.869581 55.759 13.0133)" fill="white" stroke="#131B20" stroke-width="0.729402"/>
<path d="M56.7416 41.1951C56.0448 42.4222 54.9008 42.4304 54.1865 41.2134C53.4722 39.9963 53.458 38.0149 54.1549 36.7878C54.8517 35.5607 55.9956 35.5525 56.71 36.7695C57.4243 37.9866 57.4385 39.968 56.7416 41.1951Z" fill="#131B20" stroke="#131B20" stroke-width="0.729402"/>
</svg>
