<svg width="24" height="26" viewBox="0 0 24 26" fill="none" xmlns="http://www.w3.org/2000/svg">
<path fill-rule="evenodd" clip-rule="evenodd" d="M3.2 0.200197C2.56348 0.200197 1.95303 0.453053 1.50294 0.903141C1.05286 1.35323 0.799999 1.96368 0.799999 2.6002V23.4002C0.799999 24.0367 1.05286 24.6472 1.50294 25.0973C1.95303 25.5473 2.56348 25.8002 3.2 25.8002H20.8C21.4365 25.8002 22.047 25.5473 22.4971 25.0973C22.9471 24.6472 23.2 24.0367 23.2 23.4002V9.1938C23.1994 8.55749 22.9462 7.94745 22.496 7.4978L15.904 0.902597C15.6808 0.679579 15.4159 0.502749 15.1243 0.382224C14.8328 0.261699 14.5203 0.199844 14.2048 0.200197H3.2ZM10.8 11.0002C10.8 10.6819 10.9264 10.3767 11.1515 10.1517C11.3765 9.92663 11.6817 9.8002 12 9.8002C12.3183 9.8002 12.6235 9.92663 12.8485 10.1517C13.0736 10.3767 13.2 10.6819 13.2 11.0002V15.0738L14.7088 13.397C14.9238 13.1683 15.2199 13.0329 15.5335 13.0199C15.8471 13.0069 16.1534 13.1173 16.3865 13.3275C16.6197 13.5376 16.7613 13.8308 16.7808 14.1441C16.8004 14.4574 16.6964 14.7659 16.4912 15.0034L12.8912 19.0034C12.7787 19.1282 12.6412 19.2279 12.4877 19.2962C12.3342 19.3645 12.168 19.3998 12 19.3998C11.832 19.3998 11.6658 19.3645 11.5123 19.2962C11.3588 19.2279 11.2213 19.1282 11.1088 19.0034L7.5088 15.0034C7.39942 14.887 7.31437 14.75 7.25863 14.6003C7.20289 14.4507 7.17758 14.2914 7.18419 14.1318C7.1908 13.9723 7.2292 13.8156 7.29713 13.6711C7.36506 13.5266 7.46116 13.397 7.57979 13.2901C7.69842 13.1832 7.8372 13.101 7.98799 13.0485C8.13879 12.9959 8.29856 12.9739 8.45796 12.9839C8.61735 12.9938 8.77315 13.0355 8.91623 13.1064C9.05931 13.1774 9.18679 13.2762 9.2912 13.397L10.8 15.0738V11.0002Z" fill="#5CC758"/>
</svg>
