<svg width="25" height="32" viewBox="0 0 25 32" fill="none" xmlns="http://www.w3.org/2000/svg">
<g clip-path="url(#clip0_1067_2041)">
<path d="M9.6 0C9.43026 0 9.26747 0.0674285 9.14745 0.187452C9.02743 0.307475 8.96 0.470261 8.96 0.64V2.56H5.76C5.59028 2.56005 5.42752 2.6275 5.30752 2.74752L0.18752 7.86752C0.0674963 7.98752 4.53846e-05 8.15028 0 8.32V26.24C0 26.4097 0.0674285 26.5725 0.187452 26.6925C0.307475 26.8126 0.470261 26.88 0.64 26.88H2.56V28.8C2.56 28.9697 2.62743 29.1325 2.74745 29.2525C2.86747 29.3726 3.03026 29.44 3.2 29.44H5.12V31.36C5.12 31.5297 5.18743 31.6925 5.30745 31.8125C5.42747 31.9326 5.59026 32 5.76 32H23.68C23.8497 32 24.0125 31.9326 24.1325 31.8125C24.2526 31.6925 24.32 31.5297 24.32 31.36V13.44C24.32 13.2703 24.2525 13.1075 24.1325 12.9875L21.5725 10.4275L19.0125 7.86752L16.4525 5.30752L13.8925 2.74752C13.7725 2.6275 13.6097 2.56005 13.44 2.56H10.24V0.64C10.24 0.470261 10.1726 0.307475 10.0525 0.187452C9.93253 0.0674285 9.76974 0 9.6 0ZM9.6 6.4C9.72658 6.4 9.85032 6.43753 9.95556 6.50786C10.0608 6.57818 10.1428 6.67814 10.1913 6.79508C10.2397 6.91203 10.2524 7.04071 10.2277 7.16486C10.203 7.28901 10.1421 7.40304 10.0525 7.49255C9.96304 7.58205 9.84901 7.64301 9.72486 7.6677C9.60071 7.6924 9.47203 7.67972 9.35508 7.63128C9.23814 7.58284 9.13818 7.50081 9.06786 7.39557C8.99753 7.29032 8.96 7.16658 8.96 7.04C8.96022 6.87033 9.02772 6.70767 9.1477 6.5877C9.26767 6.46772 9.43033 6.40022 9.6 6.4ZM21.76 28.8V12.425L23.04 13.705V30.72H6.4V29.44H21.12C21.2897 29.44 21.4525 29.3726 21.5725 29.2525C21.6926 29.1325 21.76 28.9697 21.76 28.8ZM19.2 26.24V9.865L20.48 11.145V28.16H3.84V26.88H18.56C18.7297 26.88 18.8925 26.8126 19.0125 26.6925C19.1326 26.5725 19.2 26.4097 19.2 26.24ZM13.175 3.84L14.455 5.12L15.095 5.76L15.735 6.4L17.015 7.68L17.655 8.32L17.92 8.585V25.6H1.28V8.585L6.025 3.84H8.96V5.23793C8.49051 5.40539 8.10462 5.74899 7.88403 6.19598C7.70344 6.55415 7.64046 6.96017 7.70406 7.35622C7.76765 7.75227 7.95457 8.11816 8.23821 8.4018C8.52184 8.68544 8.88773 8.87236 9.28378 8.93595C9.67983 8.99954 10.0859 8.93656 10.444 8.75598C10.8913 8.53581 11.2351 8.14976 11.4021 7.68C11.5717 7.20206 11.5446 6.67631 11.3267 6.21836C11.1088 5.76041 10.7179 5.40775 10.24 5.23793V3.84H13.175Z" fill="#5CC758"/>
</g>
<defs>
<clipPath id="clip0_1067_2041">
<rect width="24.32" height="32" fill="white"/>
</clipPath>
</defs>
</svg>
