<svg width="40" height="40" viewBox="0 0 40 40" fill="none" xmlns="http://www.w3.org/2000/svg">
<path d="M15.0557 10.7774V14.516C15.0557 15.0689 15.5038 15.517 16.0566 15.517C16.6095 15.517 17.0576 15.0689 17.0576 14.516V10.8039C17.0576 9.24898 18.3181 7.98847 19.873 7.98847C21.428 7.98847 22.6885 9.24898 22.6885 10.8039V14.516C22.6885 15.0689 23.1366 15.517 23.6895 15.517C24.2423 15.517 24.6904 15.0689 24.6904 14.516V10.7774C24.6904 8.11679 22.5336 5.95998 19.873 5.95998C17.2125 5.95998 15.0557 8.11679 15.0557 10.7774Z" fill="#CBFCC9" stroke="#131B20"/>
<path d="M12.208 11.9126H29.792L32.792 34.04H10.208L12.208 11.9126Z" fill="#CBFCC9" stroke="#131B20"/>
<path d="M9.20801 11.9126H26.792L27.792 34.04H7.20801L9.20801 11.9126Z" fill="white" stroke="#131B20"/>
<path d="M13.0557 10.7773V14.0876C13.0557 14.6404 13.5038 15.0885 14.0566 15.0885C14.6095 15.0885 15.0576 14.6404 15.0576 14.0876V10.8039C15.0576 9.24897 16.3181 7.98846 17.873 7.98846C19.428 7.98846 20.6885 9.24897 20.6885 10.8039V14.0876C20.6885 14.6404 21.1366 15.0885 21.6895 15.0885C22.2423 15.0885 22.6904 14.6404 22.6904 14.0876V10.7773C22.6904 8.11678 20.5336 5.95996 17.873 5.95996C15.2125 5.95996 13.0557 8.11678 13.0557 10.7773Z" fill="white" stroke="#131B20"/>
</svg>
