<svg width="64" height="44" viewBox="0 0 64 44" fill="none" xmlns="http://www.w3.org/2000/svg">
<path d="M8.14685 18.974C7.48907 20.9588 6.8232 22.9218 6.20046 24.8957C6.11689 25.1598 6.16272 25.5273 6.28134 25.7805C7.56186 28.5249 6.56979 31.0978 5.69095 33.6679C5.60199 33.9293 5.14909 34.2206 4.86063 34.2288C3.93596 34.2505 2.95468 34.3213 2.09201 34.0572C-0.0269166 33.4093 -0.371983 32.6442 0.337021 30.5396C1.07838 28.337 1.86286 26.1453 4.11658 24.9828C4.22711 24.9256 4.34034 24.8058 4.37808 24.6915C5.12752 22.5079 5.89044 20.3271 6.56709 18.1218C6.63449 17.9013 6.23281 17.4548 5.95784 17.2234C4.78784 16.2351 3.56124 15.3121 2.39394 14.3184C1.24013 13.3355 1.28056 12.712 2.63118 12.1539C12.4305 8.10265 22.2407 4.0732 32.0697 0.0954729C32.6008 -0.119613 33.388 0.0764146 33.9864 0.288778C41.1924 2.82897 47.8565 6.46909 54.2402 10.6456C57.1032 12.5187 59.8826 14.5198 62.6809 16.4937C64.1339 17.5201 64.08 18.1218 62.4841 18.8134C60.0093 19.8861 57.5345 20.9588 55.0247 21.9416C54.0947 22.3065 53.8466 22.7258 53.8359 23.7957C53.7873 28.4106 53.5825 33.0281 53.3344 37.6375C53.3048 38.1738 52.7656 38.9171 52.2696 39.1539C40.2354 44.915 27.9154 45.5956 15.4094 40.9155C10.6351 39.1294 10.3278 38.5087 10.379 33.4174C10.4141 30.0169 10.5192 26.6164 10.716 23.2213C10.8777 20.3925 10.9559 20.3979 8.14685 18.974ZM10.3736 17.8115C10.352 17.9285 10.3305 18.0456 10.3062 18.1627C16.3772 22.184 22.5076 26.1018 29.4305 28.5385C29.9184 28.71 30.5924 28.5821 31.11 28.3969C40.2138 25.1679 49.3069 21.9144 58.3999 18.6527C59.2356 18.3533 60.0363 17.9503 61.0499 17.5092C60.0902 16.8095 59.3111 16.2242 58.5131 15.6633C50.8273 10.2508 42.8315 5.40183 33.9756 2.1701C33.3206 1.93051 32.439 1.83794 31.8163 2.08025C24.489 4.94171 17.186 7.86306 9.88836 10.8062C7.9905 11.5712 6.14924 12.4752 4.0384 13.4226C5.15178 14.3075 6.08454 14.9908 6.9499 15.7532C7.65891 16.3766 8.35174 16.4828 9.2845 16.2759C15.4256 14.9146 21.5775 13.6159 27.7321 12.3254C28.7646 12.1076 29.5572 11.8081 30.1718 10.7626C31.083 9.21075 33.0941 9.00928 34.5606 10.0656C35.8439 10.9913 36.197 12.6058 35.364 13.7548C34.2722 15.2631 31.8864 15.9383 30.7487 14.7485C29.6596 13.6105 28.6649 13.8773 27.4949 14.1632C26.8398 14.3238 26.1766 14.4381 25.5161 14.5797C20.4695 15.6552 15.4229 16.7333 10.3736 17.8115ZM51.9676 23.2077C51.4393 23.401 50.9864 23.5752 50.5254 23.7304C44.3115 25.8322 38.0922 27.9096 31.8918 30.0496C30.4926 30.5315 29.1851 30.5832 27.8723 29.9025C23.2085 27.474 18.5474 25.0481 13.8863 22.6196C13.4792 22.4072 13.0829 22.1703 12.4521 21.8164C12.3443 25.4647 12.1933 28.8135 12.1556 32.165C12.0909 37.9506 12.1367 38.0894 17.62 39.8727C28.0933 43.276 38.4588 42.9601 48.7488 38.9144C50.8866 38.0731 52.0647 37.0031 51.9973 34.5718C51.8895 30.8309 51.9676 27.0874 51.9676 23.2077ZM4.78245 26.5456C2.96007 27.9749 2.36159 29.7964 1.9033 31.6613C1.85747 31.8465 2.52334 32.3719 2.91963 32.4591C3.36714 32.5571 4.22711 32.4618 4.31068 32.2304C4.92803 30.5042 5.49146 28.7318 4.78245 26.5456ZM32.4471 13.9535C33.1184 13.2538 33.5713 12.7801 34.0242 12.3063C33.5362 11.947 33.0159 11.2718 32.5657 11.3153C32.0993 11.3589 31.5629 12.0423 31.3364 12.5677C31.2475 12.7746 31.916 13.3137 32.4471 13.9535Z" fill="#033401" stroke="#033401" stroke-width="0.702381"/>
</svg>
