<svg width="32" height="32" viewBox="0 0 32 32" fill="none" xmlns="http://www.w3.org/2000/svg">
<g clip-path="url(#clip0_1067_2100)">
<path d="M29.9016 12.0656V11.2788L29.482 11.1738C28.9049 11.0689 28.3803 10.9115 27.8033 10.8591V9.60006H27.2787C22.7672 9.44268 18.8852 10.282 15.7377 12.1181C12.3279 10.1771 8.49836 9.33777 4.19672 9.60006H3.72459V10.8591C3.14754 10.964 2.62295 11.0689 2.0459 11.1738L1.57377 11.2788V12.0656H0V30.9509H13.482L13.8492 31.3181C14.4262 31.7378 15.0557 32.0001 15.7377 32.0001C16.4197 32.0001 17.0492 31.7378 17.6262 31.3181L17.9934 30.9509H31.4754V12.0656H29.9016ZM27.8033 26.964V11.9083C28.1705 11.9607 28.4852 12.0132 28.8525 12.1181V27.8558C26.2295 27.3312 23.7639 27.2263 21.4033 27.4886C23.3443 26.9115 25.2852 26.7542 27.2262 26.9115L27.8033 26.964ZM16.2623 13.0624C19.1475 11.3837 22.6623 10.5443 26.7541 10.6492V25.8624C23.2393 25.6525 19.7246 26.5968 16.2623 28.6427V13.0624ZM4.72131 10.5968C8.65574 10.4919 12.0656 11.2787 15.2131 13.0099V28.3804C12.8 26.5443 9.91475 25.6525 6.4 25.6525C5.87541 25.6525 5.29836 25.6525 4.72131 25.705V10.5968ZM2.62295 12.1181C2.99016 12.0656 3.30492 12.0132 3.67213 11.9083V26.9115L4.24918 26.8591C7.08197 26.5968 9.49508 26.8066 11.5934 27.5935C10.4393 27.3837 9.23279 27.2788 7.92131 27.2788C6.24262 27.2788 4.51148 27.4361 2.62295 27.8033V12.1181ZM30.4262 29.9017H17.6787L16.9967 30.4788C16.2623 31.0558 15.2131 31.0033 14.4787 30.4263L13.7967 29.9017H1.04918V13.1148H1.57377V29.1148L2.20328 29.0099C7.60656 27.9607 11.9082 28.2755 15.4754 30.0066L15.7377 30.2165L16.0525 30.0066C20.0393 28.2755 24.3934 27.9607 29.3246 29.0099L29.9541 29.1673V13.1148H30.4787L30.4262 29.9017Z" fill="#5CC758"/>
<path d="M22.5574 6.4525V4.40659L24.0263 3.882L15.7377 0.472168L7.44922 3.882L11.541 5.35086V8.70823L11.8033 8.86561C13.1148 9.60004 14.4263 9.96725 15.7377 9.96725C17.0492 9.96725 18.3607 9.60004 19.6722 8.86561L19.9345 8.70823V5.35086L21.5082 4.77381V6.4525C21.1935 6.60987 20.9836 6.97709 20.9836 7.3443C20.9836 7.92135 21.4558 8.39348 22.0328 8.39348C22.6099 8.39348 23.082 7.92135 23.082 7.3443C23.082 6.97709 22.8722 6.60987 22.5574 6.4525ZM18.8853 8.07872C16.7869 9.18036 14.6886 9.18036 12.5902 8.07872V5.71807L15.7377 6.87217L18.8853 5.71807V8.07872ZM15.7377 5.71807L10.3869 3.82954L15.7377 1.62627L19.4623 3.14758H16.2623C15.9476 3.14758 15.7377 3.35741 15.7377 3.67217C15.7377 3.98692 15.9476 4.19676 16.2623 4.19676H20.0394L15.7377 5.71807Z" fill="#5CC758"/>
</g>
<defs>
<clipPath id="clip0_1067_2100">
<rect width="31.4754" height="32" fill="white"/>
</clipPath>
</defs>
</svg>
