<svg width="31" height="21" viewBox="0 0 31 21" fill="none" xmlns="http://www.w3.org/2000/svg">
<g clip-path="url(#clip0_814_23697)">
<path d="M3.8869 9.05571C3.57296 10.003 3.25516 10.9399 2.95794 11.882C2.91806 12.008 2.93993 12.1834 2.99654 12.3043C3.6077 13.6141 3.13421 14.842 2.71477 16.0687C2.67231 16.1934 2.45615 16.3325 2.31848 16.3364C1.87716 16.3468 1.40882 16.3806 0.99709 16.2545C-0.0142157 15.9453 -0.178907 15.5801 0.159482 14.5757C0.51331 13.5244 0.887725 12.4784 1.96336 11.9235C2.01612 11.8962 2.07015 11.8391 2.08817 11.7845C2.44586 10.7424 2.80998 9.70152 3.13293 8.64898C3.16509 8.54373 2.97338 8.33063 2.84214 8.22017C2.28374 7.74848 1.69831 7.30798 1.14119 6.83369C0.590509 6.3646 0.609809 6.06703 1.25442 5.80065C5.93139 3.8671 10.6135 1.94395 15.3046 0.0454945C15.5581 -0.0571601 15.9338 0.0363985 16.2194 0.137754C19.6586 1.35012 22.8392 3.08745 25.886 5.08076C27.2524 5.97477 28.579 6.92985 29.9145 7.87193C30.608 8.36181 30.5823 8.64898 29.8206 8.97904C28.6394 9.49101 27.4583 10.003 26.2604 10.4721C25.8165 10.6462 25.6982 10.8463 25.693 11.357C25.6699 13.5595 25.5721 15.7633 25.4537 17.9633C25.4395 18.2192 25.1822 18.574 24.9455 18.687C19.2019 21.4366 13.3219 21.7615 7.35313 19.5278C5.07448 18.6753 4.9278 18.3791 4.95225 15.9492C4.96897 14.3262 5.01915 12.7032 5.11308 11.0828C5.19028 9.73271 5.22759 9.7353 3.8869 9.05571ZM4.94967 8.50085C4.93938 8.55673 4.92909 8.6126 4.91751 8.66848C7.81504 10.5877 10.7409 12.4576 14.045 13.6206C14.2779 13.7024 14.5995 13.6414 14.8466 13.553C19.1916 12.0119 23.5315 10.4591 27.8713 8.90237C28.2702 8.75944 28.6523 8.56712 29.1361 8.35661C28.678 8.02266 28.3062 7.74329 27.9254 7.4756C24.2571 4.89235 20.4409 2.57807 16.2143 1.03566C15.9016 0.921307 15.4809 0.877126 15.1837 0.992775C11.6866 2.35847 8.20103 3.75275 4.71808 5.15743C3.81228 5.52257 2.9335 5.95398 1.92605 6.40618C2.45744 6.82849 2.90262 7.15465 3.31563 7.51849C3.65402 7.81605 3.98469 7.86673 4.42987 7.76797C7.36085 7.11826 10.297 6.49844 13.2344 5.88251C13.7272 5.77856 14.1055 5.63562 14.3988 5.13664C14.8337 4.39597 15.7935 4.29981 16.4935 4.80399C17.1059 5.24579 17.2745 6.01635 16.8769 6.56471C16.3558 7.28459 15.2171 7.60685 14.6742 7.039C14.1544 6.49584 13.6796 6.62318 13.1212 6.75962C12.8085 6.83629 12.492 6.89086 12.1768 6.95843C9.76817 7.47171 7.35957 7.98628 4.94967 8.50085ZM24.8014 11.0763C24.5492 11.1686 24.333 11.2517 24.113 11.3258C21.1473 12.329 18.179 13.3204 15.2197 14.3418C14.5519 14.5718 13.9279 14.5965 13.3013 14.2716C11.0754 13.1125 8.85079 11.9547 6.62618 10.7956C6.43189 10.6943 6.24275 10.5812 5.94168 10.4123C5.89021 12.1535 5.81816 13.7518 5.80015 15.3514C5.76927 18.1127 5.79114 18.179 8.40819 19.0301C13.4068 20.6544 18.354 20.5036 23.2651 18.5727C24.2854 18.1712 24.8477 17.6605 24.8155 16.5001C24.7641 14.7147 24.8014 12.928 24.8014 11.0763ZM2.28116 12.6694C1.41139 13.3516 1.12575 14.2209 0.907025 15.111C0.885152 15.1994 1.20295 15.4502 1.39209 15.4918C1.60567 15.5385 2.01612 15.4931 2.056 15.3826C2.35064 14.5588 2.61955 13.7128 2.28116 12.6694ZM15.4848 6.65957C15.8051 6.32561 16.0213 6.09951 16.2374 5.87341C16.0046 5.70189 15.7562 5.37963 15.5414 5.40042C15.3188 5.42121 15.0627 5.74737 14.9547 5.99816C14.9122 6.09691 15.2313 6.3542 15.4848 6.65957Z" fill="#5CC758" stroke="#5CC758" stroke-width="0.335227"/>
</g>
<defs>
<clipPath id="clip0_814_23697">
<rect width="30.4138" height="21" fill="white"/>
</clipPath>
</defs>
</svg>
