<svg width="32" height="32" viewBox="0 0 32 32" fill="none" xmlns="http://www.w3.org/2000/svg">
<g clip-path="url(#clip0_1281_2511)">
<path d="M6.68629 22.6329L6.84359 13.8693H25.8454L26.0027 22.6329C25.989 22.6372 25.9747 22.6417 25.9598 22.6464C25.7944 22.698 25.553 22.7718 25.2503 22.8606C24.6445 23.0381 23.7937 23.2747 22.8138 23.5114C20.8485 23.9861 18.3861 24.4551 16.3445 24.4551C14.303 24.4551 11.8405 23.9861 9.87519 23.5114C8.89535 23.2747 8.04449 23.0381 7.43877 22.8606C7.13599 22.7718 6.89464 22.698 6.72927 22.6464C6.71431 22.6417 6.69998 22.6372 6.68629 22.6329Z" fill="#CBFCC9" stroke="#131B20" stroke-width="0.6"/>
<path d="M2.97377 14.544L2.97367 12.8641L15.9955 8.68242L29.0171 12.8459L29.0172 14.5439L15.9955 20.4055L2.97377 14.544Z" fill="white"/>
<path d="M15.9955 20.4055L29.0172 14.5439L29.0171 12.8459L15.9955 8.68242L2.97367 12.8641L2.97377 14.544L15.9955 20.4055ZM15.9955 20.4055L15.9943 18.5945" stroke="#131B20" stroke-width="0.6"/>
<path d="M2.97583 12.8579L15.9976 6.99632L29.0193 12.8579L15.9976 18.7194L2.97583 12.8579Z" fill="white" stroke="#131B20" stroke-width="0.6" stroke-linejoin="bevel"/>
<path d="M15.3839 12.7608C15.8582 12.7608 16.2427 12.6212 16.2427 12.4489L16.0839 11.91C16.0839 11.91 15.6717 11.8132 15.3839 11.8132C15.0962 11.8132 14.6843 11.91 14.6843 11.91L14.5251 12.4489C14.5251 12.6212 14.9096 12.7608 15.3839 12.7608Z" fill="white"/>
<path d="M16.2427 12.4489H16.5427L16.5304 12.3641L16.2427 12.4489ZM14.5251 12.4489L14.2374 12.3639L14.2251 12.4489H14.5251ZM14.6843 11.91L14.6156 11.618L14.3966 11.825L14.6843 11.91ZM16.0839 11.91L16.3717 11.8252L16.1525 11.6179L16.0839 11.91ZM15.9427 12.4489C15.9427 12.3715 15.9868 12.3367 15.9797 12.3427C15.9737 12.3479 15.9473 12.3662 15.8887 12.3875C15.7739 12.4292 15.5955 12.4608 15.3839 12.4608V13.0608C15.6466 13.0608 15.8975 13.0227 16.0936 12.9514C16.1904 12.9163 16.2898 12.8673 16.3707 12.7979C16.4505 12.7293 16.5427 12.6124 16.5427 12.4489H15.9427ZM15.3839 12.4608C15.1723 12.4608 14.9939 12.4292 14.8791 12.3875C14.8205 12.3662 14.7942 12.3479 14.7881 12.3427C14.781 12.3367 14.8251 12.3715 14.8251 12.4489H14.2251C14.2251 12.6124 14.3173 12.7293 14.3972 12.7979C14.478 12.8673 14.5775 12.9163 14.6742 12.9514C14.8703 13.0227 15.1212 13.0608 15.3839 13.0608V12.4608ZM14.8129 12.5338L14.972 11.995L14.3966 11.825L14.2374 12.3639L14.8129 12.5338ZM15.7961 11.9948L15.9549 12.5337L16.5304 12.3641L16.3717 11.8252L15.7961 11.9948ZM14.6843 11.91C14.7529 12.202 14.7529 12.202 14.7529 12.202C14.7529 12.202 14.7529 12.202 14.7529 12.2021C14.7528 12.2021 14.7528 12.2021 14.7528 12.2021C14.7528 12.2021 14.7528 12.2021 14.7529 12.202C14.7529 12.202 14.7531 12.202 14.7534 12.2019C14.7539 12.2018 14.7548 12.2016 14.7561 12.2013C14.7587 12.2007 14.7627 12.1998 14.7681 12.1986C14.7788 12.1962 14.7947 12.1927 14.8149 12.1884C14.8554 12.1799 14.9124 12.1685 14.9777 12.1571C15.1125 12.1336 15.2667 12.1132 15.3839 12.1132V11.5132C15.2133 11.5132 15.0178 11.5411 14.8747 11.566C14.8011 11.5789 14.7371 11.5917 14.6913 11.6013C14.6684 11.6061 14.6499 11.6102 14.637 11.6131C14.6305 11.6145 14.6254 11.6157 14.6218 11.6165C14.62 11.6169 14.6186 11.6173 14.6175 11.6175C14.617 11.6176 14.6166 11.6177 14.6163 11.6178C14.6161 11.6178 14.616 11.6179 14.6159 11.6179C14.6158 11.6179 14.6158 11.6179 14.6157 11.6179C14.6157 11.6179 14.6157 11.6179 14.6157 11.6179C14.6156 11.6179 14.6156 11.618 14.6843 11.91ZM15.3839 12.1132C15.5011 12.1132 15.6554 12.1336 15.7903 12.1571C15.8557 12.1685 15.9127 12.1799 15.9532 12.1884C15.9734 12.1927 15.9894 12.1962 16.0001 12.1986C16.0055 12.1998 16.0095 12.2007 16.0121 12.2013C16.0134 12.2016 16.0143 12.2018 16.0148 12.2019C16.0151 12.202 16.0153 12.202 16.0154 12.2021C16.0154 12.2021 16.0154 12.2021 16.0154 12.2021C16.0154 12.2021 16.0154 12.2021 16.0154 12.2021C16.0154 12.2021 16.0153 12.2021 16.0153 12.2021C16.0153 12.2021 16.0153 12.202 16.0839 11.91C16.1525 11.6179 16.1525 11.6179 16.1524 11.6179C16.1524 11.6179 16.1524 11.6179 16.1524 11.6179C16.1523 11.6179 16.1523 11.6179 16.1522 11.6179C16.1521 11.6179 16.152 11.6178 16.1518 11.6178C16.1515 11.6177 16.1511 11.6176 16.1506 11.6175C16.1495 11.6173 16.1481 11.6169 16.1463 11.6165C16.1427 11.6157 16.1376 11.6145 16.1311 11.6131C16.1182 11.6102 16.0997 11.6061 16.0768 11.6013C16.031 11.5917 15.967 11.5789 15.8933 11.566C15.7501 11.5411 15.5545 11.5132 15.3839 11.5132V12.1132Z" fill="#131B20"/>
<ellipse cx="15.3839" cy="11.9364" rx="0.704432" ry="0.255896" stroke="#131B20" stroke-width="0.6" stroke-linejoin="bevel"/>
<path d="M14.4837 12.5896L7.6267 14.6956L5.32397 16.9963" stroke="#131B20" stroke-width="0.6"/>
<path d="M4.99721 17.1794C5.0649 17.0665 5.20521 17.0203 5.32672 17.071C5.44823 17.1217 5.51413 17.2539 5.48147 17.3815L5.086 18.9259C5.05412 19.0505 4.91918 19.1177 4.80055 19.0682L4.27724 18.8499C4.15862 18.8003 4.11151 18.6571 4.17759 18.5469L4.99721 17.1794Z" fill="#5CC758" stroke="#131B20" stroke-width="0.6" stroke-linejoin="bevel"/>
</g>
<defs>
<clipPath id="clip0_1281_2511">
<rect width="32" height="32" fill="white"/>
</clipPath>
</defs>
</svg>
