<svg width="32" height="32" viewBox="0 0 32 32" fill="none" xmlns="http://www.w3.org/2000/svg">
<path d="M16.6401 19.8398V19.5032C17.1743 19.4611 17.6716 19.214 18.0277 18.8135C18.3838 18.413 18.5712 17.8903 18.5505 17.3547C18.5298 16.8192 18.3027 16.3125 17.9168 15.9406C17.5308 15.5688 17.016 15.3607 16.4801 15.36H15.5201C15.3079 15.36 15.1045 15.2757 14.9544 15.1257C14.8044 14.9757 14.7201 14.7722 14.7201 14.56C14.7201 14.3479 14.8044 14.1444 14.9544 13.9944C15.1045 13.8443 15.3079 13.7601 15.5201 13.7601H17.92C18.0897 13.7601 18.2525 13.6926 18.3725 13.5726C18.4926 13.4526 18.56 13.2898 18.56 13.1201C18.56 12.9503 18.4926 12.7876 18.3725 12.6675C18.2525 12.5475 18.0897 12.4801 17.92 12.4801H16.6401V12.1601C16.6401 11.9904 16.5726 11.8276 16.4526 11.7076C16.3326 11.5876 16.1698 11.5201 16.0001 11.5201C15.8304 11.5201 15.6676 11.5876 15.5476 11.7076C15.4275 11.8276 15.3601 11.9904 15.3601 12.1601V12.4967C14.8258 12.5388 14.3286 12.786 13.9724 13.1864C13.6163 13.5869 13.429 14.1097 13.4497 14.6452C13.4703 15.1807 13.6974 15.6875 14.0834 16.0593C14.4693 16.4311 14.9842 16.6392 15.5201 16.6399H16.4801C16.6922 16.6399 16.8957 16.7242 17.0457 16.8742C17.1958 17.0243 17.28 17.2277 17.28 17.4399C17.28 17.6521 17.1958 17.8556 17.0457 18.0056C16.8957 18.1556 16.6922 18.2399 16.4801 18.2399H14.0802C13.9104 18.2399 13.7476 18.3073 13.6276 18.4273C13.5076 18.5473 13.4402 18.7101 13.4402 18.8799C13.4402 19.0496 13.5076 19.2124 13.6276 19.3324C13.7476 19.4524 13.9104 19.5198 14.0802 19.5198H15.3601V19.8398C15.3601 20.0095 15.4275 20.1723 15.5476 20.2923C15.6676 20.4124 15.8304 20.4798 16.0001 20.4798C16.1698 20.4798 16.3326 20.4124 16.4526 20.2923C16.5726 20.1723 16.6401 20.0095 16.6401 19.8398Z" fill="#5CC758"/>
<path d="M23.0397 16.0001C23.0397 14.6077 22.6268 13.2467 21.8532 12.089C21.0797 10.9313 19.9803 10.029 18.6939 9.4962C17.4076 8.96338 15.9921 8.82397 14.6265 9.0956C13.261 9.36723 12.0066 10.0377 11.0221 11.0222C10.0376 12.0067 9.3671 13.2611 9.09547 14.6267C8.82385 15.9922 8.96326 17.4077 9.49608 18.694C10.0289 19.9804 10.9312 21.0798 12.0889 21.8534C13.2465 22.6269 14.6076 23.0398 15.9999 23.0398C17.8664 23.0377 19.6558 22.2954 20.9755 20.9756C22.2953 19.6559 23.0376 17.8665 23.0397 16.0001ZM10.2402 16.0001C10.2402 14.8609 10.578 13.7473 11.2109 12.8001C11.8437 11.8529 12.7433 11.1147 13.7958 10.6787C14.8482 10.2428 16.0063 10.1287 17.1236 10.351C18.2409 10.5732 19.2672 11.1218 20.0727 11.9273C20.8782 12.7328 21.4268 13.7591 21.649 14.8764C21.8713 15.9937 21.7572 17.1518 21.3213 18.2042C20.8853 19.2567 20.1471 20.1562 19.1999 20.7891C18.2527 21.422 17.1391 21.7598 15.9999 21.7598C14.4729 21.7581 13.0088 21.1508 11.929 20.071C10.8492 18.9912 10.2419 17.5271 10.2402 16.0001Z" fill="#5CC758"/>
<path d="M28.7995 25.5996C28.062 25.5998 27.3473 25.8546 26.7761 26.3211C26.2049 26.7875 25.8124 27.437 25.6649 28.1595H16.64V25.5676C18.956 25.4105 21.1366 24.4194 22.778 22.778C24.4194 21.1366 25.4105 18.956 25.5676 16.64H28.7995C28.9692 16.64 29.132 16.5725 29.252 16.4525C29.372 16.3325 29.4395 16.1697 29.4395 16V6.3351C30.2164 6.1765 30.9068 5.73507 31.3768 5.09637C31.8468 4.45767 32.0629 3.66722 31.9832 2.87826C31.9035 2.0893 31.5337 1.35803 30.9454 0.826235C30.3572 0.29444 29.5925 0 28.7995 0C28.0065 0 27.2418 0.29444 26.6536 0.826235C26.0653 1.35803 25.6955 2.0893 25.6158 2.87826C25.5361 3.66722 25.7522 4.45767 26.2222 5.09637C26.6922 5.73507 27.3826 6.1765 28.1595 6.3351V15.36H25.5676C25.4105 13.044 24.4194 10.8634 22.778 9.22201C21.1366 7.58059 18.956 6.58954 16.64 6.43237V3.2005C16.64 3.03077 16.5725 2.86799 16.4525 2.74797C16.3325 2.62795 16.1697 2.56053 16 2.56053H6.3351C6.1765 1.78357 5.73507 1.09318 5.09637 0.623196C4.45767 0.153215 3.66722 -0.0628709 2.87826 0.0168305C2.0893 0.096532 1.35803 0.466343 0.826235 1.05457C0.29444 1.64279 0 2.40752 0 3.2005C0 3.99348 0.29444 4.75821 0.826235 5.34644C1.35803 5.93466 2.0893 6.30447 2.87826 6.38417C3.66722 6.46387 4.45767 6.24779 5.09637 5.77781C5.73507 5.30783 6.1765 4.61743 6.3351 3.84048H15.36V6.43237C13.044 6.58954 10.8634 7.58059 9.22201 9.22201C7.58059 10.8634 6.58954 13.044 6.43237 15.36H3.2005C3.03077 15.36 2.86799 15.4275 2.74797 15.5475C2.62795 15.6675 2.56053 15.8303 2.56053 16V25.6649C1.78357 25.8235 1.09318 26.2649 0.623196 26.9036C0.153215 27.5423 -0.0628709 28.3328 0.0168305 29.1217C0.096532 29.9107 0.466343 30.642 1.05457 31.1738C1.64279 31.7056 2.40752 32 3.2005 32C3.99348 32 4.75821 31.7056 5.34644 31.1738C5.93466 30.642 6.30447 29.9107 6.38417 29.1217C6.46387 28.3328 6.24779 27.5423 5.77781 26.9036C5.30783 26.2649 4.61743 25.8235 3.84048 25.6649V16.64H6.43237C6.58954 18.956 7.58059 21.1366 9.22201 22.778C10.8634 24.4194 13.044 25.4105 15.36 25.5676V28.7995C15.36 28.9692 15.4275 29.132 15.5475 29.252C15.6675 29.372 15.8303 29.4395 16 29.4395H25.6649C25.786 30.0327 26.0729 30.5795 26.4924 31.0161C26.9118 31.4528 27.4465 31.7615 28.0344 31.9064C28.6223 32.0513 29.2393 32.0264 29.8136 31.8346C30.3879 31.6429 30.896 31.2921 31.2789 30.823C31.6618 30.354 31.9038 29.7859 31.9767 29.1848C32.0496 28.5838 31.9505 27.9743 31.6909 27.4273C31.4312 26.8803 31.0217 26.4182 30.5099 26.0947C29.9981 25.7712 29.405 25.5995 28.7995 25.5996ZM26.8796 3.2005C26.8796 2.82078 26.9922 2.44958 27.2031 2.13385C27.4141 1.81812 27.714 1.57204 28.0648 1.42672C28.4156 1.28141 28.8016 1.24339 29.1741 1.31747C29.5465 1.39155 29.8886 1.5744 30.1571 1.84291C30.4256 2.11142 30.6084 2.45351 30.6825 2.82594C30.7566 3.19837 30.7186 3.5844 30.5733 3.93522C30.428 4.28605 30.1819 4.5859 29.8661 4.79686C29.5504 5.00782 29.1792 5.12043 28.7995 5.12043C28.2903 5.12043 27.802 4.91815 27.4419 4.55809C27.0819 4.19804 26.8796 3.7097 26.8796 3.2005ZM3.2005 5.12043C2.82078 5.12043 2.44958 5.00782 2.13385 4.79686C1.81812 4.5859 1.57204 4.28605 1.42672 3.93522C1.28141 3.5844 1.24339 3.19837 1.31747 2.82594C1.39155 2.45351 1.5744 2.11142 1.84291 1.84291C2.11142 1.5744 2.45351 1.39155 2.82594 1.31747C3.19837 1.24339 3.5844 1.28141 3.93522 1.42672C4.28605 1.57204 4.5859 1.81812 4.79686 2.13385C5.00782 2.44958 5.12043 2.82078 5.12043 3.2005C5.12043 3.7097 4.91815 4.19804 4.55809 4.55809C4.19804 4.91815 3.7097 5.12043 3.2005 5.12043ZM5.12043 28.7995C5.12043 29.1792 5.00782 29.5504 4.79686 29.8661C4.5859 30.1819 4.28605 30.428 3.93522 30.5733C3.5844 30.7186 3.19837 30.7566 2.82594 30.6825C2.45351 30.6084 2.11142 30.4256 1.84291 30.1571C1.5744 29.8886 1.39155 29.5465 1.31747 29.1741C1.24339 28.8016 1.28141 28.4156 1.42672 28.0648C1.57204 27.714 1.81812 27.4141 2.13385 27.2031C2.44958 26.9922 2.82078 26.8796 3.2005 26.8796C3.7097 26.8796 4.19804 27.0819 4.55809 27.4419C4.91815 27.802 5.12043 28.2903 5.12043 28.7995ZM7.68033 16C7.68033 14.3545 8.16827 12.746 9.08244 11.3778C9.99662 10.0097 11.296 8.94332 12.8162 8.31362C14.3364 7.68393 16.0092 7.51917 17.6231 7.84019C19.2369 8.1612 20.7194 8.95357 21.8829 10.1171C23.0464 11.2806 23.8388 12.7631 24.1598 14.3769C24.4808 15.9908 24.3161 17.6636 23.6864 19.1838C23.0567 20.704 21.9903 22.0034 20.6222 22.9176C19.254 23.8317 17.6455 24.3197 16 24.3197C13.7943 24.317 11.6797 23.4396 10.1201 21.8799C8.56044 20.3202 7.68304 18.2057 7.68033 16ZM28.7995 30.7194C28.4198 30.7194 28.0486 30.6068 27.7328 30.3959C27.4171 30.1849 27.171 29.885 27.0257 29.5342C26.8804 29.1834 26.8424 28.7974 26.9165 28.4249C26.9905 28.0525 27.1734 27.7104 27.4419 27.4419C27.7104 27.1734 28.0525 26.9905 28.4249 26.9165C28.7974 26.8424 29.1834 26.8804 29.5342 27.0257C29.885 27.171 30.1849 27.4171 30.3959 27.7328C30.6068 28.0486 30.7194 28.4198 30.7194 28.7995C30.7194 29.3087 30.5171 29.797 30.1571 30.1571C29.797 30.5171 29.3087 30.7194 28.7995 30.7194Z" fill="#5CC758"/>
</svg>
