<svg width="30" height="29" viewBox="0 0 30 29" fill="none" xmlns="http://www.w3.org/2000/svg">
<path fill-rule="evenodd" clip-rule="evenodd" d="M14.4624 1.11056C14.6293 1.02694 14.8133 0.983398 15 0.983398C15.1867 0.983398 15.3707 1.02694 15.5376 1.11056C20.2416 3.46765 24.6454 6.38133 28.6544 9.78896C28.8172 9.92725 28.9402 10.1065 29.0105 10.3082C29.0809 10.5099 29.0962 10.7267 29.0548 10.9363C29.0134 11.1458 28.9167 11.3405 28.7749 11.5003C28.6331 11.66 28.4512 11.779 28.248 11.845C23.7905 13.2906 19.5574 15.3533 15.672 17.973C15.4736 18.1071 15.2395 18.1788 15 18.1788C14.7605 18.1788 14.5264 18.1071 14.328 17.973C13.2457 17.2437 12.1356 16.5568 11 15.9138V14.0306C11 13.6402 11.1856 13.2898 11.4832 13.0834C13.1853 11.9035 14.9506 10.8176 16.7712 9.83056C17.0464 9.67656 17.2499 9.42044 17.3377 9.11757C17.4255 8.8147 17.3906 8.48944 17.2405 8.21212C17.0904 7.9348 16.8371 7.72771 16.5355 7.63565C16.2339 7.54359 15.9082 7.57395 15.6288 7.72016C13.7304 8.74942 11.8898 9.88178 10.1152 11.1122C9.64596 11.4399 9.26305 11.8764 8.99919 12.3844C8.73533 12.8923 8.59837 13.4566 8.6 14.029V14.637C6.38932 13.5382 4.10041 12.6045 1.752 11.8434C1.54881 11.7774 1.36691 11.6584 1.22509 11.4987C1.08326 11.3389 0.986645 11.1442 0.945221 10.9347C0.903798 10.7251 0.919066 10.5083 0.989451 10.3066C1.05984 10.1049 1.18278 9.92565 1.3456 9.78736C5.35456 6.37973 9.75838 3.46605 14.4624 1.10896V1.11056ZM8.6 17.3346C7.31944 16.6577 6.00875 16.0395 4.672 15.4818C4.40053 17.134 4.19238 18.796 4.048 20.4642C4.02675 20.7062 4.07947 20.9489 4.19917 21.1604C4.31888 21.3718 4.49993 21.5419 4.7184 21.6482C5.5632 22.0578 6.392 22.4962 7.2048 22.9602C6.8688 23.4786 6.4768 23.9682 6.0224 24.4226C5.9045 24.5324 5.80994 24.6649 5.74435 24.8121C5.67876 24.9593 5.64349 25.1182 5.64065 25.2793C5.63781 25.4404 5.66745 25.6005 5.7278 25.7499C5.78816 25.8993 5.87799 26.0351 5.99194 26.149C6.10589 26.263 6.24162 26.3528 6.39104 26.4132C6.54046 26.4735 6.70051 26.5031 6.86163 26.5003C7.02276 26.4975 7.18166 26.4622 7.32886 26.3966C7.47606 26.331 7.60854 26.2365 7.7184 26.1186C8.3104 25.5282 8.8224 24.8866 9.2544 24.2098C10.9944 25.3397 12.6495 26.5953 14.2064 27.9666C14.4256 28.1598 14.7078 28.2664 15 28.2664C15.2922 28.2664 15.5744 28.1598 15.7936 27.9666C18.6579 25.4431 21.8493 23.3173 25.2816 21.6466C25.5001 21.5406 25.6813 21.3709 25.8013 21.1597C25.9213 20.9486 25.9744 20.7061 25.9536 20.4642C25.8092 18.796 25.601 17.134 25.3296 15.4818C22.4158 16.6977 19.6295 18.1989 17.0112 19.9634C16.4169 20.3637 15.7166 20.5775 15 20.5775C14.2834 20.5775 13.5831 20.3637 12.9888 19.9634C12.3328 19.5234 11.6672 19.0978 10.9888 18.6882C10.9053 20.6485 10.3071 22.5539 9.2544 24.2098C8.58311 23.7745 7.89963 23.3567 7.2048 22.9602C8.11775 21.5406 8.60215 19.888 8.6 18.2002V17.3362V17.3346Z" fill="#5CC758"/>
</svg>
