<svg width="28" height="22" viewBox="0 0 28 22" fill="none" xmlns="http://www.w3.org/2000/svg">
<g clip-path="url(#clip0_814_23704)">
<path d="M12.6936 3.1942C16.0871 -0.137681 18.7039 -0.784299 21.898 0.889125C25.0588 2.54459 25.9412 5.32864 24.9802 10.9207C25.642 10.9207 26.2705 10.9147 26.8991 10.9237C27.4007 10.9297 28.0353 10.8788 27.996 11.5943C27.9597 12.2528 27.3463 12.2439 26.8356 12.2528C26.2826 12.2618 25.7266 12.2858 25.1766 12.2499C24.5088 12.2079 24.0707 12.4295 23.699 13.0192C21.2815 16.854 17.7037 19.3956 13.8479 21.6258C13.2103 21.994 12.6059 22.1826 11.8807 21.7605C7.93727 19.4824 4.25974 16.9079 1.78488 12.9803C0.388813 10.765 -0.348506 8.38212 0.156135 5.73278C0.706102 2.84096 2.43759 0.987914 5.27204 0.263462C7.99166 -0.434048 10.3456 0.248494 12.1225 2.51765C12.3038 2.74815 12.5002 2.96669 12.6936 3.1942ZM23.2789 10.8818C24.1251 9.21434 24.397 7.13977 24.0163 5.55915C23.2789 2.48472 19.8734 0.565816 16.8606 1.52976C15.3135 2.0237 14.3677 3.12834 13.6938 4.53534C13.4551 5.02928 13.4158 5.77169 12.4156 5.69087C12.1799 5.22985 11.926 4.70597 11.6511 4.19107C10.7687 2.55058 9.47536 1.38906 7.54141 1.30823C4.32017 1.17052 1.58847 3.12535 1.33161 6.66978C1.15635 9.08561 2.0085 11.1751 3.40457 13.0761C5.70114 16.2014 8.75316 18.4616 12.1104 20.3386C12.4337 20.5182 13.026 20.5511 13.3342 20.3775C16.6824 18.4915 19.7465 16.2493 22.0581 13.136C22.2123 12.9294 22.2636 12.651 22.4208 12.2558C20.8011 12.2558 19.3476 12.2229 17.8941 12.2678C17.0903 12.2918 16.5403 12.0343 16.214 11.2949C16.1022 11.0404 15.9118 10.8159 15.6912 10.4776C15.4827 10.9027 15.3105 11.2021 15.1866 11.5194C14.7514 12.633 14.3586 13.7676 13.8872 14.8663C13.7482 15.1926 13.3977 15.4291 13.1469 15.7045C12.8598 15.4081 12.4579 15.1596 12.3098 14.8064C11.9442 13.9382 11.6994 13.0192 11.3912 12.1241C11.0799 11.2141 10.7506 10.31 10.3215 9.09459C9.88029 10.1154 9.64459 10.8309 9.26988 11.4655C9.07347 11.8008 8.65343 12.172 8.29686 12.2139C7.40241 12.3187 6.48378 12.2977 5.58631 12.2109C5.28413 12.181 5.01821 11.7948 4.73416 11.5733C5.01217 11.3578 5.27809 10.9895 5.57422 10.9596C6.40824 10.8758 7.25736 10.9297 8.07325 10.9297C8.36032 10.2651 8.58393 9.76816 8.79244 9.26523C9.09764 8.5288 9.35147 7.76543 9.71107 7.05894C9.84402 6.7985 10.1976 6.56201 10.4877 6.50812C10.6357 6.48118 10.95 6.8434 11.0467 7.08589C11.361 7.8732 11.6057 8.68447 11.8807 9.48676C12.2433 10.5405 12.615 11.5913 13.0955 12.9743C13.3765 12.3816 13.5125 12.1391 13.6122 11.8816C13.9537 11.0015 14.2468 10.0975 14.6366 9.23529C14.8481 8.77129 15.1443 8.12766 15.5341 8.0139C16.217 7.81633 16.2986 8.63957 16.5645 9.07364C16.9241 9.65739 17.2082 10.286 17.5224 10.8878C19.4896 10.8818 21.345 10.8818 23.2789 10.8818Z" fill="#5CC758"/>
</g>
<defs>
<clipPath id="clip0_814_23704">
<rect width="28" height="22" fill="white"/>
</clipPath>
</defs>
</svg>
