<svg width="32" height="32" viewBox="0 0 32 32" fill="none" xmlns="http://www.w3.org/2000/svg">
<path d="M17.2075 28.1858C17.2064 28.1865 17.2052 28.1871 17.2041 28.1877C17.203 28.1871 17.2019 28.1865 17.2008 28.1858C17.1023 28.1291 16.9574 28.0447 16.7726 27.9342C16.4029 27.7133 15.874 27.3885 15.239 26.9742C13.9685 26.1452 12.2759 24.9595 10.5848 23.5318C8.89233 22.1029 7.20989 20.4387 5.95267 18.6539C4.6938 16.8668 3.87838 14.9833 3.87837 13.1094C3.87836 10.3273 4.34052 8.21758 5.30822 6.8803C6.25454 5.57256 7.72017 4.95643 9.87824 5.23563C10.0373 5.2562 10.1497 5.17605 10.2091 5.11512C10.2514 5.07177 10.2884 5.01535 10.3069 4.98706C10.3092 4.98343 10.3113 4.98026 10.3131 4.97764C10.3598 4.90741 10.3803 4.88896 10.4054 4.87858C10.4284 4.86905 10.5147 4.84377 10.7341 4.91841C10.9544 4.99333 11.277 5.15852 11.7449 5.48319L11.7778 5.50604L11.8156 5.51944C13.2014 6.01113 14.4776 7.40136 15.4256 8.72322C15.8941 9.37648 16.2722 9.99827 16.5331 10.4569C16.6635 10.686 16.7643 10.8739 16.8324 11.0041C16.8664 11.0692 16.8922 11.1197 16.9093 11.1538L16.9285 11.1922L16.9331 11.2015L16.9342 11.2037L16.9344 11.2041L16.9344 11.2042L17.2041 11.7583L17.4738 11.2042L17.4739 11.2041L17.4739 11.2041L17.4741 11.2036L17.4754 11.201L17.4808 11.19L17.5033 11.1453C17.5233 11.1056 17.5533 11.0469 17.5929 10.9716C17.6721 10.8211 17.7893 10.6047 17.9402 10.3434C18.2425 9.82016 18.6787 9.11939 19.2151 8.40687C19.7523 7.69319 20.3844 6.97541 21.077 6.41248C21.7714 5.84803 22.5076 5.45473 23.2549 5.35805C23.5742 5.31674 23.8093 5.21587 23.994 5.08396C24.1569 4.96766 24.2721 4.83182 24.3554 4.73357C24.3631 4.72444 24.3706 4.71563 24.3778 4.7072C24.4721 4.59672 24.5157 4.55795 24.5606 4.53908C24.5926 4.52564 24.6658 4.50644 24.8425 4.55738C26.7878 5.36651 28.2023 6.47998 29.1333 7.88922C30.0669 9.30235 30.5299 11.0365 30.5299 13.1094C30.5299 14.9833 29.7145 16.8668 28.4556 18.6539C27.1984 20.4387 25.5159 22.1029 23.8235 23.5318C22.1324 24.9595 20.4398 26.1452 19.1692 26.9742C18.5342 27.3885 18.0054 27.7133 17.6357 27.9342C17.4509 28.0447 17.3059 28.1291 17.2075 28.1858Z" fill="#CBFCC9" stroke="black" stroke-width="0.6"/>
<path d="M14.7993 26.6631C14.7981 26.6637 14.797 26.6644 14.7959 26.665C14.7948 26.6644 14.7937 26.6637 14.7926 26.6631C14.6941 26.6064 14.5492 26.5219 14.3644 26.4114C13.9947 26.1905 13.4658 25.8657 12.8308 25.4514C11.5603 24.6224 9.8677 23.4368 8.17659 22.009C6.48412 20.5802 4.80169 18.9159 3.54447 17.1312C2.2856 15.3441 1.47017 13.4605 1.47017 11.5867C1.47015 8.83675 2.23715 6.76395 3.50987 5.45176C4.7768 4.14554 6.58101 3.55532 8.74513 3.8353C10.5164 4.06445 11.9549 5.47646 12.9716 6.90258C13.4745 7.60795 13.8619 8.29968 14.1238 8.81562C14.2545 9.07328 14.3536 9.28631 14.4196 9.43425C14.4527 9.50821 14.4774 9.56584 14.4938 9.60459L14.512 9.64822L14.5163 9.65879L14.5173 9.66117L14.5174 9.66156L14.5174 9.66161L14.5174 9.66165L14.7691 10.2906L15.0656 9.68144L15.0657 9.68139L15.0657 9.68137L15.0659 9.68084L15.0672 9.67829L15.0726 9.66728L15.095 9.62251C15.1151 9.58288 15.1451 9.52413 15.1847 9.44888C15.2639 9.29835 15.3811 9.08198 15.532 8.82064C15.8343 8.29741 16.2705 7.59665 16.8069 6.88412C17.3441 6.17045 17.9762 5.45266 18.6688 4.88973C19.3632 4.32529 20.0994 3.93198 20.8467 3.8353C23.0107 3.55534 24.8149 4.14647 26.0819 5.45323C27.3547 6.76595 28.1217 8.8388 28.1217 11.5867C28.1217 13.4605 27.3063 15.3441 26.0474 17.1312C24.7902 18.916 23.1077 20.5802 21.4153 22.0091C19.7242 23.4368 18.0316 24.6224 16.761 25.4514C16.126 25.8657 15.5972 26.1905 15.2275 26.4114C15.0427 26.5219 14.8977 26.6064 14.7993 26.6631Z" fill="white" stroke="black" stroke-width="0.6"/>
</svg>
