<svg width="56" height="44" viewBox="0 0 56 44" fill="none" xmlns="http://www.w3.org/2000/svg">
<g clip-path="url(#clip0_284_21708)">
<path d="M25.387 6.38842C32.174 -0.275346 37.4078 -1.56858 43.7958 1.77827C50.1175 5.08919 51.8822 10.6573 49.9603 21.8414C51.2839 21.8414 52.5409 21.8294 53.798 21.8474C54.8012 21.8594 56.0704 21.7576 55.9918 23.1885C55.9193 24.5057 54.6925 24.4877 53.6711 24.5057C52.5651 24.5237 51.4531 24.5716 50.3531 24.4997C49.0175 24.4159 48.1412 24.859 47.3978 26.0384C42.563 33.708 35.4073 38.7912 27.6957 43.2517C26.4205 43.9881 25.2118 44.3653 23.7613 43.5211C15.8744 38.9648 8.51935 33.8158 3.56965 25.9606C0.777505 21.5301 -0.697133 16.7642 0.312148 11.4656C1.41208 5.68193 4.87507 1.97584 10.544 0.52694C15.9832 -0.86808 20.6912 0.497004 24.2448 5.03531C24.6074 5.49632 25.0002 5.93339 25.387 6.38842ZM46.5578 21.7636C48.25 18.4287 48.7939 14.2796 48.0324 11.1183C46.5578 4.96945 39.7466 1.13165 33.7212 3.05953C30.6268 4.04742 28.7352 6.2567 27.3875 9.07069C26.91 10.0586 26.8315 11.5434 24.831 11.3817C24.3596 10.4597 23.852 9.41196 23.302 8.38216C21.5373 5.10117 18.9506 2.77813 15.0827 2.61648C8.64023 2.34106 3.17681 6.25071 2.66311 13.3396C2.31258 18.1712 4.01687 22.3503 6.80902 26.1522C11.4022 32.4028 17.5062 36.9232 24.2206 40.6772C24.8673 41.0364 26.0518 41.1022 26.6683 40.755C33.3646 36.9831 39.4928 32.4986 44.1162 26.2719C44.4244 25.8588 44.5271 25.302 44.8414 24.5117C41.602 24.5117 38.695 24.4458 35.7881 24.5356C34.1805 24.5835 33.0805 24.0686 32.4278 22.5898C32.2042 22.0809 31.8235 21.6318 31.3823 20.9553C30.9653 21.8055 30.6208 22.4042 30.373 23.0388C29.5027 25.2661 28.7171 27.5352 27.7743 29.7325C27.4963 30.3851 26.7952 30.8581 26.2936 31.409C25.7194 30.8162 24.9156 30.3193 24.6195 29.6128C23.8882 27.8765 23.3987 26.0384 22.7822 24.2483C22.1598 22.4281 21.501 20.62 20.6428 18.1892C19.7605 20.2308 19.289 21.6618 18.5396 22.9311C18.1468 23.6016 17.3067 24.3441 16.5936 24.4279C14.8047 24.6374 12.9674 24.5955 11.1725 24.4219C10.5681 24.362 10.0363 23.5897 9.4682 23.1466C10.0242 22.7155 10.556 21.9791 11.1483 21.9192C12.8164 21.7516 14.5146 21.8594 16.1464 21.8594C16.7205 20.5302 17.1677 19.5363 17.5848 18.5305C18.1952 17.0576 18.7028 15.5309 19.422 14.1179C19.6879 13.597 20.395 13.124 20.9752 13.0163C21.2713 12.9624 21.8999 13.6868 22.0933 14.1718C22.7218 15.7464 23.2113 17.369 23.7613 18.9735C24.4865 21.081 25.2299 23.1825 26.1908 25.9486C26.7529 24.7632 27.0249 24.2782 27.2243 23.7633C27.9072 22.0031 28.4935 20.1949 29.2731 18.4706C29.6961 17.5426 30.2884 16.2553 31.068 16.0278C32.4339 15.6327 32.5971 17.2791 33.1289 18.1473C33.8481 19.3148 34.4162 20.5721 35.0447 21.7755C38.9791 21.7636 42.6899 21.7636 46.5578 21.7636Z" fill="#033401"/>
</g>
<defs>
<clipPath id="clip0_284_21708">
<rect width="56" height="44" fill="white"/>
</clipPath>
</defs>
</svg>
