<svg width="37" height="44" viewBox="0 0 37 44" fill="none" xmlns="http://www.w3.org/2000/svg">
<g clip-path="url(#clip0_284_21678)">
<path d="M18.4823 34.011C17.1495 34.011 15.8166 34.0288 14.4882 34.0066C13.3864 33.9844 12.5289 33.4472 12.5022 32.3285C12.4445 29.9001 10.9606 28.2663 9.63662 26.4772C7.30412 23.3251 6.3578 19.7069 6.59771 15.8313C6.77987 12.9056 8.06829 10.4506 10.423 8.60817C15.9277 4.30628 24.609 4.50606 29.1096 11.3917C31.8908 15.6492 31.5221 21.3318 28.2699 25.2608C27.7057 25.94 27.0792 26.5793 26.4261 27.1786C24.96 28.5371 24.027 30.1087 23.867 32.1687C23.7293 33.94 23.6227 33.94 21.81 33.9711C20.6993 33.9933 19.5886 33.9755 18.4779 33.9755C18.4823 33.9889 18.4823 34.0022 18.4823 34.011ZM17.0206 21.4339C17.1539 21.0965 17.225 20.8035 17.3716 20.5593C18.2513 19.1032 19.1443 18.8901 20.3439 20.0488C20.837 20.5238 21.1214 20.3906 21.6412 20.3196C23.2184 20.0932 23.8448 20.7946 23.5338 22.3618C23.405 23.0055 23.1206 23.6226 22.9118 24.253C22.3298 26.0022 21.7034 27.738 21.188 29.5049C20.9614 30.273 20.9214 31.1032 20.877 31.9112C20.8637 32.1154 21.1614 32.5105 21.3257 32.5194C21.6545 32.5327 22.1565 32.4306 22.2898 32.1997C22.4986 31.849 22.472 31.3518 22.5253 30.9123C22.7297 29.2297 23.4228 27.8268 24.729 26.7036C25.5642 25.9844 26.3639 25.1942 27.0703 24.3462C29.9626 20.8967 30.3003 16.1642 27.8878 12.3817C24.9555 7.77798 19.2598 5.50051 13.1198 8.69696C10.3253 10.1531 8.42372 12.364 8.09495 15.5516C7.73064 19.041 8.59255 22.3174 10.6229 25.2075C12.0535 27.2452 13.9728 28.9988 14.0617 31.7469C14.0706 31.9822 14.3416 32.2796 14.5682 32.4173C14.7903 32.5504 15.1635 32.6215 15.3768 32.5238C15.5767 32.4306 15.7011 32.0932 15.7722 31.8357C15.8255 31.6359 15.7633 31.3962 15.7233 31.1786C15.1857 28.4306 14.6437 25.6825 14.0972 22.9345C14.0128 22.4994 13.8307 22.0776 13.8084 21.6381C13.7462 20.5682 14.5682 19.9822 15.5545 20.4217C16.061 20.6437 16.4964 21.0654 17.0206 21.4339ZM15.8744 23.1209C16.3409 26.0332 16.8029 28.8346 17.225 31.6448C17.3361 32.3862 17.7315 32.6348 18.4246 32.6037C19.051 32.5771 19.2865 32.2663 19.3887 31.6492C19.6997 29.7713 20.0862 27.9067 20.4372 26.0332C20.4727 25.8379 20.486 25.465 20.4638 25.4605C18.8511 25.1853 19.5797 23.92 19.3798 23.0277C19.3042 22.6992 18.931 22.4372 18.6956 22.1487C18.5134 22.4284 18.238 22.6859 18.1669 22.9922C18.0203 23.5826 18.158 24.617 17.8781 24.7325C16.9318 25.1231 16.8074 24.0443 16.3631 23.5294C16.2387 23.3917 16.0743 23.2896 15.8744 23.1209Z" fill="#033401"/>
<path d="M24.4356 37.7758C24.3157 37.9844 24.2002 38.2553 24.0269 38.4817C23.4804 39.1787 22.9384 39.8846 22.3431 40.5372C21.761 41.172 21.0946 41.6382 20.7125 42.5394C20.0816 44.0266 17.9802 44.5238 16.9894 43.3518C15.6877 41.8069 13.795 40.7414 13.062 38.717C13.0131 38.5793 12.902 38.4683 12.8487 38.3307C12.5821 37.6559 12.751 37.1764 13.4929 36.9856C13.7062 36.9323 13.9328 36.9056 14.1504 36.9056C17.1138 36.8968 20.0728 36.8879 23.0361 36.9012C23.6093 36.9012 24.2446 36.919 24.4356 37.7758ZM14.7502 38.4994C16.7051 40.5016 19.8506 40.4706 21.6455 38.4994C19.3663 38.4994 17.2071 38.4994 14.7502 38.4994Z" fill="#033401"/>
<path d="M18.087 36.0665C16.5364 36.0665 14.9814 36.0976 13.4309 36.0399C13.071 36.0266 12.4712 35.7558 12.4224 35.516C12.2891 34.859 12.8622 34.6681 13.4131 34.637C14.4438 34.5749 15.479 34.526 16.5142 34.5172C18.3624 34.4994 20.2107 34.5127 22.0589 34.5172C22.5032 34.5172 22.9475 34.5394 23.3873 34.5704C23.9204 34.6104 24.5247 34.7214 24.3914 35.4051C24.3425 35.6537 23.756 35.9511 23.4095 35.96C21.6368 36.0177 19.8597 35.9866 18.087 35.9866C18.087 36.0133 18.087 36.0399 18.087 36.0665Z" fill="#033401"/>
<path d="M34.4236 19.8135C33.8239 19.6093 32.4599 20.2974 32.4688 18.9967C32.4777 17.9267 33.7572 18.4284 34.4903 18.3174C34.8502 18.2597 35.2322 18.2819 35.5966 18.3174C36.1564 18.3707 36.9516 18.202 36.996 19.0233C37.0405 19.8624 36.2763 19.7913 35.6943 19.8135C35.3211 19.8269 34.9523 19.8135 34.4236 19.8135Z" fill="#033401"/>
<path d="M31.7355 5.64258C31.7977 5.98442 32.0509 6.50828 31.8998 6.68586C31.1357 7.56933 30.2871 8.38176 29.4207 9.16755C29.2874 9.28742 28.8165 9.22526 28.6477 9.07876C28.4833 8.93226 28.3633 8.44391 28.4655 8.33292C29.3141 7.42726 30.2116 6.57044 31.1135 5.71805C31.1934 5.62926 31.3889 5.67365 31.7355 5.64258Z" fill="#033401"/>
<path d="M6.0823 4.88342C6.32222 5.05212 6.5799 5.18531 6.78427 5.38065C7.36184 5.93115 7.92608 6.49497 8.48144 7.06766C8.8502 7.44946 9.21451 7.97332 8.64582 8.33292C8.37481 8.50606 7.67284 8.31517 7.37073 8.05767C6.65987 7.44946 6.04676 6.72138 5.45586 5.9933C5.33146 5.84236 5.40699 5.45168 5.50918 5.22527C5.57582 5.07432 5.85128 5.01217 6.0823 4.88342Z" fill="#033401"/>
<path d="M18.0996 2.22868C18.1263 1.72258 18.073 1.18983 18.2018 0.710367C18.2773 0.430678 18.6416 0.2309 18.8727 -0.00439453C19.0948 0.248658 19.4947 0.492831 19.5124 0.763641C19.5835 1.77585 19.5746 2.80138 19.4902 3.81359C19.4724 4.05332 19.0459 4.25754 18.806 4.47951C18.5883 4.23978 18.2373 4.02668 18.1751 3.75143C18.073 3.26309 18.144 2.73922 18.144 2.23312C18.1352 2.23312 18.1174 2.22868 18.0996 2.22868Z" fill="#033401"/>
<path d="M2.08817 19.0455C1.32844 18.7391 -0.05328 19.4717 3.41448e-05 18.1398C0.0400197 17.1675 1.30179 17.6026 2.03041 17.5538C2.67463 17.5138 3.33217 17.6248 3.97638 17.7358C4.11855 17.758 4.30071 18.0554 4.30071 18.2286C4.30071 18.4017 4.13188 18.7036 3.98971 18.7347C3.36327 18.8812 2.71017 18.9522 2.08817 19.0455Z" fill="#033401"/>
</g>
<defs>
<clipPath id="clip0_284_21678">
<rect width="37" height="44" fill="white"/>
</clipPath>
</defs>
</svg>
