<svg width="108" height="100" viewBox="0 0 108 100" fill="none" xmlns="http://www.w3.org/2000/svg">
<path fill-rule="evenodd" clip-rule="evenodd" d="M48.8711 79.8971C29.347 79.8971 13.5195 65.8218 13.5195 48.459C13.5195 31.0963 29.347 17.021 48.8711 17.021C68.3952 17.021 84.2227 31.0963 84.2227 48.459C84.2227 54.8599 82.0716 60.814 78.3772 65.7808L82.3 73.5847C83.0736 75.1236 81.6697 76.8555 80.004 76.417L69.873 73.7504C64.0008 77.6131 56.7359 79.8971 48.8711 79.8971Z" fill="#CBFCC9"/>
<rect x="4.30527" y="47.81" width="3.35794" height="17.6996" rx="1.67897" transform="rotate(-90 4.30527 47.81)" fill="white" stroke="black" stroke-width="0.8"/>
<rect x="17.2608" y="64.9037" width="37.5455" height="23.8012" rx="3.38067" transform="rotate(-90 17.2608 64.9037)" fill="white" stroke="black" stroke-width="0.8"/>
<path d="M20.7636 64.9037C18.8291 64.9037 17.2608 63.3355 17.2608 61.4009L17.2608 60.8528L41.062 60.8528L41.062 61.4009C41.062 63.3355 39.4938 64.9037 37.5593 64.9037L20.7636 64.9037Z" fill="#CBFCC9" stroke="black" stroke-width="0.8"/>
<rect x="33.2586" y="64.8891" width="37.4941" height="7.78445" rx="3.38067" transform="rotate(-90 33.2586 64.8891)" fill="#CBFCC9" stroke="black" stroke-width="0.8"/>
<rect x="35.7203" y="60.8344" width="29.6156" height="3.32308" rx="1.66154" transform="rotate(-90 35.7203 60.8344)" fill="#CBFCC9" stroke="black" stroke-width="0.8"/>
<rect x="36.6695" y="54.1176" width="2.32794" height="8.12323" rx="1.16397" transform="rotate(-90 36.6695 54.1176)" fill="white" stroke="black" stroke-width="0.8"/>
<rect x="36.6695" y="40.494" width="2.32794" height="8.12323" rx="1.16397" transform="rotate(-90 36.6695 40.494)" fill="white" stroke="black" stroke-width="0.8"/>
<rect x="42.388" y="54.1176" width="2.31846" height="2.31846" rx="1.15923" transform="rotate(-90 42.388 54.1176)" fill="#CBFCC9" stroke="black" stroke-width="0.8"/>
<rect x="42.388" y="40.494" width="2.31846" height="2.31846" rx="1.15923" transform="rotate(-90 42.388 40.494)" fill="#CBFCC9" stroke="black" stroke-width="0.8"/>
<rect x="72.5934" y="27.2428" width="37.5455" height="21.0292" rx="3.38067" transform="rotate(90 72.5934 27.2428)" fill="white" stroke="black" stroke-width="0.8"/>
<path d="M69.0906 27.2428C71.0252 27.2428 72.5934 28.811 72.5934 30.7455L72.5934 31.2937L51.5642 31.2937L51.5642 30.7455C51.5642 28.811 53.1324 27.2428 55.0669 27.2428L69.0906 27.2428Z" fill="#CBFCC9" stroke="black" stroke-width="0.8"/>
<rect x="72.5412" y="27.2574" width="37.4941" height="7.78445" rx="3.38067" transform="rotate(90 72.5412 27.2574)" fill="#CBFCC9" stroke="black" stroke-width="0.8"/>
<path d="M73.4887 33.879L73.4887 58.13L71.0077 58.13C69.0732 58.13 67.5049 56.5618 67.5049 54.6273L67.5049 37.3818C67.5049 35.4472 69.0732 33.879 71.0077 33.879L73.4887 33.879Z" fill="white" stroke="black" stroke-width="0.8"/>
<path d="M73.4887 33.879L73.4887 37.4249L67.5049 37.4249L67.5049 37.3818C67.5049 35.4472 69.0732 33.879 71.0077 33.879L73.4887 33.879Z" fill="#CBFCC9" stroke="black" stroke-width="0.8"/>
<rect x="78.1505" y="33.879" width="24.251" height="7.78445" rx="3.38067" transform="rotate(90 78.1505 33.879)" fill="#CBFCC9" stroke="black" stroke-width="0.8"/>
<path d="M94.1002 69.3998C90.7603 69.3998 88.0529 66.6923 88.0529 63.3525L88.0529 52.8471C88.0529 48.5366 84.5585 45.0423 80.2481 45.0423L75.6356 45.0423C74.7083 45.0423 73.9566 45.794 73.9566 46.7213C73.9566 47.6486 74.7083 48.4003 75.6356 48.4003L80.2481 48.4003C82.704 48.4003 84.6949 50.3912 84.6949 52.8471L84.6949 63.3525C84.6949 68.5468 88.9058 72.7577 94.1002 72.7577C99.2945 72.7577 103.505 68.5468 103.505 63.3525L103.505 32.4888C103.505 31.5616 102.754 30.8099 101.826 30.8099C100.899 30.8099 100.147 31.5616 100.147 32.4888L100.147 63.3525C100.147 66.6923 97.44 69.3998 94.1002 69.3998Z" fill="white" stroke="black" stroke-width="0.8"/>
</svg>
