<svg width="108" height="100" viewBox="0 0 108 100" fill="none" xmlns="http://www.w3.org/2000/svg">
<rect x="4.20527" y="47.91" width="3.55794" height="17.8996" rx="1.77897" transform="rotate(-90 4.20527 47.91)" fill="white" stroke="black" stroke-width="0.6"/>
<rect x="17.1609" y="65.0037" width="37.7455" height="24.0012" rx="3.48067" transform="rotate(-90 17.1609 65.0037)" fill="white" stroke="black" stroke-width="0.6"/>
<path d="M20.7637 65.0037C18.7739 65.0037 17.1609 63.3907 17.1609 61.4009L17.1609 60.7528L41.1621 60.7528L41.1621 61.4009C41.1621 63.3907 39.5491 65.0037 37.5593 65.0037L20.7637 65.0037Z" fill="#CBFCC9" stroke="black" stroke-width="0.6"/>
<rect x="33.1586" y="64.9891" width="37.6941" height="7.98445" rx="3.48067" transform="rotate(-90 33.1586 64.9891)" fill="#CBFCC9" stroke="black" stroke-width="0.6"/>
<rect x="35.6203" y="60.9344" width="29.8156" height="3.52308" rx="1.76154" transform="rotate(-90 35.6203 60.9344)" fill="#CBFCC9" stroke="black" stroke-width="0.6"/>
<rect x="36.5695" y="54.2176" width="2.52794" height="8.32323" rx="1.26397" transform="rotate(-90 36.5695 54.2176)" fill="white" stroke="black" stroke-width="0.6"/>
<rect x="36.5695" y="40.594" width="2.52794" height="8.32323" rx="1.26397" transform="rotate(-90 36.5695 40.594)" fill="white" stroke="black" stroke-width="0.6"/>
<rect x="42.288" y="54.2176" width="2.51846" height="2.51846" rx="1.25923" transform="rotate(-90 42.288 54.2176)" fill="#CBFCC9" stroke="black" stroke-width="0.6"/>
<rect x="42.288" y="40.594" width="2.51846" height="2.51846" rx="1.25923" transform="rotate(-90 42.288 40.594)" fill="#CBFCC9" stroke="black" stroke-width="0.6"/>
<rect x="72.6933" y="27.1428" width="37.7455" height="21.2292" rx="3.48067" transform="rotate(90 72.6933 27.1428)" fill="white" stroke="black" stroke-width="0.6"/>
<path d="M69.0905 27.1428C71.0803 27.1428 72.6933 28.7558 72.6933 30.7455L72.6933 31.3937L51.4641 31.3937L51.4641 30.7455C51.4641 28.7558 53.0771 27.1428 55.0668 27.1428L69.0905 27.1428Z" fill="#CBFCC9" stroke="black" stroke-width="0.6"/>
<rect x="72.6411" y="27.1574" width="37.6941" height="7.98445" rx="3.48067" transform="rotate(90 72.6411 27.1574)" fill="#CBFCC9" stroke="black" stroke-width="0.6"/>
<path d="M73.5887 33.779L73.5887 58.23L71.0077 58.23C69.018 58.23 67.4049 56.617 67.4049 54.6273L67.4049 37.3818C67.4049 35.392 69.018 33.779 71.0077 33.779L73.5887 33.779Z" fill="white" stroke="black" stroke-width="0.6"/>
<path d="M73.5887 33.779L73.5887 37.5249L67.4049 37.5249L67.4049 37.3818C67.4049 35.392 69.018 33.779 71.0077 33.779L73.5887 33.779Z" fill="#CBFCC9" stroke="black" stroke-width="0.6"/>
<rect x="78.2505" y="33.779" width="24.451" height="7.98445" rx="3.48067" transform="rotate(90 78.2505 33.779)" fill="#CBFCC9" stroke="black" stroke-width="0.6"/>
<path d="M94.1 69.2998C90.8154 69.2998 88.1527 66.6371 88.1527 63.3525L88.1527 52.8471C88.1527 48.4814 84.6136 44.9423 80.2479 44.9423L75.6355 44.9423C74.653 44.9423 73.8565 45.7388 73.8565 46.7213C73.8565 47.7038 74.653 48.5003 75.6355 48.5003L80.2479 48.5003C82.6486 48.5003 84.5948 50.4464 84.5948 52.8471L84.5948 63.3525C84.5948 68.6021 88.8504 72.8577 94.1 72.8577C99.3497 72.8577 103.605 68.6021 103.605 63.3525L103.605 32.4888C103.605 31.5063 102.809 30.7099 101.826 30.7099C100.844 30.7099 100.047 31.5063 100.047 32.4888L100.047 63.3525C100.047 66.6371 97.3847 69.2998 94.1 69.2998Z" fill="white" stroke="black" stroke-width="0.6"/>
</svg>
