<svg width="126" height="34" viewBox="0 0 126 34" fill="none" xmlns="http://www.w3.org/2000/svg">
<path fill-rule="evenodd" clip-rule="evenodd" d="M41.8247 17.8611L42.2475 15.4539C42.2475 15.4539 38.9916 14.3964 36.3416 16.3576V25.9874H39.1557V18.1636C40.277 17.2599 41.8247 17.8611 41.8247 17.8611Z" fill="#03435F"/>
<mask id="mask0_331_7048" style="mask-type:alpha" maskUnits="userSpaceOnUse" x="36" y="15" width="7" height="11">
<path d="M36.3416 16.3575C37.6166 15.4141 39.032 15.1692 40.1575 15.1694C41.3711 15.1694 42.2478 15.454 42.2478 15.454L41.8248 17.8613C41.8248 17.8613 40.2771 17.26 39.1557 18.1635V25.9873H36.3416V16.3575Z" fill="white"/>
</mask>
<g mask="url(#mask0_331_7048)">
<path fill-rule="evenodd" clip-rule="evenodd" d="M-134.959 55.8337H261.33V-505.576H-134.959V55.8337Z" fill="#03435F"/>
</g>
<mask id="mask1_331_7048" style="mask-type:alpha" maskUnits="userSpaceOnUse" x="36" y="15" width="7" height="11">
<path d="M36.3416 16.3575C37.6166 15.4141 39.0319 15.1694 40.1575 15.1694C41.3711 15.1694 42.2478 15.454 42.2478 15.454L41.8248 17.8613C41.8248 17.8613 40.2771 17.26 39.1557 18.1635V25.9873H36.3416V16.3575Z" fill="white"/>
</mask>
<g mask="url(#mask1_331_7048)">
<path fill-rule="evenodd" clip-rule="evenodd" d="M31.623 30.7053H46.9644V10.4517H31.623V30.7053Z" fill="#03435F"/>
</g>
<path fill-rule="evenodd" clip-rule="evenodd" d="M17.5643 12.7086L20.377 12.1787V15.3106H23.1604V17.8152H20.377V21.5504C20.377 22.1867 20.4799 22.6918 20.6903 23.0653C20.8983 23.4446 21.3154 23.6326 21.9418 23.6326C22.2481 23.6326 22.5557 23.6032 22.8802 23.5409C23.1955 23.4775 23.4895 23.3961 23.754 23.2895L24.152 25.6356C23.8116 25.7816 23.4352 25.9084 23.0204 26.0159C22.6042 26.1223 22.0932 26.1778 21.4894 26.1778C20.7219 26.1778 20.0876 26.0659 19.5833 25.8439C19.0814 25.622 18.678 25.3105 18.3772 24.9131C18.0764 24.5191 17.8649 24.0357 17.7462 23.4696C17.6253 22.9046 17.5643 22.2806 17.5643 21.5923V12.7086Z" fill="#03435F"/>
<mask id="mask2_331_7048" style="mask-type:alpha" maskUnits="userSpaceOnUse" x="17" y="12" width="8" height="15">
<path d="M17.5643 12.7085L20.377 12.1785V15.3105H23.1604V17.8151H20.377V21.5502C20.377 22.1867 20.4799 22.6916 20.6901 23.0652C20.8981 23.4446 21.3152 23.6324 21.9416 23.6324C22.2479 23.6324 22.5553 23.603 22.88 23.5407C23.1953 23.4773 23.4895 23.3959 23.754 23.2895L24.1518 25.6354C23.8116 25.7817 23.4351 25.9085 23.0202 26.0159C22.604 26.1223 22.093 26.1776 21.4892 26.1776C20.7215 26.1776 20.0874 26.0657 19.5833 25.8438C19.0813 25.6218 18.6776 25.3104 18.377 24.9131C18.0762 24.519 17.8649 24.0355 17.7462 23.4694C17.6251 22.9044 17.5643 22.2806 17.5643 21.5921V12.7085Z" fill="white"/>
</mask>
<g mask="url(#mask2_331_7048)">
<path fill-rule="evenodd" clip-rule="evenodd" d="M-134.959 55.8337H261.33V-505.576H-134.959V55.8337Z" fill="#03435F"/>
<path fill-rule="evenodd" clip-rule="evenodd" d="M12.8455 30.8954H28.8686V7.46069H12.8455V30.8954Z" fill="#03435F"/>
</g>
<path fill-rule="evenodd" clip-rule="evenodd" d="M46.414 23.831C46.9285 23.831 47.2925 23.7742 47.5086 23.6678C47.7232 23.5603 47.8272 23.3497 47.8272 23.0418C47.8272 22.7983 47.6916 22.5866 47.4134 22.4066C47.1354 22.2232 46.717 22.0194 46.1496 21.7872C45.7097 21.6117 45.3095 21.4307 44.9488 21.2438C44.5927 21.0537 44.2875 20.8317 44.0354 20.5678C43.7843 20.3053 43.5899 19.9903 43.4497 19.6236C43.3095 19.2635 43.243 18.8276 43.243 18.3135C43.243 17.3182 43.5899 16.529 44.2807 15.9504C44.9725 15.3741 45.9201 15.0798 47.1297 15.0798C47.7346 15.0798 48.3134 15.1375 48.8674 15.2542C49.4202 15.3674 49.8623 15.4965 50.1866 15.6266L49.6971 17.9703C49.3693 17.8492 49.0132 17.7428 48.63 17.65C48.2467 17.555 47.8149 17.505 47.3377 17.505C46.457 17.505 46.016 17.77 46.016 18.2942C46.016 18.4153 46.0353 18.523 46.0737 18.6169C46.1121 18.712 46.1869 18.8026 46.2977 18.8897C46.414 18.9759 46.5656 19.0731 46.7622 19.1729C46.9577 19.2782 47.2065 19.3867 47.5086 19.5102C48.1223 19.7548 48.6322 19.9926 49.0347 20.2327C49.4382 20.4727 49.7548 20.7253 49.9889 21.0059C50.2217 21.28 50.3869 21.5836 50.4795 21.9208C50.5723 22.2572 50.6208 22.6454 50.6208 23.0883C50.6208 24.1378 50.2522 24.9314 49.5185 25.4681C48.7814 26.0026 47.739 26.272 46.3925 26.272C45.5129 26.272 44.7803 26.1939 44.1959 26.0298C43.6091 25.8702 43.2044 25.7322 42.9783 25.6256L43.4497 23.1822C43.9257 23.3837 44.4209 23.5399 44.9207 23.6579C45.4271 23.7733 45.9201 23.831 46.414 23.831Z" fill="#03435F"/>
<mask id="mask3_331_7048" style="mask-type:alpha" maskUnits="userSpaceOnUse" x="42" y="15" width="9" height="12">
<path d="M44.2807 15.9506C44.9727 15.3741 45.9201 15.0798 47.1297 15.0798C47.7348 15.0798 48.3136 15.1375 48.8676 15.2542C49.4203 15.3674 49.8624 15.4963 50.1869 15.6266L49.6974 17.9703C49.3694 17.8492 49.0135 17.7428 48.63 17.65C48.2469 17.5548 47.8149 17.5052 47.3379 17.5052C46.457 17.5052 46.0162 17.7698 46.0162 18.2942C46.0162 18.4153 46.0353 18.523 46.0737 18.6169C46.1123 18.712 46.1871 18.8026 46.2979 18.8897C46.414 18.9759 46.5658 19.0731 46.7624 19.1729C46.9579 19.278 47.2065 19.3869 47.5086 19.5102C48.1225 19.7548 48.6324 19.9926 49.0348 20.2327C49.4385 20.4727 49.7551 20.7251 49.9892 21.0059C50.222 21.28 50.387 21.5834 50.4798 21.9208C50.5726 22.2572 50.6209 22.6454 50.6209 23.0883C50.6209 24.1378 50.2523 24.9316 49.5188 25.4681C48.7816 26.0026 47.7392 26.272 46.3927 26.272C45.5131 26.272 44.7805 26.1939 44.196 26.0298C43.6091 25.8702 43.2046 25.7322 42.9783 25.6256L43.4498 23.1822C43.9259 23.3839 44.4209 23.5399 44.9207 23.6579C45.4271 23.7731 45.9201 23.831 46.414 23.831C46.9285 23.831 47.2927 23.7744 47.5086 23.6678C47.7234 23.5603 47.8274 23.3497 47.8274 23.0418C47.8274 22.7983 47.6918 22.5866 47.4136 22.4066C47.1354 22.2232 46.717 22.0194 46.1496 21.7872C45.7097 21.6117 45.3097 21.4307 44.9489 21.2438C44.5929 21.0537 44.2875 20.8317 44.0356 20.5678C43.7844 20.3051 43.59 19.9903 43.4498 19.6236C43.3096 19.2633 43.243 18.8276 43.243 18.3135C43.243 17.3183 43.59 16.5292 44.2807 15.9506Z" fill="white"/>
</mask>
<g mask="url(#mask3_331_7048)">
<path fill-rule="evenodd" clip-rule="evenodd" d="M-134.959 55.8337H261.33V-505.576H-134.959V55.8337Z" fill="#03435F"/>
<path fill-rule="evenodd" clip-rule="evenodd" d="M38.2596 30.9896H55.3377V10.3618H38.2596V30.9896Z" fill="#03435F"/>
</g>
<path fill-rule="evenodd" clip-rule="evenodd" d="M59.2875 19.8891C59.0353 20.9127 58.7697 21.9318 58.486 22.9394C58.2032 23.9506 57.9024 24.9674 57.5917 25.9909H55.4018C55.1745 25.4247 54.927 24.7522 54.6624 23.9721C54.3954 23.1886 54.1231 22.3382 53.837 21.4132C53.5542 20.4914 53.265 19.5155 52.9687 18.4829C52.6714 17.4549 52.3831 16.4154 52.1073 15.3635H55.0716C55.1699 15.8469 55.2818 16.3781 55.4027 16.9497C55.5227 17.5226 55.6493 18.1126 55.7816 18.7196C55.9139 19.3243 56.0552 19.9321 56.1998 20.5458C56.3457 21.1595 56.4951 21.7471 56.6463 22.3123C56.8104 21.7201 56.971 21.1154 57.1281 20.496C57.283 19.8757 57.4357 19.2664 57.5814 18.6676C57.7251 18.0696 57.8664 17.4888 57.9952 16.9295C58.1264 16.3711 58.2429 15.8469 58.3458 15.3635H60.3818C60.4858 15.8469 60.5954 16.3711 60.7231 16.9295C60.8474 17.4888 60.9799 18.0696 61.1201 18.6676C61.2557 19.2664 61.4038 19.8757 61.5519 20.496C61.7044 21.1154 61.8606 21.7201 62.0223 22.3123C62.1748 21.7471 62.3264 21.1595 62.4789 20.5458C62.6316 19.9321 62.7751 19.3243 62.9063 18.7196C63.0375 18.1126 63.1641 17.5226 63.2863 16.9497C63.4072 16.3781 63.5169 15.8469 63.6174 15.3635H66.5434C66.2653 16.4154 65.9793 17.4549 65.6819 18.4829C65.3823 19.5155 65.0962 20.4914 64.8103 21.4132C64.5286 22.3382 64.2506 23.1886 63.9803 23.9721C63.708 24.7522 63.4568 25.4247 63.2332 25.9909H61.0433C60.7265 24.9674 60.4191 23.9506 60.1161 22.9394C59.8142 21.9318 59.5406 20.9127 59.2875 19.8891Z" fill="#03435F"/>
<mask id="mask4_331_7048" style="mask-type:alpha" maskUnits="userSpaceOnUse" x="52" y="15" width="15" height="11">
<path d="M63.6174 15.3635H66.5433C66.2653 16.4154 65.9792 17.4549 65.6818 18.4827C65.3823 19.5155 65.0962 20.4916 64.8101 21.4132C64.5286 22.3382 64.2506 23.1886 63.9801 23.9721C63.7078 24.7522 63.4568 25.4246 63.233 25.9909H61.0431C60.7265 24.9674 60.4191 23.9504 60.1161 22.9392C59.8142 21.9318 59.5406 20.9127 59.2875 19.8891C59.0352 20.9127 58.7695 21.9318 58.486 22.9392C58.2032 23.9504 57.9024 24.9674 57.5915 25.9909H55.4016C55.1743 25.4246 54.9268 24.7522 54.6622 23.9721C54.3954 23.1886 54.1229 22.3382 53.837 21.4132C53.5542 20.4916 53.2649 19.5155 52.9686 18.4827C52.6714 17.4549 52.3831 16.4154 52.1073 15.3635H55.0714C55.1699 15.8469 55.2818 16.3779 55.4027 16.9497C55.5227 17.5226 55.6491 18.1126 55.7816 18.7194C55.9137 19.3241 56.0552 19.9321 56.1998 20.5458C56.3457 21.1595 56.4951 21.7471 56.6463 22.3123C56.8102 21.7201 56.9708 21.1152 57.1279 20.496C57.2828 19.8757 57.4357 19.2664 57.5814 18.6676C57.7249 18.0695 57.8662 17.4887 57.9952 16.9295C58.1264 16.3711 58.2429 15.8469 58.3456 15.3635H60.3818C60.4856 15.8469 60.5953 16.3711 60.7231 16.9295C60.8474 17.4887 60.9799 18.0695 61.1199 18.6676C61.2557 19.2664 61.4036 19.8757 61.5519 20.496C61.7044 21.1152 61.8606 21.7201 62.0221 22.3123C62.1748 21.7471 62.3262 21.1595 62.4789 20.5458C62.6316 19.9321 62.7751 19.3241 62.9063 18.7194C63.0375 18.1126 63.1641 17.5226 63.2861 16.9497C63.4072 16.3779 63.5169 15.8469 63.6174 15.3635Z" fill="white"/>
</mask>
<g mask="url(#mask4_331_7048)">
<path fill-rule="evenodd" clip-rule="evenodd" d="M-134.959 55.8337H261.33V-505.576H-134.959V55.8337Z" fill="#03435F"/>
<path fill-rule="evenodd" clip-rule="evenodd" d="M47.3885 30.7087H71.26V10.6458H47.3885V30.7087Z" fill="#03435F"/>
</g>
<path fill-rule="evenodd" clip-rule="evenodd" d="M68.5331 25.9868H71.3414V15.3616H68.5331V25.9868Z" fill="#03435F"/>
<mask id="mask5_331_7048" style="mask-type:alpha" maskUnits="userSpaceOnUse" x="68" y="15" width="4" height="11">
<path d="M68.5331 25.987V15.3618H71.3416V25.987H68.5331Z" fill="white"/>
</mask>
<g mask="url(#mask5_331_7048)">
<path fill-rule="evenodd" clip-rule="evenodd" d="M-134.959 55.8337H261.33V-505.576H-134.959V55.8337Z" fill="#03435F"/>
<path fill-rule="evenodd" clip-rule="evenodd" d="M63.8143 30.7043H76.0581V10.6436H63.8143V30.7043Z" fill="#03435F"/>
</g>
<path fill-rule="evenodd" clip-rule="evenodd" d="M73.576 12.7119L76.3867 12.1787V15.367H79.168V17.867H76.3867V21.6058C76.3867 22.2386 76.4906 22.7484 76.6974 23.1208C76.9043 23.4978 77.3238 23.6869 77.9514 23.6869C78.2555 23.6869 78.5675 23.6597 78.8863 23.5974C79.2084 23.5362 79.5002 23.4492 79.7659 23.3439L80.1606 25.6877C79.8201 25.8369 79.4414 25.9639 79.0289 26.0725C78.6114 26.1789 78.1063 26.2332 77.5001 26.2332C76.7316 26.2332 76.0973 26.1224 75.5942 25.8981C75.09 25.6796 74.6873 25.3706 74.3867 24.9696C74.0859 24.5757 73.8758 24.0899 73.7549 23.5273C73.6327 22.96 73.576 22.3327 73.576 21.6475V12.7119Z" fill="#03435F"/>
<mask id="mask6_331_7048" style="mask-type:alpha" maskUnits="userSpaceOnUse" x="73" y="12" width="8" height="15">
<path d="M73.576 12.7119L76.3865 12.1787V15.367H79.1677V17.867H76.3865V21.6058C76.3865 22.2386 76.4906 22.7482 76.6974 23.1208C76.9043 23.4978 77.3237 23.6867 77.9511 23.6867C78.2552 23.6867 78.5675 23.6597 78.8863 23.5974C79.2084 23.5361 79.5001 23.4492 79.7656 23.3439L80.1604 25.6875C79.8201 25.8369 79.4412 25.9639 79.0289 26.0725C78.6114 26.1789 78.1063 26.2332 77.5001 26.2332C76.7316 26.2332 76.0971 26.1224 75.5942 25.8981C75.0898 25.6794 74.6873 25.3706 74.3867 24.9698C74.0859 24.5757 73.8758 24.0901 73.7547 23.5273C73.6327 22.96 73.576 22.3325 73.576 21.6477V12.7119Z" fill="white"/>
</mask>
<g mask="url(#mask6_331_7048)">
<path fill-rule="evenodd" clip-rule="evenodd" d="M-134.959 55.8337H261.33V-505.576H-134.959V55.8337Z" fill="#03435F"/>
<path fill-rule="evenodd" clip-rule="evenodd" d="M68.8573 30.9509H84.8772V7.46069H68.8573V30.9509Z" fill="#03435F"/>
</g>
<path fill-rule="evenodd" clip-rule="evenodd" d="M81.1541 20.6799C81.1541 19.9109 81.2708 19.1864 81.5036 18.5071C81.7364 17.8254 82.0723 17.2345 82.5122 16.7282C82.953 16.2222 83.4866 15.8235 84.1174 15.5258C84.7448 15.2326 85.4616 15.0808 86.2666 15.0808C86.7945 15.0808 87.2796 15.1341 87.7204 15.2337C88.1616 15.3368 88.5912 15.4806 89.0037 15.6673L88.4205 18.0712C88.1548 17.9647 87.8663 17.8719 87.5499 17.7881C87.2355 17.7087 86.8816 17.667 86.4928 17.667C85.663 17.667 85.0422 17.9443 84.6363 18.4968C84.2236 19.0506 84.0224 19.7764 84.0224 20.6799C84.0224 21.6342 84.2135 22.3758 84.6002 22.9013C84.98 23.4255 85.6516 23.6894 86.6069 23.6894C86.9472 23.6894 87.3101 23.6541 87.7024 23.5874C88.0914 23.5194 88.4497 23.413 88.7799 23.2636L89.1735 25.7297C88.8453 25.878 88.4385 26.0025 87.9479 26.1122C87.4549 26.219 86.9154 26.2743 86.3254 26.2743C85.4197 26.2743 84.6375 26.1271 83.9851 25.8383C83.3319 25.5496 82.7924 25.1555 82.3718 24.6573C81.9479 24.1581 81.6427 23.5694 81.4472 22.8899C81.2515 22.2095 81.1541 21.4714 81.1541 20.6799Z" fill="#03435F"/>
<mask id="mask7_331_7048" style="mask-type:alpha" maskUnits="userSpaceOnUse" x="81" y="15" width="9" height="12">
<path d="M84.1174 15.5258C84.7448 15.2326 85.4616 15.0808 86.2666 15.0808C86.7945 15.0808 87.2796 15.1339 87.7204 15.2335C88.1614 15.3367 88.5912 15.4804 89.0037 15.6673L88.4205 18.071C88.1546 17.9647 87.8663 17.8719 87.5497 17.7881C87.2353 17.7085 86.8816 17.6668 86.4926 17.6668C85.663 17.6668 85.0422 17.9443 84.6363 18.4968C84.2236 19.0504 84.0224 19.7762 84.0224 20.6799C84.0224 21.6342 84.2137 22.3758 84.6002 22.9013C84.98 23.4255 85.6515 23.6894 86.6067 23.6894C86.9472 23.6894 87.3101 23.6541 87.7024 23.5874C88.0914 23.5194 88.4497 23.413 88.7797 23.2635L89.1733 25.7297C88.8455 25.878 88.4385 26.0024 87.9477 26.1122C87.4549 26.2188 86.9156 26.2743 86.3254 26.2743C85.4196 26.2743 84.6375 26.1269 83.9851 25.8381C83.3319 25.5494 82.7924 25.1555 82.3716 24.6575C81.9481 24.1581 81.6427 23.5694 81.4472 22.8899C81.2515 22.2095 81.1541 21.4712 81.1541 20.6799C81.1541 19.9109 81.2708 19.1864 81.5036 18.5071C81.7364 17.8254 82.0723 17.2343 82.512 16.7281C82.953 16.222 83.4866 15.8235 84.1174 15.5258Z" fill="white"/>
</mask>
<g mask="url(#mask7_331_7048)">
<path fill-rule="evenodd" clip-rule="evenodd" d="M-134.959 55.834H261.33V-505.576H-134.959V55.834Z" fill="#03435F"/>
<path fill-rule="evenodd" clip-rule="evenodd" d="M76.4354 30.9921H93.8901V10.363H76.4354V30.9921Z" fill="#03435F"/>
</g>
<path fill-rule="evenodd" clip-rule="evenodd" d="M90.9901 25.987V12.7078L93.8021 12.1792V15.4061C93.9891 15.3392 94.2301 15.2747 94.5291 15.2137C94.8221 15.1537 95.1111 15.1219 95.3871 15.1219C96.1901 15.1219 96.8581 15.2408 97.3941 15.4752C97.9281 15.7108 98.3591 16.0448 98.6781 16.4761C99.0011 16.9053 99.2251 17.4192 99.3591 18.0092C99.4891 18.6034 99.5551 19.2649 99.5551 19.9918V25.987H96.7441V20.3529C96.7441 19.3836 96.6281 18.6975 96.3961 18.2911C96.1631 17.8913 95.7311 17.6888 95.1041 17.6888C94.8491 17.6888 94.6151 17.7127 94.3941 17.7579C94.1751 17.8054 93.9771 17.8575 93.8021 17.9107V25.987H90.9901Z" fill="#03435F"/>
<mask id="mask8_331_7048" style="mask-type:alpha" maskUnits="userSpaceOnUse" x="90" y="12" width="10" height="14">
<path d="M90.9901 12.7079L93.8011 12.1792V15.4063C93.9891 15.3393 94.2301 15.2748 94.5291 15.2138C94.8221 15.1537 95.1111 15.1221 95.3871 15.1221C96.1901 15.1221 96.8591 15.241 97.3951 15.4752C97.9281 15.711 98.3591 16.0449 98.6781 16.4763C99.0011 16.9053 99.2251 17.4193 99.3601 18.0094C99.4891 18.6037 99.5551 19.265 99.5551 19.992V25.9871H96.7441V20.3529C96.7441 19.3838 96.6281 18.6976 96.3961 18.2911C96.1631 17.8915 95.7311 17.6888 95.1041 17.6888C94.8491 17.6888 94.6151 17.7127 94.3941 17.7581C94.1751 17.8055 93.9771 17.8575 93.8011 17.9108V25.9871H90.9901V12.7079Z" fill="white"/>
</mask>
<g mask="url(#mask8_331_7048)">
<path fill-rule="evenodd" clip-rule="evenodd" d="M-134.959 55.834H261.33V-505.576H-134.959V55.834Z" fill="#03435F"/>
<path fill-rule="evenodd" clip-rule="evenodd" d="M86.2713 30.7049H104.272V7.46143H86.2713V30.7049Z" fill="#03435F"/>
</g>
<path fill-rule="evenodd" clip-rule="evenodd" d="M6.22055 25.9905V16.3618C6.22055 16.3618 7.63375 15.1536 10.7247 15.1536C13.5374 15.1536 15.082 16.6585 15.082 19.9703V25.9905H12.2725V19.9703C12.2725 17.8609 11.2866 17.7148 10.4444 17.7148C9.60205 17.7148 9.03795 18.1632 9.03795 18.1632V25.9905H6.22055Z" fill="#03435F"/>
<mask id="mask9_331_7048" style="mask-type:alpha" maskUnits="userSpaceOnUse" x="6" y="15" width="10" height="11">
<path d="M6.22055 16.3619C6.22055 16.3619 7.63375 15.1538 10.7247 15.1538C13.5374 15.1538 15.0819 16.6585 15.0819 19.9706V25.9907H12.2725V19.9706C12.2725 17.8609 11.2866 17.715 10.4444 17.715C9.60205 17.715 9.03795 18.1635 9.03795 18.1635V25.9907H6.22055V16.3619Z" fill="white"/>
</mask>
<g mask="url(#mask9_331_7048)">
<path fill-rule="evenodd" clip-rule="evenodd" d="M-134.959 55.834H261.33V-505.576H-134.959V55.834Z" fill="#03435F"/>
<path fill-rule="evenodd" clip-rule="evenodd" d="M1.50183 30.7086H19.7983V10.4363H1.50183V30.7086Z" fill="#03435F"/>
</g>
<path fill-rule="evenodd" clip-rule="evenodd" d="M0.927643 25.9907V12.7092L3.74034 12.1792V25.9907H0.927643Z" fill="#03435F"/>
<mask id="mask10_331_7048" style="mask-type:alpha" maskUnits="userSpaceOnUse" x="0" y="12" width="4" height="14">
<path d="M0.927643 12.7094L3.74034 12.1792V25.9907H0.927643V12.7094Z" fill="white"/>
</mask>
<g mask="url(#mask10_331_7048)">
<path fill-rule="evenodd" clip-rule="evenodd" d="M-134.959 55.834H261.33V-505.576H-134.959V55.834Z" fill="#03435F"/>
<path fill-rule="evenodd" clip-rule="evenodd" d="M-3.79114 30.7085H8.45724V7.46167H-3.79114V30.7085Z" fill="#03435F"/>
</g>
<path fill-rule="evenodd" clip-rule="evenodd" d="M34.1407 21.4406H27.814C27.814 21.4406 27.9553 23.6972 30.7647 23.6972C32.1713 23.6972 33.5777 23.2475 33.5777 23.2475L33.8592 25.6581C33.8592 25.6581 32.4539 26.2549 30.4867 26.2549C27.6727 26.2549 25.1425 24.7522 25.1425 20.5393C25.1425 17.2263 27.1097 15.1226 29.9215 15.1226C34.1407 15.1226 34.4233 19.6311 34.1407 21.4406ZM29.7835 17.2263C27.9553 17.2263 27.814 19.3321 27.814 19.3321H31.7483C31.7483 19.3321 31.6105 17.2263 29.7835 17.2263Z" fill="#03435F"/>
<mask id="mask11_331_7048" style="mask-type:alpha" maskUnits="userSpaceOnUse" x="25" y="15" width="10" height="12">
<path d="M25.1425 20.539C25.1425 17.2259 27.1097 15.1223 29.9213 15.1223C34.1405 15.1223 34.4231 19.631 34.1405 21.4403H27.814C27.814 21.4403 27.9553 23.6968 30.7645 23.6968C32.1711 23.6968 33.5775 23.2472 33.5775 23.2472L33.859 25.6578C33.859 25.6578 32.4537 26.2547 30.4865 26.2547C27.6727 26.2547 25.1425 24.7521 25.1425 20.539ZM29.7833 17.2259C27.9553 17.2259 27.814 19.332 27.814 19.332H31.7483C31.7483 19.332 31.6103 17.2259 29.7833 17.2259Z" fill="white"/>
</mask>
<g mask="url(#mask11_331_7048)">
<path fill-rule="evenodd" clip-rule="evenodd" d="M-134.959 55.8337H261.33V-505.576H-134.959V55.8337Z" fill="#03435F"/>
<path fill-rule="evenodd" clip-rule="evenodd" d="M20.4237 30.9725H38.9358V10.4045H20.4237V30.9725Z" fill="#03435F"/>
</g>
<mask id="mask12_331_7048" style="mask-type:alpha" maskUnits="userSpaceOnUse" x="103" y="10" width="19" height="24">
<path d="M103.279 12.1818C103.279 11.5397 111.366 10.1543 116.789 10.1543C119.141 10.1543 120.992 10.4149 121.465 11.1094C123.907 14.3341 106.716 34.5653 105.284 33.9516C104.135 33.6447 114.449 20.7675 112.73 15.5536C111.871 12.7965 103.279 13.1032 103.279 12.1818Z" fill="white"/>
</mask>
<g mask="url(#mask12_331_7048)">
<path fill-rule="evenodd" clip-rule="evenodd" d="M98.5602 38.6829H126.419V5.43652H98.5602V38.6829Z" fill="#ED342B"/>
</g>
<mask id="mask13_331_7048" style="mask-type:alpha" maskUnits="userSpaceOnUse" x="117" y="0" width="9" height="9">
<path d="M117.885 4.21111C117.885 2.00894 119.552 0.226807 121.607 0.226807C123.665 0.226807 125.33 2.00894 125.33 4.21111C125.33 6.41439 123.665 8.19653 121.607 8.19653C119.552 8.19653 117.885 6.41439 117.885 4.21111Z" fill="white"/>
</mask>
<g mask="url(#mask13_331_7048)">
<path fill-rule="evenodd" clip-rule="evenodd" d="M113.166 12.9143H130.047V-4.49121H113.166V12.9143Z" fill="#ED342B"/>
</g>
</svg>
