<svg width="19" height="22" viewBox="0 0 19 22" fill="none" xmlns="http://www.w3.org/2000/svg">
<g clip-path="url(#clip0_814_23684)">
<path d="M9.24165 17.0056C8.57522 17.0056 7.90879 17.0145 7.24459 17.0034C6.69368 16.9923 6.26494 16.7237 6.25161 16.1643C6.22273 14.9501 5.48078 14.1332 4.8188 13.2387C3.65255 11.6626 3.17939 9.85353 3.29934 7.91569C3.39042 6.45287 4.03463 5.22534 5.21199 4.30414C7.96433 2.1532 12.305 2.25309 14.5553 5.69593C15.9459 7.82468 15.7615 10.666 14.1354 12.6304C13.8533 12.9701 13.5401 13.2897 13.2135 13.5894C12.4805 14.2686 12.014 15.0544 11.934 16.0844C11.8651 16.9701 11.8118 16.9701 10.9055 16.9856C10.3501 16.9967 9.79478 16.9878 9.23943 16.9878C9.24165 16.9945 9.24165 17.0011 9.24165 17.0056ZM8.5108 10.717C8.57744 10.5483 8.61298 10.4018 8.68629 10.2797C9.12613 9.55165 9.57264 9.4451 10.1724 10.0245C10.419 10.262 10.5612 10.1954 10.8211 10.1599C11.6097 10.0467 11.9229 10.3974 11.7674 11.1809C11.703 11.5028 11.5608 11.8114 11.4564 12.1266C11.1654 13.0011 10.8522 13.8691 10.5945 14.7525C10.4812 15.1366 10.4612 15.5516 10.439 15.9556C10.4323 16.0577 10.5812 16.2553 10.6634 16.2597C10.8277 16.2664 11.0788 16.2154 11.1454 16.0999C11.2498 15.9246 11.2365 15.676 11.2631 15.4562C11.3653 14.6149 11.7119 13.9135 12.365 13.3519C12.7826 12.9923 13.1824 12.5972 13.5357 12.1732C14.9818 10.4484 15.1506 8.08217 13.9444 6.19094C12.4783 3.88905 9.6304 2.75031 6.56039 4.34854C5.16312 5.07662 4.21235 6.18206 4.04796 7.77584C3.86581 9.52057 4.29676 11.1587 5.31195 12.6038C6.02725 13.6227 6.9869 14.4995 7.03133 15.8735C7.03578 15.9912 7.17128 16.1399 7.28457 16.2087C7.39565 16.2753 7.58225 16.3108 7.68887 16.262C7.78884 16.2154 7.85104 16.0467 7.88658 15.9179C7.91324 15.818 7.88214 15.6981 7.86214 15.5894C7.59335 14.2154 7.32234 12.8413 7.0491 11.4673C7.0069 11.2498 6.91582 11.0389 6.90471 10.8191C6.87361 10.2842 7.28457 9.99116 7.77773 10.2109C8.03097 10.3219 8.24867 10.5328 8.5108 10.717ZM7.93767 11.5605C8.17092 13.0167 8.40195 14.4173 8.61299 15.8225C8.66852 16.1932 8.86623 16.3175 9.21277 16.3019C9.52599 16.2886 9.64372 16.1332 9.69482 15.8247C9.85032 14.8857 10.0436 13.9534 10.2191 13.0167C10.2368 12.919 10.2435 12.7326 10.2324 12.7303C9.42603 12.5927 9.79034 11.9601 9.69037 11.5139C9.65261 11.3496 9.46601 11.2187 9.34828 11.0744C9.2572 11.2142 9.11947 11.343 9.08393 11.4962C9.01062 11.7914 9.07948 12.3086 8.93953 12.3663C8.46637 12.5616 8.40417 12.0222 8.18203 11.7647C8.11983 11.6959 8.03764 11.6449 7.93767 11.5605Z" fill="#5CC758"/>
<path d="M12.2181 18.888C12.1581 18.9923 12.1003 19.1277 12.0137 19.2409C11.7405 19.5894 11.4694 19.9423 11.1718 20.2686C10.8808 20.5861 10.5476 20.8191 10.3565 21.2698C10.0411 22.0134 8.99033 22.262 8.49496 21.676C7.84408 20.9035 6.89775 20.3707 6.53122 19.3585C6.50678 19.2897 6.45125 19.2342 6.42459 19.1654C6.29131 18.828 6.37572 18.5883 6.7467 18.4928C6.85333 18.4662 6.96662 18.4529 7.07547 18.4529C8.55716 18.4484 10.0366 18.444 11.5183 18.4507C11.8049 18.4507 12.1225 18.4595 12.2181 18.888ZM7.37536 19.2498C8.35279 20.2509 9.92555 20.2353 10.823 19.2498C9.68342 19.2498 8.60381 19.2498 7.37536 19.2498Z" fill="#5CC758"/>
<path d="M9.04325 18.0331C8.26797 18.0331 7.49047 18.0486 6.7152 18.0198C6.53526 18.0131 6.23537 17.8777 6.21093 17.7578C6.14429 17.4293 6.43085 17.3339 6.70631 17.3183C7.22168 17.2872 7.73927 17.2628 8.25686 17.2584C9.18097 17.2495 10.1051 17.2562 11.0292 17.2584C11.2513 17.2584 11.4735 17.2695 11.6934 17.285C11.96 17.305 12.2621 17.3605 12.1954 17.7023C12.171 17.8267 11.8778 17.9754 11.7045 17.9798C10.8182 18.0087 9.92959 17.9931 9.04325 17.9931C9.04325 18.0065 9.04325 18.0198 9.04325 18.0331Z" fill="#5CC758"/>
<path d="M17.2118 9.90689C16.9119 9.80478 16.23 10.1488 16.2344 9.49846C16.2388 8.9635 16.8786 9.21433 17.2451 9.15883C17.4251 9.12998 17.6161 9.14108 17.7983 9.15883C18.0782 9.18547 18.4758 9.10112 18.498 9.51178C18.5202 9.93131 18.1382 9.89579 17.8471 9.90689C17.6605 9.91355 17.4762 9.90689 17.2118 9.90689Z" fill="#5CC758"/>
<path d="M15.8687 2.82129C15.8998 2.99221 16.0264 3.25414 15.9509 3.34293C15.5688 3.78466 15.1445 4.19088 14.7113 4.58378C14.6447 4.64371 14.4092 4.61263 14.3248 4.53938C14.2426 4.46613 14.1826 4.22196 14.2337 4.16646C14.658 3.71363 15.1068 3.28522 15.5577 2.85902C15.5977 2.81463 15.6954 2.83683 15.8687 2.82129Z" fill="#5CC758"/>
<path d="M3.04091 2.44141C3.16086 2.52576 3.28971 2.59235 3.39189 2.69002C3.68068 2.96527 3.9628 3.24718 4.24048 3.53353C4.42485 3.72443 4.60701 3.98636 4.32267 4.16616C4.18716 4.25273 3.83618 4.15728 3.68512 4.02853C3.32969 3.72442 3.02314 3.36039 2.72769 2.99635C2.66549 2.92087 2.70325 2.72554 2.75434 2.61233C2.78767 2.53686 2.92539 2.50578 3.04091 2.44141Z" fill="#5CC758"/>
<path d="M9.05078 1.11458C9.06411 0.861532 9.03745 0.595161 9.10187 0.355428C9.13964 0.215583 9.32179 0.115694 9.43731 -0.00195312C9.54838 0.124573 9.74831 0.24666 9.75719 0.382065C9.79274 0.888169 9.78829 1.40093 9.74609 1.90704C9.7372 2.0269 9.52394 2.12901 9.40399 2.24C9.29514 2.12013 9.11964 2.01359 9.08855 1.87596C9.03745 1.63179 9.073 1.36986 9.073 1.1168C9.06855 1.1168 9.05967 1.11458 9.05078 1.11458Z" fill="#5CC758"/>
<path d="M1.04482 9.52273C0.664955 9.36957 -0.0259076 9.73583 0.000749494 9.0699C0.0207423 8.58377 0.651626 8.80131 1.01594 8.77689C1.33805 8.75691 1.66682 8.81241 1.98892 8.8679C2.06001 8.879 2.15109 9.02772 2.15109 9.11429C2.15109 9.20086 2.06667 9.35181 1.99559 9.36735C1.68237 9.4406 1.35582 9.47611 1.04482 9.52273Z" fill="#5CC758"/>
</g>
<defs>
<clipPath id="clip0_814_23684">
<rect width="18.5" height="22" fill="white"/>
</clipPath>
</defs>
</svg>
