<svg width="108" height="100" viewBox="0 0 108 100" fill="none" xmlns="http://www.w3.org/2000/svg">
<path d="M10.387 73.8449L36.8553 47.3759L54.9174 67.2297L97.4214 26.1558M97.4214 26.1558H73.8016M97.4214 26.1558V51.2465" stroke="#CBFCC9" stroke-width="12.4678" stroke-linecap="round" stroke-linejoin="round"/>
<path d="M38.5423 58.364C37.3065 59.5998 36.838 61.4137 37.128 63.388C37.418 65.3623 38.4659 67.469 40.2203 69.2234C41.9747 70.9778 44.0813 72.0257 46.0556 72.3156C48.0299 72.6056 49.8438 72.1371 51.0797 70.9013L60.6035 61.3774L48.0662 48.8401L38.5423 58.364Z" fill="white" stroke="#131B20" stroke-width="0.8"/>
<path d="M58.9648 72.8626L62.5219 69.3055L59.8476 62.1514L52.6398 69.3592L58.9648 72.8626Z" fill="#131B20" stroke="#131B20" stroke-width="0.8"/>
<path d="M33.7439 49.6953L37.305 46.1342L46.61 49.5879L38.1808 58.0171L33.7439 49.6953Z" fill="white" stroke="#131B20" stroke-width="0.8"/>
<path d="M47.9322 46.896L47.9323 46.8961L47.9263 46.9021C46.7821 48.0463 46.4733 49.9062 47.0177 52.0777C47.5597 54.24 48.9358 56.6365 51.0346 58.7353C53.1333 60.834 55.5298 62.2101 57.6922 62.7521C59.8636 63.2965 61.7235 62.9877 62.8677 61.8436L62.8676 61.8435L62.8752 61.8362L79.0618 46.4793L63.3684 30.7859L47.9322 46.896Z" fill="white" stroke="#131B20" stroke-width="0.8"/>
<path d="M54.256 38.9575C51.5976 41.6158 50.2208 46.5978 51.1534 50.0781C51.6071 51.7716 52.8639 52.7196 54.3964 52.8799C55.9247 53.0398 57.6543 52.4061 58.9756 51.0848C60.1358 49.9246 60.8145 48.2038 61.0896 46.2941C61.3667 44.371 61.2282 42.2786 60.7474 40.4841C59.8148 37.0038 56.9143 36.2992 54.256 38.9575Z" fill="#CBFCC9" stroke="#131B20" stroke-width="0.8"/>
<path d="M53.5732 38.4239C51.0165 40.9805 49.7026 45.8842 50.6384 49.3767C51.5742 52.8691 54.4053 53.6277 56.962 51.0711C59.5186 48.5144 60.8326 43.6107 59.8968 40.1183C58.961 36.6259 56.1298 35.8673 53.5732 38.4239Z" fill="white" stroke="#131B20" stroke-width="0.8"/>
<path d="M54.0803 40.3211C52.2905 42.1109 51.3707 45.5437 52.0258 47.9886C52.6809 50.4334 54.6628 50.9645 56.4526 49.1747C58.2423 47.385 59.1622 43.9521 58.5071 41.5073C57.852 39.0624 55.87 38.5313 54.0803 40.3211Z" fill="white" stroke="#131B20" stroke-width="0.8"/>
<mask id="path-9-inside-1_1590_3791" fill="white">
<path fill-rule="evenodd" clip-rule="evenodd" d="M53.8079 48.6349C53.0956 45.9766 54.0957 42.2442 56.0417 40.2982C56.5705 39.7694 57.1148 39.4269 57.6414 39.2619C58.146 39.6681 58.55 40.3277 58.7901 41.2237C59.5024 43.882 58.5023 47.6144 56.5563 49.5604C56.0275 50.0892 55.4832 50.4317 54.9566 50.5967C54.4519 50.1905 54.0479 49.5309 53.8079 48.6349Z"/>
</mask>
<path fill-rule="evenodd" clip-rule="evenodd" d="M53.8079 48.6349C53.0956 45.9766 54.0957 42.2442 56.0417 40.2982C56.5705 39.7694 57.1148 39.4269 57.6414 39.2619C58.146 39.6681 58.55 40.3277 58.7901 41.2237C59.5024 43.882 58.5023 47.6144 56.5563 49.5604C56.0275 50.0892 55.4832 50.4317 54.9566 50.5967C54.4519 50.1905 54.0479 49.5309 53.8079 48.6349Z" fill="#131B20"/>
<path d="M53.8079 48.6349L53.0351 48.8419L53.8079 48.6349ZM57.6414 39.2619L57.4022 38.4985L57.8101 38.3707L58.1431 38.6387L57.6414 39.2619ZM58.7901 41.2237L58.0174 41.4308L58.7901 41.2237ZM54.9566 50.5967L55.1958 51.3601L54.7879 51.4879L54.4549 51.2199L54.9566 50.5967ZM56.6073 40.8639C55.757 41.7142 55.0782 42.9976 54.7007 44.4065C54.3231 45.8155 54.2694 47.2663 54.5806 48.4278L53.0351 48.8419C52.6341 47.3453 52.7242 45.6007 53.1552 43.9924C53.5861 42.3841 54.3803 40.8282 55.476 39.7325L56.6073 40.8639ZM57.8806 40.0253C57.5039 40.1433 57.067 40.4042 56.6073 40.8639L55.476 39.7325C56.074 39.1345 56.7257 38.7105 57.4022 38.4985L57.8806 40.0253ZM58.0174 41.4308C57.808 40.6495 57.4773 40.1568 57.1398 39.8851L58.1431 38.6387C58.8148 39.1794 59.292 40.006 59.5629 41.0167L58.0174 41.4308ZM55.9906 48.9947C56.8409 48.1444 57.5198 46.861 57.8973 45.4521C58.2748 44.0432 58.3286 42.5923 58.0174 41.4308L59.5629 41.0167C59.9639 42.5134 59.8737 44.2579 59.4428 45.8662C59.0118 47.4745 58.2176 49.0304 57.122 50.1261L55.9906 48.9947ZM54.7174 49.8333C55.094 49.7153 55.5309 49.4544 55.9906 48.9947L57.122 50.1261C56.524 50.7241 55.8723 51.1482 55.1958 51.3601L54.7174 49.8333ZM54.5806 48.4278C54.7899 49.2091 55.1206 49.7018 55.4582 49.9735L54.4549 51.2199C53.7832 50.6792 53.3059 49.8527 53.0351 48.8419L54.5806 48.4278Z" fill="#131B20" mask="url(#path-9-inside-1_1590_3791)"/>
<path d="M47.4861 86.5113C48.7147 85.2826 49.5417 83.71 49.8575 82.0013L53.0549 64.706L51.5769 63.7438L43.2259 72.3103L43.7997 73.9612L44.5735 81.3056L43.8979 87.619L45.2977 88.6996L47.4861 86.5113Z" fill="white" stroke="#131B20" stroke-width="0.8"/>
<path d="M46.4056 85.1613C47.3885 84.1784 48.0501 82.9203 48.3028 81.5534L51.5971 63.7334L42.3419 72.9885L43.8896 87.6773L46.4056 85.1613Z" fill="white" stroke="#131B20" stroke-width="0.8" stroke-linejoin="bevel"/>
<path d="M22.1528 59.6602C23.3815 58.4315 24.9541 57.6046 26.6627 57.2887L43.9581 54.0914L44.9203 55.5694L36.3538 63.9203L34.7029 63.3465L27.3585 62.5727L21.0451 63.2483L19.9644 61.8485L22.1528 59.6602Z" fill="white" stroke="#131B20" stroke-width="0.8"/>
<path d="M23.502 60.7414C24.485 59.7584 25.743 59.0969 27.11 58.8442L44.93 55.5498L35.6748 64.805L20.986 63.2574L23.502 60.7414Z" fill="#CBFCC9" stroke="#131B20" stroke-width="0.8" stroke-linejoin="bevel"/>
<path d="M63.3558 30.7109C62.1486 31.9181 61.8254 33.8778 62.3974 36.1595C62.9671 38.4321 64.4129 40.9495 66.6169 43.1534C68.8208 45.3573 71.3382 46.8031 73.6108 47.3729C75.8925 47.9449 77.8522 47.6217 79.0594 46.4145C79.8153 45.6586 80.2923 44.6685 80.4125 43.6063L82.2293 27.5409L66.1639 29.3578C65.1017 29.478 64.1117 29.955 63.3558 30.7109Z" fill="#CBFCC9"/>
<path d="M63.3558 30.7109C62.1486 31.9181 61.8254 33.8778 62.3974 36.1595C62.9671 38.4321 64.4129 40.9495 66.6169 43.1534C68.8208 45.3573 71.3382 46.8031 73.6108 47.3729C75.8925 47.9449 77.8522 47.6217 79.0594 46.4145C79.8153 45.6586 80.2923 44.6685 80.4125 43.6063L82.2293 27.5409L66.1639 29.3578C65.1017 29.478 64.1117 29.955 63.3558 30.7109Z" stroke="#FF0000" stroke-width="0.8"/>
<path d="M63.3558 30.7109C62.1486 31.9181 61.8254 33.8778 62.3974 36.1595C62.9671 38.4321 64.4129 40.9495 66.6169 43.1534C68.8208 45.3573 71.3382 46.8031 73.6108 47.3729C75.8925 47.9449 77.8522 47.6217 79.0594 46.4145C79.8153 45.6586 80.2923 44.6685 80.4125 43.6063L82.2293 27.5409L66.1639 29.3578C65.1017 29.478 64.1117 29.955 63.3558 30.7109Z" stroke="#131B20" stroke-width="0.8"/>
</svg>
