<svg width="32" height="32" viewBox="0 0 32 32" fill="none" xmlns="http://www.w3.org/2000/svg">
<g clip-path="url(#clip0_1517_1293)">
<rect x="-1.78814e-08" y="0.3" width="24.0379" height="13.4788" rx="6.7394" transform="matrix(0.866025 0.5 -0.866025 0.5 11.6878 8.93114)" fill="#CBFCC9" stroke="#131B20" stroke-width="0.6"/>
<path d="M2.95631 11.3407L3.02376 15.4501L15.4993 22.7749L21.9083 23.3404L29.0815 20.8547V16.2548L28.8872 15.5052L26.1664 18.1982L22.8903 19.8363H17.3376L2.95631 11.3407Z" fill="#CBFCC9"/>
<path fill-rule="evenodd" clip-rule="evenodd" d="M3.70645 10.9672V16.4885L2.80518 15.8207V10.9672H3.70645Z" fill="#131B20"/>
<path fill-rule="evenodd" clip-rule="evenodd" d="M29.1707 16.1659V21.1265L28.3015 21.6355V16.4993L29.1707 16.1659Z" fill="#131B20"/>
<rect x="-1.78814e-08" y="0.3" width="24.0379" height="13.4788" rx="6.7394" transform="matrix(0.866025 0.5 -0.866025 0.5 11.6878 4.01063)" fill="white" stroke="#131B20" stroke-width="0.6"/>
<circle cx="5.18004" cy="5.18004" r="4.88004" transform="matrix(0.866025 0.5 -0.866025 0.5 20.1196 10.5733)" fill="#131B20" stroke="#131B20" stroke-width="0.6"/>
<path d="M24.208 17.7255C21.9274 19.0422 18.2299 19.0422 15.9493 17.7255C14.8236 17.0755 14.2535 16.2262 14.2392 15.3743C14.2391 11.6867 14.7946 13.6241 15.9493 12.9574C18.2299 11.6407 21.9274 11.6407 24.208 12.9574C25.3628 13.6241 25.9181 11.2408 25.9181 15.3743C25.9038 16.2262 25.3338 17.0755 24.208 17.7255Z" fill="white"/>
<path d="M13.8701 15.3879V14.0206L14.304 15.2827L14.1068 16.4331L13.8701 15.3879Z" fill="#131B20"/>
<circle cx="5.18004" cy="5.18004" r="4.88004" transform="matrix(0.866025 0.5 -0.866025 0.5 20.1196 7.25707)" fill="white" stroke="#131B20" stroke-width="0.6"/>
<path fill-rule="evenodd" clip-rule="evenodd" d="M13.7813 15.882L13.7812 12.22L14.4373 12.22L14.4373 17.0579L13.7813 15.882Z" fill="#131B20"/>
<path fill-rule="evenodd" clip-rule="evenodd" d="M25.8838 17.1739L25.8838 13.0326L26.4617 13.0326L26.4617 15.643L25.8838 17.1739Z" fill="#131B20"/>
</g>
<defs>
<clipPath id="clip0_1517_1293">
<rect width="32" height="32" fill="white"/>
</clipPath>
</defs>
</svg>
