<svg width="40" height="40" viewBox="0 0 40 40" fill="none" xmlns="http://www.w3.org/2000/svg">
<rect width="40" height="40" rx="8" fill="#CBFCC9"/>
<path d="M5.08594 12.6957C5.08594 11.7596 5.93976 11.0558 6.85869 11.2345L18.7956 13.5558C19.4951 13.6918 20.0001 14.3044 20.0001 15.017L20.0001 33.2761C15.5958 31.9019 12.6056 31.0044 6.46448 30.4606C5.68831 30.3919 5.08594 29.7459 5.08594 28.9667V12.6957Z" fill="#CBFCC9" stroke="#131B20" stroke-linejoin="round"/>
<path d="M34.8574 12.6957C34.8574 11.7596 34.0036 11.0558 33.0847 11.2345L21.1477 13.5558C20.4483 13.6918 19.9433 14.3044 19.9433 15.017L19.9433 33.2761C24.3476 31.9019 27.3377 31.0044 33.4789 30.4606C34.2551 30.3919 34.8574 29.7459 34.8574 28.9667V12.6957Z" fill="#CBFCC9" stroke="#131B20" stroke-linejoin="round"/>
<path d="M6.95288 10.9478C6.95288 9.99359 7.83797 9.28579 8.76879 9.49559L18.6591 11.7248C19.3381 11.8778 19.8204 12.4809 19.8204 13.1769V33.1966C17.112 30.5067 14.4631 28.1771 8.61421 28.4162C7.72744 28.4525 6.95288 27.7686 6.95288 26.8811V10.9478Z" fill="#CBFCC9" stroke="#131B20" stroke-linejoin="round"/>
<path d="M32.8105 10.9478C32.8105 9.99359 31.9255 9.28579 30.9946 9.49559L21.1043 11.7248C20.4254 11.8778 19.943 12.4809 19.943 13.1769V33.1966C22.6514 30.5067 25.3003 28.1771 31.1492 28.4162C32.036 28.4525 32.8105 27.7686 32.8105 26.8811V10.9478Z" fill="#CBFCC9" stroke="#131B20" stroke-linejoin="round"/>
<path d="M9.11084 8.62579C9.11084 7.752 9.86057 7.06267 10.7288 7.16074C13.9561 7.52525 16.1186 8.08634 19.0086 9.49293C19.5095 9.73676 19.8204 10.2503 19.8204 10.8075V32.1103C18.2095 29.6451 15.9603 26.5382 10.7282 26.4084C9.85773 26.3869 9.11084 25.712 9.11084 24.8413V8.62579Z" fill="white" stroke="#131B20" stroke-linejoin="round"/>
<path d="M30.5298 8.62579C30.5298 7.752 29.7801 7.06267 28.9118 7.16074C25.6845 7.52525 23.522 8.08634 20.6321 9.49293C20.1311 9.73676 19.8202 10.2503 19.8202 10.8075V32.1103C21.4311 29.6451 23.6803 26.5382 28.9124 26.4084C29.7829 26.3869 30.5298 25.712 30.5298 24.8413V8.62579Z" fill="white" stroke="#131B20" stroke-linejoin="round"/>
</svg>
