<svg width="32" height="32" viewBox="0 0 32 32" fill="none" xmlns="http://www.w3.org/2000/svg">
<path d="M9.51794 11.2372L7.21281 14.1045V25.8358H9.51794V11.2372Z" fill="#CBFCC9" stroke="#131B20" stroke-width="0.8" stroke-linecap="round"/>
<path d="M22.3917 11.2372L24.6969 14.1045V25.8358H22.3917V11.2372Z" fill="#CBFCC9" stroke="#131B20" stroke-width="0.8" stroke-linecap="round"/>
<path d="M10.2452 6.55933H21.6851L22.4124 11.6759H9.51794L10.2452 6.55933Z" fill="white" stroke="#131B20" stroke-width="0.8" stroke-linecap="round"/>
<path d="M4.3522 7.02508L9.47437 11.5902L7.28249 14.131L1.0815 8.80544L4.3522 7.02508Z" fill="white" stroke="#131B20" stroke-width="0.8" stroke-linecap="round"/>
<path d="M27.648 7.02505L22.4121 11.5902L24.7178 14.131L30.9187 8.80541L27.648 7.02505Z" fill="white" stroke="#131B20" stroke-width="0.8" stroke-linecap="round"/>
<rect x="9.51794" y="11.567" width="12.8944" height="14.2688" fill="#CBFCC9" stroke="#131B20" stroke-width="0.8" stroke-linecap="round"/>
<rect x="7.21289" y="14.0914" width="17.5047" height="11.7444" fill="white" stroke="#131B20" stroke-width="0.8" stroke-linecap="round"/>
<path d="M7.21357 14.0914H24.7183L26.4444 17.3194H5.37573L7.21357 14.0914Z" fill="white" stroke="#131B20" stroke-width="0.8" stroke-linecap="round"/>
</svg>
