<svg width="32" height="32" viewBox="0 0 32 32" fill="none" xmlns="http://www.w3.org/2000/svg">
<path fill-rule="evenodd" clip-rule="evenodd" d="M19.4286 2.28571V18.2857H1.14286C0.512 18.2857 0 18.7977 0 19.4286C0 19.4286 0 24.0754 0 26.2857C0 26.8914 0.241143 27.4731 0.669714 27.9017C1.09829 28.3303 1.68 28.5714 2.28571 28.5714H4.71543C5.224 30.5417 7.01486 32 9.14286 32C11.2709 32 13.0617 30.5417 13.5703 28.5714H18.4297C18.9383 30.5417 20.7291 32 22.8571 32C24.9851 32 26.776 30.5417 27.2846 28.5714H28.5714C31.7417 28.5714 32 25.7497 32 24V11.4286C32 10.1669 30.976 9.14286 29.7143 9.14286H21.7143V1.14286C21.7143 0.512 21.2023 0 20.5714 0H9.14286C8.512 0 8 0.512 8 1.14286C8 1.77371 8.512 2.28571 9.14286 2.28571H19.4286ZM9.14286 25.1429C10.4046 25.1429 11.4286 26.1669 11.4286 27.4286C11.4286 28.6903 10.4046 29.7143 9.14286 29.7143C7.88114 29.7143 6.85714 28.6903 6.85714 27.4286C6.85714 26.1669 7.88114 25.1429 9.14286 25.1429ZM22.8571 25.1429C24.1189 25.1429 25.1429 26.1669 25.1429 27.4286C25.1429 28.6903 24.1189 29.7143 22.8571 29.7143C21.5954 29.7143 20.5714 28.6903 20.5714 27.4286C20.5714 26.1669 21.5954 25.1429 22.8571 25.1429ZM24 11.4286H21.7143V19.4286C21.7143 20.0594 21.2023 20.5714 20.5714 20.5714H2.28571V26.2857H4.71543C5.224 24.3154 7.01486 22.8571 9.14286 22.8571C11.2709 22.8571 13.0617 24.3154 13.5703 26.2857H18.4297C18.9383 24.3154 20.7291 22.8571 22.8571 22.8571C24.9851 22.8571 26.776 24.3154 27.2846 26.2857H28.5714C28.8994 26.2857 29.1417 26.2297 29.3017 26.0823C29.4709 25.928 29.5451 25.7063 29.6011 25.48C29.7246 24.9749 29.7143 24.4263 29.7143 24V17.1429H27.4286C27.2514 17.1429 27.0766 17.1017 26.9177 17.0217L24.632 15.8789C24.2446 15.6857 24 15.2903 24 14.8571V11.4286ZM1.14286 16H13.7143C14.3451 16 14.8571 15.488 14.8571 14.8571C14.8571 14.2263 14.3451 13.7143 13.7143 13.7143H1.14286C0.512 13.7143 0 14.2263 0 14.8571C0 15.488 0.512 16 1.14286 16ZM26.2857 11.4286V14.1509L27.6983 14.8571H29.7143V11.4286H26.2857ZM4.57143 11.4286H13.7143C14.3451 11.4286 14.8571 10.9166 14.8571 10.2857C14.8571 9.65486 14.3451 9.14286 13.7143 9.14286H4.57143C3.94057 9.14286 3.42857 9.65486 3.42857 10.2857C3.42857 10.9166 3.94057 11.4286 4.57143 11.4286ZM6.85714 6.85714H13.7143C14.3451 6.85714 14.8571 6.34514 14.8571 5.71429C14.8571 5.08343 14.3451 4.57143 13.7143 4.57143H6.85714C6.22629 4.57143 5.71429 5.08343 5.71429 5.71429C5.71429 6.34514 6.22629 6.85714 6.85714 6.85714Z" fill="#5CC758"/>
</svg>
