<svg width="101" height="40" viewBox="0 0 101 40" fill="none" xmlns="http://www.w3.org/2000/svg">
<g clip-path="url(#clip0_340_8905)">
<path d="M15.2365 28.4565C16.1353 29.2716 17.484 31.9121 1.07834 33.9629V36.6594C1.0501 36.6594 22.6247 34.1874 15.2365 28.4565Z" fill="url(#paint0_linear_340_8905)"/>
<path d="M17.0906 32.2495C13.4671 36.2947 1.05011 37.4185 1.05011 37.4185V39.5813C21.8379 36.7719 17.0906 32.2495 17.0906 32.2495Z" fill="url(#paint1_linear_340_8905)"/>
<path d="M5.15129 9.18588C5.46046 8.96141 6.05011 8.79294 6.52776 8.37177V32.1929C7.81999 31.9685 9.2247 31.7435 10.2078 31.5191V6.23624C10.4609 6.06777 11.2195 5.56235 11.5847 5.19671V31.1256C13.3541 30.648 14.5343 30.0861 15.2647 29.44V0C11.2755 3.73647 6.47129 6.85459 1.05011 9.12941V33.0075C2.42658 32.8391 3.97152 32.6706 5.12352 32.4739V9.18588H5.15129Z" fill="url(#paint2_linear_340_8905)"/>
<path d="M99.1635 15.7177C99.3602 15.6613 99.4727 15.4928 99.4727 15.2961C99.4727 15.0434 99.276 14.8467 98.9668 14.8467H98.6016C98.5456 14.8467 98.4891 14.9032 98.4891 14.9592V16.1672C98.4891 16.2232 98.5456 16.2791 98.6016 16.2791C98.6581 16.2791 98.7141 16.2227 98.7141 16.1667V15.7455H98.9668L99.3602 16.2231C99.3884 16.2514 99.4162 16.2514 99.4444 16.2514C99.5004 16.2514 99.5569 16.1949 99.5569 16.1384C99.5569 16.1107 99.5569 16.0824 99.5287 16.0824L99.1635 15.7173V15.7177ZM98.6858 15.5488V15.0152H98.9385C99.1353 15.0152 99.2477 15.0999 99.2477 15.2679C99.2477 15.4646 99.1353 15.5206 98.9385 15.5206H98.6858V15.5488Z" fill="url(#paint3_linear_340_8905)"/>
<path d="M98.8826 14.1162C98.068 14.1162 97.4219 14.7901 97.4219 15.5769C97.4219 16.3915 98.0962 17.0376 98.8826 17.0376C99.6972 17.0376 100.343 16.3633 100.343 15.5769C100.372 14.7623 99.6972 14.1162 98.8826 14.1162ZM98.8826 16.8692C98.7128 16.8696 98.5445 16.8365 98.3876 16.7717C98.2306 16.7069 98.0879 16.6117 97.9679 16.4916C97.8478 16.3716 97.7526 16.2289 97.6878 16.0719C97.623 15.915 97.5899 15.7467 97.5903 15.5769C97.5899 15.4071 97.623 15.2389 97.6878 15.0819C97.7526 14.9249 97.8478 14.7823 97.9679 14.6622C98.0879 14.5421 98.2306 14.4469 98.3876 14.3822C98.5445 14.3174 98.7128 14.2842 98.8826 14.2847C99.0524 14.2842 99.2206 14.3174 99.3776 14.3822C99.5346 14.4469 99.6772 14.5421 99.7973 14.6622C99.9174 14.7823 100.013 14.9249 100.077 15.0819C100.142 15.2389 100.175 15.4071 100.175 15.5769C100.175 15.7467 100.142 15.915 100.077 16.0719C100.013 16.2289 99.9174 16.3716 99.7973 16.4916C99.6772 16.6117 99.5346 16.7069 99.3776 16.7717C99.2206 16.8365 99.0524 16.8696 98.8826 16.8692Z" fill="url(#paint4_linear_340_8905)"/>
<path d="M27.2204 14.3408C27.3611 14.6782 27.6421 15.2396 28.0073 15.9704C28.4007 16.7285 28.7941 17.4589 29.1588 18.2457C29.5522 19.0043 29.9738 19.8189 30.451 20.6617C30.8444 21.3356 31.0411 21.729 31.0971 21.8415C32.4736 18.7233 33.5414 16.2226 34.2435 14.3408C35.564 14.3408 36.8002 14.3125 37.9235 14.2288H38.1484C38.3729 14.2288 38.4854 14.313 38.4854 14.4815C38.4854 14.6499 38.4011 14.7059 38.2327 14.7059C37.6148 14.7059 37.1931 14.9309 36.9964 15.3521C36.8002 15.7737 36.6877 16.841 36.6877 18.4984V22.5718C36.6877 23.4142 36.8002 23.9765 37.0247 24.3135C37.2496 24.6504 37.5865 24.8193 38.092 24.8471C38.3169 24.8471 38.4571 24.9318 38.4571 25.1003C38.4571 25.1845 38.4011 25.2405 38.3169 25.2965L35.9851 25.2683C35.283 25.2683 34.3 25.2965 33.0637 25.353C32.9513 25.2683 32.8952 25.2123 32.8952 25.1281C32.8952 24.9878 33.0355 24.9036 33.3164 24.8753C33.5974 24.8189 33.8223 24.7629 33.9625 24.6504C34.1033 24.5662 34.1875 24.3695 34.2435 24.1168C34.3 23.8641 34.356 23.4989 34.356 22.993L34.3842 19.2848V15.9982C32.867 19.5097 31.94 21.729 31.5748 22.7121L30.7324 24.9596C30.6477 25.1845 30.5353 25.3248 30.451 25.3248C30.339 25.3248 30.2265 25.1845 30.0858 24.8753C29.6929 24.033 28.2317 21.1953 25.7597 16.4198C25.7315 17.7963 25.7315 19.6504 25.7315 21.9822C25.7315 23.2179 25.788 24.0043 25.9287 24.3135C26.0689 24.6226 26.4623 24.8193 27.0802 24.8753C27.2769 24.9036 27.3894 24.9878 27.3894 25.0998C27.3894 25.2405 27.3047 25.3248 27.1367 25.3248H26.94C26.2656 25.2683 25.788 25.2405 25.507 25.2405C24.7207 25.2405 24.1305 25.2688 23.7094 25.3252C23.6247 25.3252 23.5687 25.353 23.5404 25.353C23.3442 25.353 23.26 25.2683 23.26 25.0998C23.26 25.0156 23.2882 24.9596 23.3442 24.9313C23.4002 24.9031 23.5127 24.8749 23.7094 24.8189C24.243 24.7069 24.58 24.5384 24.7484 24.2575C24.9174 23.9765 25.0016 23.4989 25.0016 22.881L25.0298 18.1332C25.0298 17.0377 25.0016 16.3356 24.9451 15.9982C24.8887 15.6612 24.7484 15.3803 24.524 15.1841C24.299 14.9869 23.9621 14.8466 23.4562 14.7624C23.26 14.7342 23.1757 14.6217 23.1757 14.4815C23.1757 14.313 23.2877 14.2565 23.4844 14.2565H23.6811C24.299 14.313 25.4505 14.3408 27.2204 14.3408Z" fill="#101323"/>
<path d="M39.7494 14.2566C39.9461 14.2566 40.3395 14.2848 40.9574 14.3131C41.3222 14.3345 41.6875 14.3439 42.0529 14.3413L44.6096 14.2848C44.8341 14.2848 44.9466 14.3691 44.9466 14.5093C44.9466 14.65 44.8619 14.7342 44.6656 14.7342C44.2162 14.7907 43.9353 14.8467 43.795 14.9869C43.6543 15.0994 43.5419 15.3804 43.4576 15.8015C43.3734 16.2232 43.3452 17.2062 43.3452 18.7234C43.3452 20.4646 43.3734 21.8133 43.4299 22.7686C43.4859 23.7239 43.5983 24.3135 43.7668 24.538C43.9353 24.7629 44.2162 24.8754 44.6092 24.8754C44.8906 24.8754 45.0308 24.9597 45.0308 25.0999C45.0308 25.2966 44.8906 25.3808 44.5814 25.3808H44.2162C43.1767 25.2966 42.4746 25.2688 42.0812 25.2688C41.2388 25.2688 40.6204 25.2971 40.227 25.3531C40.0026 25.3813 39.8619 25.3813 39.7776 25.3813C39.5809 25.3813 39.4684 25.2966 39.4684 25.1281C39.4684 24.9879 39.5532 24.9314 39.7216 24.9036C40.1993 24.8472 40.508 24.7069 40.6769 24.5102C40.8454 24.3135 40.9296 23.8077 40.9856 23.0495C41.0139 22.2909 41.0421 21.0829 41.0421 19.4538C41.0421 17.7399 41.0139 16.5879 40.9574 16.0265C40.9009 15.4364 40.7889 15.0994 40.6487 14.9592C40.508 14.8185 40.227 14.7342 39.8336 14.706C39.6092 14.6778 39.5249 14.594 39.5249 14.4533C39.4402 14.3408 39.5532 14.2566 39.7494 14.2566Z" fill="#101323"/>
<path d="M48.8793 14.2848C51.5202 17.3186 53.739 19.7342 55.5089 21.5605V17.5436C55.5089 16.7568 55.4529 16.2231 55.3687 15.8862C55.2845 15.5488 55.0878 15.2961 54.8068 15.0993C54.5259 14.9026 54.1889 14.7906 53.7955 14.7624C53.5988 14.7342 53.4863 14.6499 53.4863 14.5092C53.4863 14.3408 53.5706 14.2565 53.7673 14.2565C53.8798 14.2565 54.02 14.2565 54.1889 14.2848C54.4976 14.313 54.9753 14.3412 55.5654 14.3412C56.3235 14.3412 56.9136 14.313 57.307 14.2848C57.4755 14.2565 57.6158 14.2565 57.7282 14.2565C57.9249 14.2565 58.0374 14.3412 58.0374 14.5092C58.0374 14.6782 57.8967 14.7624 57.6158 14.7906C57.2788 14.8189 56.9419 14.9591 56.6327 15.2401C56.3235 15.4928 56.1833 16.0264 56.1833 16.785L56.2115 21.4763L56.155 25.0156C56.155 25.3248 56.0708 25.4655 55.8741 25.4655C55.8181 25.4655 55.7616 25.4372 55.7056 25.409C55.6496 25.3808 55.2562 24.9878 54.5541 24.2575C53.8515 23.5271 52.8125 22.3751 51.4638 20.8302C50.0873 19.2852 49.1325 18.1897 48.5706 17.5153C48.5706 17.6556 48.5423 19.0603 48.5423 21.7008C48.5423 22.5158 48.5706 23.1619 48.6548 23.6113C48.7108 24.0608 48.9358 24.3977 49.3009 24.6226C49.6661 24.8189 50.003 24.9313 50.284 24.9313C50.4807 24.9313 50.5649 25.0161 50.5649 25.1563C50.5649 25.3248 50.4525 25.409 50.2558 25.409C50.1155 25.409 49.9748 25.409 49.7781 25.3808C49.4412 25.3248 49.02 25.3248 48.5141 25.3248C47.7 25.3248 47.0816 25.353 46.7165 25.4095C46.4915 25.4372 46.323 25.4372 46.2106 25.4372C45.9861 25.4372 45.8736 25.3525 45.8736 25.1563C45.8736 25.0156 46.0421 24.9313 46.4073 24.9036C47.0252 24.8471 47.419 24.6504 47.587 24.2575C47.7555 23.8641 47.812 23.3586 47.812 22.6843C47.812 19.8184 47.7838 18.0772 47.7555 17.4311C47.7273 16.785 47.531 16.2231 47.1659 15.6895C46.8007 15.1836 46.3513 14.8749 45.8176 14.7624C45.5927 14.7342 45.4802 14.6499 45.4802 14.5092C45.4802 14.313 45.5927 14.2288 45.8172 14.2288C45.8736 14.2288 45.9579 14.2288 46.0703 14.257C46.2106 14.257 46.4355 14.2848 46.7725 14.2848C47.587 14.2565 48.2614 14.2565 48.8793 14.2848Z" fill="#101323"/>
<path d="M59.0204 14.2004C61.8858 14.2847 64.0209 14.3129 65.3974 14.3129C66.4369 14.3129 67.5884 14.2847 68.8524 14.2282C69.3018 14.2 69.667 14.2 69.948 14.2H70.5098C70.5381 14.4249 70.5941 14.9025 70.6505 15.6047L70.763 16.9251C70.763 17.1501 70.6783 17.2621 70.4821 17.2621C70.3414 17.2621 70.2011 17.1218 70.0887 16.8691C69.8637 16.4197 69.611 16.0263 69.2741 15.7171C68.9367 15.4084 68.5715 15.1835 68.1221 15.071C67.7009 14.9585 66.9705 14.9025 65.9593 14.9025C65.875 15.7454 65.8185 16.8131 65.8185 18.0771C65.8185 19.3694 65.8468 20.6334 65.9028 21.8414C65.9592 23.0494 66.0152 23.7797 66.0995 24.0324C66.1837 24.2851 66.2962 24.4536 66.4647 24.5943C66.6331 24.7068 67.0548 24.791 67.6727 24.847C67.8976 24.8752 68.0096 24.9317 68.0096 25.072C68.0096 25.2404 67.9254 25.2964 67.7291 25.2964H67.5042L65.7908 25.2682C64.4421 25.2682 63.6275 25.2682 63.3465 25.2964L62.307 25.3247C62.2228 25.3247 62.0543 25.3247 61.8016 25.2964C61.6609 25.2682 61.6049 25.2122 61.6049 25.0997C61.6049 24.9312 61.7174 24.847 61.9141 24.847C62.4195 24.847 62.7847 24.7345 63.0374 24.5383C63.2905 24.3416 63.4308 24.0042 63.4873 23.5548C63.5433 23.1054 63.5715 22.1501 63.5715 20.6616C63.5715 18.3016 63.4873 16.3915 63.3465 14.9025C62.4195 14.9025 61.7734 14.9308 61.3522 15.015C60.9305 15.0992 60.5654 15.296 60.1724 15.6329C59.8073 15.9703 59.4981 16.3915 59.2454 16.9251C59.1611 17.1218 59.0487 17.2343 58.908 17.2343C58.7112 17.2343 58.627 17.1496 58.627 16.9816C58.627 16.9251 58.6552 16.56 58.7395 15.8861C58.852 15.2117 58.9362 14.6498 59.0204 14.2004Z" fill="#101323"/>
<path d="M77.9824 19.1727C79.5273 17.1502 80.3141 15.9139 80.3141 15.4645C80.3141 15.3243 80.2576 15.2118 80.1734 15.0711C80.0892 14.9309 79.8365 14.8184 79.4153 14.7059C79.2463 14.6499 79.1621 14.5939 79.1621 14.4814C79.1621 14.313 79.2746 14.2287 79.4713 14.2287C79.5273 14.2287 79.6115 14.2287 79.6962 14.257C80.3983 14.313 80.932 14.3407 81.3254 14.3407C81.7188 14.3407 82.196 14.3125 82.7579 14.2565C82.8703 14.2565 82.9546 14.2283 83.0111 14.2283C83.1795 14.2283 83.2638 14.313 83.2638 14.4532C83.2638 14.5939 83.1795 14.6782 83.0111 14.6782C82.6454 14.7064 82.3085 14.8466 81.9715 15.0433C81.6623 15.24 81.2689 15.6612 80.8195 16.2231C80.3701 16.8132 79.8647 17.4871 79.3306 18.3017C78.7969 19.0885 78.4882 19.5939 78.4318 19.7629C78.3758 19.9313 78.3475 20.5487 78.3475 21.5605C78.3475 23.1337 78.4318 24.0607 78.5725 24.3699C78.7127 24.6786 79.0779 24.8471 79.6115 24.8471C79.8082 24.8471 79.9207 24.9318 79.9207 25.1003C79.9207 25.2687 79.8082 25.353 79.5838 25.353C79.4153 25.353 78.9654 25.3247 78.2073 25.2683C77.7856 25.2405 77.4769 25.2405 77.2802 25.2405C76.6619 25.2405 75.988 25.2687 75.2294 25.353C75.0892 25.353 74.9767 25.3812 74.8925 25.3812C74.6675 25.3812 74.5833 25.2965 74.5833 25.128C74.5833 24.9878 74.6675 24.9036 74.836 24.9036C75.3701 24.8471 75.7353 24.6504 75.8755 24.3694C76.0158 24.0607 76.1005 23.4142 76.1005 22.4033C76.1005 21.5045 76.044 20.8862 75.9315 20.5774C75.8195 20.2683 75.5103 19.7069 75.0045 18.8918C74.5117 18.0971 74.0061 17.3105 73.4878 16.5323C72.9819 15.7737 72.5889 15.296 72.3358 15.0993C72.0553 14.9026 71.7744 14.7624 71.4652 14.7059C71.2967 14.6777 71.2402 14.5939 71.2402 14.4814C71.2402 14.313 71.3245 14.2287 71.5212 14.2287C71.6054 14.2287 71.7461 14.2287 71.9428 14.257C72.8134 14.313 73.4318 14.3407 73.8247 14.3407C74.4431 14.3407 75.1734 14.3125 75.9598 14.2565C76.1282 14.2565 76.2689 14.2283 76.3814 14.2283C76.5776 14.2283 76.6619 14.313 76.6619 14.4532C76.6619 14.5939 76.5499 14.6782 76.3532 14.7059C75.7913 14.7624 75.5103 14.9591 75.5103 15.3243C75.5103 15.6612 76.3249 16.9534 77.9824 19.1727Z" fill="#101323"/>
<path d="M86.8313 14.2848C89.4717 17.3186 91.691 19.7342 93.4609 21.5605V17.5436C93.4609 16.7568 93.4049 16.2231 93.3207 15.8862C93.236 15.5488 93.0397 15.2961 92.7588 15.0993C92.4778 14.9026 92.1404 14.7906 91.7475 14.7624C91.5508 14.7342 91.4383 14.6499 91.4383 14.5092C91.4383 14.3408 91.5225 14.2565 91.7192 14.2565C91.8317 14.2565 91.972 14.2565 92.1404 14.2848C92.4496 14.313 92.9273 14.3412 93.5169 14.3412C94.2755 14.3412 94.8656 14.313 95.2585 14.2848C95.4275 14.2565 95.5677 14.2565 95.6802 14.2565C95.8769 14.2565 95.9894 14.3412 95.9894 14.5092C95.9894 14.6782 95.8487 14.7624 95.5677 14.7906C95.2308 14.8189 94.8934 14.9591 94.5847 15.2401C94.2755 15.4928 94.1353 16.0264 94.1353 16.785L94.163 21.4763L94.107 25.0156C94.107 25.3248 94.0228 25.4655 93.8261 25.4655C93.7701 25.4655 93.7136 25.4372 93.6576 25.409C93.6011 25.3808 93.2082 24.9878 92.5056 24.2575C91.8035 23.5271 90.764 22.3751 89.4157 20.8302C88.0392 19.2852 87.084 18.1897 86.5221 17.5153C86.5221 17.6556 86.4943 19.0603 86.4943 21.7008C86.4943 22.5158 86.5221 23.1619 86.6063 23.6113C86.6628 24.0608 86.8872 24.3977 87.2524 24.6226C87.6176 24.8189 87.955 24.9313 88.236 24.9313C88.4327 24.9313 88.5169 25.0161 88.5169 25.1563C88.5169 25.3248 88.4044 25.409 88.2077 25.409C88.0675 25.409 87.9268 25.409 87.7301 25.3808C87.3931 25.3248 86.9715 25.3248 86.4661 25.3248C85.6515 25.3248 85.0336 25.353 84.6684 25.4095C84.4435 25.4372 84.275 25.4372 84.1625 25.4372C83.9376 25.4372 83.8256 25.3525 83.8256 25.1563C83.8256 25.0156 83.9941 24.9313 84.3592 24.9036C84.9771 24.8471 85.3705 24.6504 85.539 24.2575C85.7075 23.8641 85.764 23.3586 85.764 22.6843C85.764 19.8184 85.7357 18.0772 85.7075 17.4311C85.6797 16.785 85.483 16.2231 85.1178 15.6895C84.7527 15.1836 84.3028 14.8749 83.7691 14.7624C83.5447 14.7342 83.4322 14.6499 83.4322 14.5092C83.4322 14.313 83.5447 14.2288 83.7691 14.2288C83.8256 14.2288 83.9098 14.2288 84.0223 14.257C84.1625 14.257 84.3875 14.2848 84.7244 14.2848C85.539 14.2565 86.2134 14.2565 86.8313 14.2848Z" fill="#101323"/>
</g>
<defs>
<linearGradient id="paint0_linear_340_8905" x1="1.05951" y1="32.5544" x2="16.7687" y2="32.5544" gradientUnits="userSpaceOnUse">
<stop stop-color="#D1A23C"/>
<stop offset="1" stop-color="#77502F"/>
</linearGradient>
<linearGradient id="paint1_linear_340_8905" x1="1.05952" y1="35.9074" x2="17.5687" y2="35.9074" gradientUnits="userSpaceOnUse">
<stop stop-color="#D1A23C"/>
<stop offset="1" stop-color="#77502F"/>
</linearGradient>
<linearGradient id="paint2_linear_340_8905" x1="1.06046" y1="16.512" x2="15.2694" y2="16.512" gradientUnits="userSpaceOnUse">
<stop stop-color="#D1A23C"/>
<stop offset="1" stop-color="#77502F"/>
</linearGradient>
<linearGradient id="paint3_linear_340_8905" x1="120.604" y1="42.1911" x2="61.6774" y2="-30.0417" gradientUnits="userSpaceOnUse">
<stop stop-color="#F1F2F2"/>
<stop offset="1" stop-color="#939598"/>
</linearGradient>
<linearGradient id="paint4_linear_340_8905" x1="120.606" y1="42.1896" x2="61.6793" y2="-30.0434" gradientUnits="userSpaceOnUse">
<stop stop-color="#F1F2F2"/>
<stop offset="1" stop-color="#939598"/>
</linearGradient>
<clipPath id="clip0_340_8905">
<rect width="100" height="40" fill="white" transform="translate(0.697144)"/>
</clipPath>
</defs>
</svg>
