<svg width="30" height="30" viewBox="0 0 30 30" fill="none" xmlns="http://www.w3.org/2000/svg">
<path fill-rule="evenodd" clip-rule="evenodd" d="M29.365 15.4489C29.365 22.8866 23.3356 28.9161 15.8979 28.9161C8.46013 28.9161 2.43066 22.8866 2.43066 15.4489C2.43066 8.01119 8.46013 1.98172 15.8979 1.98172C23.3356 1.98172 29.365 8.01119 29.365 15.4489ZM13.215 25.886V25.0624C13.215 21.5203 10.1626 18.7491 6.63703 19.0903L5.78494 19.1728C6.99825 22.4666 9.77486 25.0043 13.215 25.886ZM5.15034 14.69C5.53976 9.09391 10.2027 4.67514 15.8978 4.67514C21.548 4.67514 26.1823 9.02461 26.6352 14.558C24.4878 13.3658 20.8618 12.1079 15.8912 12.1079C10.7368 12.1079 7.28351 13.4605 5.15034 14.69ZM26.0125 19.1676C24.7942 22.4802 21.9951 25.0289 18.5296 25.8989V25.0533C18.5296 21.5145 21.5765 18.7444 25.0994 19.0805L26.0125 19.1676Z" fill="#CBFCC9"/>
<path d="M13.215 25.886L13.1157 26.2734L13.615 26.4014V25.886H13.215ZM6.63703 19.0903L6.67556 19.4885L6.63703 19.0903ZM5.78494 19.1728L5.74641 18.7746L5.2304 18.8246L5.40959 19.311L5.78494 19.1728ZM5.15034 14.69L4.7513 14.6622L4.69915 15.4117L5.35007 15.0365L5.15034 14.69ZM26.6352 14.558L26.4411 14.9077L27.0949 15.2707L27.0339 14.5254L26.6352 14.558ZM18.5296 25.8989H18.1296V26.4117L18.627 26.2868L18.5296 25.8989ZM26.0125 19.1676L26.3879 19.3056L26.567 18.8186L26.0505 18.7694L26.0125 19.1676ZM25.0994 19.0805L25.1373 18.6823L25.0994 19.0805ZM15.8979 29.3161C23.5565 29.3161 29.765 23.1075 29.765 15.4489H28.965C28.965 22.6657 23.1147 28.5161 15.8979 28.5161V29.3161ZM2.03066 15.4489C2.03066 23.1075 8.23922 29.3161 15.8979 29.3161V28.5161C8.68104 28.5161 2.83066 22.6657 2.83066 15.4489H2.03066ZM15.8979 1.58172C8.23922 1.58172 2.03066 7.79027 2.03066 15.4489H2.83066C2.83066 8.2321 8.68104 2.38172 15.8979 2.38172V1.58172ZM29.765 15.4489C29.765 7.79027 23.5565 1.58172 15.8979 1.58172V2.38172C23.1147 2.38172 28.965 8.2321 28.965 15.4489H29.765ZM12.815 25.0624V25.886H13.615V25.0624H12.815ZM6.67556 19.4885C9.96614 19.17 12.815 21.7565 12.815 25.0624H13.615C13.615 21.2842 10.3592 18.3282 6.5985 18.6922L6.67556 19.4885ZM5.82347 19.5709L6.67556 19.4885L6.5985 18.6922L5.74641 18.7746L5.82347 19.5709ZM5.40959 19.311C6.66795 22.7272 9.54704 25.3588 13.1157 26.2734L13.3143 25.4985C10.0027 24.6498 7.32855 22.2061 6.16028 19.0345L5.40959 19.311ZM15.8978 4.27514C9.99113 4.27514 5.15521 8.85799 4.7513 14.6622L5.54937 14.7177C5.92431 9.32984 10.4143 5.07514 15.8978 5.07514V4.27514ZM27.0339 14.5254C26.5641 8.78612 21.7579 4.27514 15.8978 4.27514V5.07514C21.338 5.07514 25.8005 9.2631 26.2365 14.5907L27.0339 14.5254ZM26.8294 14.2083C24.6221 12.9828 20.9293 11.7079 15.8912 11.7079V12.5079C20.7944 12.5079 24.3535 13.7487 26.4411 14.9077L26.8294 14.2083ZM15.8912 11.7079C10.6618 11.7079 7.14015 13.0815 4.9506 14.3434L5.35007 15.0365C7.42688 13.8396 10.8118 12.5079 15.8912 12.5079V11.7079ZM18.627 26.2868C22.2219 25.3843 25.1244 22.7413 26.3879 19.3056L25.6371 19.0295C24.4641 22.2192 21.7682 24.6734 18.4322 25.5109L18.627 26.2868ZM18.9296 25.8989V25.0533H18.1296V25.8989H18.9296ZM18.9296 25.0533C18.9296 21.7504 21.7734 19.165 25.0614 19.4786L25.1373 18.6823C21.3797 18.3238 18.1296 21.2786 18.1296 25.0533H18.9296ZM25.0614 19.4786L25.9745 19.5658L26.0505 18.7694L25.1373 18.6823L25.0614 19.4786Z" fill="black"/>
<path fill-rule="evenodd" clip-rule="evenodd" d="M27.5694 14.5511C27.5694 21.9888 21.5399 28.0183 14.1022 28.0183C6.66447 28.0183 0.63501 21.9888 0.63501 14.5511C0.63501 7.11336 6.66447 1.08389 14.1022 1.08389C21.5399 1.08389 27.5694 7.11336 27.5694 14.5511ZM11.4193 24.9881V24.1646C11.4193 20.6225 8.36699 17.8513 4.84137 18.1925L3.98928 18.275C5.20259 21.5688 7.97921 24.1065 11.4193 24.9881ZM3.35468 13.7922C3.7441 8.1961 8.40708 3.77733 14.1021 3.77733C19.7523 3.77733 24.3866 8.1268 24.8396 13.6602C22.6921 12.468 19.0662 11.21 14.0956 11.21C8.94117 11.21 5.48786 12.5627 3.35468 13.7922ZM24.2169 18.2697C22.9986 21.5824 20.1994 24.1311 16.7339 25.0011V24.1555C16.7339 20.6167 19.7809 17.8466 23.3037 18.1826L24.2169 18.2697Z" fill="white"/>
<path d="M11.4193 24.9881L11.32 25.3756L11.8193 25.5036V24.9881H11.4193ZM4.84137 18.1925L4.8799 18.5907H4.8799L4.84137 18.1925ZM3.98928 18.275L3.95075 17.8768L3.43475 17.9268L3.61394 18.4132L3.98928 18.275ZM3.35468 13.7922L2.95565 13.7644L2.90349 14.5139L3.55442 14.1387L3.35468 13.7922ZM24.8396 13.6602L24.6454 14.0099L25.2992 14.3729L25.2382 13.6276L24.8396 13.6602ZM16.7339 25.0011H16.3339V25.5139L16.8313 25.389L16.7339 25.0011ZM24.2169 18.2697L24.5923 18.4078L24.7714 17.9208L24.2549 17.8716L24.2169 18.2697ZM23.3037 18.1826L23.3417 17.7844L23.3037 18.1826ZM14.1022 28.4183C21.7608 28.4183 27.9694 22.2097 27.9694 14.5511H27.1694C27.1694 21.7679 21.319 27.6183 14.1022 27.6183V28.4183ZM0.23501 14.5511C0.23501 22.2097 6.44356 28.4183 14.1022 28.4183V27.6183C6.88539 27.6183 1.03501 21.7679 1.03501 14.5511H0.23501ZM14.1022 0.683893C6.44356 0.683893 0.23501 6.89244 0.23501 14.5511H1.03501C1.03501 7.33427 6.88539 1.48389 14.1022 1.48389V0.683893ZM27.9694 14.5511C27.9694 6.89244 21.7608 0.683893 14.1022 0.683893V1.48389C21.319 1.48389 27.1694 7.33427 27.1694 14.5511H27.9694ZM11.0193 24.1646V24.9881H11.8193V24.1646H11.0193ZM4.8799 18.5907C8.17048 18.2722 11.0193 20.8587 11.0193 24.1646H11.8193C11.8193 20.3864 8.5635 17.4304 4.80284 17.7944L4.8799 18.5907ZM4.02781 18.6731L4.8799 18.5907L4.80285 17.7944L3.95075 17.8768L4.02781 18.6731ZM3.61394 18.4132C4.8723 21.8294 7.75139 24.461 11.32 25.3756L11.5186 24.6007C8.20703 23.7519 5.53289 21.3083 4.36463 18.1367L3.61394 18.4132ZM14.1021 3.37733C8.19547 3.37733 3.35955 7.96017 2.95565 13.7644L3.75372 13.8199C4.12865 8.43203 8.61869 4.17733 14.1021 4.17733V3.37733ZM25.2382 13.6276C24.7685 7.88831 19.9623 3.37733 14.1021 3.37733V4.17733C19.5423 4.17733 24.0048 8.36529 24.4409 13.6928L25.2382 13.6276ZM25.0337 13.3105C22.8265 12.085 19.1336 10.81 14.0956 10.81V11.61C18.9987 11.61 22.5578 12.8509 24.6454 14.0099L25.0337 13.3105ZM14.0956 10.81C8.86617 10.81 5.34449 12.1837 3.15494 13.4456L3.55442 14.1387C5.63123 12.9418 9.01617 11.61 14.0956 11.61V10.81ZM16.8313 25.389C20.4263 24.4865 23.3288 21.8435 24.5923 18.4078L23.8415 18.1317C22.6684 21.3214 19.9725 23.7756 16.6365 24.6131L16.8313 25.389ZM17.1339 25.0011V24.1555H16.3339V25.0011H17.1339ZM17.1339 24.1555C17.1339 20.8526 19.9777 18.2672 23.2657 18.5808L23.3417 17.7844C19.584 17.426 16.3339 20.3808 16.3339 24.1555H17.1339ZM23.2657 18.5808L24.1789 18.6679L24.2549 17.8716L23.3417 17.7844L23.2657 18.5808Z" fill="black"/>
<ellipse cx="14.1022" cy="15.9069" rx="2.24453" ry="2.24453" fill="#5CC758"/>
</svg>
