<svg width="53" height="22" viewBox="0 0 53 22" fill="none" xmlns="http://www.w3.org/2000/svg">
<mask id="path-1-inside-1_814_23710" fill="white">
<path fill-rule="evenodd" clip-rule="evenodd" d="M27.3097 0.0765528C24.0218 0.256898 22.1796 0.810189 20.6725 2.07002C19.6166 2.95253 19.087 3.61335 18.0574 5.3325C17.3776 6.46747 16.6346 7.35772 16.1687 7.59541C15.8597 7.7531 15.1814 7.83689 12.6694 8.02792C8.379 8.35406 4.51772 8.86384 3.4168 9.2494C2.30025 9.64041 1.42606 10.5636 0.550352 12.2767C0.0780581 13.2004 0 13.64 0 15.3752V16.8804L0.29582 17.4961L0.591568 18.1117L1.62188 18.1588C2.18851 18.1848 3.29724 18.2062 4.08571 18.2065C5.76616 18.2071 7.51835 18.2785 7.63591 18.3511C7.68135 18.3792 7.76091 18.6463 7.81274 18.9445C7.92893 19.614 8.24676 20.2302 8.73783 20.7386C9.51261 21.5404 10.1907 21.8623 11.2181 21.9158C12.0755 21.9605 12.5666 21.8604 13.3052 21.4908C14.329 20.9783 15.0366 20.1151 15.41 18.9233C15.5149 18.5882 15.6149 18.2702 15.6321 18.2167C15.6582 18.1351 17.2215 18.1266 25.3214 18.164C30.6333 18.1885 35.192 18.2267 35.4519 18.249L35.9243 18.2894L36.036 18.8034C36.3846 20.4078 37.5481 21.6622 38.9418 21.9364C39.5791 22.0618 40.7531 21.9937 41.2449 21.8027C42.332 21.3806 43.659 20.0451 43.9506 19.0795C44.0182 18.8556 44.1014 18.6402 44.1353 18.6007C44.1737 18.5564 45.376 18.512 47.2938 18.4842C50.5621 18.4368 51.8808 18.33 52.3247 18.0767C52.6099 17.9138 52.935 17.2739 52.935 16.8753C52.935 16.6858 52.9136 16.6229 52.9036 16.506C52.891 16.3577 52.8607 16.0025 52.891 16.3577C52.8125 15.4353 52.8129 15.4405 52.8025 15.3188C52.8136 15.4489 52.8431 15.7606 52.8419 15.7813C52.8407 15.802 52.7838 15.2457 52.8025 15.3188L52.7963 15.2457L52.791 15.1828C52.7654 14.8828 52.7729 14.9712 52.7612 14.8336L52.67 13.7624L52.5856 13.1589C52.5392 12.8269 52.4394 12.3759 52.364 12.1566C52.0079 11.1214 51.1625 9.82685 50.3534 9.0778C49.7027 8.47541 49.2608 8.36775 46.4839 8.13522C44.6583 7.9824 44.0017 7.89101 43.5673 7.72938C42.9492 7.49936 42.6552 7.06369 42.003 5.41177C41.5276 4.20728 40.7557 2.54884 40.4461 2.06644C40.2761 1.80166 40.0707 1.59285 39.8569 1.46756C39.4137 1.20786 38.2451 0.697726 37.216 0.314672L36.3704 0L32.3418 0.0107514C30.1261 0.0166291 27.8617 0.0462325 27.3097 0.0765528ZM26.18 0.733707C26.2288 0.772772 26.2511 0.833342 26.2295 0.86825C26.208 0.903229 26.2245 0.931829 26.2662 0.931829C26.3952 0.931829 26.3145 1.10837 26.1629 1.15762C26.0292 1.20113 26.0304 1.20471 26.1808 1.21138C26.2776 1.21568 26.3421 1.2642 26.3421 1.3328C26.3421 1.42706 26.4015 1.43982 26.6826 1.4057C27.7374 1.27775 30.1461 1.18629 32.5065 1.18464C34.819 1.18299 35.2832 1.20077 35.8295 1.31194C36.7427 1.49774 37.9509 1.91484 38.7763 2.32907L39.4913 2.68797L40.3339 4.76666C41.3455 7.26217 41.6779 7.95287 42.0438 8.31872C42.739 9.01401 43.4861 9.18504 47.0573 9.46609L49.1002 9.62694L49.6467 10.1862C50.9084 11.4778 51.1449 12.1467 51.3597 15.0308C51.4044 15.6298 51.4843 16.3069 51.5374 16.5354C51.5906 16.764 51.6276 16.9574 51.6197 16.9653C51.4623 17.1226 45.3741 17.2078 44.6203 17.0632C44.242 16.9906 44.1153 16.8477 43.8304 16.1723C43.4238 15.2086 42.7167 14.5338 41.7084 14.1473C41.0552 13.8969 39.9962 13.8343 39.3156 14.0059C38.4896 14.214 37.976 14.516 37.3017 15.1895C36.8186 15.6719 36.6332 15.9178 36.4456 16.3251L36.2061 16.8451L25.8544 16.8269L15.5026 16.8088L15.3432 16.3686C15.0657 15.602 14.2384 14.6704 13.5313 14.3281C12.7472 13.9485 11.5421 13.8598 10.7005 14.1197C9.6379 14.4479 8.54086 15.4639 8.05509 16.5696L7.90822 16.9039L4.99345 16.9434C3.39035 16.9652 1.9139 17.003 1.71241 17.0275C1.39996 17.0656 1.33789 17.0527 1.28951 16.9404C1.25833 16.868 1.2179 16.2892 1.19962 15.6542L1.16636 14.4995L1.62253 14.4514C2.28255 14.3816 2.80688 14.2685 3.10672 14.131C4.02227 13.7114 4.2376 13.2271 4.31308 11.4177L4.35859 10.3274L4.72387 10.2528C6.22132 9.94713 10.3997 9.4815 15.2913 9.07522L16.4618 8.97802L17.0742 8.5577C17.8797 8.00491 18.0813 7.76285 18.9273 6.33285C19.3193 5.67025 19.8302 4.86931 20.0626 4.55313C20.7832 3.5727 21.7829 2.68102 22.6634 2.23331C23.0823 2.02035 24.1012 1.73514 24.9057 1.60568C25.2797 1.54547 25.6254 1.46326 25.674 1.4229C25.7226 1.38255 25.801 1.37344 25.8483 1.40262C25.898 1.43337 25.9154 1.42541 25.8897 1.38384C25.8653 1.34427 26.5006 1.41272 26.5751 1.3328C26.6753 1.22528 26.0951 1.00028 26.0356 0.940716C25.9759 0.881079 25.9811 0.86015 26.0554 0.86015C26.1353 0.86015 26.1376 0.842014 26.0667 0.771124C25.9959 0.700305 25.9662 0.700735 25.9212 0.773561C25.8888 0.82603 25.806 0.845814 25.7271 0.820009C25.6486 0.794277 25.6202 0.800943 25.6611 0.835492C25.7876 0.942294 25.7616 1.14687 25.6216 1.14687C25.4267 1.14687 25.3834 1.01935 25.5117 0.82345C25.5877 0.707545 25.6652 0.664895 25.7447 0.695431C25.8294 0.727901 25.8475 0.714712 25.8073 0.649627C25.7646 0.580528 25.7924 0.570925 25.921 0.610349C26.0146 0.639092 26.1312 0.694642 26.18 0.733707ZM26.0825 10.5659C25.6563 10.7557 25.4942 11.1775 25.7866 11.336C25.9848 11.4434 26.8208 11.4393 27.1543 11.3292C27.6969 11.1503 27.7734 10.74 27.2875 10.6158C26.7639 10.4821 26.3127 10.4634 26.0825 10.5659ZM3.33265 12.0063C3.21653 12.6189 2.99074 12.9334 2.56611 13.0738C2.07052 13.2378 1.5411 13.3008 1.5411 13.1958C1.5411 12.9301 2.49888 11.4677 3.03231 10.919L3.36892 10.5727L3.39157 11.0744C3.40404 11.3504 3.37752 11.7697 3.33265 12.0063ZM12.4901 15.3125C13.6567 15.7059 14.3964 17.0372 14.1623 18.3223C14.0015 19.2049 13.3477 20.104 12.5745 20.506C12.1013 20.7519 11.0499 20.7869 10.4885 20.5755C9.75488 20.2992 9.19227 19.5465 8.98913 18.5696C8.82076 17.76 9.18762 16.715 9.88505 16.0176C10.3072 15.5955 10.5595 15.4479 11.1802 15.2598C11.6474 15.1182 11.9501 15.1304 12.4901 15.3125ZM40.9316 15.2342C42.0438 15.5202 42.8374 16.5539 42.8358 17.7144C42.835 18.2993 42.7903 18.4919 42.5378 18.9978C42.1468 19.7816 41.4163 20.4208 40.6163 20.6795C40.0333 20.868 39.1266 20.8045 38.5649 20.5359C37.7115 20.1278 37.1736 19.3739 37.1109 18.4984C37.0461 17.5926 37.346 16.764 37.9907 16.0677C38.7421 15.2562 39.8245 14.9494 40.9316 15.2342ZM39.2303 16.4175C38.5151 16.7951 38.1149 17.925 38.4234 18.6959C38.6679 19.3069 39.5586 19.5943 40.4138 19.3381C41.2809 19.0783 41.7042 17.9331 41.1944 17.2264C40.5928 16.3922 39.854 16.088 39.2303 16.4175ZM10.8222 16.4428C10.5553 16.559 10.1812 16.9761 10.0255 17.3311C9.85 17.7312 9.86147 18.4634 10.0488 18.8158C10.3489 19.3805 10.7532 19.6401 11.3323 19.6401C11.7823 19.6401 12.0621 19.5011 12.4494 19.0851C12.8216 18.6855 12.9101 18.4073 12.8438 17.8465C12.7602 17.1407 12.3487 16.6469 11.6755 16.4443C11.2647 16.3207 11.103 16.3204 10.8222 16.4428Z"/>
<path d="M36.6257 11.336C36.3334 11.1775 36.4954 10.7557 36.9216 10.5658C37.1519 10.4633 37.6031 10.4821 38.1267 10.6158C38.6126 10.74 38.5361 11.1502 37.9935 11.3292C37.66 11.4393 36.824 11.4434 36.6257 11.336Z"/>
</mask>
<path fill-rule="evenodd" clip-rule="evenodd" d="M27.3097 0.0765528C24.0218 0.256898 22.1796 0.810189 20.6725 2.07002C19.6166 2.95253 19.087 3.61335 18.0574 5.3325C17.3776 6.46747 16.6346 7.35772 16.1687 7.59541C15.8597 7.7531 15.1814 7.83689 12.6694 8.02792C8.379 8.35406 4.51772 8.86384 3.4168 9.2494C2.30025 9.64041 1.42606 10.5636 0.550352 12.2767C0.0780581 13.2004 0 13.64 0 15.3752V16.8804L0.29582 17.4961L0.591568 18.1117L1.62188 18.1588C2.18851 18.1848 3.29724 18.2062 4.08571 18.2065C5.76616 18.2071 7.51835 18.2785 7.63591 18.3511C7.68135 18.3792 7.76091 18.6463 7.81274 18.9445C7.92893 19.614 8.24676 20.2302 8.73783 20.7386C9.51261 21.5404 10.1907 21.8623 11.2181 21.9158C12.0755 21.9605 12.5666 21.8604 13.3052 21.4908C14.329 20.9783 15.0366 20.1151 15.41 18.9233C15.5149 18.5882 15.6149 18.2702 15.6321 18.2167C15.6582 18.1351 17.2215 18.1266 25.3214 18.164C30.6333 18.1885 35.192 18.2267 35.4519 18.249L35.9243 18.2894L36.036 18.8034C36.3846 20.4078 37.5481 21.6622 38.9418 21.9364C39.5791 22.0618 40.7531 21.9937 41.2449 21.8027C42.332 21.3806 43.659 20.0451 43.9506 19.0795C44.0182 18.8556 44.1014 18.6402 44.1353 18.6007C44.1737 18.5564 45.376 18.512 47.2938 18.4842C50.5621 18.4368 51.8808 18.33 52.3247 18.0767C52.6099 17.9138 52.935 17.2739 52.935 16.8753C52.935 16.6858 52.9136 16.6229 52.9036 16.506C52.891 16.3577 52.8607 16.0025 52.891 16.3577C52.8125 15.4353 52.8129 15.4405 52.8025 15.3188C52.8136 15.4489 52.8431 15.7606 52.8419 15.7813C52.8407 15.802 52.7838 15.2457 52.8025 15.3188L52.7963 15.2457L52.791 15.1828C52.7654 14.8828 52.7729 14.9712 52.7612 14.8336L52.67 13.7624L52.5856 13.1589C52.5392 12.8269 52.4394 12.3759 52.364 12.1566C52.0079 11.1214 51.1625 9.82685 50.3534 9.0778C49.7027 8.47541 49.2608 8.36775 46.4839 8.13522C44.6583 7.9824 44.0017 7.89101 43.5673 7.72938C42.9492 7.49936 42.6552 7.06369 42.003 5.41177C41.5276 4.20728 40.7557 2.54884 40.4461 2.06644C40.2761 1.80166 40.0707 1.59285 39.8569 1.46756C39.4137 1.20786 38.2451 0.697726 37.216 0.314672L36.3704 0L32.3418 0.0107514C30.1261 0.0166291 27.8617 0.0462325 27.3097 0.0765528ZM26.18 0.733707C26.2288 0.772772 26.2511 0.833342 26.2295 0.86825C26.208 0.903229 26.2245 0.931829 26.2662 0.931829C26.3952 0.931829 26.3145 1.10837 26.1629 1.15762C26.0292 1.20113 26.0304 1.20471 26.1808 1.21138C26.2776 1.21568 26.3421 1.2642 26.3421 1.3328C26.3421 1.42706 26.4015 1.43982 26.6826 1.4057C27.7374 1.27775 30.1461 1.18629 32.5065 1.18464C34.819 1.18299 35.2832 1.20077 35.8295 1.31194C36.7427 1.49774 37.9509 1.91484 38.7763 2.32907L39.4913 2.68797L40.3339 4.76666C41.3455 7.26217 41.6779 7.95287 42.0438 8.31872C42.739 9.01401 43.4861 9.18504 47.0573 9.46609L49.1002 9.62694L49.6467 10.1862C50.9084 11.4778 51.1449 12.1467 51.3597 15.0308C51.4044 15.6298 51.4843 16.3069 51.5374 16.5354C51.5906 16.764 51.6276 16.9574 51.6197 16.9653C51.4623 17.1226 45.3741 17.2078 44.6203 17.0632C44.242 16.9906 44.1153 16.8477 43.8304 16.1723C43.4238 15.2086 42.7167 14.5338 41.7084 14.1473C41.0552 13.8969 39.9962 13.8343 39.3156 14.0059C38.4896 14.214 37.976 14.516 37.3017 15.1895C36.8186 15.6719 36.6332 15.9178 36.4456 16.3251L36.2061 16.8451L25.8544 16.8269L15.5026 16.8088L15.3432 16.3686C15.0657 15.602 14.2384 14.6704 13.5313 14.3281C12.7472 13.9485 11.5421 13.8598 10.7005 14.1197C9.6379 14.4479 8.54086 15.4639 8.05509 16.5696L7.90822 16.9039L4.99345 16.9434C3.39035 16.9652 1.9139 17.003 1.71241 17.0275C1.39996 17.0656 1.33789 17.0527 1.28951 16.9404C1.25833 16.868 1.2179 16.2892 1.19962 15.6542L1.16636 14.4995L1.62253 14.4514C2.28255 14.3816 2.80688 14.2685 3.10672 14.131C4.02227 13.7114 4.2376 13.2271 4.31308 11.4177L4.35859 10.3274L4.72387 10.2528C6.22132 9.94713 10.3997 9.4815 15.2913 9.07522L16.4618 8.97802L17.0742 8.5577C17.8797 8.00491 18.0813 7.76285 18.9273 6.33285C19.3193 5.67025 19.8302 4.86931 20.0626 4.55313C20.7832 3.5727 21.7829 2.68102 22.6634 2.23331C23.0823 2.02035 24.1012 1.73514 24.9057 1.60568C25.2797 1.54547 25.6254 1.46326 25.674 1.4229C25.7226 1.38255 25.801 1.37344 25.8483 1.40262C25.898 1.43337 25.9154 1.42541 25.8897 1.38384C25.8653 1.34427 26.5006 1.41272 26.5751 1.3328C26.6753 1.22528 26.0951 1.00028 26.0356 0.940716C25.9759 0.881079 25.9811 0.86015 26.0554 0.86015C26.1353 0.86015 26.1376 0.842014 26.0667 0.771124C25.9959 0.700305 25.9662 0.700735 25.9212 0.773561C25.8888 0.82603 25.806 0.845814 25.7271 0.820009C25.6486 0.794277 25.6202 0.800943 25.6611 0.835492C25.7876 0.942294 25.7616 1.14687 25.6216 1.14687C25.4267 1.14687 25.3834 1.01935 25.5117 0.82345C25.5877 0.707545 25.6652 0.664895 25.7447 0.695431C25.8294 0.727901 25.8475 0.714712 25.8073 0.649627C25.7646 0.580528 25.7924 0.570925 25.921 0.610349C26.0146 0.639092 26.1312 0.694642 26.18 0.733707ZM26.0825 10.5659C25.6563 10.7557 25.4942 11.1775 25.7866 11.336C25.9848 11.4434 26.8208 11.4393 27.1543 11.3292C27.6969 11.1503 27.7734 10.74 27.2875 10.6158C26.7639 10.4821 26.3127 10.4634 26.0825 10.5659ZM3.33265 12.0063C3.21653 12.6189 2.99074 12.9334 2.56611 13.0738C2.07052 13.2378 1.5411 13.3008 1.5411 13.1958C1.5411 12.9301 2.49888 11.4677 3.03231 10.919L3.36892 10.5727L3.39157 11.0744C3.40404 11.3504 3.37752 11.7697 3.33265 12.0063ZM12.4901 15.3125C13.6567 15.7059 14.3964 17.0372 14.1623 18.3223C14.0015 19.2049 13.3477 20.104 12.5745 20.506C12.1013 20.7519 11.0499 20.7869 10.4885 20.5755C9.75488 20.2992 9.19227 19.5465 8.98913 18.5696C8.82076 17.76 9.18762 16.715 9.88505 16.0176C10.3072 15.5955 10.5595 15.4479 11.1802 15.2598C11.6474 15.1182 11.9501 15.1304 12.4901 15.3125ZM40.9316 15.2342C42.0438 15.5202 42.8374 16.5539 42.8358 17.7144C42.835 18.2993 42.7903 18.4919 42.5378 18.9978C42.1468 19.7816 41.4163 20.4208 40.6163 20.6795C40.0333 20.868 39.1266 20.8045 38.5649 20.5359C37.7115 20.1278 37.1736 19.3739 37.1109 18.4984C37.0461 17.5926 37.346 16.764 37.9907 16.0677C38.7421 15.2562 39.8245 14.9494 40.9316 15.2342ZM39.2303 16.4175C38.5151 16.7951 38.1149 17.925 38.4234 18.6959C38.6679 19.3069 39.5586 19.5943 40.4138 19.3381C41.2809 19.0783 41.7042 17.9331 41.1944 17.2264C40.5928 16.3922 39.854 16.088 39.2303 16.4175ZM10.8222 16.4428C10.5553 16.559 10.1812 16.9761 10.0255 17.3311C9.85 17.7312 9.86147 18.4634 10.0488 18.8158C10.3489 19.3805 10.7532 19.6401 11.3323 19.6401C11.7823 19.6401 12.0621 19.5011 12.4494 19.0851C12.8216 18.6855 12.9101 18.4073 12.8438 17.8465C12.7602 17.1407 12.3487 16.6469 11.6755 16.4443C11.2647 16.3207 11.103 16.3204 10.8222 16.4428Z" fill="#5CC758"/>
<path d="M36.6257 11.336C36.3334 11.1775 36.4954 10.7557 36.9216 10.5658C37.1519 10.4633 37.6031 10.4821 38.1267 10.6158C38.6126 10.74 38.5361 11.1502 37.9935 11.3292C37.66 11.4393 36.824 11.4434 36.6257 11.336Z" fill="#5CC758"/>
<path d="M52.2127 13.8013L52.4777 16.9142L53.3924 16.8363L53.1274 13.7235L52.2127 13.8013ZM27.3097 0.0765528L27.36 0.993139L27.3601 0.993135L27.3097 0.0765528ZM20.6725 2.07002L21.2612 2.77435L21.2612 2.77432L20.6725 2.07002ZM18.0574 5.3325L18.8449 5.80419L18.8449 5.80415L18.0574 5.3325ZM16.1687 7.59541L15.7516 6.7777L15.7515 6.77772L16.1687 7.59541ZM12.6694 8.02792L12.739 8.94324L12.739 8.94324L12.6694 8.02792ZM3.4168 9.2494L3.7202 10.1158L3.72022 10.1158L3.4168 9.2494ZM0.550352 12.2767L1.36768 12.6946L1.36771 12.6945L0.550352 12.2767ZM0 16.8804H-0.917964V17.0895L-0.827405 17.278L0 16.8804ZM0.29582 17.4961L1.12326 17.0986L1.12322 17.0985L0.29582 17.4961ZM0.591568 18.1117L-0.235874 18.5092L0.00166073 19.0037L0.549652 19.0287L0.591568 18.1117ZM1.62188 18.1588L1.66388 17.2418L1.6638 17.2418L1.62188 18.1588ZM4.08571 18.2065L4.08606 17.2885H4.08604L4.08571 18.2065ZM7.63591 18.3511L8.11866 17.5704L8.11831 17.5702L7.63591 18.3511ZM7.81274 18.9445L8.71718 18.7875L8.71715 18.7874L7.81274 18.9445ZM8.73783 20.7386L8.07761 21.3763L8.07767 21.3764L8.73783 20.7386ZM11.2181 21.9158L11.1703 22.8325L11.1703 22.8325L11.2181 21.9158ZM13.3052 21.4908L13.7161 22.3117L13.7161 22.3116L13.3052 21.4908ZM15.41 18.9233L16.286 19.1977L16.286 19.1976L15.41 18.9233ZM15.6321 18.2167L16.5059 18.4979L16.5062 18.4969L15.6321 18.2167ZM25.3214 18.164L25.3171 19.0819H25.3171L25.3214 18.164ZM35.4519 18.249L35.3734 19.1636L35.3736 19.1636L35.4519 18.249ZM35.9243 18.2894L36.8213 18.0944L36.6774 17.4326L36.0025 17.3748L35.9243 18.2894ZM36.036 18.8034L36.9331 18.6085L36.933 18.6084L36.036 18.8034ZM38.9418 21.9364L39.119 21.0357L39.119 21.0357L38.9418 21.9364ZM41.2449 21.8027L40.9126 20.947L40.9126 20.947L41.2449 21.8027ZM43.9506 19.0795L44.8294 19.3449L44.8294 19.3448L43.9506 19.0795ZM44.1353 18.6007L43.4408 18.0005L43.44 18.0015L44.1353 18.6007ZM47.2938 18.4842L47.2805 17.5663H47.2805L47.2938 18.4842ZM52.3247 18.0767L52.7797 18.8739L52.7799 18.8739L52.3247 18.0767ZM52.9036 16.506L53.8183 16.4281V16.4281L52.9036 16.506ZM52.8025 15.3188L53.7172 15.241L53.7172 15.2409L52.8025 15.3188ZM52.7963 15.2457L51.8816 15.3235L51.8817 15.3236L52.7963 15.2457ZM52.791 15.1828L53.7056 15.105L53.7056 15.1049L52.791 15.1828ZM52.7612 14.8336L53.6759 14.7558V14.7558L52.7612 14.8336ZM52.67 13.7624L53.5847 13.6845L53.5826 13.6598L53.5792 13.6352L52.67 13.7624ZM52.5856 13.1589L53.4947 13.0317L53.4947 13.0316L52.5856 13.1589ZM52.364 12.1566L53.2321 11.8581L53.2321 11.858L52.364 12.1566ZM50.3534 9.0778L49.7297 9.75139L49.7298 9.75142L50.3534 9.0778ZM46.4839 8.13522L46.5605 7.22046L46.5605 7.22046L46.4839 8.13522ZM43.5673 7.72938L43.2471 8.5897L43.2472 8.58971L43.5673 7.72938ZM42.003 5.41177L41.1492 5.74881L41.1492 5.74885L42.003 5.41177ZM40.4461 2.06644L41.2187 1.57065L41.2186 1.57059L40.4461 2.06644ZM39.8569 1.46756L40.321 0.675557L40.321 0.675548L39.8569 1.46756ZM37.216 0.314672L37.5362 -0.545627L37.5362 -0.545653L37.216 0.314672ZM36.3704 0L36.6906 -0.860326L36.5345 -0.918405L36.368 -0.917961L36.3704 0ZM32.3418 0.0107514L32.3443 0.928712L32.3443 0.928712L32.3418 0.0107514ZM26.2295 0.86825L25.4487 0.385627L25.4482 0.386343L26.2295 0.86825ZM26.1629 1.15762L25.8793 0.284557L25.8788 0.284723L26.1629 1.15762ZM26.1808 1.21138L26.2215 0.294317L26.2215 0.294313L26.1808 1.21138ZM26.6826 1.4057L26.572 0.494414L26.5719 0.494425L26.6826 1.4057ZM32.5065 1.18464L32.5071 2.10261H32.5071L32.5065 1.18464ZM35.8295 1.31194L35.6465 2.21147L35.6465 2.21148L35.8295 1.31194ZM38.7763 2.32907L39.1881 1.50866L39.1881 1.50863L38.7763 2.32907ZM39.4913 2.68797L40.3421 2.34313L40.2122 2.02268L39.9031 1.86756L39.4913 2.68797ZM40.3339 4.76666L41.1847 4.42182V4.42182L40.3339 4.76666ZM47.0573 9.46609L47.1294 8.55096L47.1294 8.55096L47.0573 9.46609ZM49.1002 9.62694L49.7568 8.98541L49.5159 8.73886L49.1723 8.71181L49.1002 9.62694ZM49.6467 10.1862L50.3033 9.54478L50.3033 9.54473L49.6467 10.1862ZM51.3597 15.0308L50.4443 15.099L50.4443 15.0991L51.3597 15.0308ZM51.5374 16.5354L50.6433 16.7433L50.6434 16.7435L51.5374 16.5354ZM51.6197 16.9653L52.2687 17.6145L52.2688 17.6144L51.6197 16.9653ZM44.6203 17.0632L44.4472 17.9647L44.4474 17.9647L44.6203 17.0632ZM43.8304 16.1723L42.9846 16.5291L42.9846 16.5291L43.8304 16.1723ZM41.7084 14.1473L41.3798 15.0044L41.3799 15.0045L41.7084 14.1473ZM39.3156 14.0059L39.5399 14.896L39.54 14.896L39.3156 14.0059ZM37.3017 15.1895L37.9503 15.839L37.9504 15.8389L37.3017 15.1895ZM36.4456 16.3251L37.2794 16.7092L37.2794 16.7091L36.4456 16.3251ZM36.2061 16.8451L36.2045 17.7631L36.7935 17.7641L37.0399 17.2291L36.2061 16.8451ZM25.8544 16.8269L25.856 15.9089H25.856L25.8544 16.8269ZM15.5026 16.8088L14.6395 17.1213L14.8584 17.7256L15.501 17.7267L15.5026 16.8088ZM15.3432 16.3686L14.4801 16.6811L14.4801 16.6812L15.3432 16.3686ZM13.5313 14.3281L13.1313 15.1543L13.1314 15.1543L13.5313 14.3281ZM10.7005 14.1197L10.4296 13.2426L10.4296 13.2426L10.7005 14.1197ZM8.05509 16.5696L7.21465 16.2004H7.21465L8.05509 16.5696ZM7.90822 16.9039L7.92065 17.8218L8.51113 17.8138L8.74865 17.2732L7.90822 16.9039ZM4.99345 16.9434L5.00589 17.8613H5.00589L4.99345 16.9434ZM1.71241 17.0275L1.60155 16.1163L1.60141 16.1163L1.71241 17.0275ZM1.28951 16.9404L0.446415 17.3035L0.446435 17.3036L1.28951 16.9404ZM1.19962 15.6542L2.11721 15.6277L2.1172 15.6277L1.19962 15.6542ZM1.16636 14.4995L1.06997 13.5867L0.224295 13.676L0.24878 14.526L1.16636 14.4995ZM1.62253 14.4514L1.71893 15.3643L1.71899 15.3643L1.62253 14.4514ZM3.10672 14.131L2.72426 13.2965L2.72411 13.2966L3.10672 14.131ZM4.31308 11.4177L3.39591 11.3794L3.39591 11.3794L4.31308 11.4177ZM4.35859 10.3274L4.17504 9.42796L3.47138 9.57156L3.44143 10.2891L4.35859 10.3274ZM4.72387 10.2528L4.90743 11.1523L4.90749 11.1523L4.72387 10.2528ZM15.2913 9.07522L15.2153 8.16041L15.2153 8.16041L15.2913 9.07522ZM16.4618 8.97802L16.5378 9.89284L16.7805 9.87269L16.9813 9.73485L16.4618 8.97802ZM17.0742 8.5577L16.5548 7.80082L16.5547 7.80087L17.0742 8.5577ZM18.9273 6.33285L18.1373 5.86544L18.1372 5.86546L18.9273 6.33285ZM20.0626 4.55313L20.8023 5.09677L20.8023 5.09677L20.0626 4.55313ZM22.6634 2.23331L22.2474 1.41502L22.2473 1.41506L22.6634 2.23331ZM24.9057 1.60568L25.0515 2.51199L25.0516 2.51198L24.9057 1.60568ZM25.674 1.4229L26.26 2.12955L26.2605 2.12913L25.674 1.4229ZM25.8483 1.40262L26.3315 0.622103L26.3306 0.621599L25.8483 1.40262ZM25.8897 1.38384L25.1087 1.86628L25.1092 1.86697L25.8897 1.38384ZM26.5751 1.3328L25.9035 0.706936L25.9035 0.706994L26.5751 1.3328ZM26.0356 0.940716L26.6847 0.291618L26.0356 0.940716ZM26.0667 0.771124L26.7158 0.122025L26.0667 0.771124ZM25.9212 0.773561L25.1403 0.290915L25.1401 0.291268L25.9212 0.773561ZM25.7271 0.820009L25.4411 1.69229L25.4418 1.69252L25.7271 0.820009ZM25.6611 0.835492L26.2533 0.134053L26.2533 0.134033L25.6611 0.835492ZM25.5117 0.82345L24.744 0.320187L24.744 0.320301L25.5117 0.82345ZM25.7447 0.695431L25.4155 1.55235L25.416 1.55251L25.7447 0.695431ZM25.8073 0.649627L26.5882 0.167134L26.5881 0.166899L25.8073 0.649627ZM25.921 0.610349L26.1904 -0.267182L26.1902 -0.267254L25.921 0.610349ZM26.0825 10.5659L25.7091 9.72725L25.709 9.72729L26.0825 10.5659ZM25.7866 11.336L25.3491 12.143L25.3492 12.143L25.7866 11.336ZM27.1543 11.3292L26.8668 10.4575L26.8666 10.4575L27.1543 11.3292ZM27.2875 10.6158L27.5148 9.72643L27.5147 9.72642L27.2875 10.6158ZM3.33265 12.0063L2.43077 11.8352L2.43074 11.8353L3.33265 12.0063ZM2.56611 13.0738L2.85439 13.9454L2.85446 13.9453L2.56611 13.0738ZM3.03231 10.919L2.37408 10.2791L2.37408 10.2791L3.03231 10.919ZM3.36892 10.5727L4.28595 10.5313L4.19022 8.41077L2.71069 9.93283L3.36892 10.5727ZM3.39157 11.0744L2.47454 11.1158L2.47454 11.1159L3.39157 11.0744ZM12.4901 15.3125L12.7834 14.4426L12.7834 14.4426L12.4901 15.3125ZM14.1623 18.3223L15.0654 18.4868V18.4868L14.1623 18.3223ZM12.5745 20.506L12.9978 21.3205L12.9979 21.3205L12.5745 20.506ZM10.4885 20.5755L10.8121 19.7164L10.8121 19.7164L10.4885 20.5755ZM8.98913 18.5696L9.88787 18.3827L9.88787 18.3826L8.98913 18.5696ZM9.88505 16.0176L9.23601 15.3684L9.23596 15.3685L9.88505 16.0176ZM11.1802 15.2598L10.914 14.3813L10.9139 14.3813L11.1802 15.2598ZM40.9316 15.2342L40.703 16.1232L40.703 16.1232L40.9316 15.2342ZM42.8358 17.7144L41.9178 17.7132V17.7132L42.8358 17.7144ZM42.5378 18.9978L43.3592 19.4077L43.3592 19.4077L42.5378 18.9978ZM40.6163 20.6795L40.3339 19.8061L40.3338 19.8061L40.6163 20.6795ZM38.5649 20.5359L38.1689 21.3641L38.1689 21.3641L38.5649 20.5359ZM37.1109 18.4984L36.1953 18.5639V18.564L37.1109 18.4984ZM37.9907 16.0677L37.3171 15.444L37.3171 15.444L37.9907 16.0677ZM39.2303 16.4175L39.6589 17.2292L39.6591 17.2291L39.2303 16.4175ZM38.4234 18.6959L39.2757 18.3548L39.2757 18.3548L38.4234 18.6959ZM40.4138 19.3381L40.1503 18.4587L40.1503 18.4588L40.4138 19.3381ZM41.1944 17.2264L41.9389 16.6894L41.9389 16.6893L41.1944 17.2264ZM10.8222 16.4428L11.1888 17.2843L11.1888 17.2843L10.8222 16.4428ZM10.0255 17.3311L10.8662 17.6999L10.8662 17.6998L10.0255 17.3311ZM10.0488 18.8158L10.8594 18.385L10.8593 18.3849L10.0488 18.8158ZM12.4494 19.0851L11.7777 18.4595L11.7776 18.4595L12.4494 19.0851ZM12.8438 17.8465L13.7554 17.7386L13.7553 17.7385L12.8438 17.8465ZM11.6755 16.4443L11.4109 17.3233L11.411 17.3234L11.6755 16.4443ZM36.9216 10.5658L36.5483 9.72724L36.5482 9.72728L36.9216 10.5658ZM36.6257 11.336L36.1883 12.143L36.1884 12.143L36.6257 11.336ZM37.9935 11.3292L37.7059 10.4575L37.7058 10.4575L37.9935 11.3292ZM38.1267 10.6158L38.3539 9.72641L38.3539 9.7264L38.1267 10.6158ZM27.2595 -0.840033C23.8952 -0.6555 21.8151 -0.0815618 20.0837 1.36572L21.2612 2.77432C22.5441 1.70194 24.1485 1.1693 27.36 0.993139L27.2595 -0.840033ZM20.0838 1.36569C18.922 2.33677 18.3304 3.09011 17.2699 4.86085L18.8449 5.80415C19.8436 4.13659 20.3113 3.5683 21.2612 2.77435L20.0838 1.36569ZM17.2699 4.86081C16.9496 5.39557 16.6209 5.86139 16.3281 6.21224C16.1817 6.3877 16.0513 6.5259 15.9421 6.62673C15.8879 6.67678 15.8429 6.71387 15.8076 6.74015C15.7902 6.75311 15.7765 6.76243 15.7664 6.76883C15.7563 6.77529 15.7514 6.7778 15.7516 6.7777L16.5859 8.41311C16.9952 8.20429 17.3971 7.79669 17.7376 7.38862C18.1027 6.95118 18.4854 6.40439 18.8449 5.80419L17.2699 4.86081ZM15.7515 6.77772C15.7579 6.77449 15.6614 6.82277 15.1326 6.88813C14.6352 6.9496 13.8589 7.01685 12.5998 7.1126L12.739 8.94324C13.992 8.84796 14.8107 8.7778 15.3578 8.7102C15.8733 8.64648 16.2705 8.57401 16.5859 8.41309L15.7515 6.77772ZM12.5999 7.11259C10.4409 7.27671 8.3858 7.48731 6.72691 7.70631C5.10578 7.92033 3.76878 8.1535 3.11338 8.38303L3.72022 10.1158C4.16574 9.95974 5.30984 9.74524 6.9672 9.52644C8.58678 9.31263 10.6076 9.10526 12.739 8.94324L12.5999 7.11259ZM3.1134 8.38303C1.67014 8.88845 0.652255 10.0606 -0.267008 11.8589L1.36771 12.6945C2.19986 11.0667 2.93037 10.3924 3.7202 10.1158L3.1134 8.38303ZM-0.266976 11.8588C-0.524661 12.3628 -0.70512 12.7945 -0.805753 13.3611C-0.900225 13.893 -0.917964 14.5121 -0.917964 15.3752H0.917964C0.917964 14.5031 0.939254 14.0348 1.00188 13.6822C1.05835 13.3643 1.15307 13.1143 1.36768 12.6946L-0.266976 11.8588ZM-0.917964 15.3752V16.8804H0.917964V15.3752H-0.917964ZM-0.827405 17.278L-0.531585 17.8937L1.12322 17.0985L0.827405 16.4829L-0.827405 17.278ZM-0.531622 17.8936L-0.235874 18.5092L1.41901 17.7142L1.12326 17.0986L-0.531622 17.8936ZM0.549652 19.0287L1.57997 19.0758L1.6638 17.2418L0.633485 17.1947L0.549652 19.0287ZM1.57989 19.0758C2.16457 19.1026 3.28795 19.1242 4.08538 19.1245L4.08604 17.2885C3.30653 17.2883 2.21244 17.267 1.66388 17.2418L1.57989 19.0758ZM4.08536 19.1245C4.91434 19.1248 5.76011 19.1426 6.40952 19.169C6.73542 19.1823 7.00396 19.1975 7.19317 19.2129C7.28939 19.2208 7.35312 19.2278 7.38897 19.2329C7.40799 19.2356 7.40564 19.2359 7.39021 19.2324C7.38247 19.2306 7.36058 19.2254 7.33064 19.2155C7.30928 19.2084 7.23773 19.1842 7.1535 19.1321L8.11831 17.5702C7.96812 17.4774 7.81817 17.4469 7.80004 17.4428C7.74521 17.4302 7.69152 17.4215 7.64809 17.4153C7.55906 17.4026 7.45348 17.3921 7.34265 17.3831C7.11774 17.3647 6.82117 17.3484 6.48426 17.3346C5.80808 17.3071 4.93753 17.2889 4.08606 17.2885L4.08536 19.1245ZM7.15316 19.1319C7.05006 19.0682 6.9838 18.9981 6.95074 18.9599C6.91455 18.9181 6.89025 18.8818 6.87659 18.86C6.84999 18.8175 6.8364 18.7863 6.83388 18.7805C6.8278 18.7665 6.8315 18.7728 6.8422 18.8087C6.86215 18.8756 6.88738 18.9811 6.90833 19.1017L8.71715 18.7874C8.68627 18.6097 8.64581 18.4325 8.60166 18.2844C8.58031 18.2127 8.55236 18.1283 8.51696 18.0471C8.49978 18.0076 8.47211 17.9486 8.43226 17.885C8.40905 17.848 8.311 17.6893 8.11866 17.5704L7.15316 19.1319ZM6.9083 19.1015C7.05725 19.9597 7.46433 20.7415 8.07761 21.3763L9.39805 20.1008C9.02918 19.7189 8.80061 19.2683 8.71718 18.7875L6.9083 19.1015ZM8.07767 21.3764C8.5151 21.8291 8.96566 22.1884 9.4896 22.4371C10.0176 22.6877 10.5674 22.8011 11.1703 22.8325L11.2658 20.9991C10.8413 20.977 10.5385 20.9027 10.2768 20.7785C10.0112 20.6524 9.73534 20.4499 9.39799 20.1007L8.07767 21.3764ZM11.1703 22.8325C11.6431 22.8572 12.0643 22.8447 12.4894 22.7582C12.9163 22.6712 13.3025 22.5186 13.7161 22.3117L12.8944 20.6699C12.5693 20.8326 12.3407 20.9148 12.123 20.9592C11.9036 21.0039 11.6505 21.0191 11.2658 20.9991L11.1703 22.8325ZM13.7161 22.3116C14.9841 21.677 15.8456 20.6033 16.286 19.1977L14.534 18.6489C14.2276 19.6269 13.6739 20.2797 12.8944 20.6699L13.7161 22.3116ZM16.286 19.1976C16.3917 18.8602 16.4901 18.547 16.5059 18.4979L14.7582 17.9356C14.7396 17.9935 14.6382 18.3162 14.534 18.649L16.286 19.1976ZM16.5062 18.4969C16.4074 18.8054 16.1851 18.9518 16.1152 18.9942C16.0269 19.0478 15.9514 19.072 15.9243 19.0802C15.8654 19.0982 15.8275 19.1017 15.8425 19.0997C15.8617 19.0972 15.9232 19.0916 16.0568 19.0859C16.315 19.075 16.7509 19.0675 17.4541 19.0637C18.855 19.056 21.2657 19.0632 25.3171 19.0819L25.3256 17.246C21.2771 17.2273 18.8562 17.2201 17.4441 17.2278C16.7407 17.2316 16.2747 17.2392 15.9793 17.2517C15.836 17.2577 15.7078 17.2658 15.6049 17.2793C15.5589 17.2853 15.4768 17.2973 15.3882 17.3243C15.3462 17.3372 15.2594 17.366 15.1631 17.4244C15.0853 17.4716 14.8584 17.623 14.7579 17.9366L16.5062 18.4969ZM25.3171 19.0819C27.9723 19.0942 30.4387 19.1099 32.2734 19.1253C33.191 19.133 33.9496 19.1406 34.4944 19.1477C34.7671 19.1512 34.9847 19.1546 35.1413 19.1577C35.3173 19.1613 35.3787 19.1641 35.3734 19.1636L35.5303 17.3344C35.3536 17.3192 34.0886 17.3045 32.2888 17.2894C30.4513 17.274 27.9824 17.2583 25.3256 17.246L25.3171 19.0819ZM35.3736 19.1636L35.846 19.2041L36.0025 17.3748L35.5301 17.3344L35.3736 19.1636ZM35.0273 18.4844L35.139 18.9985L36.933 18.6084L36.8213 18.0944L35.0273 18.4844ZM35.139 18.9983C35.55 20.8901 36.946 22.4793 38.7646 22.8371L39.119 21.0357C38.1502 20.8451 37.2192 19.9254 36.9331 18.6085L35.139 18.9983ZM38.7645 22.8371C39.1895 22.9207 39.7281 22.9321 40.2011 22.9046C40.6593 22.878 41.1932 22.8075 41.5771 22.6584L40.9126 20.947C40.8048 20.9889 40.5058 21.0479 40.0947 21.0718C39.6985 21.0948 39.3314 21.0775 39.119 21.0357L38.7645 22.8371ZM41.5771 22.6584C42.2797 22.3857 42.9879 21.8548 43.5473 21.2919C44.097 20.7386 44.6207 20.0358 44.8294 19.3449L43.0719 18.814C42.9889 19.0887 42.7033 19.5365 42.2449 19.9979C41.796 20.4497 41.2972 20.7977 40.9126 20.947L41.5771 22.6584ZM44.8294 19.3448C44.8574 19.2523 44.8877 19.1644 44.912 19.1014C44.9245 19.0691 44.9319 19.0522 44.9337 19.0485C44.9347 19.0463 44.9305 19.0557 44.9214 19.072C44.9166 19.0804 44.9081 19.0951 44.896 19.1137C44.885 19.1304 44.8632 19.1624 44.8307 19.2L43.44 18.0015C43.3371 18.1208 43.2784 18.2542 43.2696 18.2729C43.2441 18.3276 43.2202 18.386 43.1992 18.4405C43.1565 18.5511 43.1115 18.6828 43.0719 18.8141L44.8294 19.3448ZM44.8299 19.201C44.6785 19.3762 44.5027 19.4411 44.4839 19.4486C44.4306 19.47 44.3885 19.4806 44.3731 19.4844C44.3395 19.4925 44.3195 19.4948 44.3279 19.4936C44.3394 19.492 44.3743 19.4882 44.4423 19.4832C44.5737 19.4736 44.7745 19.4635 45.0436 19.4536C45.5789 19.4338 46.3512 19.4159 47.3071 19.4021L47.2805 17.5663C46.3186 17.5803 45.5309 17.5984 44.9759 17.6189C44.7 17.6291 44.4731 17.6401 44.3084 17.6522C44.2283 17.6581 44.1481 17.6652 44.0789 17.6746C44.0471 17.679 43.9954 17.6868 43.939 17.7005C43.9123 17.707 43.861 17.7204 43.8008 17.7445C43.7751 17.7548 43.5946 17.8225 43.4408 18.0005L44.8299 19.201ZM47.3071 19.4021C48.943 19.3783 50.1161 19.3396 50.9425 19.2726C51.3556 19.2392 51.7023 19.1972 51.9872 19.1415C52.2595 19.0882 52.54 19.0108 52.7797 18.8739L51.8697 17.2794C51.8875 17.2693 51.8367 17.3002 51.6348 17.3397C51.4454 17.3767 51.1749 17.4119 50.7943 17.4427C50.0334 17.5043 48.9129 17.5427 47.2805 17.5663L47.3071 19.4021ZM52.7799 18.8739C52.9938 18.7517 53.1529 18.5814 53.26 18.4463C53.3749 18.3011 53.4741 18.1398 53.5552 17.9802C53.7051 17.6851 53.853 17.2769 53.853 16.8753H52.0171C52.0171 16.8599 52.0184 16.8837 51.9992 16.9488C51.9816 17.0087 51.9538 17.079 51.9184 17.1486C51.8826 17.2191 51.847 17.2733 51.8208 17.3064C51.8081 17.3224 51.8025 17.3273 51.8056 17.3244C51.8074 17.3227 51.8282 17.3031 51.8695 17.2795L52.7799 18.8739ZM53.853 16.8753C53.853 16.7407 53.845 16.6402 53.8342 16.5518C53.83 16.5178 53.8241 16.4758 53.8224 16.4636C53.8199 16.4451 53.8189 16.436 53.8183 16.4281L51.9889 16.5839C51.9933 16.6344 51.9987 16.677 52.003 16.7091C52.0082 16.7475 52.0094 16.755 52.0119 16.775C52.0143 16.7946 52.0171 16.8204 52.0171 16.8753H53.853ZM53.8183 16.4281C53.8119 16.354 53.8012 16.2281 53.7959 16.1652C53.7945 16.1495 53.7935 16.1377 53.793 16.1316C53.7929 16.1301 53.7928 16.1289 53.7927 16.1282C53.7927 16.1278 53.7927 16.1275 53.7926 16.1273C53.7926 16.1273 53.7926 16.1272 53.7926 16.1272C53.7926 16.1272 53.7926 16.1272 53.7926 16.1272C53.7926 16.1272 53.7926 16.1272 53.7926 16.1272C53.7926 16.1272 53.7926 16.1273 53.7926 16.1273C53.7927 16.1274 53.7927 16.1277 53.7927 16.1279C53.7933 16.136 52.9478 17.1201 51.9634 16.2838C51.9633 16.2831 51.9634 16.2838 51.9638 16.288C51.965 16.3024 51.9688 16.3468 51.9763 16.4355L53.8056 16.2798C53.7981 16.191 53.7943 16.1466 53.7931 16.1323C53.7928 16.1294 53.7926 16.1267 53.7925 16.1259C52.8081 15.2895 51.9626 16.2737 51.9632 16.2817C51.9632 16.282 51.9633 16.2823 51.9633 16.2824C51.9633 16.2825 51.9633 16.2826 51.9633 16.2826C51.9633 16.2827 51.9633 16.2828 51.9633 16.2829C51.9633 16.2831 51.9634 16.2834 51.9634 16.2838C51.9635 16.2846 51.9636 16.2858 51.9637 16.2873C51.9642 16.2934 51.9652 16.3052 51.9666 16.3209C51.9719 16.3838 51.9826 16.5097 51.9889 16.5839L53.8183 16.4281ZM53.8056 16.2798C53.7271 15.3575 53.7275 15.3626 53.7172 15.241L51.8879 15.3967C51.8982 15.5184 51.8978 15.5132 51.9763 16.4355L53.8056 16.2798ZM51.8879 15.3967C51.8936 15.4637 51.9043 15.5807 51.9125 15.6724C51.9167 15.7205 51.9204 15.7624 51.9229 15.7928C51.9241 15.8084 51.9248 15.8176 51.9251 15.8217C51.9252 15.8241 51.925 15.821 51.9247 15.8149C51.9246 15.8119 51.9243 15.8047 51.9241 15.7948C51.924 15.7896 51.9235 15.7631 51.9255 15.7287L53.7584 15.8339C53.7604 15.7982 53.7599 15.7698 53.7598 15.7622C53.7595 15.75 53.7591 15.7398 53.7588 15.7333C53.7583 15.7203 53.7575 15.7084 53.757 15.7C53.7558 15.6826 53.7543 15.663 53.7528 15.6444C53.7497 15.6064 53.7455 15.5584 53.7412 15.5097C53.7321 15.4079 53.7226 15.304 53.7172 15.241L51.8879 15.3967ZM51.9255 15.7287C51.926 15.7191 51.9269 15.7058 51.9285 15.6901C51.93 15.6752 51.9327 15.652 51.9376 15.6238C51.9419 15.5993 51.9515 15.5491 51.9722 15.4879C51.9826 15.4588 52.0105 15.3926 52.0287 15.3559C52.0564 15.3067 52.1347 15.1965 52.1876 15.1379C52.2695 15.0641 52.4865 14.9355 52.6218 14.8906C52.7763 14.8662 53.0684 14.8923 53.1991 14.9363C53.293 14.9825 53.4396 15.0853 53.4942 15.1361C53.5307 15.1752 53.5882 15.2476 53.6103 15.2798C53.626 15.3048 53.6519 15.3502 53.6624 15.3704C53.6703 15.3867 53.6839 15.4166 53.6896 15.4301C53.7024 15.4608 53.711 15.4863 53.716 15.5021C53.726 15.5332 53.7321 15.5582 53.7348 15.5697C53.738 15.5833 53.7403 15.5944 53.7417 15.6014C53.7444 15.6151 53.7462 15.6258 53.747 15.6306C53.7496 15.6465 53.7508 15.6569 53.75 15.6507C53.7493 15.6452 53.7477 15.6313 53.7453 15.6086C53.7405 15.565 53.7343 15.5039 53.7286 15.444C53.7228 15.3817 53.7184 15.3307 53.7166 15.3032C53.7162 15.2969 53.7162 15.2956 53.7163 15.2979C53.7163 15.2992 53.7165 15.3033 53.7166 15.3094C53.7167 15.3146 53.7169 15.3275 53.7164 15.3448C53.7161 15.3537 53.7156 15.3675 53.7143 15.3844C53.7132 15.3996 53.7107 15.4285 53.7047 15.4645C53.7016 15.4831 53.6966 15.5096 53.6885 15.5412C53.6809 15.5707 53.6669 15.6195 53.642 15.677C53.6292 15.7067 53.6109 15.7446 53.5855 15.7867C53.5605 15.8282 53.5237 15.8817 53.4717 15.9376C53.4196 15.9937 53.345 16.0597 53.244 16.1155C53.14 16.1731 53.0154 16.2154 52.8758 16.227C52.7367 16.2386 52.6096 16.2173 52.5025 16.1806C52.3983 16.1449 52.3171 16.0962 52.259 16.0538C52.2007 16.0113 52.1567 15.9686 52.1256 15.9349C52.0941 15.9008 52.0698 15.8692 52.0519 15.8441C52.0173 15.7953 51.9943 15.7527 51.981 15.7264C51.9669 15.6984 51.9566 15.6744 51.9498 15.6575C51.9365 15.6246 51.928 15.5978 51.9237 15.5836C51.9188 15.5678 51.9154 15.5548 51.9133 15.5465L53.6918 15.0911C53.6886 15.0787 53.6761 15.0293 53.6522 14.9701C53.6429 14.947 53.611 14.8686 53.5488 14.7811C53.5181 14.7377 53.4515 14.6513 53.3413 14.5708C53.2268 14.4872 53.0115 14.3735 52.7239 14.3974C52.4315 14.4217 52.2328 14.574 52.1276 14.687C52.0291 14.7929 51.979 14.8972 51.9569 14.9482C51.9124 15.0513 51.8977 15.1386 51.8936 15.1632C51.8829 15.2277 51.8816 15.2798 51.8812 15.2923C51.8795 15.3506 51.8837 15.4091 51.8846 15.4231C51.8883 15.4786 51.8947 15.5517 51.9009 15.6168C51.9072 15.6842 51.9143 15.7537 51.92 15.8063C51.9227 15.8317 51.9256 15.8574 51.9282 15.878C51.9291 15.8849 51.9316 15.9051 51.9351 15.9268C51.9362 15.9331 51.9382 15.945 51.9411 15.9597C51.9421 15.965 51.9504 16.0084 51.9673 16.0611C51.9723 16.077 51.981 16.1026 51.9937 16.1334C52.0044 16.159 52.0295 16.2169 52.0732 16.2838C52.0952 16.3161 52.1528 16.3885 52.1893 16.4276C52.2439 16.4784 52.3905 16.5813 52.4845 16.6274C52.6152 16.6714 52.9073 16.6975 53.0618 16.6731C53.1971 16.6283 53.4141 16.4996 53.496 16.4258C53.5489 16.3672 53.6273 16.257 53.655 16.2078C53.6732 16.171 53.7011 16.1048 53.7115 16.0757C53.7322 16.0145 53.7419 15.9641 53.7462 15.9396C53.7551 15.8885 53.7576 15.8481 53.7584 15.8339L51.9255 15.7287ZM53.7172 15.2409L53.711 15.1678L51.8817 15.3236L51.8879 15.3967L53.7172 15.2409ZM53.711 15.1679L53.7056 15.105L51.8763 15.2606L51.8816 15.3235L53.711 15.1679ZM53.7056 15.1049C53.6801 14.8049 53.6876 14.8934 53.6759 14.7558L51.8466 14.9115C51.8583 15.049 51.8508 14.9606 51.8763 15.2606L53.7056 15.1049ZM53.6759 14.7558L53.5847 13.6845L51.7554 13.8403L51.8466 14.9115L53.6759 14.7558ZM53.5792 13.6352L53.4947 13.0317L51.6765 13.2861L51.7609 13.8896L53.5792 13.6352ZM53.4947 13.0316C53.4434 12.6647 53.333 12.1516 53.2321 11.8581L51.496 12.4552C51.5459 12.6002 51.6349 12.9891 51.6765 13.2861L53.4947 13.0316ZM53.2321 11.858C52.8263 10.6784 51.8964 9.25539 50.977 8.40418L49.7298 9.75142C50.4285 10.3983 51.1895 11.5643 51.496 12.4553L53.2321 11.858ZM50.977 8.40421C50.5526 8.01125 50.1433 7.74891 49.4332 7.57593C48.8106 7.42426 47.9279 7.33496 46.5605 7.22046L46.4073 9.04998C47.8168 9.16801 48.5435 9.24881 48.9987 9.3597C49.3665 9.44928 49.5035 9.54196 49.7297 9.75139L50.977 8.40421ZM46.5605 7.22046C44.688 7.06371 44.1772 6.97686 43.8874 6.86905L43.2472 8.58971C43.8262 8.80516 44.6287 8.9011 46.4073 9.04999L46.5605 7.22046ZM43.8875 6.86905C43.7632 6.82282 43.6872 6.78044 43.5588 6.59025C43.3899 6.34006 43.1855 5.90708 42.8569 5.0747L41.1492 5.74885C41.4727 6.56839 41.7413 7.1792 42.0371 7.61733C42.3733 8.11545 42.7533 8.40592 43.2471 8.5897L43.8875 6.86905ZM42.8569 5.07474C42.3798 3.86617 41.5806 2.13464 41.2187 1.57065L39.6735 2.56223C39.9308 2.96303 40.6753 4.54838 41.1492 5.74881L42.8569 5.07474ZM41.2186 1.57059C40.9911 1.21609 40.6885 0.890931 40.321 0.675557L39.3928 2.25956C39.4529 2.29478 39.5612 2.38722 39.6736 2.56228L41.2186 1.57059ZM40.321 0.675548C39.8045 0.372916 38.5722 -0.160002 37.5362 -0.545627L36.8958 1.17497C37.918 1.55545 39.0229 2.04281 39.3928 2.25957L40.321 0.675548ZM37.5362 -0.545653L36.6906 -0.860326L36.0503 0.860326L36.8959 1.175L37.5362 -0.545653ZM36.368 -0.917961L32.3394 -0.907209L32.3443 0.928712L36.3729 0.917961L36.368 -0.917961ZM32.3394 -0.907209C30.1327 -0.901356 27.8407 -0.871963 27.2594 -0.840029L27.3601 0.993135C27.8827 0.964428 30.1195 0.934614 32.3443 0.928712L32.3394 -0.907209ZM25.6064 1.45041C25.5102 1.37337 25.4227 1.26366 25.3697 1.11962C25.3242 0.995999 25.2561 0.697178 25.4487 0.385627L27.0104 1.35087C27.2245 1.00441 27.1561 0.657854 27.0926 0.485455C27.0217 0.292636 26.8987 0.133109 26.7536 0.0170002L25.6064 1.45041ZM25.4482 0.386343C25.3367 0.56711 25.1918 0.960312 25.4288 1.37147C25.6613 1.77504 26.0639 1.84979 26.2662 1.84979V0.0138646C26.4268 0.0138646 26.8002 0.0743168 27.0195 0.454839C27.2431 0.842956 27.1008 1.20437 27.0108 1.35016L25.4482 0.386343ZM26.2662 1.84979C26.1004 1.84979 25.6972 1.77724 25.4963 1.35331C25.3351 1.01317 25.4486 0.723889 25.485 0.644476C25.5743 0.449205 25.7234 0.3352 25.8793 0.284557L26.4465 2.03068C26.754 1.93079 27.0193 1.70389 27.1546 1.40804C27.2139 1.27833 27.3329 0.941835 27.1553 0.56706C26.938 0.108488 26.4965 0.0138646 26.2662 0.0138646V1.84979ZM25.8788 0.284723C25.8522 0.293377 25.7964 0.311368 25.7461 0.33157C25.7294 0.338291 25.655 0.367562 25.5737 0.41988C25.5387 0.442368 25.4341 0.511303 25.3382 0.636081C25.2341 0.771506 25.0615 1.09004 25.1946 1.48889C25.306 1.82297 25.5599 1.96971 25.6317 2.00851C25.7277 2.06034 25.8113 2.08326 25.8455 2.09203C25.9197 2.11108 25.983 2.11751 26.0027 2.11952C26.0528 2.12462 26.1082 2.12703 26.1402 2.12844L26.2215 0.294313C26.1782 0.292394 26.1771 0.29185 26.1888 0.293046C26.1894 0.293105 26.238 0.297341 26.3021 0.313785C26.3312 0.321256 26.4109 0.342774 26.5041 0.393083C26.5731 0.430357 26.8252 0.575447 26.9361 0.907736C27.0686 1.3048 26.8964 1.62139 26.794 1.75472C26.6997 1.87739 26.5978 1.94406 26.5666 1.9641C26.4929 2.01151 26.4306 2.03514 26.4302 2.0353C26.4125 2.04239 26.4067 2.04361 26.447 2.03051L25.8788 0.284723ZM26.1401 2.12844C26.0552 2.12467 25.9021 2.09913 25.7456 1.98132C25.5708 1.84967 25.4241 1.61936 25.4241 1.3328H27.26C27.26 0.97765 27.0812 0.688772 26.8499 0.514639C26.637 0.354339 26.4032 0.302385 26.2215 0.294317L26.1401 2.12844ZM25.4241 1.3328C25.4241 1.43073 25.4349 1.67934 25.6093 1.92304C25.7989 2.18788 26.0591 2.28168 26.2147 2.315C26.357 2.34549 26.4853 2.34215 26.5541 2.3389C26.6336 2.33515 26.7167 2.32625 26.7932 2.31697L26.5719 0.494425C26.5078 0.502204 26.4782 0.50451 26.4675 0.505015C26.4461 0.506025 26.5068 0.500003 26.5992 0.519788C26.7048 0.5424 26.9326 0.617469 27.1022 0.854466C27.2567 1.07034 27.26 1.282 27.26 1.3328H25.4241ZM26.7931 2.31698C27.789 2.19618 30.1503 2.10425 32.5071 2.10261L32.5058 0.266678C30.1419 0.268329 27.6858 0.35932 26.572 0.494414L26.7931 2.31698ZM32.5071 2.10261C34.857 2.10093 35.2122 2.12311 35.6465 2.21147L36.0126 0.412415C35.3541 0.278427 34.781 0.265056 32.5058 0.266678L32.5071 2.10261ZM35.6465 2.21148C36.481 2.38125 37.6122 2.77193 38.3646 3.14951L39.1881 1.50863C38.2897 1.05775 37.0045 0.614219 36.0125 0.412408L35.6465 2.21148ZM38.3645 3.14948L39.0795 3.50838L39.9031 1.86756L39.1881 1.50866L38.3645 3.14948ZM38.6406 3.03281L39.4832 5.1115L41.1847 4.42182L40.3421 2.34313L38.6406 3.03281ZM39.4832 5.1115C39.9878 6.35636 40.3341 7.179 40.6038 7.73946C40.8718 8.29607 41.1001 8.6733 41.3947 8.96782L42.6928 7.66962C42.6215 7.59829 42.5007 7.44725 42.2581 6.94317C42.0173 6.44294 41.6916 5.67247 41.1847 4.42182L39.4832 5.1115ZM41.3947 8.96782C41.8808 9.45401 42.4032 9.74482 43.2673 9.94257C44.065 10.1251 45.2142 10.2418 46.9853 10.3812L47.1294 8.55096C45.3293 8.40929 44.3194 8.29996 43.6769 8.15291C43.1008 8.02106 42.9019 7.87872 42.6928 7.66962L41.3947 8.96782ZM46.9853 10.3812L49.0281 10.5421L49.1723 8.71181L47.1294 8.55096L46.9853 10.3812ZM48.4436 10.2685L48.9901 10.8278L50.3033 9.54473L49.7568 8.98541L48.4436 10.2685ZM48.9901 10.8277C49.5817 11.4334 49.8511 11.8105 50.0303 12.3173C50.2276 12.8753 50.3361 13.6466 50.4443 15.099L52.2752 14.9626C52.1685 13.5309 52.0513 12.5257 51.7612 11.7053C51.4531 10.8338 50.9734 10.2306 50.3033 9.54478L48.9901 10.8277ZM50.4443 15.0991C50.4887 15.6946 50.5722 16.4373 50.6433 16.7433L52.4316 16.3276C52.3965 16.1766 52.3201 15.5651 52.2752 14.9626L50.4443 15.0991ZM50.6434 16.7435C50.668 16.8494 50.6878 16.9426 50.6999 17.0056C50.7028 17.021 50.705 17.0331 50.7066 17.0423C50.7083 17.052 50.7087 17.0554 50.7086 17.054C50.7084 17.0532 50.7079 17.0491 50.7071 17.0426C50.7065 17.0369 50.7051 17.0234 50.7041 17.0049C50.7034 16.9923 50.701 16.948 50.7055 16.89C50.7077 16.8623 50.7135 16.8029 50.7328 16.7296C50.7428 16.6918 50.7603 16.6353 50.791 16.5706C50.8207 16.5082 50.8752 16.4116 50.9706 16.3162L52.2688 17.6144C52.4435 17.4397 52.4951 17.2467 52.5079 17.1985C52.5275 17.124 52.5335 17.063 52.5358 17.0333C52.5407 16.9716 52.5382 16.9221 52.5372 16.903C52.5347 16.8582 52.5295 16.8195 52.5268 16.7998C52.5205 16.7545 52.5116 16.7051 52.5031 16.6606C52.4853 16.5677 52.46 16.45 52.4315 16.3274L50.6434 16.7435ZM50.9708 16.3161C51.0818 16.2051 51.1928 16.1531 51.2272 16.1374C51.2745 16.1158 51.3118 16.1042 51.328 16.0994C51.3607 16.0898 51.3783 16.0874 51.3672 16.0894C51.3487 16.0926 51.3024 16.0989 51.2193 16.1066C51.0578 16.1217 50.821 16.1366 50.5234 16.1503C49.932 16.1776 49.1433 16.1982 48.3308 16.2096C47.5189 16.221 46.6914 16.2229 46.0232 16.2132C45.6886 16.2083 45.3991 16.2006 45.174 16.19C45.0613 16.1847 44.9694 16.179 44.8988 16.173C44.8216 16.1664 44.792 16.1615 44.7932 16.1617L44.4474 17.9647C44.6155 17.997 44.8566 18.0131 45.088 18.0239C45.3407 18.0358 45.6518 18.0439 45.9965 18.0489C46.6867 18.059 47.5325 18.0569 48.3565 18.0454C49.18 18.0338 49.9899 18.0128 50.6079 17.9843C50.915 17.9702 51.1856 17.9537 51.3901 17.9346C51.49 17.9253 51.5914 17.9137 51.6798 17.8985C51.722 17.8912 51.7829 17.8794 51.8479 17.8602C51.8802 17.8507 51.931 17.8343 51.9889 17.8078C52.034 17.7873 52.1528 17.7304 52.2687 17.6145L50.9708 16.3161ZM44.7933 16.1617C44.7398 16.1514 44.7494 16.1484 44.7822 16.1645C44.8253 16.1857 44.8595 16.2149 44.8772 16.2348C44.8867 16.2455 44.8718 16.2319 44.8324 16.1574C44.7933 16.0833 44.7441 15.9767 44.6761 15.8155L42.9846 16.5291C43.1207 16.8518 43.2744 17.1944 43.5034 17.4528C43.7998 17.7871 44.1433 17.9064 44.4472 17.9647L44.7933 16.1617ZM44.6761 15.8155C44.169 14.6133 43.2701 13.7628 42.037 13.2902L41.3799 15.0045C42.1633 15.3048 42.6786 15.8039 42.9846 16.5291L44.6761 15.8155ZM42.0371 13.2902C41.5965 13.1213 41.0692 13.0311 40.5764 13.002C40.0835 12.9728 39.5491 13.0003 39.0911 13.1158L39.54 14.896C39.7626 14.8399 40.0981 14.8128 40.4681 14.8347C40.8383 14.8566 41.1672 14.9229 41.3798 15.0044L42.0371 13.2902ZM39.0912 13.1158C38.0862 13.3691 37.4301 13.7637 36.653 14.54L37.9504 15.8389C38.5218 15.2682 38.8931 15.059 39.5399 14.896L39.0912 13.1158ZM36.653 14.5399C36.129 15.0633 35.8622 15.3974 35.6118 15.9412L37.2794 16.7091C37.4042 16.4381 37.5081 16.2806 37.9503 15.839L36.653 14.5399ZM35.6118 15.9411L35.3724 16.4611L37.0399 17.2291L37.2794 16.7092L35.6118 15.9411ZM36.2077 15.9271L25.856 15.9089L25.8528 17.7449L36.2045 17.7631L36.2077 15.9271ZM25.856 15.9089L15.5042 15.8908L15.501 17.7267L25.8528 17.7449L25.856 15.9089ZM16.3657 16.4962L16.2063 16.056L14.4801 16.6812L14.6395 17.1213L16.3657 16.4962ZM16.2063 16.0561C16.0162 15.5309 15.6649 15.0078 15.2847 14.5797C14.9061 14.1533 14.4295 13.743 13.9312 13.5018L13.1314 15.1543C13.3402 15.2555 13.6308 15.4821 13.9119 15.7987C14.1916 16.1136 14.3926 16.4396 14.4801 16.6811L16.2063 16.0561ZM13.9313 13.5019C12.9355 13.0197 11.4905 12.915 10.4296 13.2426L10.9713 14.9968C11.5938 14.8046 12.5589 14.8772 13.1313 15.1543L13.9313 13.5019ZM10.4296 13.2426C9.08874 13.6568 7.79717 14.8745 7.21465 16.2004L8.89552 16.9389C9.28454 16.0534 10.1871 15.2391 10.9714 14.9968L10.4296 13.2426ZM7.21465 16.2004L7.06778 16.5347L8.74865 17.2732L8.89552 16.9389L7.21465 16.2004ZM7.89578 15.9861L4.98102 16.0256L5.00589 17.8613L7.92065 17.8218L7.89578 15.9861ZM4.98102 16.0256C4.17648 16.0365 3.40284 16.0514 2.80381 16.0668C2.23876 16.0813 1.7583 16.0972 1.60155 16.1163L1.82328 17.9388C1.81427 17.9399 1.83099 17.9379 1.89547 17.9344C1.95131 17.9313 2.02631 17.928 2.11972 17.9244C2.3061 17.9173 2.55538 17.9097 2.85085 17.9021C3.44119 17.887 4.20732 17.8721 5.00589 17.8613L4.98102 16.0256ZM1.60141 16.1163C1.52822 16.1252 1.49322 16.1281 1.47786 16.1288C1.4565 16.1298 1.50678 16.1247 1.58718 16.1413C1.68753 16.162 1.82993 16.2153 1.95974 16.3369C2.07494 16.4449 2.12283 16.5546 2.13258 16.5773L0.446435 17.3036C0.480382 17.3824 0.554165 17.5358 0.704386 17.6766C0.869198 17.831 1.05572 17.9063 1.21669 17.9394C1.45298 17.9881 1.70641 17.953 1.82342 17.9387L1.60141 16.1163ZM2.1326 16.5773C2.16142 16.6442 2.1738 16.6969 2.17608 16.7064C2.17838 16.716 2.17988 16.7232 2.1807 16.7273C2.18155 16.7315 2.18202 16.7342 2.18214 16.7349C2.18216 16.735 2.18022 16.7231 2.17696 16.6944C2.17063 16.6388 2.16316 16.5545 2.15546 16.4443C2.1402 16.226 2.12606 15.9352 2.11721 15.6277L0.282037 15.6806C0.291464 16.0081 0.306671 16.3243 0.323995 16.5722C0.332584 16.6952 0.342212 16.8089 0.352798 16.902C0.357996 16.9477 0.364476 16.9978 0.372749 17.0459C0.375781 17.0636 0.39395 17.1817 0.446415 17.3035L2.1326 16.5773ZM2.1172 15.6277L2.08395 14.4731L0.24878 14.526L0.282038 15.6806L2.1172 15.6277ZM1.26276 15.4124L1.71893 15.3643L1.52613 13.5385L1.06997 13.5867L1.26276 15.4124ZM1.71899 15.3643C2.39873 15.2924 3.04738 15.1681 3.48932 14.9655L2.72411 13.2966C2.56638 13.3689 2.16637 13.4708 1.52607 13.5385L1.71899 15.3643ZM3.48917 14.9655C4.06315 14.7025 4.56264 14.3457 4.86372 13.6685C5.12146 13.0888 5.19299 12.3489 5.23024 11.456L3.39591 11.3794C3.35768 12.2959 3.28381 12.7029 3.18613 12.9226C3.13179 13.0448 3.06584 13.14 2.72426 13.2965L3.48917 14.9655ZM5.23024 11.456L5.27576 10.3657L3.44143 10.2891L3.39591 11.3794L5.23024 11.456ZM4.54215 11.2268L4.90743 11.1523L4.54031 9.35341L4.17504 9.42796L4.54215 11.2268ZM4.90749 11.1523C6.3418 10.8594 10.4638 10.3973 15.3673 9.99004L15.2153 8.16041C10.3356 8.5657 6.10083 9.03483 4.54025 9.35343L4.90749 11.1523ZM15.3673 9.99004L16.5378 9.89284L16.3859 8.06321L15.2153 8.16041L15.3673 9.99004ZM16.9813 9.73485L17.5937 9.31453L16.5547 7.80087L15.9423 8.2212L16.9813 9.73485ZM17.5936 9.31458C18.0223 9.02042 18.3545 8.76568 18.6909 8.36173C19.0027 7.98739 19.3005 7.5049 19.7174 6.80024L18.1372 5.86546C17.7081 6.5908 17.4821 6.94434 17.2802 7.18673C17.103 7.39951 16.9316 7.5422 16.5548 7.80082L17.5936 9.31458ZM19.7174 6.80027C20.1056 6.14404 20.5978 5.375 20.8023 5.09677L19.323 4.00949C19.0627 4.36361 18.533 5.19646 18.1373 5.86544L19.7174 6.80027ZM20.8023 5.09677C21.4573 4.20561 22.3531 3.42093 23.0794 3.05156L22.2473 1.41506C21.2128 1.9411 20.1092 2.9398 19.323 4.00949L20.8023 5.09677ZM23.0794 3.0516C23.3732 2.90224 24.2828 2.63568 25.0515 2.51199L24.7599 0.699378C23.9195 0.834593 22.7914 1.13846 22.2474 1.41502L23.0794 3.0516ZM25.0516 2.51198C25.2571 2.4789 25.4595 2.43909 25.6243 2.39989C25.7053 2.38063 25.7888 2.35876 25.8639 2.33492C25.9007 2.32324 25.948 2.30714 25.9976 2.28633C26.0237 2.27537 26.1425 2.22697 26.26 2.12955L25.0881 0.716256C25.151 0.664127 25.2059 0.63362 25.2285 0.621526C25.2558 0.606907 25.277 0.597689 25.2872 0.593415C25.3071 0.585063 25.3165 0.582478 25.3082 0.585125C25.293 0.589924 25.2577 0.59994 25.1994 0.613802C25.0857 0.640858 24.9283 0.672258 24.7598 0.699393L25.0516 2.51198ZM26.2605 2.12913C26.1308 2.23676 25.9894 2.28435 25.8677 2.2985C25.7529 2.31186 25.5627 2.30515 25.3659 2.18363L26.3306 0.621599C26.0867 0.470913 25.8336 0.454167 25.6556 0.474871C25.4708 0.496367 25.2658 0.568689 25.0876 0.71668L26.2605 2.12913ZM25.3651 2.18313C25.4053 2.20804 25.4776 2.24986 25.5713 2.28325C25.6183 2.29997 25.6971 2.32425 25.7972 2.33441C25.8893 2.34377 26.0725 2.3489 26.2766 2.25628C26.5157 2.1478 26.6936 1.94506 26.7733 1.70225C26.8411 1.49535 26.819 1.31903 26.8018 1.23136C26.7682 1.06096 26.6944 0.93969 26.6703 0.900709L25.1092 1.86697C25.0979 1.84877 25.0315 1.74408 25.0004 1.58591C24.9843 1.50435 24.9622 1.33305 25.0288 1.13006C25.1071 0.89117 25.2826 0.691228 25.518 0.584419C25.7184 0.493468 25.8967 0.499141 25.9828 0.507885C26.0769 0.517445 26.1486 0.539965 26.1873 0.553752C26.2646 0.581287 26.3161 0.612569 26.3315 0.622104L25.3651 2.18313ZM26.6707 0.901393C26.7237 0.987163 26.7825 1.11468 26.8011 1.27834C26.8207 1.45041 26.7907 1.62118 26.7195 1.77214C26.591 2.04457 26.3747 2.16232 26.3084 2.19598C26.163 2.2699 26.0338 2.28302 26.0332 2.2831C25.9838 2.28984 25.954 2.28855 25.9824 2.28835C26.0288 2.28803 26.075 2.28991 26.1832 2.29134C26.2675 2.29245 26.3896 2.29309 26.5046 2.28411C26.5603 2.27976 26.6452 2.27102 26.737 2.24905C26.7834 2.23793 26.8521 2.21867 26.9288 2.18443C26.999 2.15312 27.1269 2.08711 27.2467 1.95861L25.9035 0.706994C26.0139 0.588482 26.1281 0.5313 26.1808 0.507793C26.2401 0.481344 26.2875 0.468854 26.3095 0.463584C26.3524 0.453321 26.3756 0.452659 26.3617 0.453751C26.3374 0.45565 26.2882 0.456634 26.2074 0.455568C26.1505 0.454818 26.0378 0.451997 25.9697 0.452467C25.9407 0.452667 25.8647 0.453144 25.785 0.464025C25.7692 0.466177 25.6288 0.481955 25.4767 0.559262C25.4071 0.594616 25.1886 0.714239 25.0591 0.98873C24.894 1.33865 24.9886 1.67176 25.1087 1.86628L26.6707 0.901393ZM27.2466 1.95867C27.3601 1.83693 27.4579 1.6684 27.4921 1.45986C27.5253 1.25716 27.4878 1.08214 27.4395 0.957066C27.3544 0.736445 27.2095 0.600892 27.1559 0.552566C27.0293 0.43856 26.8821 0.35551 26.8083 0.314832C26.7209 0.266628 26.6233 0.218247 26.5755 0.193903C26.5618 0.186926 26.5513 0.181508 26.543 0.177141C26.5343 0.172616 26.531 0.170748 26.5312 0.170876C26.5316 0.171048 26.5339 0.172388 26.5379 0.174752C26.5416 0.177011 26.5487 0.181351 26.5581 0.18754C26.5658 0.192654 26.6219 0.228836 26.6847 0.291618L25.3865 1.58982C25.4567 1.66004 25.5243 1.70496 25.547 1.71997C25.5791 1.74112 25.6084 1.7582 25.6287 1.76964C25.669 1.79236 25.7117 1.81432 25.7427 1.83007C25.8173 1.86803 25.8697 1.89379 25.9222 1.92272C25.9883 1.95918 25.9711 1.95626 25.927 1.91654C25.9146 1.90536 25.799 1.80549 25.7267 1.61799C25.6848 1.50948 25.6496 1.35037 25.6803 1.16281C25.712 0.969405 25.8026 0.815231 25.9035 0.706936L27.2466 1.95867ZM26.6847 0.291618C26.6883 0.295225 26.698 0.305134 26.7111 0.320267C26.7232 0.33432 26.7464 0.362236 26.7722 0.401868C26.7888 0.4274 26.9824 0.707836 26.8867 1.09715C26.7692 1.5751 26.3651 1.71794 26.2679 1.7461C26.1502 1.78016 26.0593 1.77811 26.0554 1.77811V-0.0578145C26.0143 -0.0578145 25.8949 -0.0572415 25.7572 -0.0173934C25.64 0.0165529 25.2244 0.16835 25.1038 0.658986C25.005 1.06099 25.2038 1.35784 25.2339 1.40407C25.2931 1.49481 25.3572 1.56056 25.3865 1.58982L26.6847 0.291618ZM26.0554 1.77811C26.0851 1.77811 26.2049 1.77912 26.3412 1.74213C26.4506 1.71245 26.954 1.54211 27.0282 0.957942C27.0566 0.734748 26.9977 0.559819 26.9602 0.471473C26.9208 0.378749 26.8745 0.310753 26.8479 0.274248C26.7956 0.202465 26.7406 0.146847 26.7158 0.122025L25.4176 1.42022C25.4282 1.43085 25.3995 1.40408 25.3642 1.35563C25.3461 1.3308 25.306 1.27309 25.2705 1.18942C25.2368 1.11012 25.1794 0.942996 25.2069 0.7265C25.2795 0.15573 25.7717 -0.00564954 25.8604 -0.0297118C25.9283 -0.0481434 25.9819 -0.053586 26.0051 -0.0555288C26.0314 -0.0577353 26.0499 -0.0578145 26.0554 -0.0578145V1.77811ZM26.7158 0.122025C26.683 0.0892795 26.6152 0.0234554 26.5224 -0.037179C26.4311 -0.0967952 26.2369 -0.203745 25.9692 -0.199366C25.6766 -0.194578 25.4631 -0.0613809 25.3397 0.0494481C25.2318 0.146284 25.1669 0.247887 25.1403 0.290915L26.702 1.25621C26.6979 1.26282 26.6536 1.33706 26.5662 1.41555C26.4632 1.50803 26.27 1.63189 25.9993 1.63632C25.7535 1.64034 25.5828 1.54201 25.5184 1.49995C25.4818 1.47602 25.4559 1.45467 25.4423 1.44294C25.4282 1.43074 25.4195 1.42209 25.4176 1.42022L26.7158 0.122025ZM25.1401 0.291268C25.2833 0.059461 25.493 -0.0343451 25.628 -0.0666407C25.7689 -0.100331 25.9012 -0.0888506 26.0124 -0.0524976L25.4418 1.69252C25.7396 1.7899 26.3594 1.81109 26.7022 1.25585L25.1401 0.291268ZM26.0131 -0.052271C25.9707 -0.066164 25.9131 -0.0831141 25.8474 -0.0954611C25.8197 -0.100666 25.6461 -0.137027 25.4395 -0.0885145C25.3336 -0.0636529 25.0581 0.0212391 24.8711 0.312355C24.6611 0.639066 24.7212 0.967587 24.7815 1.13162C24.8376 1.28406 24.9203 1.38483 24.956 1.42592C24.9998 1.47628 25.0413 1.51356 25.069 1.53695L26.2533 0.134033C26.2707 0.148791 26.3042 0.178305 26.3419 0.221786C26.3717 0.255999 26.4505 0.350784 26.5047 0.498136C26.5632 0.65709 26.6234 0.981435 26.4156 1.3049C26.2306 1.59276 25.9591 1.67533 25.8592 1.6988C25.6643 1.74455 25.51 1.70919 25.5084 1.70889C25.4688 1.70145 25.4442 1.69332 25.4411 1.69229L26.0131 -0.052271ZM25.069 1.53693C24.89 1.3858 24.8004 1.15395 24.8307 0.915471C24.8464 0.792097 24.9009 0.623855 25.0447 0.475127C25.202 0.312506 25.4143 0.228902 25.6216 0.228902V2.06483C25.8989 2.06483 26.167 1.95565 26.3645 1.75134C26.5487 1.56092 26.6281 1.33486 26.6519 1.14699C26.6987 0.779524 26.5588 0.391988 26.2533 0.134053L25.069 1.53693ZM25.6216 0.228902C25.6624 0.228902 25.7797 0.233999 25.9211 0.306043C26.083 0.388576 26.2398 0.543004 26.3146 0.763364C26.382 0.961645 26.3532 1.12515 26.332 1.2017C26.3102 1.28026 26.2819 1.32296 26.2795 1.3266L24.744 0.320301C24.6478 0.467083 24.4127 0.872348 24.5763 1.35388C24.7868 1.97352 25.38 2.06483 25.6216 2.06483V0.228902ZM26.2795 1.32671C26.2774 1.32992 26.2158 1.42832 26.0691 1.50894C25.9883 1.55337 25.8822 1.59176 25.7561 1.60149C25.6289 1.61131 25.5124 1.58955 25.4155 1.55235L26.0739 -0.161486C25.7705 -0.278035 25.4495 -0.245475 25.1847 -0.0998893C24.9604 0.0234029 24.8221 0.201072 24.744 0.320187L26.2795 1.32671ZM25.416 1.55251C25.456 1.56786 25.5365 1.59733 25.6348 1.61485C25.6844 1.62369 25.772 1.6358 25.8799 1.62784C25.9834 1.6202 26.1747 1.58895 26.3645 1.45023C26.8504 1.09506 26.742 0.559795 26.7134 0.452561C26.675 0.308259 26.6097 0.201913 26.5882 0.167134L25.0263 1.13212C25.025 1.12988 24.9725 1.04959 24.9393 0.925055C24.916 0.837583 24.8053 0.315789 25.2811 -0.0320024C25.4659 -0.167038 25.6501 -0.196123 25.7447 -0.203105C25.8436 -0.210405 25.9203 -0.199125 25.9569 -0.192598C25.9979 -0.185291 26.0282 -0.176557 26.0432 -0.171958C26.0594 -0.166963 26.0701 -0.162938 26.0735 -0.161646L25.416 1.55251ZM26.5881 0.166899C26.5953 0.178632 26.6125 0.207197 26.631 0.248175C26.6471 0.283732 26.6822 0.367355 26.6982 0.482833C26.7145 0.600303 26.7191 0.816007 26.5925 1.04317C26.4587 1.28348 26.2527 1.40409 26.0995 1.45699C25.9617 1.50456 25.8473 1.50601 25.7983 1.505C25.7419 1.50384 25.7001 1.4971 25.6821 1.49389C25.6474 1.48772 25.6317 1.48179 25.6518 1.48795L26.1902 -0.267254C26.146 -0.280802 26.0786 -0.300314 26.0039 -0.313617C25.9759 -0.318595 25.7525 -0.365496 25.5003 -0.278402C25.3383 -0.222451 25.1261 -0.0970867 24.9887 0.14971C24.8585 0.383358 24.862 0.607286 24.8797 0.734757C24.9096 0.95087 25.0103 1.10621 25.0265 1.13236L26.5881 0.166899ZM25.6515 1.48788C25.6479 1.48675 25.6495 1.48711 25.6556 1.48955C25.6614 1.49186 25.6676 1.49453 25.6726 1.49694C25.6782 1.49959 25.678 1.49977 25.6722 1.49643C25.6691 1.49463 25.6623 1.49062 25.6527 1.48429C25.6438 1.47837 25.6273 1.46709 25.6064 1.45041L26.7536 0.0170002C26.6456 -0.0694612 26.528 -0.129182 26.462 -0.160623C26.3819 -0.198745 26.2873 -0.237434 26.1904 -0.267182L25.6515 1.48788ZM25.709 9.72729C25.3235 9.899 24.9705 10.211 24.8081 10.6334C24.7248 10.8503 24.6799 11.1352 24.7696 11.4371C24.8644 11.7558 25.0818 11.9981 25.3491 12.143L26.224 10.529C26.3451 10.5946 26.4732 10.7247 26.5294 10.9139C26.5806 11.0862 26.548 11.224 26.5219 11.2919C26.4741 11.4164 26.4153 11.4225 26.4559 11.4044L25.709 9.72729ZM25.3492 12.143C25.5683 12.2618 25.8161 12.2942 25.9306 12.3075C26.0881 12.3259 26.26 12.333 26.4242 12.3321C26.7213 12.3307 27.133 12.303 27.4421 12.2009L26.8666 10.4575C26.8718 10.4558 26.8298 10.4681 26.727 10.4794C26.6345 10.4897 26.525 10.4957 26.4152 10.4962C26.304 10.4968 26.2089 10.4916 26.1434 10.484C26.1105 10.4801 26.0966 10.477 26.098 10.4773C26.0993 10.4776 26.1101 10.4801 26.1279 10.4862C26.1442 10.4918 26.1793 10.5047 26.2239 10.5289L25.3492 12.143ZM27.4419 12.201C27.8206 12.0761 28.3893 11.7615 28.509 11.1204C28.5771 10.7557 28.4647 10.4016 28.2313 10.1415C28.0188 9.90468 27.7467 9.78568 27.5148 9.72643L27.0603 11.5052C27.06 11.5052 27.0551 11.5039 27.0463 11.5005C27.0375 11.4972 27.024 11.4915 27.0068 11.4822C26.9734 11.4641 26.9199 11.429 26.8647 11.3675C26.7367 11.2248 26.6624 11.0078 26.7042 10.7835C26.7402 10.5909 26.8422 10.491 26.8722 10.4652C26.907 10.4351 26.9144 10.4418 26.8668 10.4575L27.4419 12.201ZM27.5147 9.72642C27.2055 9.64744 26.8973 9.59686 26.613 9.58507C26.3525 9.57427 26.0151 9.59104 25.7091 9.72725L26.4558 11.4045C26.4077 11.4259 26.386 11.4253 26.4104 11.4222C26.4312 11.4195 26.4726 11.4168 26.5369 11.4194C26.6667 11.4248 26.8459 11.4505 27.0603 11.5052L27.5147 9.72642ZM2.43074 11.8353C2.38556 12.0737 2.33494 12.1601 2.31941 12.1817C2.31424 12.1889 2.31397 12.1878 2.31669 12.1858C2.31832 12.1847 2.30909 12.192 2.27777 12.2023L2.85446 13.9453C3.23133 13.8207 3.56213 13.5987 3.81073 13.2525C4.04328 12.9286 4.16362 12.5515 4.23456 12.1772L2.43074 11.8353ZM2.27783 12.2023C2.08111 12.2674 1.88521 12.3091 1.75927 12.3241C1.68703 12.3327 1.68611 12.3266 1.73158 12.3316C1.74443 12.333 1.85374 12.3433 1.98703 12.4123C2.0595 12.4499 2.17589 12.5237 2.2781 12.6582C2.39013 12.8057 2.45907 12.9932 2.45907 13.1958H0.623137C0.623137 13.6871 0.964915 13.9505 1.14261 14.0426C1.30679 14.1276 1.46133 14.1489 1.53156 14.1566C1.69178 14.1742 1.85419 14.1617 1.97625 14.1472C2.23892 14.1159 2.55552 14.0442 2.85439 13.9454L2.27783 12.2023ZM2.45907 13.1958C2.45907 13.361 2.40568 13.4583 2.43278 13.3921C2.44337 13.3663 2.46682 13.3159 2.50813 13.2389C2.5894 13.0873 2.71045 12.8866 2.85459 12.6665C3.15121 12.2136 3.48586 11.7694 3.69055 11.5588L2.37408 10.2791C2.04533 10.6173 1.63437 11.1787 1.31874 11.6606C1.15676 11.9079 1.00503 12.1569 0.890049 12.3714C0.833235 12.4774 0.777686 12.5892 0.733818 12.6963C0.706458 12.7631 0.623137 12.9643 0.623137 13.1958H2.45907ZM3.69054 11.5588L4.02715 11.2125L2.71069 9.93283L2.37408 10.2791L3.69054 11.5588ZM2.45189 10.6141L2.47454 11.1158L4.3086 11.033L4.28595 10.5313L2.45189 10.6141ZM2.47454 11.1159C2.48426 11.3308 2.46058 11.678 2.43077 11.8352L4.23453 12.1773C4.29446 11.8614 4.32383 11.3699 4.3086 11.033L2.47454 11.1159ZM12.1967 16.1823C12.893 16.4171 13.4191 17.2797 13.2592 18.1578L15.0654 18.4868C15.3736 16.7946 14.4205 14.9947 12.7834 14.4426L12.1967 16.1823ZM13.2592 18.1578C13.1475 18.7708 12.6641 19.4248 12.1511 19.6915L12.9979 21.3205C14.0314 20.7832 14.8555 19.639 15.0654 18.4868L13.2592 18.1578ZM12.1511 19.6915C12.0941 19.7211 11.8745 19.7834 11.534 19.7948C11.205 19.8058 10.936 19.7631 10.8121 19.7164L10.165 21.4345C10.6024 21.5993 11.1398 21.6449 11.5952 21.6297C12.039 21.6149 12.5816 21.5368 12.9978 21.3205L12.1511 19.6915ZM10.8121 19.7164C10.4536 19.5814 10.0469 19.1473 9.88787 18.3827L8.0904 18.7564C8.33767 19.9456 9.05621 21.0169 10.165 21.4345L10.8121 19.7164ZM9.88787 18.3826C9.79535 17.9378 10.0068 17.194 10.5342 16.6667L9.23596 15.3685C8.36844 16.236 7.84618 17.5822 8.0904 18.7565L9.88787 18.3826ZM10.5341 16.6667C10.7191 16.4817 10.8243 16.4002 10.9217 16.3432C11.0234 16.2838 11.1618 16.2245 11.4464 16.1383L10.9139 14.3813C10.5779 14.4831 10.2798 14.5917 9.99454 14.7586C9.7051 14.928 9.47313 15.1313 9.23601 15.3684L10.5341 16.6667ZM11.4464 16.1383C11.6165 16.0867 11.7027 16.0792 11.7709 16.082C11.8485 16.0851 11.9655 16.1043 12.1968 16.1823L12.7834 14.4426C12.4746 14.3385 12.1703 14.2606 11.8447 14.2475C11.5098 14.2341 11.211 14.2912 10.914 14.3813L11.4464 16.1383ZM40.703 16.1232C41.4028 16.3032 41.9189 16.9657 41.9178 17.7132L43.7538 17.7157C43.7559 16.1422 42.6847 14.7372 41.1603 14.3451L40.703 16.1232ZM41.9178 17.7132C41.9175 17.9918 41.9052 18.0998 41.887 18.1781C41.8694 18.2541 41.835 18.3503 41.7164 18.588L43.3592 19.4077C43.4931 19.1394 43.6073 18.8863 43.6754 18.5933C43.7429 18.3026 43.7534 18.0219 43.7538 17.7157L41.9178 17.7132ZM41.7165 18.588C41.4303 19.1614 40.8886 19.6267 40.3339 19.8061L40.8987 21.5529C41.9441 21.2149 42.8632 20.4018 43.3592 19.4077L41.7165 18.588ZM40.3338 19.8061C40.1855 19.854 39.9375 19.8838 39.6467 19.8634C39.3567 19.8431 39.1098 19.779 38.961 19.7078L38.1689 21.3641C38.5817 21.5615 39.069 21.6634 39.5185 21.6948C39.9672 21.7263 40.464 21.6935 40.8987 21.5529L40.3338 19.8061ZM38.961 19.7078C38.377 19.4285 38.0635 18.9492 38.0266 18.4329L36.1953 18.564C36.2837 19.7987 37.0461 20.8271 38.1689 21.3641L38.961 19.7078ZM38.0266 18.433C37.9808 17.7929 38.1834 17.2107 38.6643 16.6913L37.3171 15.444C36.5087 16.3173 36.1115 17.3922 36.1953 18.5639L38.0266 18.433ZM38.6643 16.6913C39.177 16.1376 39.9087 15.9189 40.703 16.1232L41.1603 14.3452C39.7402 13.9799 38.3071 14.3748 37.3171 15.444L38.6643 16.6913ZM38.8016 15.6057C38.185 15.9314 37.7817 16.5265 37.5777 17.1028C37.3728 17.6813 37.3138 18.3938 37.5711 19.0369L39.2757 18.3548C39.2245 18.227 39.2114 17.9892 39.3083 17.7157C39.4059 17.4398 39.5604 17.2812 39.6589 17.2292L38.8016 15.6057ZM37.5711 19.0369C37.8224 19.665 38.3679 20.0416 38.9077 20.2158C39.4548 20.3924 40.0818 20.3959 40.6773 20.2174L40.1503 18.4588C39.8906 18.5366 39.6446 18.5245 39.4715 18.4686C39.291 18.4104 39.2688 18.3378 39.2757 18.3548L37.5711 19.0369ZM40.6772 20.2174C41.4321 19.9913 41.9485 19.3984 42.1814 18.7681C42.4138 18.1397 42.4099 17.3423 41.9389 16.6894L40.4499 17.7634C40.4888 17.8172 40.5281 17.9458 40.4594 18.1316C40.3914 18.3155 40.2626 18.4251 40.1503 18.4587L40.6772 20.2174ZM41.9389 16.6893C41.5715 16.18 41.1118 15.7598 40.5702 15.5367C40.0044 15.3037 39.3766 15.302 38.8015 15.6058L39.6591 17.2291C39.7077 17.2034 39.7611 17.1891 39.8711 17.2343C40.0052 17.2896 40.2157 17.4386 40.4499 17.7634L41.9389 16.6893ZM10.4555 15.6012C10.1442 15.7368 9.87887 15.9837 9.69878 16.1845C9.50515 16.4004 9.31128 16.6742 9.18489 16.9624L10.8662 17.6998C10.8955 17.633 10.9665 17.5208 11.0656 17.4103C11.112 17.3586 11.1541 17.319 11.1861 17.293C11.223 17.263 11.2245 17.2688 11.1888 17.2843L10.4555 15.6012ZM9.18493 16.9623C9.02527 17.3262 8.97773 17.7539 8.98324 18.1057C8.98861 18.4489 9.0469 18.8867 9.2382 19.2466L10.8593 18.3849C10.8679 18.4011 10.8556 18.3822 10.8419 18.3129C10.8293 18.2492 10.8204 18.1677 10.8189 18.077C10.8175 17.9866 10.8237 17.8997 10.8354 17.8261C10.8477 17.7488 10.8624 17.7085 10.8662 17.6999L9.18493 16.9623ZM9.23818 19.2466C9.44036 19.627 9.71235 19.9696 10.0898 20.2121C10.4737 20.4586 10.8989 20.558 11.3323 20.558V18.7221C11.1865 18.7221 11.1201 18.6918 11.082 18.6673C11.0375 18.6387 10.9573 18.5692 10.8594 18.385L9.23818 19.2466ZM11.3323 20.558C11.6603 20.558 11.9906 20.5057 12.3227 20.3407C12.6385 20.1838 12.893 19.9558 13.1213 19.7106L11.7776 18.4595C11.6185 18.6304 11.5395 18.6798 11.5059 18.6965C11.4888 18.705 11.4542 18.7221 11.3323 18.7221V20.558ZM13.1212 19.7107C13.3516 19.4633 13.5672 19.1772 13.6858 18.8047C13.8032 18.4356 13.7953 18.0762 13.7554 17.7386L11.9322 17.9543C11.9586 18.1776 11.9396 18.2376 11.9363 18.2478C11.9342 18.2544 11.9194 18.3073 11.7777 18.4595L13.1212 19.7107ZM13.7553 17.7385C13.6294 16.675 12.9681 15.8747 11.94 15.5653L11.411 17.3234C11.7293 17.4191 11.8909 17.6064 11.9322 17.9544L13.7553 17.7385ZM11.9401 15.5653C11.72 15.4991 11.4696 15.4338 11.2018 15.4333C10.9028 15.4328 10.6617 15.5114 10.4555 15.6012L11.1888 17.2843C11.231 17.266 11.2433 17.2635 11.2386 17.2646C11.2293 17.267 11.2134 17.2693 11.1984 17.2693C11.187 17.2692 11.1929 17.2677 11.2279 17.2748C11.2651 17.2822 11.3214 17.2964 11.4109 17.3233L11.9401 15.5653ZM36.5482 9.72728C36.1626 9.89898 35.8096 10.211 35.6473 10.6334C35.564 10.8503 35.5191 11.1352 35.6088 11.437C35.7036 11.7558 35.921 11.9981 36.1883 12.143L37.0632 10.5289C37.1843 10.5946 37.3124 10.7247 37.3686 10.9139C37.4198 11.0862 37.3872 11.224 37.3611 11.2919C37.3133 11.4163 37.2544 11.4225 37.2951 11.4044L36.5482 9.72728ZM36.1884 12.143C36.4075 12.2618 36.6553 12.2941 36.7698 12.3075C36.9272 12.3259 37.0992 12.3329 37.2634 12.3321C37.5605 12.3307 37.9721 12.303 38.2813 12.2009L37.7058 10.4575C37.711 10.4558 37.6689 10.4681 37.5662 10.4794C37.4737 10.4896 37.3642 10.4957 37.2544 10.4962C37.1432 10.4968 37.0481 10.4916 36.9826 10.4839C36.9497 10.4801 36.9358 10.477 36.9372 10.4773C36.9384 10.4776 36.9493 10.4801 36.9671 10.4862C36.9834 10.4918 37.0184 10.5047 37.0631 10.5289L36.1884 12.143ZM38.2811 12.201C38.6598 12.0761 39.2285 11.7615 39.3482 11.1204C39.4162 10.7557 39.3038 10.4016 39.0705 10.1415C38.858 9.90466 38.5858 9.78566 38.3539 9.72641L37.8995 11.5052C37.8992 11.5051 37.8943 11.5039 37.8855 11.5005C37.8767 11.4972 37.8631 11.4914 37.846 11.4822C37.8125 11.4641 37.7591 11.429 37.7039 11.3675C37.5759 11.2248 37.5016 11.0078 37.5434 10.7835C37.5794 10.5909 37.6814 10.491 37.7113 10.4652C37.7462 10.4351 37.7535 10.4418 37.7059 10.4575L38.2811 12.201ZM38.3539 9.7264C38.0447 9.64742 37.7365 9.59684 37.4522 9.58506C37.1916 9.57425 36.8542 9.59103 36.5483 9.72724L37.295 11.4045C37.2469 11.4259 37.2252 11.4253 37.2496 11.4222C37.2704 11.4195 37.3118 11.4167 37.3761 11.4194C37.5059 11.4248 37.6851 11.4504 37.8995 11.5052L38.3539 9.7264Z" fill="#5CC758" mask="url(#path-1-inside-1_814_23710)"/>
<path d="M33.3033 3.89481L33.3033 3.89481C36.3778 3.98929 37.4851 4.63221 37.9559 5.56713C38.1277 5.90823 38.3338 6.5334 38.4805 7.1468C38.5521 7.4463 38.6029 7.71553 38.6279 7.91811C38.6321 7.95261 38.6354 7.98329 38.6378 8.0103C38.5836 8.07218 38.5179 8.14179 38.4508 8.20697L38.4507 8.20706L38.3366 8.31786L35.2202 8.30608C33.8414 8.30088 32.9756 8.29266 32.4469 8.27698C32.4342 8.27661 32.4217 8.27623 32.4095 8.27584C32.38 7.87189 32.3619 7.29208 32.3591 6.5552V6.5552C32.3563 5.83831 32.3813 5.02487 32.4187 4.38207C32.4293 4.19973 32.4407 4.03461 32.4524 3.89169C32.4832 3.89083 32.5157 3.89008 32.5498 3.88945C32.7716 3.88535 33.0418 3.88676 33.3033 3.89481ZM38.6434 8.15256C38.6432 8.15235 38.6434 8.1481 38.6442 8.1404C38.644 8.14891 38.6435 8.15276 38.6434 8.15256Z" stroke="#5CC758" stroke-width="1.83593"/>
<path d="M22.7585 5.49997L22.7585 5.5C22.1777 6.11567 21.7283 6.76488 21.3502 7.53601L22.7585 5.49997ZM22.7585 5.49997C23.2663 4.96161 23.7275 4.60686 24.2595 4.34593C24.8003 4.08063 25.4601 3.88978 26.3957 3.73691L22.7585 5.49997ZM28.724 2.8903C28.8661 2.94973 29.0244 3.07359 29.0756 3.16562C29.1847 3.36174 29.2574 7.21205 29.1748 8.423L28.724 2.8903ZM28.724 2.8903L28.4676 3.50374L28.4675 3.5039L28.3699 3.73724C28.3674 3.73618 28.3653 3.73524 28.3635 3.73445M28.724 2.8903L28.4677 3.50365L28.4676 3.50382L28.3701 3.73729C28.3766 3.74001 28.38 3.74138 28.3799 3.74166C28.3796 3.74267 28.333 3.72937 28.2186 3.71412C28.2127 3.6232 28.2067 3.54706 28.2009 3.48682C28.1956 3.43248 28.1916 3.40363 28.19 3.3937C28.1898 3.39284 28.1897 3.39241 28.1897 3.39237C28.1897 3.39214 28.1916 3.40318 28.1962 3.42139L28.1964 3.42214C28.1988 3.43175 28.219 3.5141 28.2733 3.61174C28.2937 3.64838 28.3127 3.67481 28.325 3.69073C28.3377 3.70725 28.348 3.71861 28.3541 3.72502C28.358 3.72908 28.3612 3.73219 28.3635 3.73445M28.3635 3.73445C28.3573 3.73159 28.356 3.73055 28.3589 3.7323C28.3621 3.73423 28.3658 3.73676 28.368 3.73852C28.3686 3.739 28.3689 3.73922 28.3688 3.73917C28.3686 3.73905 28.3668 3.73755 28.3635 3.73445ZM21.0366 8.38454L21.052 8.35279C21.052 8.3528 21.052 8.35281 21.052 8.35283L21.0366 8.3848M21.0366 8.38454C21.0376 8.37442 21.0391 8.36217 21.0415 8.34762C20.9942 8.3239 20.9777 8.30965 20.9777 8.30965C20.9777 8.30966 20.9838 8.31491 20.9927 8.3265C21.0059 8.34357 21.0182 8.36535 21.0266 8.38861C21.0279 8.39211 21.029 8.39537 21.0299 8.39837M21.0366 8.38454C21.0366 8.38462 21.0366 8.38471 21.0366 8.3848M21.0366 8.38454L21.0299 8.39837M21.0299 8.39837L21.0181 8.42279M21.0299 8.39837C21.0299 8.39841 21.0299 8.39845 21.0299 8.39849M21.0181 8.42279L20.9744 8.42341L20.9756 8.51056M21.0181 8.42279L21.0182 8.42279M21.0181 8.42279L20.9756 8.51056M20.9756 8.51056L20.6522 9.17883L20.9756 8.51073M20.9756 8.51056L20.9756 8.51073M20.9756 8.51073L20.9872 9.34128L21.3871 8.51499L21.1916 8.42036L21.0182 8.42279M20.9756 8.51073L21.0182 8.42279M21.0182 8.42279L21.0299 8.39849M21.0299 8.39849C21.0343 8.41279 21.0351 8.42126 21.0351 8.42126C21.0351 8.42126 21.0351 8.42111 21.0351 8.42081C21.0348 8.41625 21.0346 8.40466 21.0366 8.3848M21.0299 8.39849L21.0366 8.3848M28.371 8.28445C28.3437 8.28627 28.3076 8.28822 28.2634 8.29025C28.2619 8.31472 28.2605 8.33816 28.259 8.36055L28.2589 8.36059L28.2091 9.09165L28.426 9.10643L28.4261 9.10643L29.125 9.15405L29.0757 8.41624L29.0637 8.23813L28.3711 8.28444L28.371 8.28445Z" stroke="#5CC758" stroke-width="1.83593"/>
</svg>
