<svg width="106" height="45" viewBox="0 0 106 45" fill="none" xmlns="http://www.w3.org/2000/svg">
<path fill-rule="evenodd" clip-rule="evenodd" d="M54.6865 0.153294C48.1026 0.514426 44.4136 1.62237 41.3957 4.14512C39.2814 5.91232 38.2209 7.23556 36.1591 10.6781C34.7979 12.9508 33.3101 14.7335 32.3772 15.2095C31.7582 15.5252 30.4001 15.693 25.37 16.0755C16.7786 16.7286 9.04653 17.7494 6.84199 18.5215C4.60616 19.3045 2.85561 21.1532 1.10205 24.5835C0.156308 26.4333 0 27.3135 0 30.7881V33.8023L0.592365 35.0351L1.18459 36.2679L3.24775 36.3622C4.38239 36.4142 6.60257 36.4571 8.18145 36.4577C11.5465 36.459 15.0552 36.6019 15.2906 36.7473C15.3816 36.8036 15.5409 37.3383 15.6447 37.9355C15.8773 39.2761 16.5138 40.5101 17.4971 41.528C19.0486 43.1337 20.4064 43.7782 22.4637 43.8854C24.1806 43.9749 25.1641 43.7745 26.6431 43.0343C28.6932 42.0081 30.1102 40.2796 30.8578 37.893C31.068 37.222 31.2681 36.5853 31.3025 36.4782C31.3549 36.3147 34.4852 36.2976 50.7049 36.3726C61.3418 36.4217 70.4704 36.4982 70.9907 36.5428L71.9368 36.6237L72.1605 37.653C72.8585 40.8656 75.1884 43.3776 77.9791 43.9266C79.2554 44.1778 81.6062 44.0413 82.591 43.6589C84.768 42.8137 87.4251 40.1393 88.0091 38.2058C88.1445 37.7575 88.311 37.3261 88.379 37.2471C88.4558 37.1583 90.8633 37.0694 94.7037 37.0137C101.248 36.9189 103.889 36.705 104.778 36.1977C105.349 35.8716 106 34.5902 106 33.792C106 33.4125 105.957 33.2865 105.937 33.0525C105.912 32.7555 105.851 32.0443 105.912 32.7555C105.755 30.9086 105.755 30.9189 105.735 30.6753C105.757 30.9356 105.816 31.5599 105.814 31.6013C105.811 31.6427 105.697 30.5288 105.735 30.6753L105.722 30.5288L105.711 30.4028C105.66 29.8021 105.675 29.9791 105.652 29.7037L105.469 27.5586L105.3 26.35C105.207 25.6853 105.008 24.7822 104.857 24.3431C104.143 22.2701 102.451 19.6778 100.83 18.1779C99.5275 16.9716 98.6424 16.756 93.0819 16.2904C89.4262 15.9844 88.1113 15.8014 87.2415 15.4777C86.0038 15.0171 85.415 14.1447 84.1092 10.8368C83.1571 8.42488 81.6114 5.10393 80.9915 4.13795C80.6511 3.60773 80.2398 3.18962 79.8116 2.93872C78.9241 2.41869 76.5841 1.39716 74.5234 0.630117L72.8301 0L64.7631 0.0215293C60.3261 0.0332991 55.7917 0.0925786 54.6865 0.153294ZM52.4243 1.46921C52.522 1.54744 52.5667 1.66873 52.5235 1.73863C52.4803 1.80868 52.5133 1.86594 52.5968 1.86594C52.8552 1.86594 52.6936 2.21947 52.39 2.31808C52.1223 2.4052 52.1247 2.41238 52.4259 2.42573C52.6198 2.43434 52.7488 2.53151 52.7488 2.66887C52.7488 2.85762 52.8678 2.88317 53.4306 2.81485C55.5428 2.55864 60.3662 2.37549 65.0928 2.37219C69.7234 2.36889 70.653 2.40449 71.747 2.62711C73.5756 2.99915 75.995 3.83437 77.6478 4.66386L79.0796 5.38253L80.7668 9.54502C82.7924 14.5422 83.4581 15.9253 84.1907 16.6579C85.583 18.0501 87.079 18.3926 94.2302 18.9554L98.3209 19.2775L99.4152 20.3975C101.942 22.9837 102.415 24.3232 102.846 30.0985C102.935 31.2981 103.095 32.6539 103.201 33.1115C103.308 33.5691 103.382 33.9565 103.366 33.9722C103.051 34.2873 90.8596 34.4578 89.35 34.1683C88.5926 34.0229 88.3388 33.7367 87.7683 32.3843C86.9542 30.4545 85.5382 29.1033 83.5192 28.3293C82.2112 27.8278 80.0905 27.7025 78.7276 28.0461C77.0737 28.463 76.0451 29.0675 74.6949 30.4162C73.7275 31.3823 73.3563 31.8746 72.9807 32.6903L72.5011 33.7315L51.7722 33.6951L31.0433 33.6588L30.7241 32.7773C30.1683 31.2422 28.5118 29.3767 27.0958 28.6913C25.5257 27.9312 23.1126 27.7536 21.4272 28.2741C19.2995 28.9313 17.1027 30.9658 16.1299 33.1799L15.8358 33.8494L9.99917 33.9285C6.78902 33.972 3.83251 34.0477 3.42903 34.0968C2.80337 34.173 2.67907 34.1474 2.58218 33.9224C2.51974 33.7775 2.43879 32.6183 2.40219 31.3467L2.33559 29.0347L3.24904 28.9382C4.5707 28.7986 5.62065 28.5721 6.22106 28.2968C8.05442 27.4565 8.4856 26.4867 8.63674 22.8634L8.72788 20.6801L9.45933 20.5308C12.4579 19.9187 20.8249 18.9863 30.6201 18.1727L32.9641 17.9781L34.1903 17.1364C35.8033 16.0295 36.2071 15.5448 37.9011 12.6812C38.6861 11.3544 39.7092 9.75056 40.1745 9.11743C41.6174 7.15417 43.6193 5.36861 45.3824 4.4721C46.2212 4.04566 48.2615 3.47453 49.8725 3.21531C50.6213 3.09474 51.3136 2.93011 51.4111 2.8493C51.5084 2.76849 51.6654 2.75026 51.76 2.80868C51.8595 2.87025 51.8945 2.85432 51.843 2.77107C51.794 2.69184 53.0662 2.82891 53.2154 2.66887C53.416 2.45357 52.2543 2.00302 52.1351 1.88374C52.0156 1.76432 52.026 1.72241 52.1747 1.72241C52.3347 1.72241 52.3393 1.6861 52.1974 1.54414C52.0555 1.40233 51.9961 1.40319 51.906 1.54902C51.8411 1.65409 51.6753 1.6937 51.5173 1.64203C51.3601 1.5905 51.3033 1.60385 51.3852 1.67304C51.6386 1.8869 51.5865 2.29655 51.306 2.29655C50.9159 2.29655 50.829 2.0412 51.0861 1.64892C51.2383 1.41683 51.3934 1.33142 51.5526 1.39257C51.7221 1.45759 51.7584 1.43118 51.6779 1.30085C51.5924 1.16248 51.6482 1.14325 51.9056 1.2222C52.093 1.27975 52.3265 1.39099 52.4243 1.46921ZM52.2289 21.1577C51.3755 21.5377 51.0509 22.3824 51.6364 22.6998C52.0334 22.9149 53.7075 22.9068 54.3753 22.6863C55.4618 22.3279 55.615 21.5063 54.642 21.2577C53.5935 20.9899 52.69 20.9524 52.2289 21.1577ZM6.67348 24.042C6.44095 25.2688 5.98882 25.8984 5.13852 26.1798C4.14613 26.508 3.08599 26.6342 3.08599 26.4241C3.08599 25.892 5.00389 22.9636 6.07207 21.8647L6.74611 21.1713L6.79146 22.176C6.81644 22.7286 6.76333 23.5683 6.67348 24.042ZM25.0108 30.6625C27.347 31.4503 28.8281 34.1162 28.3593 36.6896C28.0374 38.457 26.7282 40.2573 25.1798 41.0623C24.2323 41.5547 22.1269 41.6249 21.0028 41.2015C19.5337 40.6482 18.4071 39.1409 18.0003 37.1847C17.6632 35.5636 18.3978 33.471 19.7944 32.0744C20.6396 31.2293 21.1449 30.9336 22.3877 30.557C23.3233 30.2735 23.9294 30.2979 25.0108 30.6625ZM81.9638 30.5058C84.1907 31.0785 85.7799 33.1485 85.7767 35.4723C85.7752 36.6434 85.6856 37.0291 85.1801 38.0423C84.3969 39.6117 82.9343 40.8917 81.3322 41.4098C80.1648 41.7872 78.3491 41.6601 77.2245 41.1223C75.5156 40.305 74.4384 38.7954 74.313 37.0423C74.1832 35.2283 74.7837 33.5692 76.0747 32.1748C77.5792 30.5498 79.7467 29.9355 81.9638 30.5058ZM78.5568 32.8752C77.1246 33.6315 76.3234 35.894 76.9411 37.4376C77.4307 38.6612 79.2144 39.2368 80.9267 38.7237C82.6631 38.2035 83.5108 35.9102 82.49 34.495C81.2851 32.8247 79.8059 32.2154 78.5568 32.8752ZM21.6709 32.9259C21.1366 33.1587 20.3875 33.9939 20.0757 34.7047C19.7242 35.5059 19.7471 36.9721 20.1222 37.6777C20.7232 38.8085 21.5327 39.3284 22.6923 39.3284C23.5934 39.3284 24.1538 39.0501 24.9295 38.217C25.6747 37.4168 25.8519 36.8597 25.719 35.7367C25.5517 34.3235 24.7278 33.3347 23.3797 32.929C22.5571 32.6814 22.2333 32.6809 21.6709 32.9259Z" fill="#033401"/>
<path d="M73.3414 22.6998C72.7559 22.3824 73.0804 21.5377 73.9339 21.1576C74.3949 20.9524 75.2985 20.9898 76.347 21.2577C77.32 21.5063 77.1667 22.3279 76.0803 22.6863C75.4124 22.9067 73.7384 22.9149 73.3414 22.6998Z" fill="#033401"/>
<path d="M66.7171 6.87927L66.717 6.87927C66.1789 6.86271 65.6227 6.85978 65.163 6.86827C64.6735 6.8773 64.3692 6.89855 64.2853 6.9136L66.7171 6.87927ZM66.7171 6.87927C72.9035 7.0694 75.6321 8.3606 76.8272 10.7339C77.218 11.5098 77.6504 12.8409 77.9508 14.097C78.0993 14.7178 78.2088 15.2926 78.2642 15.743C78.2921 15.9693 78.3043 16.1476 78.3042 16.2761C78.3041 16.3079 78.3033 16.333 78.3023 16.3522C78.267 16.4011 78.2165 16.4658 78.1515 16.5434C78.0106 16.7115 77.8264 16.9107 77.6373 17.0943L77.6372 17.0943M66.7171 6.87927L77.6372 17.0943M77.6372 17.0943L77.1394 17.5776L70.5237 17.5526C67.7647 17.5422 66.0192 17.5258 64.9465 17.494C64.5619 17.4826 64.2745 17.4695 64.0635 17.455C64.0353 17.258 64.0082 16.9997 63.9841 16.6772C63.9211 15.8356 63.8836 14.6372 63.8778 13.1299C63.8722 11.674 63.9228 10.026 63.9987 8.72134C64.0367 8.06778 64.0805 7.51128 64.1253 7.11288C64.1322 7.05086 64.1391 6.99423 64.1457 6.9429M77.6372 17.0943L64.1457 6.9429M64.1457 6.9429C64.1911 6.93205 64.2382 6.92207 64.2852 6.91361L64.1457 6.9429ZM64.1322 17.807C64.132 17.8064 64.1318 17.8057 64.1316 17.8051C64.1399 17.8245 64.1391 17.828 64.1322 17.807Z" stroke="#033401" stroke-width="1.83593"/>
<path d="M44.903 10.3821L44.903 10.3821C43.6759 11.683 42.7233 13.0595 41.9261 14.6856C41.3488 15.8633 41.1791 16.5334 41.2029 16.919C41.2126 17.0765 41.254 17.1659 41.3087 17.2366C41.3729 17.3196 41.4988 17.4308 41.7544 17.5545L42.2299 17.7847L48.7735 17.693C52.5039 17.6407 56.1402 17.5566 56.8727 17.5075L56.8728 17.5075L57.4597 17.4683L57.5049 16.8044L57.5049 16.8043C57.5846 15.6365 57.5906 13.1394 57.5476 10.8582C57.5262 9.72377 57.4929 8.65813 57.4518 7.85569C57.4312 7.45303 57.4091 7.12617 57.3865 6.89344C57.3816 6.84289 57.3769 6.79912 57.3724 6.76172C57.2986 6.70388 57.2186 6.6576 57.1641 6.6348C57.1039 6.60965 56.9069 6.55843 56.54 6.51421C56.1986 6.47308 55.7784 6.44547 55.3231 6.43456C54.4049 6.41255 53.4115 6.45991 52.7074 6.57492L44.903 10.3821ZM44.903 10.3821C45.9773 9.24323 46.9872 8.45801 48.1728 7.87647M44.903 10.3821L48.1728 7.87647M48.1728 7.87647C49.3673 7.29054 50.7856 6.88893 52.7074 6.57492L48.1728 7.87647ZM57.4508 6.83246C57.4508 6.83246 57.4501 6.83172 57.449 6.83025C57.4503 6.83173 57.4509 6.83247 57.4508 6.83246Z" stroke="#033401" stroke-width="1.83593"/>
</svg>
