<svg width="91" height="90" viewBox="0 0 91 90" fill="none" xmlns="http://www.w3.org/2000/svg">
<path d="M0.5 0H90.5V90H0.5V0Z" fill="#8934AD"/>
<path d="M17.7354 59.6055C17.7354 60.2511 17.4821 60.7924 16.9758 61.2291C16.4694 61.6657 15.8776 61.8841 15.2004 61.8841C14.8966 61.8841 14.6023 61.8336 14.3175 61.7322C14.4757 61.7322 14.6181 61.7132 14.7447 61.6754C14.77 61.669 14.9092 61.6152 15.1625 61.5138C15.5296 61.3747 15.8145 61.1879 16.0169 60.9538C16.2701 60.6626 16.3966 60.3113 16.3966 59.8998C16.3966 59.7607 16.384 59.6309 16.3587 59.5106C16.3017 59.1561 16.1277 58.8904 15.8366 58.7131C15.5517 58.5359 15.1909 58.4474 14.7542 58.4474C14.6023 58.4474 14.4409 58.4568 14.2699 58.4758L13.9093 58.5233V64.1248C13.9093 64.3084 13.9188 64.4698 13.9377 64.609C13.9567 64.7418 14.0072 64.8653 14.0896 64.9793C14.1401 65.0552 14.2003 65.128 14.2699 65.1977C14.3493 65.2632 14.4353 65.3205 14.5264 65.3685H12.1813C12.3079 65.3052 12.3839 65.2641 12.4091 65.245C12.4723 65.2008 12.5295 65.1186 12.58 64.9982C12.637 64.8779 12.675 64.7418 12.694 64.5899C12.7129 64.4317 12.7224 64.2735 12.7224 64.1153V58.789V58.6657C12.7224 58.4947 12.7129 58.3618 12.694 58.2669C12.6814 58.1657 12.6371 58.058 12.561 57.9441C12.5156 57.8742 12.4613 57.8104 12.3997 57.7542C12.3428 57.7035 12.2636 57.653 12.1624 57.6023H15.0771C15.7924 57.6023 16.3999 57.77 16.8998 58.1055C17.4569 58.4789 17.7354 58.979 17.7354 59.6055ZM30.0924 61.6943C30.0924 62.7197 29.7285 63.6089 29.0006 64.3621C28.2157 65.1723 27.2126 65.5774 25.9909 65.5774C24.6491 65.5774 23.5605 65.1914 22.7249 64.4191C21.8895 63.6405 21.4717 62.669 21.4717 61.5044C21.4717 60.4157 21.8293 59.479 22.5446 58.6941C23.3231 57.8396 24.3326 57.4124 25.5731 57.4124C27.0733 57.4124 28.2285 57.8619 29.0386 58.7606C29.7411 59.5455 30.0924 60.5234 30.0924 61.6943ZM28.7727 61.5329C28.7727 60.634 28.5386 59.8904 28.0701 59.3017C27.5258 58.6182 26.7504 58.2764 25.7441 58.2764C24.8389 58.2764 24.1142 58.6182 23.5699 59.3017C23.0762 59.9221 22.8294 60.6816 22.8294 61.5803C22.8294 62.4981 23.1142 63.2608 23.6839 63.8685C24.2598 64.4698 24.9908 64.7704 25.8769 64.7704C26.7378 64.7704 27.4467 64.4286 28.0038 63.745C28.5163 63.112 28.7727 62.3747 28.7727 61.5329ZM39.3736 63.7829L38.7755 65.3685H33.8197C33.8891 65.3369 33.9619 65.3052 34.038 65.2736C34.1447 65.2112 34.2306 65.1187 34.2848 65.0077C34.3484 64.8929 34.3903 64.7674 34.4083 64.6375C34.4336 64.5045 34.4462 64.3589 34.4462 64.2007V58.8555V58.7226C34.4462 58.5265 34.4367 58.3746 34.4178 58.2669C34.4051 58.1594 34.3608 58.0454 34.2848 57.925C34.2341 57.8365 34.1803 57.7731 34.1235 57.7353C34.0728 57.6972 33.9874 57.653 33.867 57.6023H36.2501C36.1361 57.653 36.0507 57.7004 35.9937 57.7447C35.9367 57.7828 35.8799 57.8459 35.8229 57.9347C35.7469 58.0611 35.6994 58.1909 35.6805 58.3239C35.6615 58.4568 35.652 58.6498 35.652 58.903V64.3621C35.7089 64.3812 35.9115 64.4128 36.2596 64.4571C36.6141 64.5014 36.9589 64.5235 37.2945 64.5235C37.6805 64.5235 37.9843 64.4824 38.2058 64.4001C38.3803 64.3316 38.5544 64.262 38.728 64.1913C38.9053 64.1153 39.1205 63.9792 39.3736 63.7829ZM51.5899 65.3685H49.0265C49.1593 65.3559 49.3017 65.2673 49.4538 65.1026C49.5043 65.0458 49.5297 64.9761 49.5297 64.8939C49.5297 64.8178 49.5075 64.7197 49.4632 64.5996L48.6087 62.4633H45.675L44.9629 64.4001C44.9128 64.537 44.8871 64.6816 44.887 64.8274C44.887 64.9793 44.9219 65.09 44.9915 65.1596C45.1117 65.2736 45.2351 65.3432 45.3618 65.3685H43.0927C43.1777 65.3295 43.2601 65.2851 43.3395 65.2356C43.4091 65.1849 43.4787 65.128 43.5484 65.0647C43.6495 64.9635 43.7358 64.8484 43.8046 64.7229C43.849 64.6406 43.9091 64.5077 43.9851 64.3242L46.3491 58.4283C46.3745 58.3649 46.3935 58.3113 46.4061 58.2669C46.4187 58.2162 46.425 58.1625 46.425 58.1055C46.425 58.0611 46.4156 58.0043 46.3966 57.9347C46.3396 57.751 46.2067 57.6404 45.9978 57.6023H47.9157L50.4981 63.9729C50.5423 64.0995 50.593 64.2291 50.65 64.3621C50.707 64.4887 50.7829 64.6185 50.8778 64.7515C50.9708 64.8753 51.0757 64.9898 51.1911 65.0931C51.2988 65.1882 51.4316 65.2799 51.5899 65.3685ZM48.3334 61.6278L47.175 58.6847L45.9978 61.6278H48.3334ZM62.733 65.3685C62.7141 65.3748 62.6096 65.3811 62.4198 65.3875C62.2361 65.3938 62.0146 65.3969 61.7552 65.3969H61.6128C61.2202 65.3969 60.9354 65.378 60.7582 65.3401C60.5874 65.2957 60.3722 65.147 60.1126 64.8939C59.9037 64.6913 59.6538 64.4033 59.3626 64.0299C59.1047 63.6956 58.8484 63.3601 58.5935 63.0235C58.4164 62.8019 58.1853 62.4664 57.9005 62.017C57.6853 61.6754 57.546 61.4507 57.4827 61.343C57.5967 61.343 57.7423 61.324 57.9195 61.286C58.1012 61.2402 58.279 61.1799 58.4511 61.1057C58.7677 60.9664 59.0145 60.7924 59.1918 60.5835C59.4133 60.3239 59.524 60.0201 59.524 59.672C59.524 59.6341 59.5208 59.5897 59.5145 59.539C59.5082 59.4822 59.505 59.4378 59.505 59.4063C59.4544 59.0897 59.2898 58.8366 59.0113 58.6466C58.7328 58.4505 58.3879 58.3523 57.9765 58.3523C57.8056 58.3523 57.6125 58.3777 57.3973 58.4283L57.217 58.4758V64.2956C57.217 64.4666 57.2201 64.5996 57.2265 64.6945C57.2391 64.783 57.2707 64.8779 57.3214 64.9793C57.372 65.0805 57.4226 65.1565 57.4732 65.2071C57.5239 65.2514 57.603 65.3052 57.7106 65.3685H55.4511C55.5586 65.3178 55.644 65.2673 55.7074 65.2166C55.777 65.1659 55.834 65.09 55.8782 64.9888C55.9272 64.887 55.9593 64.778 55.9732 64.6659C55.9922 64.552 56.0017 64.4254 56.0017 64.2861V58.7796C56.0017 58.5454 55.9859 58.3746 55.9541 58.2669C55.9286 58.1525 55.8837 58.0434 55.8214 57.9441C55.7326 57.7986 55.5998 57.6846 55.4225 57.6023H58.3848C59.043 57.6023 59.5873 57.7574 60.0177 58.0675C60.5051 58.4156 60.7488 58.9094 60.7488 59.5487C60.7488 59.96 60.5779 60.3683 60.2361 60.7733C59.8942 61.1721 59.4733 61.4379 58.9734 61.5708L58.8594 61.5994L60.7582 64.0013C60.8849 64.1532 61.0557 64.3242 61.2709 64.514C61.4481 64.6659 61.6128 64.7894 61.7647 64.8843C61.9166 64.973 62.0779 65.0647 62.2488 65.1596C62.388 65.2356 62.5494 65.3052 62.733 65.3685ZM69.1707 65.3685H66.7971C66.8793 65.3241 66.9427 65.2894 66.987 65.2641C67.0882 65.2008 67.161 65.1217 67.2054 65.0267C67.2559 64.9255 67.294 64.8146 67.3192 64.6945C67.351 64.5678 67.3668 64.4286 67.3668 64.2767V58.789V58.6657C67.3668 58.4884 67.3573 58.3523 67.3384 58.2574C67.3192 58.1625 67.2687 58.0485 67.1863 57.9156C67.104 57.7828 66.9744 57.6782 66.7971 57.6023H69.1611C69.0599 57.6467 68.9776 57.694 68.9143 57.7447C68.8463 57.8008 68.7885 57.8683 68.7435 57.9441C68.6991 58.0264 68.6612 58.1594 68.6295 58.3428C68.5979 58.5201 68.5819 58.6815 68.5819 58.8271V64.3051C68.5819 64.4571 68.5916 64.5836 68.6105 64.685C68.6295 64.7799 68.6738 64.897 68.7435 65.0361C68.7877 65.1186 68.8415 65.1849 68.9048 65.2356C68.9745 65.2799 69.063 65.3241 69.1707 65.3685ZM78.8391 63.1184C78.8391 63.8843 78.4941 64.495 77.8041 64.9507C77.1776 65.3622 76.4212 65.5679 75.535 65.5679C75.2819 65.5679 75.054 65.5585 74.8515 65.5394C74.643 65.5182 74.4367 65.4801 74.2344 65.4255L73.5223 65.245L73.209 63.7545L73.3704 63.8685C74.1616 64.4254 74.9211 64.7039 75.649 64.7039C76.1932 64.7039 76.63 64.5996 76.9592 64.3907C77.2946 64.1755 77.4624 63.9064 77.4624 63.5837C77.4624 63.1785 77.3105 62.8495 77.0067 62.5962C76.7092 62.3368 76.1047 62.0107 75.1933 61.6184C74.535 61.3335 74.0602 60.9917 73.7691 60.593C73.5349 60.2701 73.4179 59.9061 73.4179 59.5011C73.4179 58.7796 73.7026 58.2416 74.2723 57.8871C74.7724 57.577 75.4624 57.422 76.3421 57.422C76.6712 57.422 76.9655 57.4409 77.2251 57.4788C77.4845 57.5106 77.7567 57.5707 78.0416 57.6593L78.1649 57.6972V59.0264L78.0225 58.8936C77.8073 58.6973 77.532 58.5359 77.1965 58.4093C76.8757 58.2842 76.5344 58.2198 76.1901 58.2194C75.804 58.2194 75.4718 58.3112 75.1933 58.4947C74.9148 58.672 74.7755 58.9125 74.7755 59.2163C74.7755 59.6215 74.9528 59.9631 75.3071 60.2417C75.5604 60.4442 76.0287 60.6942 76.7124 60.9917C77.4022 61.2828 77.9181 61.5898 78.2599 61.9127C78.646 62.2798 78.8391 62.6816 78.8391 63.1184ZM31.2081 75.0959C31.2081 75.7352 30.9296 76.2921 30.3725 76.7669C29.7776 77.2733 29.0307 77.5264 28.132 77.5264H25.1224C25.2172 77.4884 25.29 77.4505 25.3407 77.4124C25.3977 77.3745 25.4514 77.3207 25.5021 77.251C25.578 77.1435 25.6287 77.0358 25.654 76.9283C25.6792 76.8206 25.692 76.691 25.692 76.5391V71.0039V70.871V70.7571C25.692 70.5989 25.6792 70.4691 25.654 70.3678C25.6367 70.2642 25.5943 70.1664 25.5305 70.0829C25.4737 69.9944 25.4104 69.9279 25.3407 69.8837C25.2597 69.8338 25.1738 69.7924 25.0843 69.7602H28.113C28.7902 69.7602 29.3505 69.9153 29.7935 70.2254C30.2366 70.5356 30.4581 70.9154 30.4581 71.3647C30.4581 71.8458 30.363 72.2001 30.1732 72.428C30.0782 72.542 29.8472 72.7034 29.4801 72.9123L29.3473 72.9882L29.4896 73.0452C30.0719 73.2794 30.4865 73.523 30.7333 73.7762C31.0499 74.1053 31.2081 74.5452 31.2081 75.0959ZM29.1574 71.545C29.094 71.1464 28.92 70.8552 28.6352 70.6716C28.4137 70.5261 28.1351 70.4534 27.7996 70.4534C27.5591 70.4534 27.3694 70.4849 27.2301 70.5482L26.9167 70.6812V72.8744L27.382 72.8838C27.8187 72.8838 28.2079 72.7951 28.5498 72.6179C28.9674 72.4027 29.1763 72.1052 29.1763 71.7255C29.1763 71.6938 29.17 71.6338 29.1574 71.545ZM29.8789 75.1433C29.8789 74.6371 29.67 74.2446 29.2522 73.966C28.8851 73.7192 28.4358 73.5958 27.9041 73.5958C27.7649 73.5958 27.6225 73.6054 27.4769 73.6244L26.9261 73.7098V76.52L27.1161 76.6054C27.4199 76.7447 27.7586 76.8143 28.132 76.8143C28.6194 76.8143 29.0212 76.6847 29.3377 76.4251C29.6985 76.1276 29.8789 75.7004 29.8789 75.1433ZM43.4364 77.5264H40.873C41.0059 77.5138 41.1484 77.4252 41.3002 77.2605C41.3509 77.2037 41.3762 77.134 41.3762 77.0518C41.3762 76.9757 41.3541 76.8776 41.3097 76.7575L40.4554 74.6211H37.5217L36.8096 76.558C36.7593 76.6949 36.7336 76.8395 36.7336 76.9853C36.7336 77.1372 36.7685 77.2479 36.838 77.3175C36.9583 77.4315 37.0818 77.5011 37.2084 77.5264H34.9393C35.0243 77.4874 35.1068 77.443 35.1861 77.3935C35.2557 77.3428 35.3254 77.2859 35.395 77.2226C35.4961 77.1214 35.5824 77.0063 35.6512 76.8808C35.6956 76.7985 35.7558 76.6656 35.8317 76.4821L38.1957 70.5861C38.221 70.5228 38.2401 70.4691 38.2527 70.4248C38.2654 70.3741 38.2717 70.3204 38.2717 70.2634C38.2717 70.219 38.2622 70.1622 38.2432 70.0926C38.1862 69.9089 38.0533 69.7982 37.8444 69.7602H39.7622L42.3447 76.1308C42.3889 76.2574 42.4396 76.387 42.4966 76.52C42.5535 76.6466 42.6294 76.7764 42.7245 76.9094C42.8175 77.0332 42.9224 77.1477 43.0377 77.251C43.1452 77.3461 43.2782 77.4378 43.4364 77.5264ZM40.18 73.7857L39.0217 70.8426L37.8444 73.7857H40.18ZM55.2157 69.7602C54.9626 69.8614 54.7789 70.0198 54.6651 70.235C54.6173 70.319 54.579 70.4082 54.5511 70.5007C54.5258 70.5956 54.5132 70.7128 54.5132 70.852V71.0229L54.5227 77.9156C54.339 77.8588 54.1808 77.7955 54.0479 77.7258C53.9151 77.6625 53.7664 77.5676 53.6017 77.441C53.4933 77.3643 53.3917 77.2785 53.2979 77.1846C53.2537 77.1404 53.1176 76.9725 52.8897 76.6814L48.7312 71.4312L48.7407 76.2827V76.4061C48.7407 76.558 48.7565 76.6973 48.7882 76.8238C48.8261 76.9504 48.9084 77.0991 49.035 77.2701C49.0668 77.308 49.1299 77.3587 49.225 77.422C49.3199 77.4789 49.3895 77.5138 49.4339 77.5264H47.1648C47.2545 77.4909 47.3404 77.4464 47.421 77.3935C47.535 77.3175 47.6236 77.2289 47.6869 77.1277C47.7574 77.0178 47.8057 76.8953 47.8293 76.7669C47.8609 76.6277 47.8767 76.5074 47.8767 76.4061V70.9564C47.8767 70.8045 47.8672 70.6684 47.8483 70.5482C47.8357 70.4279 47.8008 70.3236 47.7438 70.235C47.6552 70.1084 47.5729 70.0135 47.497 69.9501C47.4274 69.8805 47.323 69.8172 47.1837 69.7602H49.0731C49.0857 69.8551 49.0984 69.9152 49.111 69.9407C49.149 70.0101 49.1743 70.0545 49.1869 70.0735C49.2313 70.1431 49.285 70.2222 49.3483 70.3109L53.6302 75.713V71.0039C53.6302 70.8014 53.6176 70.64 53.5922 70.5197C53.5732 70.3995 53.5194 70.2697 53.4308 70.1305C53.3828 70.0512 53.3219 69.9806 53.2505 69.9216C53.1809 69.8646 53.0921 69.8109 52.9846 69.7602H55.2157ZM61.2927 77.5264H58.9477C59.0489 77.4694 59.128 77.4156 59.185 77.365C59.2483 77.3144 59.2988 77.2447 59.3369 77.1561C59.3811 77.0676 59.416 76.9567 59.4412 76.8238C59.473 76.691 59.4888 76.5454 59.4888 76.387V70.9375V70.814C59.4888 70.6368 59.4793 70.5007 59.4604 70.4058C59.4412 70.3109 59.3939 70.2032 59.3179 70.0829C59.2672 70.0007 59.2134 69.9374 59.1564 69.8931C59.1059 69.8488 59.0299 69.8046 58.9286 69.7602H61.2927C61.1914 69.7982 61.1091 69.8425 61.0458 69.8931C60.9825 69.9374 60.9225 70.0038 60.8655 70.0926C60.7895 70.2064 60.742 70.3141 60.723 70.4153C60.7104 70.5165 60.7041 70.6621 60.7041 70.852V76.2921C60.7041 76.4947 60.7104 76.6592 60.723 76.7859C60.742 76.9062 60.7895 77.0421 60.8655 77.194C60.9097 77.2701 60.9667 77.3365 61.0363 77.3935C61.1169 77.4465 61.2029 77.4911 61.2927 77.5264ZM65.9542 77.5264H65.7264C65.6441 77.5264 65.5396 77.5296 65.4131 77.5359C65.103 77.5359 64.815 77.5264 64.5491 77.5075C64.2832 77.482 64.0966 77.441 63.9889 77.384C63.8307 77.308 63.7421 77.2637 63.7232 77.251C63.6029 77.1814 63.4699 77.0453 63.3244 76.8429L60.8464 73.5104L62.8781 70.8331C62.9162 70.7761 62.9541 70.697 62.9921 70.5956C63.03 70.4944 63.0491 70.3995 63.0491 70.3109C63.0491 70.2159 63.0332 70.1399 63.0016 70.0829C62.932 69.9247 62.8054 69.8172 62.6219 69.7602H64.8624L62.0997 73.2636L64.5302 76.463C64.6061 76.5644 64.6821 76.6561 64.758 76.7384C64.8548 76.8261 64.9562 76.9085 65.0618 76.9853C65.2834 77.1498 65.4416 77.2605 65.5365 77.3175C65.6315 77.3745 65.7708 77.4441 65.9542 77.5264Z" fill="white"/>
<path d="M47.7895 12.6316L32.8684 28.0263H40.2105L55.2895 12.6316H47.7895ZM48.6579 21.4737L33.7368 36.8684H41.0789L56.1579 21.4737H48.6579ZM50.5526 29.2105L35.6316 44.6053H42.9737L58.0526 29.2105H50.5526Z" fill="#F2A809"/>
</svg>
