<svg width="17" height="22" viewBox="0 0 17 22" fill="none" xmlns="http://www.w3.org/2000/svg">
<g clip-path="url(#clip0_814_23719)">
<path d="M8.1297 21.9971C6.09035 21.9971 4.051 21.9927 2.01165 21.9985C0.98396 22.0015 0.459181 21.6649 0.225946 20.6625C0.0685128 19.985 0 19.2726 0 18.5747C0 16.2698 0.056851 13.9649 0.0743436 11.66C0.0830899 10.3925 0.526236 9.40755 1.70262 8.79563C1.87463 8.7053 1.99124 8.3396 1.98687 8.10358C1.93439 5.16781 3.08745 2.81483 5.44166 1.0898C7.7536 -0.604636 10.6676 -0.294305 12.6224 1.80954C14.0087 3.30146 14.6909 5.12411 14.9795 7.10993C15.0626 7.67669 15.0757 8.20556 15.7681 8.49841C16.0801 8.63099 16.3148 9.16278 16.4095 9.5547C16.9795 11.8975 16.8541 14.2752 16.653 16.6486C16.5451 17.9278 16.4606 19.2128 16.2871 20.4833C16.1471 21.5119 15.7944 21.8528 14.7521 21.8762C12.5451 21.9272 10.3367 21.8922 8.1297 21.8922C8.1297 21.9286 8.1297 21.9621 8.1297 21.9971ZM8.59908 20.766C10.9285 20.766 12.5291 20.7762 14.1297 20.7616C15.0786 20.7528 15.2623 20.5693 15.3527 19.6237C15.4066 19.0686 15.4737 18.5135 15.4839 17.957C15.5291 15.5879 15.6399 13.2146 15.5553 10.8499C15.5087 9.54305 14.6807 9.02146 13.36 9.11616C13.0699 9.13656 12.7754 9.1555 12.4941 9.22397C9.78858 9.88543 7.05098 9.7106 4.31339 9.55762C3.92709 9.53576 3.53497 9.50954 3.15304 9.55762C1.68658 9.74119 1.1239 10.4026 1.1341 11.8785C1.13994 12.897 1.14868 13.9139 1.14722 14.9323C1.14431 16.5087 1.09912 18.0852 1.13994 19.6587C1.17201 20.8767 1.51748 21.1419 2.71719 21.0777C4.9198 20.9612 7.12095 20.8446 8.59908 20.766ZM4.78423 8.43285C4.82796 8.13417 4.85712 7.87046 4.90522 7.61113C5.1647 6.18768 5.56848 4.82397 6.57723 3.72543C7.20259 3.04503 7.9606 2.79298 8.88042 3.02901C10.2186 3.37139 11.1924 4.16397 11.7171 5.42278C12.0568 6.23722 12.2507 7.11285 12.5335 8.04384C12.9314 8.01762 13.4183 7.98556 13.9037 7.95351C13.755 5.93126 12.8702 3.61033 11.8119 2.37338C10.7784 1.16411 9.49704 0.772185 7.95623 1.15099C5.02913 1.87073 2.99561 4.59815 2.965 8.43285C3.53934 8.43285 4.11514 8.43285 4.78423 8.43285ZM11.3498 8.39497C11.118 6.62185 10.7755 5.15179 9.44602 4.1392C8.63115 3.51854 7.87605 3.52291 7.1676 4.24702C6.03641 5.40384 5.62096 6.86808 5.4198 8.39642C7.42562 8.39497 9.34689 8.39497 11.3498 8.39497Z" fill="#5CC758"/>
<path d="M8.73914 14.8522C9.09045 15.4612 9.44613 16.0119 9.73476 16.5947C10.0642 17.2576 9.89948 17.5359 9.15896 17.6087C8.62835 17.6612 8.09191 17.683 7.55839 17.6685C6.73915 17.6452 6.4928 17.2474 6.77997 16.4592C6.90387 16.1183 7.10504 15.7948 7.17501 15.4452C7.24935 15.0751 7.27996 14.6657 7.19979 14.3015C7.07734 13.7464 6.96364 13.216 7.54673 12.8882C8.07734 12.5881 8.67354 12.6172 9.08608 13.0703C9.52194 13.5482 9.41261 14.0989 8.97675 14.5724C8.91261 14.6424 8.85284 14.7181 8.73914 14.8522Z" fill="#5CC758"/>
</g>
<defs>
<clipPath id="clip0_814_23719">
<rect width="16.8235" height="22" fill="white"/>
</clipPath>
</defs>
</svg>
