<svg width="34" height="44" viewBox="0 0 34 44" fill="none" xmlns="http://www.w3.org/2000/svg">
<g clip-path="url(#clip0_284_21744)">
<path d="M16.2594 43.9942C12.1807 43.9942 8.102 43.9855 4.0233 43.9971C1.96792 44.0029 0.918363 43.3298 0.451893 41.3251C0.137026 39.9701 0 38.5452 0 37.1494C0 32.5396 0.113702 27.9298 0.148687 23.32C0.16618 20.7849 1.05247 18.8151 3.40523 17.5913C3.74925 17.4106 3.98249 16.6792 3.97374 16.2072C3.86878 10.3357 6.1749 5.6297 10.8833 2.17963C15.5072 -1.20924 21.3352 -0.588579 25.2448 3.6191C28.0173 6.60294 29.3818 10.2482 29.959 14.2199C30.1252 15.3534 30.1514 16.4112 31.5363 16.9969C32.1602 17.262 32.6296 18.3256 32.8191 19.1094C33.959 23.795 33.7083 28.5505 33.306 33.2972C33.0902 35.8557 32.9211 38.4257 32.5742 40.9667C32.2943 43.0239 31.5888 43.7057 29.5042 43.7523C25.0903 43.8543 20.6734 43.7844 16.2594 43.7844C16.2594 43.8572 16.2594 43.9243 16.2594 43.9942ZM17.1982 41.532C21.857 41.532 25.0582 41.5523 28.2593 41.5232C30.1573 41.5057 30.5246 41.1386 30.7054 39.2474C30.8133 38.1372 30.9474 37.0271 30.9678 35.9139C31.0581 31.1759 31.2797 26.4292 31.1106 21.6999C31.0173 19.0861 29.3614 18.0429 26.72 18.2323C26.1398 18.2731 25.5509 18.311 24.9882 18.448C19.5772 19.7709 14.102 19.4212 8.62678 19.1153C7.85419 19.0716 7.06993 19.0191 6.30609 19.1153C3.37316 19.4824 2.2478 20.8053 2.26821 23.7571C2.27987 25.7939 2.29736 27.8278 2.29445 29.8647C2.28862 33.0175 2.19824 36.1704 2.27987 39.3174C2.34401 41.7534 3.03497 42.2837 5.43437 42.1555C9.8396 41.9224 14.2419 41.6893 17.1982 41.532ZM9.56846 16.8657C9.65593 16.2684 9.71424 15.741 9.81045 15.2223C10.3294 12.3754 11.137 9.64798 13.1545 7.45089C14.4052 6.0901 15.9212 5.58599 17.7608 6.05804C20.4372 6.74281 22.3847 8.32798 23.4343 10.8456C24.1136 12.4745 24.5013 14.2257 25.0669 16.0877C25.8628 16.0353 26.8366 15.9712 27.8074 15.9071C27.5101 11.8625 25.7404 7.22069 23.6238 4.74679C21.5567 2.32824 18.9941 1.5444 15.9125 2.30202C10.0583 3.74149 5.99122 9.19632 5.93 16.8657C7.07868 16.8657 8.23028 16.8657 9.56846 16.8657ZM22.6996 16.79C22.236 13.2437 21.5509 10.3036 18.892 8.27844C17.2623 7.03712 15.7521 7.04586 14.3352 8.49407C12.0728 10.8077 11.2419 13.7362 10.8396 16.7929C14.8512 16.79 18.6938 16.79 22.6996 16.79Z" fill="#033401"/>
<path d="M17.478 29.7044C18.1807 30.9224 18.892 32.0239 19.4693 33.1894C20.1282 34.5152 19.7987 35.0718 18.3177 35.2175C17.2565 35.3224 16.1836 35.3661 15.1165 35.337C13.4781 35.2903 12.9853 34.4948 13.5597 32.9184C13.8075 32.2366 14.2098 31.5897 14.3498 30.8903C14.4985 30.1502 14.5597 29.3314 14.3993 28.6029C14.1544 27.4927 13.927 26.4321 15.0932 25.7764C16.1544 25.1762 17.3468 25.2344 18.1719 26.1407C19.0436 27.0964 18.825 28.1979 17.9533 29.1449C17.825 29.2848 17.7054 29.4363 17.478 29.7044Z" fill="#033401"/>
</g>
<defs>
<clipPath id="clip0_284_21744">
<rect width="33.6471" height="44" fill="white"/>
</clipPath>
</defs>
</svg>
