<svg width="61" height="60" viewBox="0 0 61 60" fill="none" xmlns="http://www.w3.org/2000/svg">
<g clip-path="url(#clip0_1444_2040)">
<path d="M44.9022 19.86C44.9358 27.4134 38.8056 33.8484 30.9126 33.8586C23.2122 33.8676 16.8918 27.66 16.8978 19.8456C16.9038 11.9292 23.3502 5.82905 30.9258 5.84525C38.682 5.86145 44.94 12.1932 44.9022 19.86ZM31.4532 14.3298C31.4286 16.5894 33.3228 18.4206 35.5428 18.42C37.665 18.42 39.6288 16.7064 39.6336 14.3238C39.6384 11.919 37.674 10.2174 35.5632 10.2132C33.3816 10.209 31.4274 12.027 31.4532 14.3298Z" fill="#DB353A"/>
<path d="M58.026 47.2697C57.9798 47.2541 57.966 47.2643 57.9516 47.2883C57.6078 47.8715 57.0684 48.1883 56.4306 48.3131C55.302 48.5369 54.2508 48.3203 53.322 47.6291C52.5564 47.0591 52.1268 46.2725 52.002 45.3353C51.8637 44.3875 52.0125 43.4199 52.4292 42.5573C53.037 41.2973 54.045 40.5383 55.404 40.2443C55.9547 40.1177 56.5235 40.0892 57.084 40.1603C58.4826 40.3517 59.4342 41.1077 59.9508 42.4127C60.1316 42.8542 60.2253 43.3265 60.2268 43.8035C60.2166 45.2081 60.2766 46.6109 60.3012 48.0149C60.3129 48.5691 60.2184 49.1205 60.0228 49.6391C59.5728 50.8295 58.7442 51.6407 57.5388 52.0427C56.5679 52.3703 55.5207 52.3975 54.534 52.1207C54.1696 52.0252 53.8254 51.8644 53.5182 51.6461C52.9992 51.2729 52.707 50.7839 52.7382 50.1257C52.749 49.8941 52.7382 49.6613 52.7412 49.4291C52.7412 49.3835 52.7514 49.3355 52.7982 49.3205C52.8203 49.3158 52.8433 49.3174 52.8646 49.3251C52.8858 49.3329 52.9044 49.3465 52.9182 49.3643C53.128 49.5619 53.3686 49.724 53.6304 49.8443C53.9916 50.012 54.3739 50.1297 54.7668 50.1941C55.1675 50.2614 55.5744 50.2839 55.98 50.2613C56.3121 50.2506 56.6399 50.1828 56.949 50.0609C57.5394 49.8209 57.8922 49.3811 58.0158 48.7625C58.0821 48.447 58.0979 48.123 58.0626 47.8025C58.0434 47.6243 58.038 47.4413 58.026 47.2697ZM57.9834 44.2697C57.9834 43.7261 57.9234 43.3877 57.774 43.0565C57.4788 42.3923 56.913 42.0857 56.2056 42.1217C55.4982 42.1577 54.9456 42.5093 54.6 43.1351C54.4098 43.467 54.296 43.8371 54.2667 44.2186C54.2374 44.6 54.2935 44.9831 54.4308 45.3401C54.717 46.1201 55.4508 46.6649 56.505 46.4453C57.165 46.3073 57.585 45.8777 57.8208 45.2591C57.9361 44.943 57.9913 44.608 57.9834 44.2715V44.2697Z" fill="#686767"/>
<path d="M9.22443 40.8192C9.14163 40.812 9.10443 40.7502 9.05823 40.7064C8.44983 40.1448 7.71963 39.8664 6.90843 39.7668C6.42518 39.7074 5.93643 39.7085 5.45343 39.7698C5.12252 39.8011 4.79975 39.8907 4.50003 40.0344C4.00863 40.2864 3.76983 40.686 3.78603 41.2416C3.78766 41.3691 3.81688 41.4947 3.87166 41.6099C3.92645 41.7251 4.00552 41.827 4.10343 41.9088C4.25595 42.0371 4.42711 42.1415 4.61103 42.2184C5.02842 42.3947 5.46101 42.5327 5.90343 42.6306C6.27903 42.7206 6.65823 42.7986 7.03083 42.9012C7.53466 43.0346 8.01015 43.2582 8.43423 43.5612C9.04383 44.004 9.45423 44.5878 9.54423 45.339C9.74643 47.001 9.08463 48.5964 7.25643 49.2648C6.43323 49.5648 5.57643 49.6368 4.70763 49.5684C4.27694 49.5441 3.85081 49.4676 3.43863 49.3404C3.15381 49.2517 2.88278 49.1237 2.63343 48.96C2.06163 48.5712 1.76403 48.0318 1.74963 47.34C1.74303 47.0304 1.74963 46.7208 1.74963 46.4112C1.74963 46.3422 1.80603 46.3128 1.85943 46.3512C1.93023 46.404 1.99683 46.4628 2.06643 46.5168C3.12363 47.3376 4.31823 47.6568 5.64423 47.502C5.93097 47.4758 6.21246 47.4085 6.48003 47.3022C6.77523 47.1774 7.01643 46.9902 7.15143 46.6926C7.31403 46.3326 7.31763 45.9624 7.22763 45.5892C7.18203 45.4008 7.04763 45.2622 6.89523 45.1464C6.72422 45.0237 6.53678 44.9257 6.33843 44.8554C5.83011 44.6712 5.30863 44.5256 4.77843 44.4198C4.37749 44.3398 3.98301 44.2303 3.59823 44.0922C3.17065 43.9392 2.77233 43.7144 2.42043 43.4273C1.73163 42.8477 1.44003 42.0966 1.51083 41.22C1.63923 39.6774 2.49663 38.6598 3.88503 38.0568C4.37408 37.8469 4.89814 37.7307 5.43003 37.7142C6.07203 37.6896 6.71223 37.701 7.34163 37.854C7.6873 37.9313 8.01899 38.0614 8.32503 38.2398C8.64426 38.4213 8.90522 38.69 9.07743 39.0144C9.17553 39.1887 9.23315 39.3829 9.24603 39.5826C9.25623 39.969 9.25923 40.356 9.26223 40.743C9.26223 40.767 9.24003 40.7946 9.22443 40.8192Z" fill="#686767"/>
<path d="M20.6886 45.8238C20.28 45.8238 19.8708 45.8238 19.4616 45.8238C19.3368 45.8238 19.3038 45.867 19.3302 45.9876C19.3954 46.2916 19.5343 46.5749 19.7346 46.8126C20.0982 47.2452 20.571 47.4888 21.1146 47.6106C21.5634 47.7114 22.0146 47.694 22.4682 47.6562C22.8101 47.6287 23.1476 47.5623 23.4744 47.4582C23.8662 47.3371 24.2305 47.1404 24.5466 46.8792C24.615 46.8192 24.6828 46.8516 24.6828 46.9362C24.6828 47.2566 24.702 47.5764 24.6492 47.8962C24.6162 48.121 24.5367 48.3365 24.4157 48.5289C24.2948 48.7213 24.135 48.8863 23.9466 49.0134C23.6253 49.2316 23.2612 49.3791 22.8786 49.446C22.2036 49.578 21.5244 49.6338 20.835 49.5432C19.1868 49.3278 17.6238 48.1386 17.1348 46.3158C16.9831 45.7491 16.9312 45.1603 16.9812 44.5758C17.0148 44.0572 17.1138 43.545 17.2758 43.0512C17.604 42.102 18.159 41.3238 19.0158 40.7802C19.5864 40.4202 20.2128 40.2276 20.883 40.152C21.5768 40.0636 22.2816 40.1641 22.923 40.443C23.9946 40.9158 24.681 41.7204 24.9336 42.8724C25.0285 43.2716 25.0422 43.6858 24.9738 44.0904C24.8856 44.5704 24.6492 44.9532 24.237 45.222C23.9358 45.4088 23.6042 45.5414 23.2572 45.6138C22.7284 45.7324 22.1892 45.7983 21.6474 45.8106C21.327 45.8202 21.0066 45.8106 20.6874 45.8106L20.6886 45.8238ZM20.4198 44.229C20.8674 44.2242 21.3528 44.229 21.8352 44.16C22.0653 44.1334 22.2907 44.0759 22.5054 43.989C22.6252 43.943 22.7277 43.8609 22.7988 43.754C22.8699 43.6472 22.9059 43.5209 22.902 43.3926C22.9092 42.8796 22.7052 42.4278 22.182 42.1926C21.7145 41.9823 21.1886 41.9399 20.6934 42.0726C20.0964 42.2274 19.7058 42.6294 19.4634 43.185C19.3464 43.452 19.3128 43.737 19.2876 44.025C19.272 44.1984 19.2906 44.2236 19.4562 44.2254C19.7646 44.2314 20.0736 44.229 20.4198 44.229Z" fill="#686767"/>
<path d="M50.5656 46.4088C50.5656 47.2488 50.5656 48.0888 50.5656 48.9288C50.5656 48.9954 50.5656 49.062 50.5656 49.128C50.5602 49.3782 50.556 49.3836 50.301 49.386C50.0358 49.386 49.77 49.3956 49.509 49.3338C48.9378 49.1988 48.5352 48.8778 48.3648 48.3012C48.3138 48.129 48.3204 47.9508 48.3204 47.7738C48.3204 46.6566 48.3204 45.5396 48.3204 44.4228C48.3245 44.0795 48.287 43.737 48.2088 43.4028C48.1646 43.2199 48.0947 43.0441 48.0012 42.8808C47.8377 42.5877 47.5736 42.3638 47.2578 42.2502C46.8724 42.1024 46.4506 42.0779 46.0506 42.18C45.7034 42.266 45.4018 42.4804 45.2064 42.78C45.0344 43.0388 44.9246 43.3339 44.8854 43.6422C44.8521 43.8832 44.8353 44.1261 44.835 44.3694C44.8378 45.9182 44.8378 47.4666 44.835 49.0146C44.835 49.4202 44.8614 49.386 44.4546 49.386C44.2337 49.3944 44.0125 49.3799 43.7946 49.3428C43.1112 49.2036 42.6816 48.7428 42.6084 48.0552C42.5965 47.9341 42.5909 47.8126 42.5916 47.691C42.5916 46.507 42.5916 45.3236 42.5916 44.1408C42.5916 43.6608 42.6366 43.1904 42.7866 42.7338C43.1754 41.5512 43.9512 40.7424 45.1398 40.3566C46.0332 40.0668 46.9398 40.0254 47.8506 40.287C49.2804 40.6992 50.1306 41.658 50.4582 43.0968C50.5344 43.4662 50.5702 43.8428 50.565 44.22C50.5686 44.9484 50.5656 45.6786 50.5656 46.4088Z" fill="#676767"/>
<path d="M11.0952 43.416C11.0952 42.4974 11.0952 41.5794 11.0952 40.6614C11.0913 40.4845 11.1009 40.3076 11.124 40.1322C11.2386 39.3948 11.6742 38.8686 12.264 38.4558C12.5532 38.2542 12.8892 38.2584 13.224 38.2854C13.2522 38.2871 13.2785 38.2998 13.2973 38.3209C13.316 38.3419 13.3257 38.3695 13.3242 38.3976C13.3284 38.475 13.3284 38.5524 13.3284 38.6298C13.3284 39.072 13.3284 39.5148 13.3284 39.957C13.3284 40.0344 13.3284 40.1118 13.3284 40.1892C13.3263 40.2058 13.3278 40.2227 13.333 40.2386C13.3381 40.2545 13.3467 40.2691 13.3582 40.2813C13.3697 40.2935 13.3838 40.3029 13.3994 40.309C13.415 40.3151 13.4317 40.3176 13.4484 40.3164C13.5372 40.3164 13.6254 40.32 13.7136 40.32H16.0368C16.1034 40.32 16.1694 40.32 16.236 40.32C16.4514 40.3248 16.4562 40.3284 16.4598 40.5474C16.4598 40.7358 16.4598 40.9236 16.4598 41.1114C16.4556 41.751 16.0686 42.2016 15.435 42.2934C15.2705 42.3147 15.1047 42.3249 14.9388 42.324C14.5296 42.3282 14.1204 42.324 13.7112 42.324C13.6338 42.324 13.5564 42.324 13.479 42.324C13.3716 42.33 13.3368 42.3618 13.3302 42.4596C13.3254 42.5256 13.3266 42.5922 13.3266 42.6588C13.3266 43.7092 13.3266 44.76 13.3266 45.8112C13.3181 46.0657 13.345 46.3201 13.4064 46.5672C13.5612 47.1072 13.893 47.4072 14.4726 47.46C15.0924 47.5128 15.711 47.4804 16.2912 47.2068C16.4142 47.1468 16.4562 47.175 16.458 47.304C16.458 47.544 16.467 47.7912 16.458 48.0336C16.4298 48.618 16.1484 49.0344 15.6108 49.275C15.4091 49.3667 15.1936 49.4247 14.973 49.4466C14.3526 49.5066 13.7352 49.4826 13.1334 49.299C12.129 48.9936 11.4984 48.3252 11.2308 47.3136C11.1359 46.9493 11.0891 46.5741 11.0916 46.1976C11.0916 45.2688 11.0916 44.3398 11.0916 43.4106L11.0952 43.416Z" fill="#686868"/>
<path d="M32.4666 42.2599C32.4666 40.7119 32.4666 39.1643 32.4666 37.6171C32.4666 37.2991 32.4564 37.3117 32.7762 37.3129C32.9424 37.3129 33.108 37.3129 33.2736 37.3165C33.4619 37.3214 33.6479 37.3584 33.8238 37.4257C34.2768 37.5889 34.548 37.9135 34.6638 38.3761C34.7066 38.5704 34.7255 38.7693 34.7202 38.9683C34.7202 41.3779 34.7202 43.7875 34.7202 46.1971C34.7202 46.3519 34.7202 46.5073 34.7304 46.6609C34.7682 47.1265 35.0106 47.4175 35.457 47.5369C35.6493 47.5885 35.8477 47.6143 36.0468 47.6137C36.2682 47.6137 36.489 47.6137 36.7104 47.6173C36.7842 47.6173 36.8418 47.6461 36.8442 47.7289C36.8526 48.0289 36.8652 48.3289 36.7842 48.6181C36.744 48.7856 36.6619 48.9402 36.5458 49.0675C36.4297 49.1947 36.2832 49.2905 36.12 49.3459C35.9655 49.4033 35.8041 49.4398 35.64 49.4545C35.1433 49.5 34.6425 49.448 34.1658 49.3015C33.2568 49.0135 32.7396 48.3799 32.5458 47.4607C32.4915 47.1782 32.467 46.8908 32.4726 46.6033C32.469 45.1557 32.467 43.7079 32.4666 42.2599Z" fill="#686868"/>
<path d="M28.5936 46.5C28.5936 47.3636 28.5936 48.2266 28.5936 49.089C28.5936 49.389 28.59 49.389 28.305 49.389C28.02 49.389 27.7296 49.395 27.4464 49.329C26.937 49.215 26.556 48.9474 26.394 48.429C26.3422 48.2595 26.3166 48.0831 26.3178 47.9058C26.3178 46.512 26.3112 45.1182 26.322 43.7244C26.317 43.1359 26.4398 42.5533 26.682 42.0168C27.1374 41.0388 27.9036 40.4748 28.962 40.299C29.3984 40.218 29.8462 40.2199 30.282 40.3044C30.4886 40.3444 30.6866 40.4204 30.867 40.5288C31.0697 40.6454 31.2384 40.8129 31.3564 41.0147C31.4744 41.2166 31.5375 41.4458 31.5396 41.6796C31.548 41.9004 31.5438 42.1218 31.5396 42.3432C31.5396 42.504 31.4964 42.5292 31.3326 42.4776C31.2588 42.4548 31.1868 42.4254 31.113 42.402C30.6898 42.2678 30.2421 42.2284 29.802 42.2868C29.2968 42.354 28.9482 42.6264 28.761 43.0998C28.6766 43.3049 28.6275 43.5228 28.6158 43.7442C28.605 43.998 28.596 44.2524 28.5954 44.5068C28.5918 45.171 28.5936 45.8346 28.5936 46.5Z" fill="#686868"/>
<path d="M37.7148 43.8732C37.7148 42.8548 37.7148 41.837 37.7148 40.8198C37.7148 40.5252 37.7148 40.5246 38.001 40.5198C38.2663 40.5086 38.5321 40.5245 38.7942 40.5672C39.3882 40.6872 39.7542 41.0388 39.8976 41.6226C39.9472 41.839 39.9704 42.0607 39.9666 42.2826C39.9638 43.6102 39.9638 44.9378 39.9666 46.2654C39.9666 46.4088 39.963 46.5534 39.9768 46.6962C40.0194 47.1312 40.2132 47.46 40.7406 47.5674C40.9805 47.6069 41.2237 47.6226 41.4666 47.6142C41.7624 47.6142 41.7612 47.6112 41.7594 47.9058C41.768 48.1491 41.7501 48.3925 41.706 48.6318C41.6112 49.0518 41.3658 49.314 40.9428 49.4118C40.803 49.4446 40.6603 49.463 40.5168 49.467C40.1626 49.4785 39.8087 49.4381 39.4662 49.347C38.6262 49.1166 38.0958 48.5718 37.8546 47.7426C37.7575 47.4016 37.7102 47.0484 37.7142 46.6938C37.7142 45.7536 37.7142 44.8134 37.7142 43.8738L37.7148 43.8732Z" fill="#686868"/>
<path d="M37.5156 38.3616C37.5164 38.0159 37.654 37.6845 37.8985 37.44C38.1429 37.1954 38.4742 37.0576 38.82 37.0566C39.5472 37.0566 40.1712 37.6692 40.1484 38.382C40.1437 38.729 40.0034 39.0603 39.7574 39.3051C39.5115 39.5499 39.1795 39.6887 38.8326 39.6918C38.6582 39.6931 38.4853 39.6594 38.3241 39.5928C38.1629 39.5262 38.0166 39.4281 37.8939 39.3041C37.7712 39.1802 37.6745 39.033 37.6095 38.8711C37.5445 38.7092 37.5126 38.536 37.5156 38.3616Z" fill="#686868"/>
<path d="M37.4707 52.5048C37.5355 52.4448 37.5907 52.3932 37.6507 52.3488C38.0341 52.0626 38.6473 52.2168 38.7307 52.7562C38.7469 52.8319 38.7575 52.9087 38.7625 52.986C38.7661 53.3064 38.7625 53.6274 38.7625 53.946C38.7625 54.0126 38.7625 54.087 38.6749 54.1008C38.6363 54.107 38.5967 54.1014 38.5613 54.0848C38.5258 54.0682 38.4962 54.0414 38.4763 54.0078C38.4446 53.9488 38.4314 53.8817 38.4385 53.8152C38.4385 53.5722 38.4385 53.3286 38.4385 53.085C38.4422 52.963 38.4205 52.8417 38.3749 52.7286C38.3083 52.5744 38.1913 52.5102 37.9987 52.5192C37.8187 52.5276 37.6915 52.6122 37.6537 52.7736C37.6285 52.8919 37.6159 53.0126 37.6159 53.1336C37.6105 53.3994 37.6159 53.6646 37.6159 53.9304C37.6159 53.9952 37.6231 54.0702 37.5445 54.099C37.4957 54.1106 37.4443 54.1033 37.4007 54.0785C37.3571 54.0536 37.3246 54.0131 37.3099 53.9652C37.2948 53.8895 37.2876 53.8125 37.2883 53.7354C37.2853 53.5362 37.2883 53.337 37.2853 53.1354C37.2844 53.025 37.2719 52.915 37.2481 52.8072C37.2297 52.7195 37.18 52.6416 37.1083 52.5879C37.0367 52.5343 36.9479 52.5085 36.8587 52.5156C36.6709 52.5192 36.5635 52.6062 36.4987 52.8C36.4671 52.9172 36.4543 53.0387 36.4609 53.16C36.4609 53.4366 36.4609 53.7132 36.4561 53.9898C36.4563 54.0088 36.4516 54.0277 36.4424 54.0444C36.4331 54.0611 36.4197 54.0751 36.4034 54.085C36.3871 54.0949 36.3685 54.1004 36.3495 54.101C36.3304 54.1016 36.3115 54.0971 36.2947 54.0882C36.1699 54.0426 36.1363 53.9424 36.1357 53.8254C36.1357 53.5374 36.1291 53.25 36.1399 52.9626C36.1459 52.8522 36.1713 52.7437 36.2149 52.6422C36.2898 52.4672 36.43 52.3283 36.6056 52.2549C36.7812 52.1816 36.9785 52.1795 37.1557 52.2492C37.2841 52.3062 37.3699 52.4082 37.4707 52.5048Z" fill="#706E6E"/>
<path d="M44.5452 52.8714C44.5614 52.9314 44.616 52.9482 44.658 52.9788C45.018 53.238 44.9034 53.7426 44.6274 53.955C44.5667 54.0028 44.4981 54.0396 44.4246 54.0636C44.1373 54.1484 43.8323 54.154 43.5421 54.0798C43.3525 54.0354 43.2474 53.892 43.2246 53.6964C43.2193 53.6414 43.2173 53.5861 43.2186 53.5308C43.2186 53.0442 43.2186 52.5576 43.2186 52.071C43.2186 51.8094 43.2216 51.807 43.488 51.7554C43.7495 51.7058 44.0175 51.7007 44.2807 51.7404C44.6029 51.7872 44.8615 52.0134 44.8291 52.4088C44.8242 52.5315 44.7724 52.6477 44.6844 52.7334C44.64 52.7784 44.568 52.8 44.5452 52.8714ZM43.5415 53.3514C43.5415 53.4066 43.5415 53.4612 43.5415 53.5164C43.5402 53.5384 43.5402 53.5604 43.5415 53.5824C43.5559 53.7186 43.6086 53.796 43.7316 53.8182C43.9259 53.8622 44.1286 53.8516 44.3172 53.7876C44.4972 53.7186 44.5687 53.5824 44.5507 53.3628C44.5357 53.1828 44.4564 53.082 44.2722 53.0466C44.1425 53.0232 44.011 53.0112 43.8793 53.0106C43.5259 53.0064 43.5397 52.9944 43.5415 53.3526V53.3514ZM43.9122 52.7514C44.0329 52.7455 44.153 52.7329 44.2722 52.7136C44.4234 52.6818 44.5044 52.5636 44.5122 52.3998C44.5182 52.2264 44.4522 52.1172 44.3094 52.059C44.1747 52.012 44.0316 51.9938 43.8894 52.0056C43.5618 52.0158 43.5409 52.0362 43.5415 52.3656C43.5379 52.7688 43.5096 52.74 43.9122 52.7502V52.7514Z" fill="#737070"/>
<path d="M21.8851 52.9764C21.876 53.131 21.8474 53.2839 21.7998 53.4312C21.6336 53.8902 21.2695 54.1512 20.7943 54.1416C20.5716 54.1408 20.3554 54.0668 20.1789 53.9311C20.0024 53.7953 19.8754 53.6054 19.8175 53.3904C19.719 53.0714 19.727 52.7289 19.8403 52.4148C20.0101 51.9318 20.3803 51.6912 20.9137 51.7158C21.3595 51.7362 21.7104 52.0272 21.8322 52.4868C21.8756 52.6462 21.8934 52.8115 21.8851 52.9764ZM20.0707 52.8936C20.0658 53.0372 20.0861 53.1806 20.1307 53.3172C20.2249 53.6562 20.4864 53.8464 20.8398 53.8452C21.1698 53.8452 21.4182 53.6508 21.5148 53.3196C21.5869 53.0646 21.5869 52.7946 21.5148 52.5396C21.4236 52.1928 21.1807 52.0062 20.8165 51.9996C20.4727 51.9996 20.2261 52.1736 20.1265 52.5036C20.0836 52.629 20.0647 52.7613 20.0707 52.8936Z" fill="#706E6E"/>
<path d="M25.7442 53.6886C25.8012 53.8806 25.719 53.9844 25.5792 54.057C25.1142 54.297 24.5136 54.0738 24.3414 53.583C24.2805 53.4215 24.2583 53.2481 24.2764 53.0765C24.2945 52.9049 24.3525 52.7399 24.4458 52.5948C24.5519 52.417 24.7236 52.288 24.9239 52.2356C25.1243 52.1831 25.3372 52.2115 25.5168 52.3146C25.6292 52.3761 25.72 52.4707 25.777 52.5855C25.8339 52.7003 25.8543 52.8298 25.8354 52.9566C25.8305 53.0175 25.8091 53.076 25.7735 53.1257C25.7379 53.1754 25.6893 53.2144 25.6332 53.2386C25.5112 53.2927 25.379 53.3197 25.2456 53.3178C25.0692 53.3178 24.8922 53.3178 24.7152 53.325C24.7016 53.3258 24.6885 53.3298 24.6767 53.3365C24.665 53.3433 24.655 53.3526 24.6474 53.3639C24.6399 53.3752 24.635 53.388 24.6332 53.4014C24.6315 53.4149 24.6328 53.4285 24.6372 53.4414C24.6972 53.6712 24.8874 53.8218 25.1472 53.8422C25.3164 53.8554 25.431 53.8266 25.7442 53.6886ZM25.0572 53.0562C25.11 53.0526 25.2432 53.0508 25.3728 53.031C25.4862 53.0136 25.5336 52.9266 25.5186 52.8114C25.5143 52.7502 25.4918 52.6917 25.4541 52.6434C25.4164 52.5951 25.3651 52.5591 25.3068 52.5402C25.0422 52.4514 24.7236 52.5342 24.63 52.8804C24.5988 52.9956 24.633 53.0508 24.747 53.0556C24.8238 53.0592 24.9 53.0562 25.0572 53.0562Z" fill="#737070"/>
<path d="M40.6722 53.6652C40.6998 53.9244 40.5858 54.0378 40.416 54.0888C39.7878 54.2754 39.3072 53.961 39.201 53.4096C39.1442 53.1352 39.1951 52.8495 39.3432 52.6116C39.5556 52.2648 39.9624 52.119 40.32 52.2624C40.4305 52.3012 40.5285 52.369 40.6038 52.4586C40.6792 52.5482 40.7291 52.6563 40.7484 52.7718C40.7844 52.968 40.7286 53.2116 40.4376 53.2764C40.3518 53.2963 40.2645 53.3093 40.1766 53.3154C40.044 53.3226 39.9108 53.3154 39.7788 53.322C39.705 53.322 39.6078 53.2902 39.5664 53.3664C39.513 53.466 39.5784 53.5572 39.642 53.6346C39.7902 53.8146 39.9882 53.8608 40.209 53.838C40.3741 53.8144 40.5321 53.7555 40.6722 53.6652ZM39.5322 53.0394C39.7714 53.0696 40.0134 53.0683 40.2522 53.0358C40.4238 53.0142 40.4838 52.8774 40.4058 52.719C40.3848 52.6741 40.3546 52.6342 40.3172 52.6018C40.2798 52.5693 40.236 52.5451 40.1886 52.5306C39.84 52.4196 39.5442 52.6428 39.5352 53.04L39.5322 53.0394Z" fill="#737070"/>
<path d="M45.3498 52.6932C45.3048 52.5618 45.3612 52.4628 45.4566 52.377C45.7056 52.1538 46.2186 52.1478 46.4766 52.365C46.5337 52.4094 46.5808 52.4653 46.6149 52.5291C46.649 52.5929 46.6693 52.6631 46.6746 52.7352C46.6872 53.0352 46.692 53.3316 46.6746 53.6286C46.6706 53.7293 46.6358 53.8263 46.5748 53.9065C46.5139 53.9866 46.4297 54.0461 46.3338 54.0768C46.1055 54.1686 45.8503 54.1669 45.6234 54.072C45.4014 53.9796 45.2592 53.8224 45.2634 53.5692C45.2604 53.4576 45.293 53.348 45.3564 53.2561C45.4198 53.1642 45.5108 53.0949 45.6162 53.058C45.7086 53.0225 45.8048 52.9979 45.903 52.9848C46.0008 52.9698 46.101 52.9716 46.203 52.9644C46.3356 52.9548 46.3794 52.8978 46.353 52.7748C46.3437 52.7084 46.3118 52.6472 46.2626 52.6016C46.2134 52.556 46.1499 52.5288 46.083 52.5246C45.8965 52.4911 45.7042 52.52 45.5358 52.6068C45.4758 52.6374 45.4344 52.698 45.3498 52.6932ZM46.1208 53.244C45.9042 53.244 45.8094 53.2644 45.711 53.3316C45.6792 53.3531 45.6526 53.3814 45.633 53.4143C45.6134 53.4473 45.6014 53.4842 45.5977 53.5224C45.594 53.5606 45.5988 53.5991 45.6118 53.6352C45.6247 53.6713 45.6455 53.7041 45.6726 53.7312C45.8172 53.8596 45.9876 53.8716 46.1652 53.8152C46.3308 53.7624 46.3632 53.6268 46.3656 53.4756C46.3656 53.4432 46.3656 53.4102 46.3656 53.3772C46.3596 53.2782 46.3302 53.2506 46.2204 53.2446C46.1868 53.2428 46.1538 53.244 46.1208 53.244Z" fill="#737070"/>
<path d="M49.4766 52.953C49.5966 52.9398 49.6236 52.8738 49.6674 52.8276C49.8036 52.6836 49.938 52.5366 50.0736 52.392C50.1299 52.3258 50.2053 52.2788 50.2895 52.2573C50.3736 52.2358 50.4623 52.2409 50.5434 52.272C50.5434 52.3488 50.4834 52.3716 50.4486 52.4088C50.2872 52.575 50.1204 52.7364 49.9626 52.9056C49.7598 53.1228 49.7598 53.0856 49.9548 53.3352C50.1312 53.5614 50.3064 53.7888 50.5518 53.9484C50.598 53.9784 50.5788 54.0618 50.5254 54.084C50.4706 54.1111 50.4087 54.121 50.3481 54.1123C50.2875 54.1037 50.2309 54.0768 50.1858 54.0354C50.0967 53.9533 50.0129 53.8655 49.935 53.7726C49.8198 53.6388 49.7106 53.4996 49.599 53.3628C49.5905 53.3492 49.5776 53.3389 49.5624 53.3338C49.5472 53.3287 49.5307 53.3289 49.5156 53.3346C49.4724 53.3496 49.4796 53.3874 49.479 53.4174C49.4748 53.616 49.4754 53.8146 49.4694 54.0132C49.468 54.0295 49.4626 54.0453 49.4537 54.0591C49.4448 54.0729 49.4327 54.0843 49.4184 54.0923C49.4041 54.1004 49.388 54.1048 49.3716 54.1052C49.3552 54.1056 49.339 54.1021 49.3242 54.0948C49.292 54.0866 49.2626 54.0699 49.2391 54.0463C49.2157 54.0227 49.199 53.9932 49.191 53.961C49.1777 53.8962 49.1707 53.8303 49.17 53.7642C49.17 53.1134 49.17 52.462 49.17 51.81C49.17 51.7884 49.17 51.7662 49.17 51.744C49.1736 51.6762 49.1778 51.606 49.2672 51.6006C49.306 51.5953 49.3454 51.6034 49.3789 51.6236C49.4124 51.6438 49.438 51.6748 49.4514 51.7116C49.47 51.7748 49.4781 51.8407 49.4754 51.9066C49.4754 52.1496 49.4754 52.3926 49.4754 52.6356L49.4766 52.953Z" fill="#706E6E"/>
<path d="M15.3414 53.178C15.3453 53.3161 15.3221 53.4537 15.273 53.583C15.159 53.9004 14.9466 54.1008 14.5968 54.1332C14.247 54.1656 13.92 54.0102 13.7682 53.7C13.6783 53.5272 13.6346 53.3342 13.6414 53.1395C13.6483 52.9449 13.7054 52.7554 13.8072 52.5894C13.9644 52.3158 14.2272 52.1988 14.5338 52.2114C14.685 52.2113 14.8329 52.2557 14.9591 52.339C15.0853 52.4223 15.1842 52.5409 15.2436 52.68C15.3153 52.8358 15.3488 53.0066 15.3414 53.178ZM15.0144 53.1942C15.0247 53.0452 14.9922 52.8963 14.9208 52.7652C14.7498 52.4556 14.2848 52.4298 14.088 52.7172C13.9158 52.9674 13.9326 53.418 14.1252 53.6508C14.1808 53.7199 14.2537 53.773 14.3366 53.8047C14.4195 53.8363 14.5093 53.8453 14.5968 53.8308C14.7894 53.8062 14.9082 53.6844 14.9712 53.5014C15.0032 53.4022 15.0178 53.2983 15.0144 53.1942Z" fill="#706E6E"/>
<path d="M35.715 53.16C35.7176 53.3119 35.6903 53.4627 35.6346 53.604C35.5206 53.9088 35.3088 54.0978 34.9746 54.1296C34.6404 54.1614 34.3662 54.0456 34.176 53.7624C33.945 53.4168 33.9708 52.8384 34.2264 52.5108C34.5804 52.0572 35.3292 52.1268 35.5968 52.638C35.6756 52.8007 35.716 52.9793 35.715 53.16ZM35.3892 53.2014C35.3956 53.0411 35.3574 52.8822 35.2788 52.7424C35.0988 52.4538 34.6578 52.4352 34.464 52.7088C34.2876 52.9578 34.2996 53.409 34.4904 53.643C34.7142 53.9166 35.1984 53.9256 35.3394 53.5086C35.374 53.4108 35.3908 53.3076 35.3892 53.2038V53.2014Z" fill="#706E6E"/>
<path d="M15.7674 52.851C15.7674 52.6962 15.7674 52.542 15.7674 52.3872C15.7674 52.3272 15.78 52.2732 15.8436 52.257C15.8705 52.25 15.8987 52.2493 15.9259 52.2548C15.9531 52.2603 15.9788 52.2719 16.0008 52.2888C16.0231 52.3051 16.0417 52.3259 16.0553 52.3499C16.069 52.3739 16.0774 52.4005 16.08 52.428C16.0878 52.5048 16.092 52.5816 16.0926 52.659C16.0926 52.8354 16.089 53.0124 16.0956 53.1888C16.0966 53.2989 16.1107 53.4085 16.1376 53.5152C16.1519 53.5718 16.1777 53.6248 16.2134 53.6709C16.249 53.7171 16.2938 53.7554 16.3449 53.7836C16.396 53.8117 16.4523 53.829 16.5104 53.8345C16.5684 53.8399 16.627 53.8334 16.6824 53.8152C16.7423 53.8016 16.7974 53.7722 16.8419 53.7299C16.8865 53.6877 16.9189 53.6343 16.9356 53.5752C16.9688 53.4582 16.9842 53.3368 16.9812 53.2152C16.9812 52.9392 16.9812 52.6632 16.9812 52.3872C16.9812 52.332 16.9812 52.272 17.0526 52.257C17.0794 52.2496 17.1076 52.2486 17.1349 52.2542C17.1621 52.2599 17.1876 52.2719 17.2092 52.2894C17.2417 52.3185 17.2664 52.3552 17.2812 52.3962C17.2982 52.4485 17.3069 52.5032 17.307 52.5582C17.307 52.8234 17.307 53.088 17.307 53.3532C17.3052 53.3973 17.3004 53.4412 17.2926 53.4846C17.2116 54.0114 16.7286 54.2886 16.2318 54.0906C16.1279 54.0511 16.0352 53.9867 15.962 53.903C15.8888 53.8193 15.8372 53.7189 15.8118 53.6106C15.7834 53.4925 15.7667 53.372 15.762 53.2506C15.7536 53.1186 15.762 52.986 15.762 52.8534L15.7674 52.851Z" fill="#737070"/>
<path d="M28.7245 52.215C28.6531 52.215 28.6141 52.1514 28.5589 52.1208C28.4467 52.0545 28.3204 52.0157 28.1903 52.0076C28.0602 51.9995 27.9301 52.0223 27.8105 52.0742C27.6909 52.126 27.5853 52.2055 27.5024 52.306C27.4194 52.4064 27.3614 52.5252 27.3331 52.6524C27.2773 52.8915 27.3037 53.1424 27.4081 53.3646C27.5761 53.748 27.9979 53.9244 28.4059 53.8008C28.4995 53.7675 28.5884 53.7224 28.6705 53.6664C28.679 53.662 28.6885 53.6597 28.6981 53.6597C28.7077 53.6597 28.7171 53.662 28.7257 53.6664C28.7325 53.6747 28.7377 53.6842 28.7408 53.6946C28.7439 53.7049 28.7448 53.7157 28.7437 53.7264C28.7376 53.7872 28.7173 53.8458 28.6844 53.8973C28.6514 53.9488 28.6068 53.9918 28.5541 54.0228C28.4796 54.0707 28.3964 54.1035 28.3093 54.1194C28.0963 54.1635 27.875 54.1418 27.6747 54.0571C27.4744 53.9724 27.3046 53.8288 27.1879 53.6454C26.9107 53.1948 26.8993 52.7256 27.1555 52.26C27.3601 51.8886 27.7693 51.6444 28.3123 51.7254C28.4067 51.735 28.4965 51.771 28.5714 51.8293C28.6463 51.8875 28.7033 51.9657 28.7359 52.0548C28.748 52.0802 28.7533 52.1083 28.7513 52.1364C28.7493 52.1645 28.7401 52.1915 28.7245 52.215Z" fill="#737070"/>
<path d="M48.693 53.4642C48.693 53.6298 48.693 53.7954 48.693 53.961C48.693 54.0276 48.6888 54.0978 48.597 54.105C48.5585 54.1126 48.5186 54.1069 48.4838 54.0888C48.449 54.0707 48.4214 54.0413 48.4056 54.0054C48.3836 53.9432 48.3731 53.8776 48.3744 53.8116C48.3702 53.5908 48.3744 53.37 48.3708 53.1516C48.3707 53.0412 48.3613 52.931 48.3426 52.8222C48.3066 52.6422 48.1842 52.545 47.9934 52.5222C47.7702 52.4988 47.6262 52.5636 47.5434 52.7238C47.4946 52.8233 47.4715 52.9335 47.4762 53.0442C47.4762 53.3094 47.4762 53.5746 47.4762 53.8398C47.4774 53.906 47.4738 53.9722 47.4654 54.0378C47.457 54.0864 47.4132 54.1026 47.3658 54.1038C47.3268 54.106 47.2882 54.0955 47.2557 54.0739C47.2233 54.0522 47.1987 54.0206 47.1858 53.9838C47.167 53.9323 47.1576 53.8779 47.1582 53.823C47.1558 53.547 47.1558 53.271 47.1582 52.995C47.1625 52.8611 47.1999 52.7303 47.2669 52.6143C47.334 52.4983 47.4286 52.4006 47.5424 52.3299C47.6563 52.2592 47.7858 52.2177 47.9195 52.2091C48.0532 52.2005 48.187 52.225 48.309 52.2804C48.4101 52.3267 48.4969 52.3994 48.5603 52.4908C48.6236 52.5823 48.6612 52.6891 48.669 52.8C48.6936 53.0184 48.6936 53.2404 48.7044 53.46L48.693 53.4642Z" fill="#706E6E"/>
<path d="M29.0844 52.8798C29.0844 52.7034 29.0844 52.527 29.0844 52.3506C29.0844 52.2774 29.1486 52.2408 29.2224 52.2552C29.2666 52.2619 29.3072 52.2833 29.3377 52.316C29.3682 52.3487 29.3867 52.3906 29.3904 52.4352C29.3998 52.5226 29.4038 52.6106 29.4024 52.6986C29.4066 52.9302 29.3994 53.1624 29.4144 53.3934C29.427 53.5956 29.526 53.7492 29.7312 53.8134C29.7832 53.8327 29.8387 53.8408 29.894 53.8373C29.9493 53.8338 30.0033 53.8186 30.0524 53.7929C30.1016 53.7672 30.1447 53.7314 30.1791 53.6879C30.2135 53.6444 30.2383 53.5941 30.252 53.5404C30.2749 53.4439 30.2852 53.3449 30.2826 53.2458C30.2868 52.9704 30.2826 52.6944 30.2862 52.4184C30.2862 52.3548 30.2772 52.2798 30.3642 52.2588C30.4074 52.2487 30.4528 52.2541 30.4923 52.274C30.5319 52.294 30.5633 52.3272 30.5808 52.368C30.5952 52.3976 30.6038 52.4298 30.606 52.4628C30.606 52.794 30.6234 53.1228 30.6006 53.4552C30.57 53.8884 30.2892 54.1332 29.8584 54.1422C29.4438 54.1506 29.1384 53.8962 29.0928 53.475C29.08 53.2768 29.0786 53.0781 29.0886 52.8798H29.0844Z" fill="#737070"/>
<path d="M23.8393 53.4276C23.8393 53.6268 23.8429 53.8254 23.8393 54.024C23.8393 54.0918 23.7793 54.1116 23.7193 54.1044C23.6131 54.0918 23.5507 54.0408 23.5351 53.9454C23.5262 53.8798 23.5223 53.8136 23.5237 53.7474C23.5237 53.5488 23.5237 53.3496 23.5237 53.1504C23.5256 53.0731 23.5236 52.9958 23.5177 52.9188C23.4823 52.5822 23.1607 52.4094 22.8577 52.5642C22.8029 52.5915 22.7558 52.632 22.7206 52.6821C22.6854 52.7322 22.6633 52.7902 22.6561 52.851C22.6431 52.9504 22.6375 53.0507 22.6393 53.151C22.6393 53.4162 22.6393 53.6814 22.6393 53.9466C22.6393 54.012 22.6393 54.0852 22.5559 54.1044C22.5124 54.1139 22.4669 54.1077 22.4275 54.087C22.3881 54.0662 22.3573 54.0322 22.3405 53.991C22.3263 53.9494 22.3186 53.9059 22.3177 53.862C22.3177 53.562 22.3069 53.262 22.3177 52.9668C22.3495 52.2606 23.0011 52.0974 23.4319 52.2696C23.6983 52.3758 23.8135 52.5984 23.8375 52.8696C23.8537 53.0556 23.8405 53.2446 23.8405 53.4324L23.8393 53.4276Z" fill="#747373"/>
<path d="M31.08 53.6634C31.2069 53.7329 31.342 53.7865 31.482 53.823C31.6117 53.8533 31.7476 53.8441 31.872 53.7966C31.9141 53.7825 31.9508 53.7556 31.977 53.7197C32.0031 53.6837 32.0174 53.6406 32.0178 53.5962C32.0255 53.5519 32.0177 53.5064 31.9959 53.4673C31.9741 53.4281 31.9394 53.3975 31.8978 53.3808C31.7856 53.337 31.6686 53.3046 31.5534 53.268C31.457 53.2451 31.3623 53.2153 31.2702 53.1786C31.0578 53.0754 30.9846 52.8786 31.059 52.6506C31.0852 52.5658 31.131 52.4885 31.1928 52.425C31.4124 52.2012 31.842 52.1364 32.1162 52.2906C32.1727 52.3247 32.2228 52.3683 32.2644 52.4196C32.3244 52.4892 32.328 52.6056 32.2842 52.6308C32.2242 52.6662 32.181 52.6176 32.1348 52.596C31.9829 52.5272 31.8144 52.5034 31.6494 52.5276C31.5717 52.5358 31.4985 52.5681 31.44 52.62C31.4167 52.6386 31.3983 52.6628 31.3867 52.6904C31.375 52.7179 31.3704 52.748 31.3732 52.7777C31.3761 52.8075 31.3863 52.8361 31.403 52.861C31.4197 52.8858 31.4423 52.9061 31.4688 52.92C31.5391 52.951 31.6118 52.9764 31.686 52.9962C31.8114 53.037 31.941 53.0682 32.0628 53.1162C32.4654 53.28 32.3976 53.781 32.1738 53.9682C31.95 54.1554 31.4862 54.1974 31.236 54.0366C31.1985 54.0133 31.1653 53.9839 31.1376 53.9496C31.1107 53.914 31.0917 53.8731 31.0818 53.8296C31.0763 53.7743 31.0757 53.7187 31.08 53.6634Z" fill="#737070"/>
<path d="M13.4172 51.8808C13.4005 51.9771 13.3646 52.0692 13.3116 52.1514C13.1688 52.4247 13.0034 52.6856 12.8172 52.9314C12.7202 53.0517 12.6724 53.2044 12.6834 53.3586C12.6918 53.5572 12.6834 53.7558 12.6834 53.955C12.6834 54.0216 12.6768 54.093 12.588 54.102C12.5441 54.1096 12.4988 54.1019 12.4599 54.08C12.421 54.0582 12.3908 54.0235 12.3744 53.982C12.3616 53.9285 12.3554 53.8737 12.3558 53.8188C12.3558 53.6532 12.3486 53.4876 12.3558 53.322C12.3612 53.1897 12.3204 53.0598 12.2406 52.9542C12.0243 52.6473 11.8401 52.319 11.691 51.9744C11.6665 51.9251 11.6477 51.8732 11.6352 51.8196C11.6331 51.8088 11.6333 51.7977 11.6361 51.7871C11.6388 51.7764 11.6439 51.7665 11.651 51.7582C11.6581 51.7498 11.667 51.7431 11.6771 51.7387C11.6871 51.7343 11.6981 51.7322 11.709 51.7326C11.7641 51.7235 11.8206 51.7322 11.8704 51.7573C11.9202 51.7824 11.9608 51.8227 11.9862 51.8724C12.0462 51.9786 12.0894 52.092 12.1488 52.1976C12.2508 52.3806 12.3576 52.5612 12.4674 52.7376C12.5136 52.8126 12.5682 52.809 12.621 52.7334C12.7825 52.496 12.9253 52.2464 13.0482 51.987C13.0795 51.9167 13.1144 51.848 13.1526 51.7812C13.1952 51.7146 13.2648 51.7212 13.3326 51.7428C13.3604 51.7527 13.3839 51.7718 13.3993 51.7969C13.4147 51.822 13.421 51.8516 13.4172 51.8808Z" fill="#747373"/>
<path d="M33.105 51.8959C33.1776 52.0003 33.0654 52.1659 33.195 52.2271C33.2868 52.2709 33.411 52.2451 33.5208 52.2499C33.5538 52.2499 33.5868 52.2499 33.6198 52.2499C33.687 52.2499 33.7614 52.2499 33.7638 52.3435C33.7692 52.3829 33.76 52.423 33.7379 52.4562C33.7158 52.4893 33.6823 52.5133 33.6438 52.5235C33.5686 52.5396 33.4924 52.5505 33.4158 52.5559C33.3612 52.5613 33.3054 52.5559 33.2502 52.5631C33.195 52.5703 33.1434 52.5997 33.1428 52.6633C33.1428 52.9633 33.132 53.2597 33.147 53.5567C33.1554 53.7367 33.2736 53.8303 33.4548 53.8363C33.5096 53.8341 33.5643 53.8287 33.6186 53.8201C33.7128 53.8117 33.7572 53.8681 33.7332 53.9557C33.7236 53.9932 33.7044 54.0277 33.6775 54.0556C33.6506 54.0835 33.6168 54.1038 33.5796 54.1147C33.2268 54.2347 32.8974 54.0475 32.826 53.6851C32.8159 53.6308 32.8109 53.5758 32.811 53.5207C32.811 53.1235 32.811 52.7263 32.811 52.3285C32.8027 52.2062 32.8392 52.085 32.9136 51.9877C32.9628 51.9277 33.018 51.8701 33.105 51.8959Z" fill="#737070"/>
<path d="M41.1955 53.3838C41.1955 53.2404 41.1889 53.097 41.1955 52.9542C41.1997 52.8103 41.2371 52.6692 41.3046 52.542C41.3692 52.4249 41.4727 52.334 41.5971 52.285C41.7215 52.2359 41.8591 52.2317 41.9863 52.2732C42.0398 52.2889 42.086 52.3229 42.1169 52.3693C42.1477 52.4158 42.1612 52.4716 42.1549 52.527C42.1549 52.5702 42.1356 52.6134 42.0732 52.6002C42.0095 52.5833 41.9445 52.5713 41.8788 52.5642C41.685 52.5528 41.5867 52.6242 41.5495 52.8108C41.5305 52.9192 41.521 53.029 41.5213 53.139C41.5177 53.415 41.5213 53.6904 41.5213 53.9664C41.5213 54.0216 41.5164 54.0792 41.4546 54.1032C41.4172 54.1129 41.3777 54.1115 41.341 54.0993C41.3043 54.087 41.2718 54.0644 41.2477 54.0342C41.2104 53.979 41.1911 53.9136 41.1924 53.847C41.1924 53.6922 41.1924 53.538 41.1924 53.3838H41.1955Z" fill="#747373"/>
<path d="M17.8032 53.3784C17.8032 53.235 17.8032 53.0916 17.8032 52.9488C17.8038 52.7932 17.8483 52.641 17.9316 52.5096C17.9963 52.4055 18.0932 52.3255 18.2075 52.2815C18.3219 52.2375 18.4475 52.2321 18.5652 52.266C18.6033 52.2732 18.6392 52.2896 18.6696 52.3138C18.7 52.3379 18.7241 52.3691 18.7398 52.4046C18.7539 52.4284 18.7626 52.4551 18.7651 52.4828C18.7676 52.5104 18.7639 52.5382 18.7542 52.5642C18.72 52.6314 18.6612 52.5948 18.6108 52.5834C18.5787 52.5748 18.546 52.5686 18.513 52.5648C18.276 52.5468 18.1644 52.635 18.138 52.8762C18.1242 53.0076 18.1296 53.1408 18.1284 53.2728C18.1284 53.5128 18.1284 53.7576 18.1224 54C18.1224 54.0858 18.0546 54.1254 17.9562 54.0996C17.9124 54.0905 17.8732 54.0662 17.8455 54.0311C17.8177 53.996 17.8032 53.9523 17.8044 53.9076C17.799 53.7312 17.8044 53.5548 17.8044 53.3784H17.8032Z" fill="#747373"/>
<path d="M31.4533 14.3297C31.4275 12.0269 33.3817 10.2089 35.5633 10.2131C37.6741 10.2173 39.6385 11.9189 39.6337 14.3237C39.6289 16.7063 37.6651 18.4199 35.5429 18.4199C33.3229 18.4199 31.4287 16.5893 31.4533 14.3297Z" fill="#FFFEFE"/>
<path d="M20.4198 44.229C20.0736 44.229 19.7646 44.229 19.4556 44.229C19.29 44.229 19.2714 44.202 19.287 44.0286C19.3122 43.7424 19.347 43.4574 19.4628 43.1886C19.7028 42.633 20.0958 42.2286 20.6928 42.0762C21.188 41.9435 21.7139 41.9859 22.1814 42.1962C22.7052 42.429 22.9092 42.8808 22.9014 43.3962C22.9054 43.5245 22.8693 43.6508 22.7982 43.7576C22.7272 43.8645 22.6246 43.9466 22.5048 43.9926C22.2902 44.0782 22.0649 44.1345 21.8352 44.16C21.3528 44.2308 20.8674 44.2242 20.4198 44.229Z" fill="#FCFCFC"/>
<path d="M43.5414 53.3526C43.5414 52.9926 43.5258 53.0064 43.8816 53.0118C44.0134 53.0124 44.1449 53.0245 44.2746 53.0478C44.4588 53.0832 44.538 53.1828 44.553 53.364C44.571 53.5836 44.4984 53.7198 44.3196 53.7888C44.1309 53.8529 43.9282 53.8634 43.734 53.8194C43.614 53.7972 43.5582 53.7198 43.5438 53.5836C43.5425 53.5617 43.5425 53.5396 43.5438 53.5176C43.5408 53.46 43.5414 53.4078 43.5414 53.3526Z" fill="#F7F8F8"/>
<path d="M43.9122 52.7502C43.5096 52.7406 43.5378 52.7688 43.5378 52.3668C43.5378 52.035 43.5582 52.0146 43.8858 52.0068C44.028 51.995 44.1711 52.0132 44.3058 52.0602C44.451 52.1202 44.5146 52.2276 44.5086 52.401C44.502 52.5648 44.421 52.683 44.2686 52.7148C44.1505 52.7331 44.0315 52.7449 43.9122 52.7502Z" fill="#F7F8F8"/>
<path d="M20.0706 52.8936C20.066 52.7609 20.0863 52.6287 20.1306 52.5036C20.2302 52.1736 20.4768 51.9965 20.8206 51.9995C21.1848 52.0031 21.4278 52.1897 21.519 52.5395C21.591 52.7946 21.591 53.0645 21.519 53.3195C21.4224 53.6507 21.174 53.8433 20.844 53.8451C20.4906 53.8451 20.229 53.6562 20.1348 53.3172C20.0888 53.1808 20.0671 53.0374 20.0706 52.8936Z" fill="#F7F8F8"/>
<path d="M25.0572 53.0562C24.9012 53.0562 24.8238 53.0592 24.747 53.0562C24.633 53.0514 24.5988 52.9962 24.63 52.881C24.7236 52.5348 25.0422 52.452 25.3068 52.5408C25.3651 52.5598 25.4164 52.5958 25.4541 52.6441C25.4919 52.6924 25.5143 52.7509 25.5186 52.812C25.5336 52.9272 25.4862 53.0142 25.3728 53.0316C25.2432 53.0508 25.11 53.0526 25.0572 53.0562Z" fill="#F7F8F8"/>
<path d="M39.5353 53.04C39.5443 52.6434 39.8353 52.4202 40.1899 52.5312C40.2372 52.5457 40.2811 52.5699 40.3185 52.6024C40.3559 52.6348 40.3861 52.6748 40.4071 52.7196C40.4851 52.878 40.4251 53.0148 40.2535 53.0364C40.0153 53.0688 39.7738 53.07 39.5353 53.04Z" fill="#F7F8F8"/>
<path d="M46.1208 53.244C46.1538 53.244 46.1868 53.244 46.2192 53.244C46.329 53.25 46.3584 53.2776 46.3644 53.3766C46.3644 53.4096 46.3644 53.4426 46.3644 53.475C46.3644 53.6262 46.3296 53.7618 46.164 53.8146C45.984 53.871 45.816 53.859 45.6714 53.7306C45.6443 53.7035 45.6236 53.6707 45.6106 53.6346C45.5977 53.5985 45.5929 53.56 45.5965 53.5218C45.6002 53.4836 45.6123 53.4467 45.6318 53.4137C45.6514 53.3808 45.678 53.3525 45.7098 53.331C45.8094 53.2644 45.9042 53.244 46.1208 53.244Z" fill="#F7F8F8"/>
<path d="M15.0145 53.1943C15.0182 53.2992 15.0035 53.4039 14.9713 53.5038C14.9083 53.6838 14.7913 53.8086 14.5969 53.8332C14.5094 53.8478 14.4196 53.8388 14.3367 53.8072C14.2538 53.7755 14.1808 53.7224 14.1253 53.6532C13.9327 53.4204 13.9159 52.9698 14.0881 52.7196C14.2849 52.4322 14.7481 52.4581 14.9209 52.7677C14.9918 52.8981 15.0243 53.0461 15.0145 53.1943Z" fill="#F7F8F8"/>
<path d="M35.3892 53.2038C35.3911 53.3084 35.3743 53.4124 35.3394 53.511C35.1984 53.928 34.7142 53.919 34.4904 53.6454C34.2996 53.4114 34.2876 52.9602 34.464 52.7112C34.6578 52.4376 35.0976 52.4562 35.2788 52.7448C35.3574 52.8846 35.3956 53.0435 35.3892 53.2038Z" fill="#F7F8F8"/>
</g>
<defs>
<clipPath id="clip0_1444_2040">
<rect width="60" height="60" fill="white" transform="translate(0.900024)"/>
</clipPath>
</defs>
</svg>
