<svg width="29" height="22" viewBox="0 0 29 22" fill="none" xmlns="http://www.w3.org/2000/svg">
<g clip-path="url(#clip0_814_23726)">
<path d="M12.708 7.78151C12.3335 6.82921 11.9589 5.89414 11.5975 4.95299C11.1323 3.74135 10.6893 2.52059 10.2121 1.31402C10.042 0.885483 10.1759 0.63424 10.5564 0.464043C10.8776 0.320186 11.1998 0.174303 11.531 0.0577987C12.0425 -0.122529 12.3979 0.155054 12.714 0.511658C13.0825 0.92702 13.4561 1.33833 13.8165 1.75977C14.0007 1.97556 14.18 2.09307 14.4558 1.90565C14.5474 1.84386 14.6965 1.78712 14.7881 1.81853C15.069 1.91477 15.4224 1.98974 15.5764 2.20046C15.67 2.32811 15.4647 2.69585 15.363 2.94406C15.3227 3.04233 15.1999 3.10716 15.072 3.22671C15.2502 3.46579 15.4264 3.70184 15.6086 3.947C16.1594 3.7839 16.7775 3.26216 17.1994 3.95207C17.5488 4.52345 16.9608 4.88005 16.5933 5.22956C16.8772 5.90225 16.8823 5.89819 17.5276 5.62567C19.1355 4.94691 20.7343 4.24688 22.3583 3.60864C23.5675 3.1335 24.82 2.98863 26.1107 3.32092C26.5094 3.42324 26.9454 3.37462 27.3622 3.41514C28.0025 3.47795 28.6046 3.63295 28.8563 4.32894C29.1271 5.08064 28.8613 5.6976 28.2834 6.17476C27.9099 6.48274 27.5001 6.75931 27.0742 6.98725C24.6891 8.26272 22.2697 9.46929 19.6993 10.3304C19.4305 10.4206 19.3087 10.5391 19.3731 10.8369C19.4617 11.2472 19.5221 11.6636 19.5966 12.0942C19.9671 11.9969 20.3004 11.851 20.6367 11.8419C20.8864 11.8358 21.2659 11.9422 21.3575 12.1195C21.4522 12.3029 21.3424 12.6899 21.1914 12.8834C20.9367 13.2076 20.6034 13.4892 20.2541 13.71C19.9802 13.8833 19.8936 14.0433 19.9681 14.3523C20.0426 14.6613 20.0648 14.9835 20.1131 15.3218C20.4897 15.2226 20.836 15.0878 21.1914 15.0524C21.4159 15.0301 21.7673 15.0888 21.8569 15.2367C21.9667 15.4181 21.9566 15.801 21.8307 15.9722C21.5398 16.3704 21.1904 16.7564 20.7847 17.0269C20.4726 17.2355 20.397 17.4047 20.4655 17.7502C20.6095 18.4776 20.7464 19.209 20.8249 19.9455C20.9226 20.8654 20.5813 21.3071 19.6933 21.5715C19.4204 21.6526 19.1607 21.7741 18.8939 21.8734C18.2696 22.1054 18.0753 22.0537 17.8377 21.4459C16.8631 18.9507 15.9107 16.4474 14.9532 13.9451C14.7438 13.398 14.5485 12.8459 14.339 12.2765C13.9192 12.4457 13.5477 12.5946 13.1762 12.7446C10.346 13.8863 7.51787 15.0321 4.68369 16.1657C4.20243 16.3582 3.70708 16.5294 3.20266 16.6439C3.02748 16.6834 2.70832 16.5801 2.62375 16.4393C1.79715 15.0706 0.973577 13.6979 0.219473 12.2877C-0.167144 11.5633 -0.0574012 11.3982 0.687642 10.916C1.42564 10.4368 1.75285 10.4651 2.28344 10.998C2.68516 11.4022 3.10299 11.7943 3.54498 12.1519C3.66177 12.2472 3.9326 12.2705 4.07054 12.2016C6.85941 10.7974 9.63923 9.37508 12.4201 7.95575C12.5056 7.90915 12.5872 7.85343 12.708 7.78151ZM14.1467 11.6261C13.892 11.1763 14.1729 10.919 14.5112 10.6911C14.6501 10.5979 14.7931 10.4996 14.9472 10.4418C15.9993 10.0478 17.0474 9.63949 18.1126 9.28491C18.8828 9.0286 18.8929 9.06102 19.3298 9.82894C20.9387 9.14815 22.5808 8.50991 24.1716 7.76023C25.4432 7.16049 26.6604 6.44019 27.8837 5.74117C28.221 5.54868 28.4767 5.22652 28.3771 4.77165C28.2874 4.36439 27.9713 4.18508 27.6109 4.14152C27.194 4.09086 26.7571 3.83658 26.3624 4.29145C25.7724 4.97021 24.9891 5.36531 24.1394 5.60845C23.9894 5.651 23.791 5.52538 23.6148 5.47777C23.7004 5.31061 23.7447 5.08874 23.8796 4.98845C24.1323 4.80103 24.4374 4.68554 24.7213 4.54067C25.0405 4.37756 25.3606 4.21446 25.6808 4.05135C25.6697 4.00576 25.6597 3.96119 25.6486 3.9156C25.4261 3.88622 25.2046 3.83658 24.9821 3.83151C23.8514 3.81024 22.7943 4.13544 21.7683 4.57005C19.7748 5.41496 17.7672 6.23048 15.805 7.14225C11.9388 8.93844 8.09377 10.7822 4.25277 12.6331C3.70003 12.8996 3.24596 12.8408 2.81202 12.4913C2.40829 12.1661 2.05892 11.771 1.6572 11.4418C1.54041 11.3465 1.31086 11.3192 1.15782 11.3587C0.961495 11.4093 0.78933 11.5583 0.545681 11.7011C1.40651 13.1954 2.23612 14.635 3.05466 16.0553C6.77383 14.5691 10.4457 13.1032 14.1467 11.6261ZM18.4509 21.3233C18.9694 21.1633 19.3842 21.0326 19.8 20.9059C20.2017 20.7833 20.3507 20.5382 20.2752 20.1046C20.095 19.0753 19.953 18.0399 19.7839 17.0086C19.3892 14.6026 18.9885 12.1965 18.5828 9.74992C18.4187 9.78639 18.2555 9.80665 18.1015 9.85933C17.0866 10.2048 16.0698 10.5452 15.0619 10.9099C14.4125 11.1449 14.3954 11.2746 14.6693 11.9159C15.4093 13.6482 16.1463 15.3836 16.851 17.1312C17.4038 18.5019 17.9072 19.8939 18.4509 21.3233ZM10.6601 1.03238C11.5562 3.20746 12.4321 5.3329 13.3222 7.49582C14.337 7.03385 15.3469 6.57392 16.3799 6.10385C15.0126 4.34109 13.6876 2.60974 12.3224 0.909797C12.1784 0.730482 11.7918 0.659567 11.531 0.684894C11.235 0.714273 10.9541 0.907771 10.6601 1.03238ZM20.3527 16.5304C20.7736 16.3055 21.2538 16.1931 21.432 15.5569C20.977 15.6237 20.5964 15.6795 20.1997 15.7372C20.2339 15.9773 20.2571 16.1586 20.2863 16.339C20.2943 16.3866 20.3185 16.4312 20.3527 16.5304ZM20.7827 12.5835C19.8 12.4974 19.6711 12.6119 19.8604 13.3393C20.1886 13.0708 20.4856 12.8266 20.7827 12.5835ZM16.2409 4.87701C16.4705 4.63488 16.6406 4.45557 16.8108 4.27626C16.7755 4.2256 16.7403 4.17596 16.7051 4.12531C16.4443 4.1871 16.1825 4.2489 15.8613 4.32488C15.9932 4.51838 16.0838 4.64907 16.2409 4.87701Z" fill="#5CC758"/>
<path d="M21.0816 6.19092C21.2719 6.41683 21.3665 6.5303 21.4622 6.64376C21.2377 6.81193 21.0222 6.9953 20.7806 7.13105C20.7453 7.15132 20.4866 6.87272 20.4977 6.85752C20.6557 6.64376 20.843 6.45229 21.0816 6.19092Z" fill="#5CC758"/>
<path d="M19.8796 7.53223C19.5041 7.70749 19.2755 7.84122 19.0299 7.90909C18.9695 7.92632 18.8507 7.72978 18.759 7.63151C18.9775 7.4836 19.1869 7.31543 19.4225 7.20399C19.4779 7.17765 19.6219 7.34177 19.8796 7.53223Z" fill="#5CC758"/>
<path d="M22.0745 6.0582C22.3674 5.87281 22.5396 5.73908 22.7329 5.65905C22.7762 5.64081 22.895 5.80797 22.9796 5.89003C22.8346 6.03693 22.7057 6.21016 22.5356 6.31552C22.4822 6.34794 22.3171 6.19902 22.0745 6.0582Z" fill="#5CC758"/>
</g>
<defs>
<clipPath id="clip0_814_23726">
<rect width="28.962" height="22" fill="white"/>
</clipPath>
</defs>
</svg>
