<svg width="32" height="32" viewBox="0 0 32 32" fill="none" xmlns="http://www.w3.org/2000/svg">
<rect x="10.4006" y="2.39604" width="1.83949" height="19.2336" fill="#CBFCC9" stroke="#131B20" stroke-width="0.8" stroke-linecap="round"/>
<rect x="17.6733" y="2.39604" width="1.83949" height="19.2336" fill="white" stroke="#131B20" stroke-width="0.8" stroke-linecap="round"/>
<rect x="11.8552" y="2.39604" width="1.83949" height="19.2336" fill="white" stroke="#131B20" stroke-width="0.8" stroke-linecap="round"/>
<rect x="19.1279" y="2.39604" width="1.83949" height="19.2336" fill="white" stroke="#131B20" stroke-width="0.8" stroke-linecap="round"/>
<path d="M10.4006 2.39604C10.4006 1.38012 11.2242 0.556553 12.2401 0.556553L19.1279 0.556553C20.1438 0.556553 20.9674 1.38012 20.9674 2.39604L10.4006 2.39604Z" fill="#CBFCC9" stroke="#131B20" stroke-width="0.8" stroke-linecap="round"/>
<path d="M11.8552 2.39604C11.8552 1.38012 12.6788 0.556553 13.6947 0.556553L19.128 0.556553C20.1439 0.556553 20.9674 1.38012 20.9674 2.39604L11.8552 2.39604Z" fill="#5CC758" stroke="#131B20" stroke-width="0.8" stroke-linecap="round"/>
<rect x="6.59521" y="11.2975" width="16.5356" height="18.9091" rx="2" fill="#CBFCC9" stroke="#131B20" stroke-width="0.8" stroke-linecap="round"/>
<rect x="9.94751" y="11.2975" width="16.5356" height="18.9091" rx="2" fill="white" stroke="#131B20" stroke-width="0.8" stroke-linecap="round"/>
<circle cx="24.061" cy="31.0696" r="0.930398" fill="#131B20"/>
<circle cx="12.9673" cy="31.0696" r="0.930398" fill="#131B20"/>
<circle cx="9.47019" cy="31.0696" r="0.930398" fill="#131B20"/>
</svg>
