<svg width="108" height="100" viewBox="0 0 108 100" fill="none" xmlns="http://www.w3.org/2000/svg">
<path fill-rule="evenodd" clip-rule="evenodd" d="M85.7416 84.0182C86.9919 84.0182 88.1228 83.2462 88.4936 82.0522C89.5491 78.6542 90.1177 75.0418 90.1177 71.2966C90.1177 51.2969 73.9047 35.084 53.905 35.084C33.9053 35.084 17.6924 51.2969 17.6924 71.2966C17.6924 75.0418 18.2609 78.6542 19.3164 82.0522C19.6873 83.2462 20.8182 84.0182 22.0685 84.0182H85.7416Z" fill="#CBFCC9"/>
<g clip-path="url(#clip0_1590_3725)">
<path d="M76.1191 64.5955L83.6662 65.4038L85.0411 55.2088L39.4043 28.8603L31.4109 32.9054L34.1791 39.4857L34.669 39.5176C40.0747 39.8704 44.9912 42.7712 47.9138 47.3324L48.8854 48.8488C53.4917 48.7744 57.8631 50.9036 60.644 54.5879L62.0775 56.4871L62.6714 56.526C67.778 56.8607 72.4641 59.4716 75.436 63.6378L76.1191 64.5955Z" fill="#131B20" stroke="#131B20" stroke-width="0.8"/>
<path d="M76.1191 64.5955L83.6662 65.4038L85.0411 55.2088L39.4043 28.8603L31.4109 32.9054L34.1791 39.4857L34.669 39.5176C40.0747 39.8704 44.9912 42.7712 47.9138 47.3324L48.8854 48.8488C53.4917 48.7744 57.8631 50.9036 60.644 54.5879L62.0775 56.4871L62.6714 56.526C67.778 56.8607 72.4641 59.4716 75.436 63.6378L76.1191 64.5955Z" fill="#CBFCC9" stroke="#131B20" stroke-width="0.8"/>
<path d="M37.6178 83.7988L56.3281 51.1651L55.1145 50.4645L35.869 83.7988L37.6178 83.7988Z" fill="#CBFCC9" stroke="#131B20" stroke-width="0.8"/>
<path d="M52.4726 54.6011L54.7715 54.3619L56.8733 51.0186L55.1241 50.0086L52.4726 54.6011Z" fill="#131B20"/>
<path d="M46.0849 23.98C38.4071 25.7561 31.9326 30.3737 27.9971 36.848L30.5232 37.1076C34.1769 37.4831 37.4968 39.3999 39.6489 42.3763L41.3981 44.7957L44.3679 45.1009C48.0216 45.4763 51.3415 47.3931 53.4935 50.3696L55.2427 52.7889L58.2125 53.0941C61.8662 53.4696 65.1861 55.3863 67.3382 58.3628L69.0874 60.7821L72.0572 61.0873C75.7109 61.4628 79.0308 63.3795 81.1828 66.356L82.6707 68.4139C86.3098 61.7685 87.0716 53.8526 84.7708 46.3153C82.4069 38.5712 77.0034 31.8626 69.7442 27.6715C62.485 23.4804 53.9735 22.1551 46.0849 23.98Z" fill="white" stroke="#131B20" stroke-width="0.8"/>
<path d="M77.4674 62.8198C82.1572 49.4344 79.4947 40.2366 69.7846 27.6022M69.7846 27.6022C70.8177 39.0283 68.1682 43.7589 63.133 54.4495M69.7846 27.6022C62.685 28.9265 59.0181 33.822 49.4412 46.6211M69.7846 27.6022C54.0238 22.0904 47.1504 25.5023 35.4187 38.527" stroke="#131B20" stroke-width="0.8"/>
<path d="M70.525 26.7986C70.6205 26.6331 70.5638 26.4215 70.3983 26.3259C70.2328 26.2304 70.0212 26.2871 69.9256 26.4526L69.476 27.2314C69.6009 27.3789 69.6982 27.4604 69.7867 27.5103C69.8609 27.5522 69.945 27.5808 70.0643 27.5966L70.525 26.7986Z" fill="#CBFCC9" stroke="#131B20" stroke-width="0.8"/>
<path d="M86.056 84.0181H21.7544" stroke="#131B20" stroke-width="0.8"/>
</g>
<defs>
<clipPath id="clip0_1590_3725">
<rect width="79" height="70" fill="white" transform="translate(14.4053 15)"/>
</clipPath>
</defs>
</svg>
