<svg width="80" height="70" viewBox="0 0 80 70" fill="none" xmlns="http://www.w3.org/2000/svg">
<g clip-path="url(#clip0_1114_5564)">
<path d="M62.0639 49.6901L69.7524 50.5136L71.1493 40.1557L25.4075 13.7466L17.2827 17.8583L20.1109 24.5814L20.6625 24.6174C26.0366 24.9681 30.9242 27.8519 33.8297 32.3864L34.8314 33.9498C39.4263 33.8578 43.7914 35.9745 46.5643 39.6481L48.0254 41.5839L48.6649 41.6258C53.7415 41.9585 58.4002 44.5541 61.3546 48.6959L62.0639 49.6901Z" fill="#131B20" stroke="#131B20" stroke-width="0.6"/>
<path d="M62.0639 49.6901L69.7524 50.5136L71.1493 40.1557L25.4075 13.7466L17.2827 17.8583L20.1109 24.5814L20.6625 24.6174C26.0366 24.9681 30.9242 27.8519 33.8297 32.3864L34.8314 33.9498C39.4263 33.8578 43.7914 35.9745 46.5643 39.6481L48.0254 41.5839L48.6649 41.6258C53.7415 41.9585 58.4002 44.5541 61.3546 48.6959L62.0639 49.6901Z" fill="#CBFCC9" stroke="#131B20" stroke-width="0.6"/>
<path d="M23.6756 68.8988L42.4644 36.1284L41.0779 35.3279L21.6957 68.8988L23.6756 68.8988Z" fill="#CBFCC9" stroke="#131B20" stroke-width="0.6"/>
<path d="M38.4727 39.6011L40.7716 39.3619L42.8734 36.0186L41.1241 35.0086L38.4727 39.6011Z" fill="#131B20"/>
<path d="M32.0625 8.88258C24.3061 10.6769 17.7718 15.3622 13.83 21.9314L16.5131 22.2071C20.1385 22.5797 23.4326 24.4815 25.568 27.4349L27.3434 29.8905L30.3578 30.2003C33.9831 30.5729 37.2773 32.4748 39.4126 35.4282L41.1881 37.8838L44.2024 38.1936C47.8278 38.5661 51.1219 40.468 53.2573 43.4214L55.0327 45.877L58.0471 46.1868C61.6724 46.5594 64.9666 48.4612 67.1019 51.4146L68.6822 53.6004C72.4004 46.9021 73.1909 38.9006 70.8666 31.2861C68.495 23.5169 63.0747 16.7882 55.7944 12.5849C48.514 8.38158 39.9767 7.0518 32.0625 8.88258Z" fill="white" stroke="#131B20" stroke-width="0.6"/>
<path d="M63.4677 47.8198C68.1575 34.4344 65.495 25.2366 55.7849 12.6022M55.7849 12.6022C56.818 24.0283 54.1685 28.7589 49.1332 39.4495M55.7849 12.6022C48.6852 13.9265 45.0183 18.822 35.4414 31.6211M55.7849 12.6022C40.0241 7.09041 33.1506 10.5023 21.419 23.527" stroke="#131B20" stroke-width="0.6"/>
<path d="M56.6117 11.8486C56.7349 11.6353 56.6618 11.3625 56.4484 11.2393C56.2351 11.1162 55.9623 11.1893 55.8391 11.4026L55.3548 12.2415C55.5055 12.4284 55.6244 12.5335 55.7377 12.5974C55.8401 12.6551 55.9549 12.6888 56.1184 12.703L56.6117 11.8486Z" fill="#CBFCC9" stroke="#131B20" stroke-width="0.6"/>
<path d="M72.0561 69.0181H7.75446" stroke="#131B20" stroke-width="0.6"/>
</g>
<defs>
<clipPath id="clip0_1114_5564">
<rect width="79" height="70" fill="white" transform="translate(0.405273)"/>
</clipPath>
</defs>
</svg>
