<svg width="86" height="99" viewBox="0 0 86 99" fill="none" xmlns="http://www.w3.org/2000/svg">
<path fill-rule="evenodd" clip-rule="evenodd" d="M85.978 6.88754C85.978 3.23516 82.9834 0.274414 79.2893 0.274414H6.71111C3.01675 0.274414 0.0219727 3.23516 0.0219727 6.88754V56.2351C0.0219727 79.7016 19.2641 98.7249 43.0002 98.7249C66.7365 98.7249 85.978 79.7016 85.978 56.2351V6.88754ZM48.5626 48.0763L50.4208 46.8533C54.0383 44.4725 56.4119 40.4133 56.4119 35.8072C56.4119 28.4849 50.4076 22.549 43.0012 22.549C35.5948 22.549 29.5906 28.4849 29.5906 35.8072C29.5906 40.4133 31.9641 44.4725 35.5815 46.8533L37.4398 48.0763L30.6201 67.045H55.3823L48.5626 48.0763Z" fill="#5CC758"/>
<path fill-rule="evenodd" clip-rule="evenodd" d="M85.978 6.88754C85.978 3.23516 82.9834 0.274414 79.2893 0.274414H6.71111C3.01675 0.274414 0.0219727 3.23516 0.0219727 6.88754V56.2351C0.0219727 79.7016 19.2641 98.7249 43.0002 98.7249C66.7365 98.7249 85.978 79.7016 85.978 56.2351V6.88754ZM48.5626 48.0763L50.4208 46.8533C54.0383 44.4725 56.4119 40.4133 56.4119 35.8072C56.4119 28.4849 50.4076 22.549 43.0012 22.549C35.5948 22.549 29.5906 28.4849 29.5906 35.8072C29.5906 40.4133 31.9641 44.4725 35.5815 46.8533L37.4398 48.0763L30.6201 67.045H55.3823L48.5626 48.0763Z" fill="url(#paint0_linear_467_2679)"/>
<defs>
<linearGradient id="paint0_linear_467_2679" x1="61.333" y1="116.483" x2="-11.9276" y2="-13.0204" gradientUnits="userSpaceOnUse">
<stop stop-color="#C8FFC6"/>
<stop offset="0.686198" stop-color="#FCE61A" stop-opacity="0"/>
</linearGradient>
</defs>
</svg>
