<svg width="56" height="56" viewBox="0 0 56 56" fill="none" xmlns="http://www.w3.org/2000/svg">
<g filter="url(#filter0_d_476_14854)">
<rect x="2" y="1" width="52" height="52" rx="26" fill="#5CC758"/>
<path d="M29.6665 26.6666C29.6665 26.1999 29.6665 25.9665 29.7573 25.7883C29.8372 25.6315 29.9647 25.504 30.1215 25.4241C30.2998 25.3333 30.5331 25.3333 30.9998 25.3333H34.9998C35.4665 25.3333 35.6999 25.3333 35.8782 25.4241C36.035 25.504 36.1624 25.6315 36.2423 25.7883C36.3332 25.9665 36.3332 26.1999 36.3332 26.6666V27.3333C36.3332 27.8 36.3332 28.0333 36.2423 28.2116C36.1624 28.3684 36.035 28.4959 35.8782 28.5758C35.6999 28.6666 35.4665 28.6666 34.9998 28.6666H30.9998C30.5331 28.6666 30.2998 28.6666 30.1215 28.5758C29.9647 28.4959 29.8372 28.3684 29.7573 28.2116C29.6665 28.0333 29.6665 27.8 29.6665 27.3333V26.6666Z" fill="white"/>
<path d="M31.9998 20.3333H22.3332C21.3997 20.3333 20.933 20.3333 20.5765 20.5149C20.2629 20.6747 20.0079 20.9297 19.8482 21.2433C19.6665 21.5998 19.6665 22.0665 19.6665 22.9999V30.9999C19.6665 31.9333 19.6665 32.4001 19.8482 32.7566C20.0079 33.0702 20.2629 33.3251 20.5765 33.4849C20.933 33.6666 21.3997 33.6666 22.3332 33.6666H31.9998C32.9333 33.6666 33.4 33.6666 33.7565 33.4849C34.0701 33.3251 34.3251 33.0702 34.4848 32.7566C34.6665 32.4001 34.6665 31.9333 34.6665 30.9999V30.3332L30.9613 30.3333C30.7628 30.3333 30.5257 30.3334 30.3168 30.3164C30.0748 30.2966 29.7281 30.2458 29.3649 30.0608C28.8945 29.8211 28.512 29.4386 28.2723 28.9682C28.0873 28.605 28.0365 28.2583 28.0167 28.0163C27.9997 27.8074 27.9998 27.5703 27.9998 27.3718V26.628C27.9998 26.4295 27.9997 26.1924 28.0167 25.9835C28.0365 25.7415 28.0873 25.3948 28.2723 25.0316C28.512 24.5612 28.8945 24.1787 29.3649 23.9391C29.7281 23.754 30.0748 23.7032 30.3168 23.6835C30.5257 23.6664 30.7628 23.6665 30.9613 23.6666L34.6665 23.6666V22.9999C34.6665 22.0665 34.6665 21.5998 34.4848 21.2433C34.3251 20.9297 34.0701 20.6747 33.7565 20.5149C33.4 20.3333 32.9333 20.3333 31.9998 20.3333Z" fill="white"/>
</g>
<defs>
<filter id="filter0_d_476_14854" x="0" y="0" width="56" height="56" filterUnits="userSpaceOnUse" color-interpolation-filters="sRGB">
<feFlood flood-opacity="0" result="BackgroundImageFix"/>
<feColorMatrix in="SourceAlpha" type="matrix" values="0 0 0 0 0 0 0 0 0 0 0 0 0 0 0 0 0 0 127 0" result="hardAlpha"/>
<feOffset dy="1"/>
<feGaussianBlur stdDeviation="1"/>
<feComposite in2="hardAlpha" operator="out"/>
<feColorMatrix type="matrix" values="0 0 0 0 0.0627451 0 0 0 0 0.0941176 0 0 0 0 0.156863 0 0 0 0.04 0"/>
<feBlend mode="normal" in2="BackgroundImageFix" result="effect1_dropShadow_476_14854"/>
<feBlend mode="normal" in="SourceGraphic" in2="effect1_dropShadow_476_14854" result="shape"/>
</filter>
</defs>
</svg>
