<svg width="189" height="253" viewBox="0 0 189 253" fill="none" xmlns="http://www.w3.org/2000/svg">
<path d="M-0.0505248 39.6398C-1.83248 43.0524 -3.11264 46.8037 -4.00659 50.5475C-12.5009 86.1273 36.1731 59.8104 46.7793 77.5983C55.9379 92.9588 36.1747 120.302 50.0793 141.873C63.5506 162.773 87.8267 148.727 104.19 159.459C116.255 167.372 112.503 178.548 115.331 190.365C117.118 197.836 120.923 202.733 124.245 209.421" stroke="#5CC758" stroke-width="2" stroke-miterlimit="1.5" stroke-linecap="round" stroke-linejoin="round"/>
<path d="M127.922 195.656C126.132 198.964 125.733 203.024 125.546 206.69C125.436 208.859 125.288 211.097 125.782 213.229C121.58 208.574 117.219 205.081 111.178 203.135" stroke="#5CC758" stroke-width="2" stroke-miterlimit="1.5" stroke-linecap="round" stroke-linejoin="round"/>
</svg>
