<svg width="91" height="90" viewBox="0 0 91 90" fill="none" xmlns="http://www.w3.org/2000/svg">
<path d="M45.3757 22.6932H46.1349L42.3389 30.9892L41.9524 30.1334L45.3757 22.6932ZM38.253 45.7868L37.8527 44.9033L42.3389 35.1165L42.753 36.0138L38.253 45.7868ZM26.2438 20.8297H26.2024C26.0782 20.8297 25.9678 20.8711 25.8711 20.9263C25.4156 21.1472 25.2362 21.6441 25.4432 22.0582L34.7607 42.3635C34.9125 42.6671 35.2162 42.8604 35.5613 42.8604C35.865 42.8604 36.1687 42.6533 36.3205 42.3496L40.9862 32.2039L41.3727 33.0598L36.1135 44.5168C35.9754 44.7515 35.9754 45.0552 36.1135 45.3036L37.4386 48.23C37.5905 48.5199 37.8803 48.6855 38.2392 48.6855C38.5705 48.6855 38.8604 48.5061 38.9984 48.2162L43.6641 38.0705L44.0644 38.9263L38.8742 50.273C38.7638 50.48 38.75 50.7147 38.819 50.9217C38.888 51.1288 39.0398 51.3082 39.2607 51.4049C39.4263 51.4877 39.5368 51.4877 39.6334 51.4877C39.9785 51.4877 40.2684 51.2944 40.3926 50.9769L44.9892 40.9555L45.5828 42.2392C45.7346 42.5429 46.0383 42.7362 46.3834 42.7362C46.6871 42.7362 46.9908 42.5291 47.1426 42.2254L56.1978 22.5828H56.957L46.9494 44.4064C46.8113 44.6411 46.8113 44.9447 46.9494 45.1932L48.2745 48.1196C48.4263 48.4095 48.7162 48.5751 49.0751 48.5751C49.4064 48.5751 49.6963 48.3957 49.8343 48.1058L61.5813 22.5966H62.3405L49.6273 50.3006C49.4064 50.7423 49.5721 51.2254 50.0138 51.4463C50.1794 51.5291 50.2898 51.5291 50.3865 51.5291C50.7316 51.5291 51.0214 51.3358 51.1457 51.0184L64.4386 22.0997L64.4524 22.0582C64.5214 21.8374 64.5214 21.5061 64.3696 21.2714C64.2178 21.0368 63.9279 20.8987 63.638 20.8987H60.9877C60.684 20.8987 60.3803 21.1058 60.2285 21.4095L49.0889 45.6625L48.6886 44.7791L59.0828 22.072C59.2484 21.796 59.1656 21.4371 59.0276 21.2162C58.8619 20.9677 58.6135 20.8435 58.3374 20.8435H55.6871C55.342 20.8435 55.0383 21.0368 54.8865 21.3543L46.411 39.796L45.9831 38.8573L53.6579 22.1549L53.6717 22.1135C53.7408 21.8926 53.7546 21.5613 53.5889 21.3266C53.4371 21.092 53.1472 20.8297 52.8573 20.8297H50.207C49.9033 20.8297 49.5997 21.1472 49.434 21.4647L43.7193 33.9156L43.3052 33.0184L48.2607 22.1825C48.4263 21.9064 48.3435 21.5475 48.2055 21.3266C48.0398 21.0782 47.7914 20.8297 47.5153 20.8297H44.865C44.5199 20.8297 44.2162 21.1472 44.0644 21.4647L41.0414 28.0628L37.9493 21.3404C37.7975 21.0368 37.48 20.8297 37.1625 20.8297C37.0383 20.8297 36.9003 20.8573 36.8036 20.9263C36.3481 21.1472 36.1687 21.6303 36.3757 22.0582L40.0751 30.1472L35.5613 39.9202L27.003 21.3404C26.865 21.0368 26.5613 20.8435 26.2438 20.8297ZM45.0306 36.842L44.6441 35.9862L50.7592 22.6932H51.5184L45.0306 36.842ZM13.0337 64.8082L11.1564 59.9908H9.36193L7.40181 64.7944L5.57972 60.0184L5.56592 59.9908H3.57819L6.67021 68.3006H6.68401H8.06438L10.2178 63.0138L12.3573 68.3006H12.3711H13.7653L16.8987 59.9908H14.98L13.0337 64.8082ZM19.5905 64.822H23.4141V63.1794H19.5767V61.661H25.1533V59.9908H17.6579V68.3006H25.2914V66.6303H19.5767V64.822H19.5905ZM31.2546 64.4908L28.7285 59.9355L28.7147 59.9217H26.4923V68.3144H28.273V63.276L31.1027 68.3144L34.1119 63.2346V68.3144H36.0306V59.9217H33.9325L31.2546 64.4908ZM42.049 59.9908H40.4478L36.5966 68.3006H38.4187L39.4263 66.2714H42.9325L43.9402 68.3006H45.9969L42.1043 60.1012L42.049 59.9908ZM40.0475 64.822L41.1932 62.5858L42.3113 64.822H40.0475ZM56.4877 63.8696C57.1365 63.4969 57.454 62.9309 57.454 62.2131C57.454 61.4539 57.2055 60.8742 56.7086 60.4739C56.4601 60.2668 56.1702 60.1288 55.8389 60.046C55.5214 59.9631 55.0935 59.9217 54.569 59.9217H49.4754V68.2315H54.638C55.1625 68.2315 55.5905 68.1901 55.9494 68.0935C56.3082 67.9969 56.6257 67.8312 56.9018 67.6104C57.4401 67.1687 57.7162 66.5475 57.7162 65.7745C57.7162 64.8911 57.3021 64.2561 56.4877 63.8696ZM51.3941 61.592H54.3481C54.7898 61.592 55.1073 61.6472 55.2868 61.7714C55.4524 61.8819 55.5214 62.0613 55.5214 62.3374C55.5214 62.5997 55.4386 62.7929 55.273 62.9033C55.1073 63.0138 54.7898 63.069 54.3481 63.069H51.3941V61.592ZM55.3972 66.3543C55.1763 66.4923 54.7898 66.5613 54.2515 66.5613H51.3941V64.7668H54.2515C54.7898 64.7668 55.1625 64.8358 55.3972 64.9601C55.6457 65.0981 55.7561 65.3328 55.7561 65.6641C55.7561 65.9816 55.6457 66.2162 55.3972 66.3543ZM63.5138 59.9217H61.9125L58.0613 68.2315H59.8834L60.8911 66.2024H64.3972L65.4049 68.2315H67.4616L63.569 60.0322L63.5138 59.9217ZM61.5122 64.753L62.6579 62.5168L63.776 64.753H61.5122ZM74.9432 64.9739L69.9877 59.9217L69.9739 59.9079H68.3174V68.2178H70.0981V63.0414L75.2055 68.2178H76.7239V59.9079H74.9432V64.9739ZM86.4003 59.9217H83.7776L79.8159 63.1104V59.9217H77.8972V68.2315H79.8159V65.4018L80.9064 64.5874L83.888 68.2178L83.9018 68.2315H86.276L82.3282 63.345L86.4003 59.9217Z" fill="#8B2D71"/>
</svg>
