<svg width="40" height="40" viewBox="0 0 40 40" fill="none" xmlns="http://www.w3.org/2000/svg">
<rect width="40" height="40" rx="8" fill="#CBFCC9"/>
<path fill-rule="evenodd" clip-rule="evenodd" d="M30.2108 11.1223C30.2108 10.5141 29.848 10.1256 29.3526 9.76529C29.0722 9.56136 27.5075 8.47095 27.308 8.47095L13.3843 9.6452C12.6001 9.6452 11.9644 10.3065 11.9644 11.1223L11.9644 22.145C11.9644 24.9645 12.1095 27.1754 13.986 28.9137C15.598 30.407 18.7593 31.6358 21.0876 31.6358C26.1262 31.6358 30.2108 27.3866 30.2108 22.145V11.1223ZM22.2683 20.3226L22.6628 20.0494C23.4307 19.5176 23.9346 18.6109 23.9346 17.5821C23.9346 15.9465 22.66 14.6206 21.0878 14.6206C19.5156 14.6206 18.2411 15.9465 18.2411 17.5821C18.2411 18.6109 18.7449 19.5176 19.5128 20.0494L19.9073 20.3226L18.4596 24.5596H23.716L22.2683 20.3226Z" fill="#CBFCC9" stroke="#131B20"/>
<path fill-rule="evenodd" clip-rule="evenodd" d="M28.2412 9.84128C28.2412 9.02547 27.5982 8.36414 26.8051 8.36414L11.2234 8.36414C10.4303 8.36414 9.78735 9.02547 9.78735 9.84128L9.78735 20.8639C9.78735 26.1056 13.9184 30.3548 19.0143 30.3548C24.1102 30.3548 28.2412 26.1056 28.2412 20.8639V9.84128ZM20.2084 19.0415L20.6074 18.7683C21.384 18.2365 21.8936 17.3298 21.8936 16.301C21.8936 14.6654 20.6045 13.3396 19.0145 13.3396C17.4244 13.3396 16.1354 14.6654 16.1354 16.301C16.1354 17.3298 16.645 18.2365 17.4216 18.7683L17.8205 19.0415L16.3564 23.2785H21.6725L20.2084 19.0415Z" fill="white" stroke="#131B20"/>
<path d="M17.7175 19.0927L19.791 20.3737" stroke="black"/>
<path d="M19.778 20.4348L18.7888 23.3354L16.2143 23.3857L17.6674 19.0629L19.778 20.4348Z" fill="#131B20"/>
</svg>
