<svg width="30" height="34" viewBox="0 0 30 34" fill="none" xmlns="http://www.w3.org/2000/svg">
<path fill-rule="evenodd" clip-rule="evenodd" d="M28.9116 3.14951C28.9116 1.96235 27.9392 1 26.7396 1H3.17209C1.97246 1 1 1.96235 1 3.14951V19.1893C1 26.8167 7.24828 33 14.9559 33C22.6635 33 28.9116 26.8167 28.9116 19.1893V3.14951ZM16.7621 16.5373L17.3655 16.1398C18.5401 15.366 19.3109 14.0466 19.3109 12.5495C19.3109 10.1694 17.3612 8.24007 14.9562 8.24007C12.5512 8.24007 10.6015 10.1694 10.6015 12.5495C10.6015 14.0466 11.3722 15.366 12.5468 16.1398L13.1503 16.5373L10.9358 22.7029H18.9766L16.7621 16.5373Z" stroke="#5CC758" stroke-width="2"/>
</svg>
